%TF.GenerationSoftware,KiCad,Pcbnew,6.0.5-a6ca702e91~116~ubuntu20.04.1*%
%TF.CreationDate,2022-06-28T21:19:43+02:00*%
%TF.ProjectId,MCH-light,4d43482d-6c69-4676-9874-2e6b69636164,rev?*%
%TF.SameCoordinates,Original*%
%TF.FileFunction,Legend,Bot*%
%TF.FilePolarity,Positive*%
%FSLAX46Y46*%
G04 Gerber Fmt 4.6, Leading zero omitted, Abs format (unit mm)*
G04 Created by KiCad (PCBNEW 6.0.5-a6ca702e91~116~ubuntu20.04.1) date 2022-06-28 21:19:43*
%MOMM*%
%LPD*%
G01*
G04 APERTURE LIST*
%ADD10C,0.200000*%
%ADD11C,0.300000*%
%ADD12C,0.150000*%
%ADD13C,0.120000*%
%ADD14C,0.010000*%
G04 APERTURE END LIST*
D10*
X114336000Y-17395017D02*
X145336000Y-17395017D01*
X145336000Y-17395017D02*
X145336000Y-199295017D01*
X145336000Y-199295017D02*
X114336000Y-199295017D01*
X114336000Y-199295017D02*
X114336000Y-17395017D01*
D11*
X120357142Y-172521428D02*
X119857142Y-173235714D01*
X119500000Y-172521428D02*
X119500000Y-174021428D01*
X120071428Y-174021428D01*
X120214285Y-173950000D01*
X120285714Y-173878571D01*
X120357142Y-173735714D01*
X120357142Y-173521428D01*
X120285714Y-173378571D01*
X120214285Y-173307142D01*
X120071428Y-173235714D01*
X119500000Y-173235714D01*
X120857142Y-172521428D02*
X121642857Y-173521428D01*
X120857142Y-173521428D02*
X121642857Y-172521428D01*
D10*
X140752380Y-140128571D02*
X139752380Y-140128571D01*
X140752380Y-140557142D02*
X140228571Y-140557142D01*
X140133333Y-140509523D01*
X140085714Y-140414285D01*
X140085714Y-140271428D01*
X140133333Y-140176190D01*
X140180952Y-140128571D01*
X140085714Y-140890476D02*
X140085714Y-141271428D01*
X139752380Y-141033333D02*
X140609523Y-141033333D01*
X140704761Y-141080952D01*
X140752380Y-141176190D01*
X140752380Y-141271428D01*
X140085714Y-141461904D02*
X140085714Y-141842857D01*
X139752380Y-141604761D02*
X140609523Y-141604761D01*
X140704761Y-141652380D01*
X140752380Y-141747619D01*
X140752380Y-141842857D01*
X140085714Y-142176190D02*
X141085714Y-142176190D01*
X140133333Y-142176190D02*
X140085714Y-142271428D01*
X140085714Y-142461904D01*
X140133333Y-142557142D01*
X140180952Y-142604761D01*
X140276190Y-142652380D01*
X140561904Y-142652380D01*
X140657142Y-142604761D01*
X140704761Y-142557142D01*
X140752380Y-142461904D01*
X140752380Y-142271428D01*
X140704761Y-142176190D01*
X140704761Y-143033333D02*
X140752380Y-143128571D01*
X140752380Y-143319047D01*
X140704761Y-143414285D01*
X140609523Y-143461904D01*
X140561904Y-143461904D01*
X140466666Y-143414285D01*
X140419047Y-143319047D01*
X140419047Y-143176190D01*
X140371428Y-143080952D01*
X140276190Y-143033333D01*
X140228571Y-143033333D01*
X140133333Y-143080952D01*
X140085714Y-143176190D01*
X140085714Y-143319047D01*
X140133333Y-143414285D01*
X140657142Y-143890476D02*
X140704761Y-143938095D01*
X140752380Y-143890476D01*
X140704761Y-143842857D01*
X140657142Y-143890476D01*
X140752380Y-143890476D01*
X140133333Y-143890476D02*
X140180952Y-143938095D01*
X140228571Y-143890476D01*
X140180952Y-143842857D01*
X140133333Y-143890476D01*
X140228571Y-143890476D01*
X139704761Y-145080952D02*
X140990476Y-144223809D01*
X139704761Y-146128571D02*
X140990476Y-145271428D01*
X140085714Y-146366666D02*
X140752380Y-146557142D01*
X140276190Y-146747619D01*
X140752380Y-146938095D01*
X140085714Y-147128571D01*
X140752380Y-147509523D02*
X140085714Y-147509523D01*
X139752380Y-147509523D02*
X139800000Y-147461904D01*
X139847619Y-147509523D01*
X139800000Y-147557142D01*
X139752380Y-147509523D01*
X139847619Y-147509523D01*
X140752380Y-147985714D02*
X139752380Y-147985714D01*
X140371428Y-148080952D02*
X140752380Y-148366666D01*
X140085714Y-148366666D02*
X140466666Y-147985714D01*
X140752380Y-148795238D02*
X140085714Y-148795238D01*
X139752380Y-148795238D02*
X139800000Y-148747619D01*
X139847619Y-148795238D01*
X139800000Y-148842857D01*
X139752380Y-148795238D01*
X139847619Y-148795238D01*
X140657142Y-149271428D02*
X140704761Y-149319047D01*
X140752380Y-149271428D01*
X140704761Y-149223809D01*
X140657142Y-149271428D01*
X140752380Y-149271428D01*
X140752380Y-149747619D02*
X140085714Y-149747619D01*
X140180952Y-149747619D02*
X140133333Y-149795238D01*
X140085714Y-149890476D01*
X140085714Y-150033333D01*
X140133333Y-150128571D01*
X140228571Y-150176190D01*
X140752380Y-150176190D01*
X140228571Y-150176190D02*
X140133333Y-150223809D01*
X140085714Y-150319047D01*
X140085714Y-150461904D01*
X140133333Y-150557142D01*
X140228571Y-150604761D01*
X140752380Y-150604761D01*
X140704761Y-151509523D02*
X140752380Y-151414285D01*
X140752380Y-151223809D01*
X140704761Y-151128571D01*
X140657142Y-151080952D01*
X140561904Y-151033333D01*
X140276190Y-151033333D01*
X140180952Y-151080952D01*
X140133333Y-151128571D01*
X140085714Y-151223809D01*
X140085714Y-151414285D01*
X140133333Y-151509523D01*
X140752380Y-151938095D02*
X139752380Y-151938095D01*
X140752380Y-152366666D02*
X140228571Y-152366666D01*
X140133333Y-152319047D01*
X140085714Y-152223809D01*
X140085714Y-152080952D01*
X140133333Y-151985714D01*
X140180952Y-151938095D01*
X139847619Y-152795238D02*
X139800000Y-152842857D01*
X139752380Y-152938095D01*
X139752380Y-153176190D01*
X139800000Y-153271428D01*
X139847619Y-153319047D01*
X139942857Y-153366666D01*
X140038095Y-153366666D01*
X140180952Y-153319047D01*
X140752380Y-152747619D01*
X140752380Y-153366666D01*
X139752380Y-153985714D02*
X139752380Y-154080952D01*
X139800000Y-154176190D01*
X139847619Y-154223809D01*
X139942857Y-154271428D01*
X140133333Y-154319047D01*
X140371428Y-154319047D01*
X140561904Y-154271428D01*
X140657142Y-154223809D01*
X140704761Y-154176190D01*
X140752380Y-154080952D01*
X140752380Y-153985714D01*
X140704761Y-153890476D01*
X140657142Y-153842857D01*
X140561904Y-153795238D01*
X140371428Y-153747619D01*
X140133333Y-153747619D01*
X139942857Y-153795238D01*
X139847619Y-153842857D01*
X139800000Y-153890476D01*
X139752380Y-153985714D01*
X139847619Y-154700000D02*
X139800000Y-154747619D01*
X139752380Y-154842857D01*
X139752380Y-155080952D01*
X139800000Y-155176190D01*
X139847619Y-155223809D01*
X139942857Y-155271428D01*
X140038095Y-155271428D01*
X140180952Y-155223809D01*
X140752380Y-154652380D01*
X140752380Y-155271428D01*
X139847619Y-155652380D02*
X139800000Y-155700000D01*
X139752380Y-155795238D01*
X139752380Y-156033333D01*
X139800000Y-156128571D01*
X139847619Y-156176190D01*
X139942857Y-156223809D01*
X140038095Y-156223809D01*
X140180952Y-156176190D01*
X140752380Y-155604761D01*
X140752380Y-156223809D01*
X140657142Y-156652380D02*
X140704761Y-156700000D01*
X140752380Y-156652380D01*
X140704761Y-156604761D01*
X140657142Y-156652380D01*
X140752380Y-156652380D01*
X140752380Y-157271428D02*
X140704761Y-157176190D01*
X140657142Y-157128571D01*
X140561904Y-157080952D01*
X140276190Y-157080952D01*
X140180952Y-157128571D01*
X140133333Y-157176190D01*
X140085714Y-157271428D01*
X140085714Y-157414285D01*
X140133333Y-157509523D01*
X140180952Y-157557142D01*
X140276190Y-157604761D01*
X140561904Y-157604761D01*
X140657142Y-157557142D01*
X140704761Y-157509523D01*
X140752380Y-157414285D01*
X140752380Y-157271428D01*
X140752380Y-158033333D02*
X140085714Y-158033333D01*
X140276190Y-158033333D02*
X140180952Y-158080952D01*
X140133333Y-158128571D01*
X140085714Y-158223809D01*
X140085714Y-158319047D01*
X140085714Y-159080952D02*
X140895238Y-159080952D01*
X140990476Y-159033333D01*
X141038095Y-158985714D01*
X141085714Y-158890476D01*
X141085714Y-158747619D01*
X141038095Y-158652380D01*
X140704761Y-159080952D02*
X140752380Y-158985714D01*
X140752380Y-158795238D01*
X140704761Y-158700000D01*
X140657142Y-158652380D01*
X140561904Y-158604761D01*
X140276190Y-158604761D01*
X140180952Y-158652380D01*
X140133333Y-158700000D01*
X140085714Y-158795238D01*
X140085714Y-158985714D01*
X140133333Y-159080952D01*
X139704761Y-160271428D02*
X140990476Y-159414285D01*
X139752380Y-160461904D02*
X139752380Y-161033333D01*
X140752380Y-160747619D02*
X139752380Y-160747619D01*
X140752380Y-161366666D02*
X140085714Y-161366666D01*
X140276190Y-161366666D02*
X140180952Y-161414285D01*
X140133333Y-161461904D01*
X140085714Y-161557142D01*
X140085714Y-161652380D01*
X140752380Y-161985714D02*
X140085714Y-161985714D01*
X139752380Y-161985714D02*
X139800000Y-161938095D01*
X139847619Y-161985714D01*
X139800000Y-162033333D01*
X139752380Y-161985714D01*
X139847619Y-161985714D01*
X140752380Y-162890476D02*
X140228571Y-162890476D01*
X140133333Y-162842857D01*
X140085714Y-162747619D01*
X140085714Y-162557142D01*
X140133333Y-162461904D01*
X140704761Y-162890476D02*
X140752380Y-162795238D01*
X140752380Y-162557142D01*
X140704761Y-162461904D01*
X140609523Y-162414285D01*
X140514285Y-162414285D01*
X140419047Y-162461904D01*
X140371428Y-162557142D01*
X140371428Y-162795238D01*
X140323809Y-162890476D01*
X140085714Y-163366666D02*
X140752380Y-163366666D01*
X140180952Y-163366666D02*
X140133333Y-163414285D01*
X140085714Y-163509523D01*
X140085714Y-163652380D01*
X140133333Y-163747619D01*
X140228571Y-163795238D01*
X140752380Y-163795238D01*
X140085714Y-164700000D02*
X140895238Y-164700000D01*
X140990476Y-164652380D01*
X141038095Y-164604761D01*
X141085714Y-164509523D01*
X141085714Y-164366666D01*
X141038095Y-164271428D01*
X140704761Y-164700000D02*
X140752380Y-164604761D01*
X140752380Y-164414285D01*
X140704761Y-164319047D01*
X140657142Y-164271428D01*
X140561904Y-164223809D01*
X140276190Y-164223809D01*
X140180952Y-164271428D01*
X140133333Y-164319047D01*
X140085714Y-164414285D01*
X140085714Y-164604761D01*
X140133333Y-164700000D01*
X140085714Y-165604761D02*
X140752380Y-165604761D01*
X140085714Y-165176190D02*
X140609523Y-165176190D01*
X140704761Y-165223809D01*
X140752380Y-165319047D01*
X140752380Y-165461904D01*
X140704761Y-165557142D01*
X140657142Y-165604761D01*
X140752380Y-166223809D02*
X140704761Y-166128571D01*
X140609523Y-166080952D01*
X139752380Y-166080952D01*
X140752380Y-167033333D02*
X140228571Y-167033333D01*
X140133333Y-166985714D01*
X140085714Y-166890476D01*
X140085714Y-166699999D01*
X140133333Y-166604761D01*
X140704761Y-167033333D02*
X140752380Y-166938095D01*
X140752380Y-166699999D01*
X140704761Y-166604761D01*
X140609523Y-166557142D01*
X140514285Y-166557142D01*
X140419047Y-166604761D01*
X140371428Y-166699999D01*
X140371428Y-166938095D01*
X140323809Y-167033333D01*
X140752380Y-167509523D02*
X140085714Y-167509523D01*
X140276190Y-167509523D02*
X140180952Y-167557142D01*
X140133333Y-167604761D01*
X140085714Y-167699999D01*
X140085714Y-167795238D01*
X140847619Y-167890476D02*
X140847619Y-168652380D01*
X140228571Y-169223809D02*
X140276190Y-169366666D01*
X140323809Y-169414285D01*
X140419047Y-169461904D01*
X140561904Y-169461904D01*
X140657142Y-169414285D01*
X140704761Y-169366666D01*
X140752380Y-169271428D01*
X140752380Y-168890476D01*
X139752380Y-168890476D01*
X139752380Y-169223809D01*
X139800000Y-169319047D01*
X139847619Y-169366666D01*
X139942857Y-169414285D01*
X140038095Y-169414285D01*
X140133333Y-169366666D01*
X140180952Y-169319047D01*
X140228571Y-169223809D01*
X140228571Y-168890476D01*
X140752380Y-169890476D02*
X140085714Y-169890476D01*
X139752380Y-169890476D02*
X139800000Y-169842857D01*
X139847619Y-169890476D01*
X139800000Y-169938095D01*
X139752380Y-169890476D01*
X139847619Y-169890476D01*
X140085714Y-170366666D02*
X141085714Y-170366666D01*
X140133333Y-170366666D02*
X140085714Y-170461904D01*
X140085714Y-170652380D01*
X140133333Y-170747619D01*
X140180952Y-170795238D01*
X140276190Y-170842857D01*
X140561904Y-170842857D01*
X140657142Y-170795238D01*
X140704761Y-170747619D01*
X140752380Y-170652380D01*
X140752380Y-170461904D01*
X140704761Y-170366666D01*
X140085714Y-171176190D02*
X140752380Y-171414285D01*
X140085714Y-171652380D02*
X140752380Y-171414285D01*
X140990476Y-171319047D01*
X141038095Y-171271428D01*
X141085714Y-171176190D01*
X140752380Y-172033333D02*
X140085714Y-172033333D01*
X140276190Y-172033333D02*
X140180952Y-172080952D01*
X140133333Y-172128571D01*
X140085714Y-172223809D01*
X140085714Y-172319047D01*
X140752380Y-173080952D02*
X140228571Y-173080952D01*
X140133333Y-173033333D01*
X140085714Y-172938095D01*
X140085714Y-172747619D01*
X140133333Y-172652380D01*
X140704761Y-173080952D02*
X140752380Y-172985714D01*
X140752380Y-172747619D01*
X140704761Y-172652380D01*
X140609523Y-172604761D01*
X140514285Y-172604761D01*
X140419047Y-172652380D01*
X140371428Y-172747619D01*
X140371428Y-172985714D01*
X140323809Y-173080952D01*
X140752380Y-173557142D02*
X140085714Y-173557142D01*
X140180952Y-173557142D02*
X140133333Y-173604761D01*
X140085714Y-173699999D01*
X140085714Y-173842857D01*
X140133333Y-173938095D01*
X140228571Y-173985714D01*
X140752380Y-173985714D01*
X140228571Y-173985714D02*
X140133333Y-174033333D01*
X140085714Y-174128571D01*
X140085714Y-174271428D01*
X140133333Y-174366666D01*
X140228571Y-174414285D01*
X140752380Y-174414285D01*
X140752380Y-174890476D02*
X140085714Y-174890476D01*
X139752380Y-174890476D02*
X139800000Y-174842857D01*
X139847619Y-174890476D01*
X139800000Y-174938095D01*
X139752380Y-174890476D01*
X139847619Y-174890476D01*
X140752380Y-175795238D02*
X139752380Y-175795238D01*
X140704761Y-175795238D02*
X140752380Y-175699999D01*
X140752380Y-175509523D01*
X140704761Y-175414285D01*
X140657142Y-175366666D01*
X140561904Y-175319047D01*
X140276190Y-175319047D01*
X140180952Y-175366666D01*
X140133333Y-175414285D01*
X140085714Y-175509523D01*
X140085714Y-175699999D01*
X140133333Y-175795238D01*
X140752380Y-176699999D02*
X140228571Y-176699999D01*
X140133333Y-176652380D01*
X140085714Y-176557142D01*
X140085714Y-176366666D01*
X140133333Y-176271428D01*
X140704761Y-176699999D02*
X140752380Y-176604761D01*
X140752380Y-176366666D01*
X140704761Y-176271428D01*
X140609523Y-176223809D01*
X140514285Y-176223809D01*
X140419047Y-176271428D01*
X140371428Y-176366666D01*
X140371428Y-176604761D01*
X140323809Y-176699999D01*
X140752380Y-177319047D02*
X140704761Y-177223809D01*
X140609523Y-177176190D01*
X139752380Y-177176190D01*
X140847619Y-177461904D02*
X140847619Y-178223809D01*
X140228571Y-178461904D02*
X140228571Y-178795238D01*
X140752380Y-178938095D02*
X140752380Y-178461904D01*
X139752380Y-178461904D01*
X139752380Y-178938095D01*
X140085714Y-179223809D02*
X140085714Y-179604761D01*
X139752380Y-179366666D02*
X140609523Y-179366666D01*
X140704761Y-179414285D01*
X140752380Y-179509523D01*
X140752380Y-179604761D01*
X140752380Y-179938095D02*
X139752380Y-179938095D01*
X140752380Y-180366666D02*
X140228571Y-180366666D01*
X140133333Y-180319047D01*
X140085714Y-180223809D01*
X140085714Y-180080952D01*
X140133333Y-179985714D01*
X140180952Y-179938095D01*
X140704761Y-181223809D02*
X140752380Y-181128571D01*
X140752380Y-180938095D01*
X140704761Y-180842857D01*
X140609523Y-180795238D01*
X140228571Y-180795238D01*
X140133333Y-180842857D01*
X140085714Y-180938095D01*
X140085714Y-181128571D01*
X140133333Y-181223809D01*
X140228571Y-181271428D01*
X140323809Y-181271428D01*
X140419047Y-180795238D01*
X140752380Y-181699999D02*
X140085714Y-181699999D01*
X140276190Y-181699999D02*
X140180952Y-181747619D01*
X140133333Y-181795238D01*
X140085714Y-181890476D01*
X140085714Y-181985714D01*
X140847619Y-182080952D02*
X140847619Y-182842857D01*
X140752380Y-183557142D02*
X140752380Y-183080952D01*
X139752380Y-183080952D01*
X140752380Y-183890476D02*
X140085714Y-183890476D01*
X139752380Y-183890476D02*
X139800000Y-183842857D01*
X139847619Y-183890476D01*
X139800000Y-183938095D01*
X139752380Y-183890476D01*
X139847619Y-183890476D01*
X140085714Y-184795238D02*
X140895238Y-184795238D01*
X140990476Y-184747619D01*
X141038095Y-184700000D01*
X141085714Y-184604761D01*
X141085714Y-184461904D01*
X141038095Y-184366666D01*
X140704761Y-184795238D02*
X140752380Y-184700000D01*
X140752380Y-184509523D01*
X140704761Y-184414285D01*
X140657142Y-184366666D01*
X140561904Y-184319047D01*
X140276190Y-184319047D01*
X140180952Y-184366666D01*
X140133333Y-184414285D01*
X140085714Y-184509523D01*
X140085714Y-184700000D01*
X140133333Y-184795238D01*
X140752380Y-185271428D02*
X139752380Y-185271428D01*
X140752380Y-185700000D02*
X140228571Y-185700000D01*
X140133333Y-185652380D01*
X140085714Y-185557142D01*
X140085714Y-185414285D01*
X140133333Y-185319047D01*
X140180952Y-185271428D01*
X140085714Y-186033333D02*
X140085714Y-186414285D01*
X139752380Y-186176190D02*
X140609523Y-186176190D01*
X140704761Y-186223809D01*
X140752380Y-186319047D01*
X140752380Y-186414285D01*
D11*
X119214285Y-168921428D02*
X119714285Y-167421428D01*
X120214285Y-168921428D01*
X121357142Y-167492857D02*
X121214285Y-167421428D01*
X120928571Y-167421428D01*
X120785714Y-167492857D01*
X120714285Y-167564285D01*
X120642857Y-167707142D01*
X120642857Y-168135714D01*
X120714285Y-168278571D01*
X120785714Y-168350000D01*
X120928571Y-168421428D01*
X121214285Y-168421428D01*
X121357142Y-168350000D01*
X122642857Y-167492857D02*
X122500000Y-167421428D01*
X122214285Y-167421428D01*
X122071428Y-167492857D01*
X122000000Y-167564285D01*
X121928571Y-167707142D01*
X121928571Y-168135714D01*
X122000000Y-168278571D01*
X122071428Y-168350000D01*
X122214285Y-168421428D01*
X122500000Y-168421428D01*
X122642857Y-168350000D01*
X124285714Y-168921428D02*
X125214285Y-168921428D01*
X124714285Y-168350000D01*
X124928571Y-168350000D01*
X125071428Y-168278571D01*
X125142857Y-168207142D01*
X125214285Y-168064285D01*
X125214285Y-167707142D01*
X125142857Y-167564285D01*
X125071428Y-167492857D01*
X124928571Y-167421428D01*
X124500000Y-167421428D01*
X124357142Y-167492857D01*
X124285714Y-167564285D01*
X125857142Y-167564285D02*
X125928571Y-167492857D01*
X125857142Y-167421428D01*
X125785714Y-167492857D01*
X125857142Y-167564285D01*
X125857142Y-167421428D01*
X126428571Y-168921428D02*
X127357142Y-168921428D01*
X126857142Y-168350000D01*
X127071428Y-168350000D01*
X127214285Y-168278571D01*
X127285714Y-168207142D01*
X127357142Y-168064285D01*
X127357142Y-167707142D01*
X127285714Y-167564285D01*
X127214285Y-167492857D01*
X127071428Y-167421428D01*
X126642857Y-167421428D01*
X126500000Y-167492857D01*
X126428571Y-167564285D01*
X130214285Y-168992857D02*
X128928571Y-167064285D01*
X132571428Y-168921428D02*
X131857142Y-168921428D01*
X131785714Y-168207142D01*
X131857142Y-168278571D01*
X132000000Y-168350000D01*
X132357142Y-168350000D01*
X132500000Y-168278571D01*
X132571428Y-168207142D01*
X132642857Y-168064285D01*
X132642857Y-167707142D01*
X132571428Y-167564285D01*
X132500000Y-167492857D01*
X132357142Y-167421428D01*
X132000000Y-167421428D01*
X131857142Y-167492857D01*
X131785714Y-167564285D01*
X119264285Y-171421428D02*
X120121428Y-171421428D01*
X119692857Y-169921428D02*
X119692857Y-171421428D01*
X120478571Y-169921428D02*
X121264285Y-170921428D01*
X120478571Y-170921428D02*
X121264285Y-169921428D01*
X120257142Y-163750000D02*
X120114285Y-163821428D01*
X119900000Y-163821428D01*
X119685714Y-163750000D01*
X119542857Y-163607142D01*
X119471428Y-163464285D01*
X119400000Y-163178571D01*
X119400000Y-162964285D01*
X119471428Y-162678571D01*
X119542857Y-162535714D01*
X119685714Y-162392857D01*
X119900000Y-162321428D01*
X120042857Y-162321428D01*
X120257142Y-162392857D01*
X120328571Y-162464285D01*
X120328571Y-162964285D01*
X120042857Y-162964285D01*
X120971428Y-162321428D02*
X120971428Y-163821428D01*
X121828571Y-162321428D01*
X121828571Y-163821428D01*
X122542857Y-162321428D02*
X122542857Y-163821428D01*
X122900000Y-163821428D01*
X123114285Y-163750000D01*
X123257142Y-163607142D01*
X123328571Y-163464285D01*
X123400000Y-163178571D01*
X123400000Y-162964285D01*
X123328571Y-162678571D01*
X123257142Y-162535714D01*
X123114285Y-162392857D01*
X122900000Y-162321428D01*
X122542857Y-162321428D01*
D12*
%TO.C,J2*%
X130169333Y-101443397D02*
X130169333Y-102157683D01*
X130216952Y-102300540D01*
X130312190Y-102395778D01*
X130455047Y-102443397D01*
X130550285Y-102443397D01*
X129740761Y-101538636D02*
X129693142Y-101491017D01*
X129597904Y-101443397D01*
X129359809Y-101443397D01*
X129264571Y-101491017D01*
X129216952Y-101538636D01*
X129169333Y-101633874D01*
X129169333Y-101729112D01*
X129216952Y-101871969D01*
X129788380Y-102443397D01*
X129169333Y-102443397D01*
%TO.C,U6*%
X130492380Y-40504095D02*
X131301904Y-40504095D01*
X131397142Y-40551714D01*
X131444761Y-40599333D01*
X131492380Y-40694571D01*
X131492380Y-40885047D01*
X131444761Y-40980285D01*
X131397142Y-41027904D01*
X131301904Y-41075523D01*
X130492380Y-41075523D01*
X130492380Y-41980285D02*
X130492380Y-41789809D01*
X130540000Y-41694571D01*
X130587619Y-41646952D01*
X130730476Y-41551714D01*
X130920952Y-41504095D01*
X131301904Y-41504095D01*
X131397142Y-41551714D01*
X131444761Y-41599333D01*
X131492380Y-41694571D01*
X131492380Y-41885047D01*
X131444761Y-41980285D01*
X131397142Y-42027904D01*
X131301904Y-42075523D01*
X131063809Y-42075523D01*
X130968571Y-42027904D01*
X130920952Y-41980285D01*
X130873333Y-41885047D01*
X130873333Y-41694571D01*
X130920952Y-41599333D01*
X130968571Y-41551714D01*
X131063809Y-41504095D01*
X136178142Y-35324904D02*
X136225761Y-35277285D01*
X136273380Y-35134428D01*
X136273380Y-35039190D01*
X136225761Y-34896333D01*
X136130523Y-34801095D01*
X136035285Y-34753476D01*
X135844809Y-34705857D01*
X135701952Y-34705857D01*
X135511476Y-34753476D01*
X135416238Y-34801095D01*
X135321000Y-34896333D01*
X135273380Y-35039190D01*
X135273380Y-35134428D01*
X135321000Y-35277285D01*
X135368619Y-35324904D01*
X136273380Y-35896333D02*
X136225761Y-35801095D01*
X136178142Y-35753476D01*
X136082904Y-35705857D01*
X135797190Y-35705857D01*
X135701952Y-35753476D01*
X135654333Y-35801095D01*
X135606714Y-35896333D01*
X135606714Y-36039190D01*
X135654333Y-36134428D01*
X135701952Y-36182047D01*
X135797190Y-36229666D01*
X136082904Y-36229666D01*
X136178142Y-36182047D01*
X136225761Y-36134428D01*
X136273380Y-36039190D01*
X136273380Y-35896333D01*
X136273380Y-36658238D02*
X135606714Y-36658238D01*
X135701952Y-36658238D02*
X135654333Y-36705857D01*
X135606714Y-36801095D01*
X135606714Y-36943952D01*
X135654333Y-37039190D01*
X135749571Y-37086809D01*
X136273380Y-37086809D01*
X135749571Y-37086809D02*
X135654333Y-37134428D01*
X135606714Y-37229666D01*
X135606714Y-37372523D01*
X135654333Y-37467761D01*
X135749571Y-37515380D01*
X136273380Y-37515380D01*
X135606714Y-37991571D02*
X136606714Y-37991571D01*
X135654333Y-37991571D02*
X135606714Y-38086809D01*
X135606714Y-38277285D01*
X135654333Y-38372523D01*
X135701952Y-38420142D01*
X135797190Y-38467761D01*
X136082904Y-38467761D01*
X136178142Y-38420142D01*
X136225761Y-38372523D01*
X136273380Y-38277285D01*
X136273380Y-38086809D01*
X136225761Y-37991571D01*
X136273380Y-39039190D02*
X136225761Y-38943952D01*
X136178142Y-38896333D01*
X136082904Y-38848714D01*
X135797190Y-38848714D01*
X135701952Y-38896333D01*
X135654333Y-38943952D01*
X135606714Y-39039190D01*
X135606714Y-39182047D01*
X135654333Y-39277285D01*
X135701952Y-39324904D01*
X135797190Y-39372523D01*
X136082904Y-39372523D01*
X136178142Y-39324904D01*
X136225761Y-39277285D01*
X136273380Y-39182047D01*
X136273380Y-39039190D01*
X135606714Y-39801095D02*
X136273380Y-39801095D01*
X135701952Y-39801095D02*
X135654333Y-39848714D01*
X135606714Y-39943952D01*
X135606714Y-40086809D01*
X135654333Y-40182047D01*
X135749571Y-40229666D01*
X136273380Y-40229666D01*
X136225761Y-41086809D02*
X136273380Y-40991571D01*
X136273380Y-40801095D01*
X136225761Y-40705857D01*
X136130523Y-40658238D01*
X135749571Y-40658238D01*
X135654333Y-40705857D01*
X135606714Y-40801095D01*
X135606714Y-40991571D01*
X135654333Y-41086809D01*
X135749571Y-41134428D01*
X135844809Y-41134428D01*
X135940047Y-40658238D01*
X135606714Y-41563000D02*
X136273380Y-41563000D01*
X135701952Y-41563000D02*
X135654333Y-41610619D01*
X135606714Y-41705857D01*
X135606714Y-41848714D01*
X135654333Y-41943952D01*
X135749571Y-41991571D01*
X136273380Y-41991571D01*
X135606714Y-42324904D02*
X135606714Y-42705857D01*
X135273380Y-42467761D02*
X136130523Y-42467761D01*
X136225761Y-42515380D01*
X136273380Y-42610619D01*
X136273380Y-42705857D01*
X136225761Y-43753476D02*
X136273380Y-43848714D01*
X136273380Y-44039190D01*
X136225761Y-44134428D01*
X136130523Y-44182047D01*
X136082904Y-44182047D01*
X135987666Y-44134428D01*
X135940047Y-44039190D01*
X135940047Y-43896333D01*
X135892428Y-43801095D01*
X135797190Y-43753476D01*
X135749571Y-43753476D01*
X135654333Y-43801095D01*
X135606714Y-43896333D01*
X135606714Y-44039190D01*
X135654333Y-44134428D01*
X136273380Y-44610619D02*
X135606714Y-44610619D01*
X135273380Y-44610619D02*
X135321000Y-44562999D01*
X135368619Y-44610619D01*
X135321000Y-44658238D01*
X135273380Y-44610619D01*
X135368619Y-44610619D01*
X136273380Y-45515380D02*
X135273380Y-45515380D01*
X136225761Y-45515380D02*
X136273380Y-45420142D01*
X136273380Y-45229666D01*
X136225761Y-45134428D01*
X136178142Y-45086809D01*
X136082904Y-45039190D01*
X135797190Y-45039190D01*
X135701952Y-45086809D01*
X135654333Y-45134428D01*
X135606714Y-45229666D01*
X135606714Y-45420142D01*
X135654333Y-45515380D01*
X136225761Y-46372523D02*
X136273380Y-46277285D01*
X136273380Y-46086809D01*
X136225761Y-45991571D01*
X136130523Y-45943952D01*
X135749571Y-45943952D01*
X135654333Y-45991571D01*
X135606714Y-46086809D01*
X135606714Y-46277285D01*
X135654333Y-46372523D01*
X135749571Y-46420142D01*
X135844809Y-46420142D01*
X135940047Y-45943952D01*
X135606714Y-48039190D02*
X136273380Y-48039190D01*
X135606714Y-47610619D02*
X136130523Y-47610619D01*
X136225761Y-47658238D01*
X136273380Y-47753476D01*
X136273380Y-47896333D01*
X136225761Y-47991571D01*
X136178142Y-48039190D01*
X135606714Y-48515380D02*
X136606714Y-48515380D01*
X135654333Y-48515380D02*
X135606714Y-48610619D01*
X135606714Y-48801095D01*
X135654333Y-48896333D01*
X135701952Y-48943952D01*
X135797190Y-48991571D01*
X136082904Y-48991571D01*
X136178142Y-48943952D01*
X136225761Y-48896333D01*
X136273380Y-48801095D01*
X136273380Y-48610619D01*
X136225761Y-48515380D01*
X136178142Y-49420142D02*
X136225761Y-49467761D01*
X136273380Y-49420142D01*
X136225761Y-49372523D01*
X136178142Y-49420142D01*
X136273380Y-49420142D01*
X136273380Y-50801095D02*
X136225761Y-50705857D01*
X136178142Y-50658238D01*
X136082904Y-50610619D01*
X135797190Y-50610619D01*
X135701952Y-50658238D01*
X135654333Y-50705857D01*
X135606714Y-50801095D01*
X135606714Y-50943952D01*
X135654333Y-51039190D01*
X135701952Y-51086809D01*
X135797190Y-51134428D01*
X136082904Y-51134428D01*
X136178142Y-51086809D01*
X136225761Y-51039190D01*
X136273380Y-50943952D01*
X136273380Y-50801095D01*
X135606714Y-51562999D02*
X136273380Y-51562999D01*
X135701952Y-51562999D02*
X135654333Y-51610619D01*
X135606714Y-51705857D01*
X135606714Y-51848714D01*
X135654333Y-51943952D01*
X135749571Y-51991571D01*
X136273380Y-51991571D01*
X135606714Y-52324904D02*
X135606714Y-52705857D01*
X135273380Y-52467761D02*
X136130523Y-52467761D01*
X136225761Y-52515380D01*
X136273380Y-52610619D01*
X136273380Y-52705857D01*
X136273380Y-53182047D02*
X136225761Y-53086809D01*
X136178142Y-53039190D01*
X136082904Y-52991571D01*
X135797190Y-52991571D01*
X135701952Y-53039190D01*
X135654333Y-53086809D01*
X135606714Y-53182047D01*
X135606714Y-53324904D01*
X135654333Y-53420142D01*
X135701952Y-53467761D01*
X135797190Y-53515380D01*
X136082904Y-53515380D01*
X136178142Y-53467761D01*
X136225761Y-53420142D01*
X136273380Y-53324904D01*
X136273380Y-53182047D01*
X135606714Y-53943952D02*
X136606714Y-53943952D01*
X135654333Y-53943952D02*
X135606714Y-54039190D01*
X135606714Y-54229666D01*
X135654333Y-54324904D01*
X135701952Y-54372523D01*
X135797190Y-54420142D01*
X136082904Y-54420142D01*
X136178142Y-54372523D01*
X136225761Y-54324904D01*
X136273380Y-54229666D01*
X136273380Y-54039190D01*
X136225761Y-53943952D01*
X136273380Y-55753476D02*
X136225761Y-55658238D01*
X136178142Y-55610619D01*
X136082904Y-55562999D01*
X135797190Y-55562999D01*
X135701952Y-55610619D01*
X135654333Y-55658238D01*
X135606714Y-55753476D01*
X135606714Y-55896333D01*
X135654333Y-55991571D01*
X135701952Y-56039190D01*
X135797190Y-56086809D01*
X136082904Y-56086809D01*
X136178142Y-56039190D01*
X136225761Y-55991571D01*
X136273380Y-55896333D01*
X136273380Y-55753476D01*
X135606714Y-56372523D02*
X135606714Y-56753476D01*
X136273380Y-56515380D02*
X135416238Y-56515380D01*
X135321000Y-56562999D01*
X135273380Y-56658238D01*
X135273380Y-56753476D01*
X136273380Y-57848714D02*
X135273380Y-57848714D01*
X135273380Y-58229666D01*
X135321000Y-58324904D01*
X135368619Y-58372523D01*
X135463857Y-58420142D01*
X135606714Y-58420142D01*
X135701952Y-58372523D01*
X135749571Y-58324904D01*
X135797190Y-58229666D01*
X135797190Y-57848714D01*
X136178142Y-59420142D02*
X136225761Y-59372523D01*
X136273380Y-59229666D01*
X136273380Y-59134428D01*
X136225761Y-58991571D01*
X136130523Y-58896333D01*
X136035285Y-58848714D01*
X135844809Y-58801095D01*
X135701952Y-58801095D01*
X135511476Y-58848714D01*
X135416238Y-58896333D01*
X135321000Y-58991571D01*
X135273380Y-59134428D01*
X135273380Y-59229666D01*
X135321000Y-59372523D01*
X135368619Y-59420142D01*
X135749571Y-60182047D02*
X135797190Y-60324904D01*
X135844809Y-60372523D01*
X135940047Y-60420142D01*
X136082904Y-60420142D01*
X136178142Y-60372523D01*
X136225761Y-60324904D01*
X136273380Y-60229666D01*
X136273380Y-59848714D01*
X135273380Y-59848714D01*
X135273380Y-60182047D01*
X135321000Y-60277285D01*
X135368619Y-60324904D01*
X135463857Y-60372523D01*
X135559095Y-60372523D01*
X135654333Y-60324904D01*
X135701952Y-60277285D01*
X135749571Y-60182047D01*
X135749571Y-59848714D01*
X136090047Y-68208428D02*
X135328142Y-68208428D01*
X135709095Y-68589380D02*
X135709095Y-67827476D01*
X134090047Y-68208428D02*
X133328142Y-68208428D01*
X132851952Y-68208428D02*
X132090047Y-68208428D01*
X130994809Y-67589380D02*
X130661476Y-68589380D01*
X130328142Y-67589380D01*
X129851952Y-68589380D02*
X129947190Y-68541761D01*
X129994809Y-68494142D01*
X130042428Y-68398904D01*
X130042428Y-68113190D01*
X129994809Y-68017952D01*
X129947190Y-67970333D01*
X129851952Y-67922714D01*
X129709095Y-67922714D01*
X129613857Y-67970333D01*
X129566238Y-68017952D01*
X129518619Y-68113190D01*
X129518619Y-68398904D01*
X129566238Y-68494142D01*
X129613857Y-68541761D01*
X129709095Y-68589380D01*
X129851952Y-68589380D01*
X128661476Y-67922714D02*
X128661476Y-68589380D01*
X129090047Y-67922714D02*
X129090047Y-68446523D01*
X129042428Y-68541761D01*
X128947190Y-68589380D01*
X128804333Y-68589380D01*
X128709095Y-68541761D01*
X128661476Y-68494142D01*
X128328142Y-67922714D02*
X127947190Y-67922714D01*
X128185285Y-67589380D02*
X128185285Y-68446523D01*
X128137666Y-68541761D01*
X128042428Y-68589380D01*
X127947190Y-68589380D01*
X126851952Y-68208428D02*
X126090047Y-68208428D01*
X125613857Y-68208428D02*
X124851952Y-68208428D01*
X123613857Y-68208428D02*
X122851952Y-68208428D01*
X122303380Y-41602904D02*
X121303380Y-41602904D01*
X121684333Y-41602904D02*
X121636714Y-41698142D01*
X121636714Y-41888619D01*
X121684333Y-41983857D01*
X121731952Y-42031476D01*
X121827190Y-42079095D01*
X122112904Y-42079095D01*
X122208142Y-42031476D01*
X122255761Y-41983857D01*
X122303380Y-41888619D01*
X122303380Y-41698142D01*
X122255761Y-41602904D01*
X122303380Y-42650523D02*
X122255761Y-42555285D01*
X122208142Y-42507666D01*
X122112904Y-42460047D01*
X121827190Y-42460047D01*
X121731952Y-42507666D01*
X121684333Y-42555285D01*
X121636714Y-42650523D01*
X121636714Y-42793380D01*
X121684333Y-42888619D01*
X121731952Y-42936238D01*
X121827190Y-42983857D01*
X122112904Y-42983857D01*
X122208142Y-42936238D01*
X122255761Y-42888619D01*
X122303380Y-42793380D01*
X122303380Y-42650523D01*
X121636714Y-43269571D02*
X121636714Y-43650523D01*
X121303380Y-43412428D02*
X122160523Y-43412428D01*
X122255761Y-43460047D01*
X122303380Y-43555285D01*
X122303380Y-43650523D01*
X121636714Y-43841000D02*
X121636714Y-44221952D01*
X121303380Y-43983857D02*
X122160523Y-43983857D01*
X122255761Y-44031476D01*
X122303380Y-44126714D01*
X122303380Y-44221952D01*
X122303380Y-44698142D02*
X122255761Y-44602904D01*
X122208142Y-44555285D01*
X122112904Y-44507666D01*
X121827190Y-44507666D01*
X121731952Y-44555285D01*
X121684333Y-44602904D01*
X121636714Y-44698142D01*
X121636714Y-44841000D01*
X121684333Y-44936238D01*
X121731952Y-44983857D01*
X121827190Y-45031476D01*
X122112904Y-45031476D01*
X122208142Y-44983857D01*
X122255761Y-44936238D01*
X122303380Y-44841000D01*
X122303380Y-44698142D01*
X122303380Y-45460047D02*
X121636714Y-45460047D01*
X121731952Y-45460047D02*
X121684333Y-45507666D01*
X121636714Y-45602904D01*
X121636714Y-45745761D01*
X121684333Y-45841000D01*
X121779571Y-45888619D01*
X122303380Y-45888619D01*
X121779571Y-45888619D02*
X121684333Y-45936238D01*
X121636714Y-46031476D01*
X121636714Y-46174333D01*
X121684333Y-46269571D01*
X121779571Y-46317190D01*
X122303380Y-46317190D01*
X122255761Y-47507666D02*
X122303380Y-47602904D01*
X122303380Y-47793380D01*
X122255761Y-47888619D01*
X122160523Y-47936238D01*
X122112904Y-47936238D01*
X122017666Y-47888619D01*
X121970047Y-47793380D01*
X121970047Y-47650523D01*
X121922428Y-47555285D01*
X121827190Y-47507666D01*
X121779571Y-47507666D01*
X121684333Y-47555285D01*
X121636714Y-47650523D01*
X121636714Y-47793380D01*
X121684333Y-47888619D01*
X122303380Y-48364809D02*
X121636714Y-48364809D01*
X121303380Y-48364809D02*
X121351000Y-48317190D01*
X121398619Y-48364809D01*
X121351000Y-48412428D01*
X121303380Y-48364809D01*
X121398619Y-48364809D01*
X122303380Y-49269571D02*
X121303380Y-49269571D01*
X122255761Y-49269571D02*
X122303380Y-49174333D01*
X122303380Y-48983857D01*
X122255761Y-48888619D01*
X122208142Y-48841000D01*
X122112904Y-48793380D01*
X121827190Y-48793380D01*
X121731952Y-48841000D01*
X121684333Y-48888619D01*
X121636714Y-48983857D01*
X121636714Y-49174333D01*
X121684333Y-49269571D01*
X122255761Y-50126714D02*
X122303380Y-50031476D01*
X122303380Y-49841000D01*
X122255761Y-49745761D01*
X122160523Y-49698142D01*
X121779571Y-49698142D01*
X121684333Y-49745761D01*
X121636714Y-49841000D01*
X121636714Y-50031476D01*
X121684333Y-50126714D01*
X121779571Y-50174333D01*
X121874809Y-50174333D01*
X121970047Y-49698142D01*
X122255761Y-50650523D02*
X122303380Y-50650523D01*
X122398619Y-50602904D01*
X122446238Y-50555285D01*
X121636714Y-51698142D02*
X121636714Y-52079095D01*
X121303380Y-51841000D02*
X122160523Y-51841000D01*
X122255761Y-51888619D01*
X122303380Y-51983857D01*
X122303380Y-52079095D01*
X122303380Y-52555285D02*
X122255761Y-52460047D01*
X122208142Y-52412428D01*
X122112904Y-52364809D01*
X121827190Y-52364809D01*
X121731952Y-52412428D01*
X121684333Y-52460047D01*
X121636714Y-52555285D01*
X121636714Y-52698142D01*
X121684333Y-52793380D01*
X121731952Y-52841000D01*
X121827190Y-52888619D01*
X122112904Y-52888619D01*
X122208142Y-52841000D01*
X122255761Y-52793380D01*
X122303380Y-52698142D01*
X122303380Y-52555285D01*
X122303380Y-54079095D02*
X121303380Y-54079095D01*
X121303380Y-54460047D01*
X121351000Y-54555285D01*
X121398619Y-54602904D01*
X121493857Y-54650523D01*
X121636714Y-54650523D01*
X121731952Y-54602904D01*
X121779571Y-54555285D01*
X121827190Y-54460047D01*
X121827190Y-54079095D01*
X122208142Y-55650523D02*
X122255761Y-55602904D01*
X122303380Y-55460047D01*
X122303380Y-55364809D01*
X122255761Y-55221952D01*
X122160523Y-55126714D01*
X122065285Y-55079095D01*
X121874809Y-55031476D01*
X121731952Y-55031476D01*
X121541476Y-55079095D01*
X121446238Y-55126714D01*
X121351000Y-55221952D01*
X121303380Y-55364809D01*
X121303380Y-55460047D01*
X121351000Y-55602904D01*
X121398619Y-55650523D01*
X121779571Y-56412428D02*
X121827190Y-56555285D01*
X121874809Y-56602904D01*
X121970047Y-56650523D01*
X122112904Y-56650523D01*
X122208142Y-56602904D01*
X122255761Y-56555285D01*
X122303380Y-56460047D01*
X122303380Y-56079095D01*
X121303380Y-56079095D01*
X121303380Y-56412428D01*
X121351000Y-56507666D01*
X121398619Y-56555285D01*
X121493857Y-56602904D01*
X121589095Y-56602904D01*
X121684333Y-56555285D01*
X121731952Y-56507666D01*
X121779571Y-56412428D01*
X121779571Y-56079095D01*
X122208142Y-57079095D02*
X122255761Y-57126714D01*
X122303380Y-57079095D01*
X122255761Y-57031476D01*
X122208142Y-57079095D01*
X122303380Y-57079095D01*
X135590047Y-28838428D02*
X134828142Y-28838428D01*
X135209095Y-29219380D02*
X135209095Y-28457476D01*
X133590047Y-28838428D02*
X132828142Y-28838428D01*
X132351952Y-28838428D02*
X131590047Y-28838428D01*
X130494809Y-28219380D02*
X130161476Y-29219380D01*
X129828142Y-28219380D01*
X129494809Y-29219380D02*
X129494809Y-28552714D01*
X129494809Y-28219380D02*
X129542428Y-28267000D01*
X129494809Y-28314619D01*
X129447190Y-28267000D01*
X129494809Y-28219380D01*
X129494809Y-28314619D01*
X129018619Y-28552714D02*
X129018619Y-29219380D01*
X129018619Y-28647952D02*
X128971000Y-28600333D01*
X128875761Y-28552714D01*
X128732904Y-28552714D01*
X128637666Y-28600333D01*
X128590047Y-28695571D01*
X128590047Y-29219380D01*
X127351952Y-28838428D02*
X126590047Y-28838428D01*
X126113857Y-28838428D02*
X125351952Y-28838428D01*
X124113857Y-28838428D02*
X123351952Y-28838428D01*
X128653380Y-41047000D02*
X128653380Y-40570809D01*
X127653380Y-40570809D01*
X128653380Y-41380333D02*
X127653380Y-41380333D01*
X128367666Y-41713666D01*
X127653380Y-42047000D01*
X128653380Y-42047000D01*
X127748619Y-42475571D02*
X127701000Y-42523190D01*
X127653380Y-42618428D01*
X127653380Y-42856523D01*
X127701000Y-42951761D01*
X127748619Y-42999380D01*
X127843857Y-43047000D01*
X127939095Y-43047000D01*
X128081952Y-42999380D01*
X128653380Y-42427952D01*
X128653380Y-43047000D01*
X127653380Y-43951761D02*
X127653380Y-43475571D01*
X128129571Y-43427952D01*
X128081952Y-43475571D01*
X128034333Y-43570809D01*
X128034333Y-43808904D01*
X128081952Y-43904142D01*
X128129571Y-43951761D01*
X128224809Y-43999380D01*
X128462904Y-43999380D01*
X128558142Y-43951761D01*
X128605761Y-43904142D01*
X128653380Y-43808904D01*
X128653380Y-43570809D01*
X128605761Y-43475571D01*
X128558142Y-43427952D01*
X128653380Y-44475571D02*
X128653380Y-44666047D01*
X128605761Y-44761285D01*
X128558142Y-44808904D01*
X128415285Y-44904142D01*
X128224809Y-44951761D01*
X127843857Y-44951761D01*
X127748619Y-44904142D01*
X127701000Y-44856523D01*
X127653380Y-44761285D01*
X127653380Y-44570809D01*
X127701000Y-44475571D01*
X127748619Y-44427952D01*
X127843857Y-44380333D01*
X128081952Y-44380333D01*
X128177190Y-44427952D01*
X128224809Y-44475571D01*
X128272428Y-44570809D01*
X128272428Y-44761285D01*
X128224809Y-44856523D01*
X128177190Y-44904142D01*
X128081952Y-44951761D01*
X127653380Y-45808904D02*
X127653380Y-45618428D01*
X127701000Y-45523190D01*
X127748619Y-45475571D01*
X127891476Y-45380333D01*
X128081952Y-45332714D01*
X128462904Y-45332714D01*
X128558142Y-45380333D01*
X128605761Y-45427952D01*
X128653380Y-45523190D01*
X128653380Y-45713666D01*
X128605761Y-45808904D01*
X128558142Y-45856523D01*
X128462904Y-45904142D01*
X128224809Y-45904142D01*
X128129571Y-45856523D01*
X128081952Y-45808904D01*
X128034333Y-45713666D01*
X128034333Y-45523190D01*
X128081952Y-45427952D01*
X128129571Y-45380333D01*
X128224809Y-45332714D01*
X128272428Y-46332714D02*
X128272428Y-47094619D01*
X128653380Y-47570809D02*
X127986714Y-47570809D01*
X128081952Y-47570809D02*
X128034333Y-47618428D01*
X127986714Y-47713666D01*
X127986714Y-47856523D01*
X128034333Y-47951761D01*
X128129571Y-47999380D01*
X128653380Y-47999380D01*
X128129571Y-47999380D02*
X128034333Y-48047000D01*
X127986714Y-48142238D01*
X127986714Y-48285095D01*
X128034333Y-48380333D01*
X128129571Y-48427952D01*
X128653380Y-48427952D01*
X128653380Y-49047000D02*
X128605761Y-48951761D01*
X128558142Y-48904142D01*
X128462904Y-48856523D01*
X128177190Y-48856523D01*
X128081952Y-48904142D01*
X128034333Y-48951761D01*
X127986714Y-49047000D01*
X127986714Y-49189857D01*
X128034333Y-49285095D01*
X128081952Y-49332714D01*
X128177190Y-49380333D01*
X128462904Y-49380333D01*
X128558142Y-49332714D01*
X128605761Y-49285095D01*
X128653380Y-49189857D01*
X128653380Y-49047000D01*
X128653380Y-50237476D02*
X127653380Y-50237476D01*
X128605761Y-50237476D02*
X128653380Y-50142238D01*
X128653380Y-49951761D01*
X128605761Y-49856523D01*
X128558142Y-49808904D01*
X128462904Y-49761285D01*
X128177190Y-49761285D01*
X128081952Y-49808904D01*
X128034333Y-49856523D01*
X127986714Y-49951761D01*
X127986714Y-50142238D01*
X128034333Y-50237476D01*
X127986714Y-51142238D02*
X128653380Y-51142238D01*
X127986714Y-50713666D02*
X128510523Y-50713666D01*
X128605761Y-50761285D01*
X128653380Y-50856523D01*
X128653380Y-50999380D01*
X128605761Y-51094619D01*
X128558142Y-51142238D01*
X128653380Y-51761285D02*
X128605761Y-51666047D01*
X128510523Y-51618428D01*
X127653380Y-51618428D01*
X128605761Y-52523190D02*
X128653380Y-52427952D01*
X128653380Y-52237476D01*
X128605761Y-52142238D01*
X128510523Y-52094619D01*
X128129571Y-52094619D01*
X128034333Y-52142238D01*
X127986714Y-52237476D01*
X127986714Y-52427952D01*
X128034333Y-52523190D01*
X128129571Y-52570809D01*
X128224809Y-52570809D01*
X128320047Y-52094619D01*
%TO.C,SW1*%
X144778761Y-92279683D02*
X144826380Y-92422540D01*
X144826380Y-92660636D01*
X144778761Y-92755874D01*
X144731142Y-92803493D01*
X144635904Y-92851112D01*
X144540666Y-92851112D01*
X144445428Y-92803493D01*
X144397809Y-92755874D01*
X144350190Y-92660636D01*
X144302571Y-92470159D01*
X144254952Y-92374921D01*
X144207333Y-92327302D01*
X144112095Y-92279683D01*
X144016857Y-92279683D01*
X143921619Y-92327302D01*
X143874000Y-92374921D01*
X143826380Y-92470159D01*
X143826380Y-92708255D01*
X143874000Y-92851112D01*
X143826380Y-93184445D02*
X144826380Y-93422540D01*
X144112095Y-93613017D01*
X144826380Y-93803493D01*
X143826380Y-94041588D01*
X144826380Y-94946350D02*
X144826380Y-94374921D01*
X144826380Y-94660636D02*
X143826380Y-94660636D01*
X143969238Y-94565397D01*
X144064476Y-94470159D01*
X144112095Y-94374921D01*
%TO.C,SW2*%
X124458761Y-92279683D02*
X124506380Y-92422540D01*
X124506380Y-92660636D01*
X124458761Y-92755874D01*
X124411142Y-92803493D01*
X124315904Y-92851112D01*
X124220666Y-92851112D01*
X124125428Y-92803493D01*
X124077809Y-92755874D01*
X124030190Y-92660636D01*
X123982571Y-92470159D01*
X123934952Y-92374921D01*
X123887333Y-92327302D01*
X123792095Y-92279683D01*
X123696857Y-92279683D01*
X123601619Y-92327302D01*
X123554000Y-92374921D01*
X123506380Y-92470159D01*
X123506380Y-92708255D01*
X123554000Y-92851112D01*
X123506380Y-93184445D02*
X124506380Y-93422540D01*
X123792095Y-93613017D01*
X124506380Y-93803493D01*
X123506380Y-94041588D01*
X123601619Y-94374921D02*
X123554000Y-94422540D01*
X123506380Y-94517778D01*
X123506380Y-94755874D01*
X123554000Y-94851112D01*
X123601619Y-94898731D01*
X123696857Y-94946350D01*
X123792095Y-94946350D01*
X123934952Y-94898731D01*
X124506380Y-94327302D01*
X124506380Y-94946350D01*
%TO.C,J5*%
X130127333Y-17833397D02*
X130127333Y-18547683D01*
X130174952Y-18690540D01*
X130270190Y-18785778D01*
X130413047Y-18833397D01*
X130508285Y-18833397D01*
X129174952Y-17833397D02*
X129651142Y-17833397D01*
X129698761Y-18309588D01*
X129651142Y-18261969D01*
X129555904Y-18214350D01*
X129317809Y-18214350D01*
X129222571Y-18261969D01*
X129174952Y-18309588D01*
X129127333Y-18404826D01*
X129127333Y-18642921D01*
X129174952Y-18738159D01*
X129222571Y-18785778D01*
X129317809Y-18833397D01*
X129555904Y-18833397D01*
X129651142Y-18785778D01*
X129698761Y-18738159D01*
%TO.C,J7*%
X130254333Y-117776380D02*
X130254333Y-118490666D01*
X130301952Y-118633523D01*
X130397190Y-118728761D01*
X130540047Y-118776380D01*
X130635285Y-118776380D01*
X129873380Y-117776380D02*
X129206714Y-117776380D01*
X129635285Y-118776380D01*
D13*
%TO.C,J2*%
X134536000Y-105691017D02*
X134536000Y-104391017D01*
X125336000Y-105691017D02*
X127336000Y-105691017D01*
X134536000Y-91191017D02*
X125336000Y-91191017D01*
X125336000Y-91191017D02*
X125336000Y-105691017D01*
X126736000Y-105991017D02*
X125036000Y-105991017D01*
X132536000Y-105691017D02*
X134536000Y-105691017D01*
X125036000Y-105991017D02*
X125036000Y-104691017D01*
X134536000Y-99791017D02*
X134536000Y-91191017D01*
%TO.C,U6*%
X121851000Y-68687000D02*
X119311000Y-71227000D01*
X124391000Y-55437000D02*
X129471000Y-60517000D01*
X119311000Y-26227000D02*
X121851000Y-28767000D01*
X137371000Y-68687000D02*
X139911000Y-71227000D01*
X139911000Y-26227000D02*
X137371000Y-28767000D01*
X129471000Y-35117000D02*
X129471000Y-60517000D01*
X129471000Y-60517000D02*
X124391000Y-55437000D01*
X129471000Y-60517000D02*
X133281000Y-55437000D01*
X119311000Y-26227000D02*
X121851000Y-28767000D01*
X119311000Y-26227000D02*
X139911000Y-26227000D01*
X139911000Y-26227000D02*
X139911000Y-71227000D01*
X139911000Y-71227000D02*
X119311000Y-71227000D01*
X119311000Y-71227000D02*
X119311000Y-26227000D01*
%TO.C,SW1*%
X140874000Y-97113017D02*
X139374000Y-97113017D01*
X143374000Y-91363017D02*
X143374000Y-95863017D01*
X136874000Y-95863017D02*
X136874000Y-91363017D01*
X139374000Y-90113017D02*
X140874000Y-90113017D01*
%TO.C,SW2*%
X116554000Y-95863017D02*
X116554000Y-91363017D01*
X119054000Y-90113017D02*
X120554000Y-90113017D01*
X123054000Y-91363017D02*
X123054000Y-95863017D01*
X120554000Y-97113017D02*
X119054000Y-97113017D01*
%TO.C,J5*%
X128794000Y-19381017D02*
X128194000Y-19381017D01*
X125924000Y-19911017D02*
X125924000Y-21981017D01*
X128494000Y-19681017D02*
X128794000Y-19381017D01*
X126794000Y-19911017D02*
X125924000Y-19911017D01*
X125924000Y-24381017D02*
X125924000Y-24631017D01*
X133664000Y-19911017D02*
X132794000Y-19911017D01*
X133664000Y-24381017D02*
X133664000Y-24631017D01*
X133664000Y-19911017D02*
X133664000Y-21981017D01*
X128494000Y-19681017D02*
X128194000Y-19381017D01*
%TO.C,REF\u002A\u002A*%
G36*
X136467782Y-153868043D02*
G01*
X136580148Y-153916963D01*
X136671690Y-154009203D01*
X136710658Y-154083890D01*
X136737944Y-154228168D01*
X136734263Y-154308344D01*
X136714360Y-154382565D01*
X136672598Y-154411040D01*
X136603820Y-154400392D01*
X136594726Y-154397295D01*
X136546498Y-154372732D01*
X136528245Y-154331835D01*
X136529466Y-154253921D01*
X136531126Y-154198909D01*
X136516881Y-154134541D01*
X136474292Y-154090439D01*
X136421857Y-154065320D01*
X136366929Y-154062519D01*
X136366608Y-154062648D01*
X136336928Y-154095215D01*
X136293735Y-154164917D01*
X136245461Y-154255102D01*
X136200539Y-154349117D01*
X136167402Y-154430311D01*
X136154483Y-154482032D01*
X136167134Y-154489726D01*
X136226668Y-154499412D01*
X136323887Y-154506046D01*
X136446437Y-154508506D01*
X136531263Y-154509078D01*
X136638094Y-154511775D01*
X136711257Y-154516179D01*
X136738391Y-154521730D01*
X136729272Y-154550746D01*
X136704509Y-154609316D01*
X136670627Y-154683678D01*
X136235933Y-154683678D01*
X136124508Y-154683203D01*
X135955301Y-154678707D01*
X135829769Y-154667253D01*
X135738363Y-154646172D01*
X135671532Y-154612794D01*
X135619726Y-154564450D01*
X135573393Y-154498469D01*
X135535156Y-154414406D01*
X135512184Y-154259193D01*
X135514810Y-154188372D01*
X135530702Y-154125806D01*
X135570322Y-154067554D01*
X135644076Y-153992582D01*
X135696163Y-153944367D01*
X135763786Y-153894142D01*
X135827168Y-153871490D01*
X135907584Y-153866207D01*
X136039201Y-153866207D01*
X135992785Y-153955965D01*
X135936225Y-154027096D01*
X135860040Y-154075817D01*
X135839326Y-154084186D01*
X135759041Y-154147944D01*
X135718784Y-154236530D01*
X135722702Y-154333127D01*
X135774943Y-154420920D01*
X135817370Y-154458064D01*
X135871647Y-154479700D01*
X135919954Y-154456539D01*
X135968545Y-154384521D01*
X136023677Y-154259590D01*
X136031292Y-154240632D01*
X136081125Y-154126895D01*
X136130265Y-154029294D01*
X136169080Y-153967197D01*
X136238411Y-153905001D01*
X136349051Y-153863654D01*
X136467782Y-153868043D01*
G37*
D14*
X136467782Y-153868043D02*
X136580148Y-153916963D01*
X136671690Y-154009203D01*
X136710658Y-154083890D01*
X136737944Y-154228168D01*
X136734263Y-154308344D01*
X136714360Y-154382565D01*
X136672598Y-154411040D01*
X136603820Y-154400392D01*
X136594726Y-154397295D01*
X136546498Y-154372732D01*
X136528245Y-154331835D01*
X136529466Y-154253921D01*
X136531126Y-154198909D01*
X136516881Y-154134541D01*
X136474292Y-154090439D01*
X136421857Y-154065320D01*
X136366929Y-154062519D01*
X136366608Y-154062648D01*
X136336928Y-154095215D01*
X136293735Y-154164917D01*
X136245461Y-154255102D01*
X136200539Y-154349117D01*
X136167402Y-154430311D01*
X136154483Y-154482032D01*
X136167134Y-154489726D01*
X136226668Y-154499412D01*
X136323887Y-154506046D01*
X136446437Y-154508506D01*
X136531263Y-154509078D01*
X136638094Y-154511775D01*
X136711257Y-154516179D01*
X136738391Y-154521730D01*
X136729272Y-154550746D01*
X136704509Y-154609316D01*
X136670627Y-154683678D01*
X136235933Y-154683678D01*
X136124508Y-154683203D01*
X135955301Y-154678707D01*
X135829769Y-154667253D01*
X135738363Y-154646172D01*
X135671532Y-154612794D01*
X135619726Y-154564450D01*
X135573393Y-154498469D01*
X135535156Y-154414406D01*
X135512184Y-154259193D01*
X135514810Y-154188372D01*
X135530702Y-154125806D01*
X135570322Y-154067554D01*
X135644076Y-153992582D01*
X135696163Y-153944367D01*
X135763786Y-153894142D01*
X135827168Y-153871490D01*
X135907584Y-153866207D01*
X136039201Y-153866207D01*
X135992785Y-153955965D01*
X135936225Y-154027096D01*
X135860040Y-154075817D01*
X135839326Y-154084186D01*
X135759041Y-154147944D01*
X135718784Y-154236530D01*
X135722702Y-154333127D01*
X135774943Y-154420920D01*
X135817370Y-154458064D01*
X135871647Y-154479700D01*
X135919954Y-154456539D01*
X135968545Y-154384521D01*
X136023677Y-154259590D01*
X136031292Y-154240632D01*
X136081125Y-154126895D01*
X136130265Y-154029294D01*
X136169080Y-153967197D01*
X136238411Y-153905001D01*
X136349051Y-153863654D01*
X136467782Y-153868043D01*
G36*
X135957920Y-148640231D02*
G01*
X136165083Y-148640623D01*
X136351432Y-148641671D01*
X136509453Y-148643278D01*
X136631630Y-148645345D01*
X136710448Y-148647775D01*
X136738391Y-148650471D01*
X136738297Y-148651525D01*
X136728144Y-148687353D01*
X136706339Y-148752655D01*
X136674288Y-148844598D01*
X136262991Y-148844598D01*
X136101385Y-148845182D01*
X135984177Y-148847896D01*
X135904415Y-148854142D01*
X135851531Y-148865320D01*
X135814957Y-148882832D01*
X135784123Y-148908078D01*
X135767725Y-148925290D01*
X135722307Y-149018364D01*
X135726328Y-149120949D01*
X135780032Y-149214957D01*
X135793359Y-149228642D01*
X135821032Y-149250561D01*
X135857614Y-149265560D01*
X135913000Y-149274947D01*
X135997088Y-149280032D01*
X136119773Y-149282123D01*
X136290951Y-149282529D01*
X136377769Y-149282724D01*
X136520565Y-149283990D01*
X136634923Y-149286239D01*
X136710860Y-149289242D01*
X136738391Y-149292770D01*
X136738297Y-149293824D01*
X136728144Y-149329652D01*
X136706339Y-149394954D01*
X136674288Y-149486897D01*
X136261109Y-149486851D01*
X136224326Y-149486782D01*
X136032580Y-149482919D01*
X135887586Y-149471050D01*
X135779510Y-149448275D01*
X135698519Y-149411693D01*
X135634778Y-149358405D01*
X135578455Y-149285510D01*
X135543199Y-149214414D01*
X135515946Y-149100745D01*
X135514398Y-148988940D01*
X135540910Y-148902989D01*
X135544571Y-148896527D01*
X135544179Y-148876599D01*
X135513506Y-148862981D01*
X135443188Y-148853154D01*
X135323857Y-148844598D01*
X135078973Y-148830000D01*
X135118997Y-148735115D01*
X135159020Y-148640230D01*
X135948706Y-148640230D01*
X135957920Y-148640231D01*
G37*
X135957920Y-148640231D02*
X136165083Y-148640623D01*
X136351432Y-148641671D01*
X136509453Y-148643278D01*
X136631630Y-148645345D01*
X136710448Y-148647775D01*
X136738391Y-148650471D01*
X136738297Y-148651525D01*
X136728144Y-148687353D01*
X136706339Y-148752655D01*
X136674288Y-148844598D01*
X136262991Y-148844598D01*
X136101385Y-148845182D01*
X135984177Y-148847896D01*
X135904415Y-148854142D01*
X135851531Y-148865320D01*
X135814957Y-148882832D01*
X135784123Y-148908078D01*
X135767725Y-148925290D01*
X135722307Y-149018364D01*
X135726328Y-149120949D01*
X135780032Y-149214957D01*
X135793359Y-149228642D01*
X135821032Y-149250561D01*
X135857614Y-149265560D01*
X135913000Y-149274947D01*
X135997088Y-149280032D01*
X136119773Y-149282123D01*
X136290951Y-149282529D01*
X136377769Y-149282724D01*
X136520565Y-149283990D01*
X136634923Y-149286239D01*
X136710860Y-149289242D01*
X136738391Y-149292770D01*
X136738297Y-149293824D01*
X136728144Y-149329652D01*
X136706339Y-149394954D01*
X136674288Y-149486897D01*
X136261109Y-149486851D01*
X136224326Y-149486782D01*
X136032580Y-149482919D01*
X135887586Y-149471050D01*
X135779510Y-149448275D01*
X135698519Y-149411693D01*
X135634778Y-149358405D01*
X135578455Y-149285510D01*
X135543199Y-149214414D01*
X135515946Y-149100745D01*
X135514398Y-148988940D01*
X135540910Y-148902989D01*
X135544571Y-148896527D01*
X135544179Y-148876599D01*
X135513506Y-148862981D01*
X135443188Y-148853154D01*
X135323857Y-148844598D01*
X135078973Y-148830000D01*
X135118997Y-148735115D01*
X135159020Y-148640230D01*
X135948706Y-148640230D01*
X135957920Y-148640231D01*
G36*
X136651117Y-152761585D02*
G01*
X136671835Y-152782690D01*
X136717885Y-152841153D01*
X136732801Y-152900114D01*
X136725934Y-152987850D01*
X136721494Y-153023571D01*
X136712102Y-153115699D01*
X136708361Y-153180115D01*
X136708933Y-153199222D01*
X136715126Y-153277610D01*
X136725934Y-153372380D01*
X136729647Y-153402702D01*
X136731107Y-153479089D01*
X136708047Y-153534978D01*
X136651117Y-153598645D01*
X136558727Y-153691035D01*
X136035455Y-153691035D01*
X135880821Y-153690315D01*
X135733391Y-153688071D01*
X135616653Y-153684579D01*
X135539840Y-153680124D01*
X135512184Y-153674987D01*
X135512258Y-153673910D01*
X135526019Y-153636593D01*
X135556344Y-153573543D01*
X135600505Y-153488146D01*
X136059965Y-153480107D01*
X136519425Y-153472069D01*
X136519425Y-153296897D01*
X136015805Y-153288908D01*
X135878904Y-153286376D01*
X135732579Y-153282751D01*
X135616411Y-153278823D01*
X135539809Y-153274920D01*
X135512184Y-153271368D01*
X135512281Y-153270347D01*
X135522443Y-153234949D01*
X135544235Y-153169874D01*
X135576287Y-153077931D01*
X136018661Y-153077484D01*
X136095507Y-153077036D01*
X136244834Y-153073931D01*
X136369544Y-153068378D01*
X136458379Y-153060967D01*
X136500083Y-153052286D01*
X136522389Y-153021229D01*
X136529278Y-152957848D01*
X136519425Y-152888161D01*
X136015805Y-152880173D01*
X135887828Y-152877314D01*
X135736348Y-152871386D01*
X135617530Y-152863635D01*
X135539950Y-152854657D01*
X135512184Y-152845052D01*
X135520970Y-152807590D01*
X135546066Y-152743558D01*
X135579947Y-152669195D01*
X136558727Y-152669195D01*
X136651117Y-152761585D01*
G37*
X136651117Y-152761585D02*
X136671835Y-152782690D01*
X136717885Y-152841153D01*
X136732801Y-152900114D01*
X136725934Y-152987850D01*
X136721494Y-153023571D01*
X136712102Y-153115699D01*
X136708361Y-153180115D01*
X136708933Y-153199222D01*
X136715126Y-153277610D01*
X136725934Y-153372380D01*
X136729647Y-153402702D01*
X136731107Y-153479089D01*
X136708047Y-153534978D01*
X136651117Y-153598645D01*
X136558727Y-153691035D01*
X136035455Y-153691035D01*
X135880821Y-153690315D01*
X135733391Y-153688071D01*
X135616653Y-153684579D01*
X135539840Y-153680124D01*
X135512184Y-153674987D01*
X135512258Y-153673910D01*
X135526019Y-153636593D01*
X135556344Y-153573543D01*
X135600505Y-153488146D01*
X136059965Y-153480107D01*
X136519425Y-153472069D01*
X136519425Y-153296897D01*
X136015805Y-153288908D01*
X135878904Y-153286376D01*
X135732579Y-153282751D01*
X135616411Y-153278823D01*
X135539809Y-153274920D01*
X135512184Y-153271368D01*
X135512281Y-153270347D01*
X135522443Y-153234949D01*
X135544235Y-153169874D01*
X135576287Y-153077931D01*
X136018661Y-153077484D01*
X136095507Y-153077036D01*
X136244834Y-153073931D01*
X136369544Y-153068378D01*
X136458379Y-153060967D01*
X136500083Y-153052286D01*
X136522389Y-153021229D01*
X136529278Y-152957848D01*
X136519425Y-152888161D01*
X136015805Y-152880173D01*
X135887828Y-152877314D01*
X135736348Y-152871386D01*
X135617530Y-152863635D01*
X135539950Y-152854657D01*
X135512184Y-152845052D01*
X135520970Y-152807590D01*
X135546066Y-152743558D01*
X135579947Y-152669195D01*
X136558727Y-152669195D01*
X136651117Y-152761585D01*
G36*
X136375341Y-154859191D02*
G01*
X136519541Y-154860899D01*
X136634620Y-154863799D01*
X136710822Y-154867616D01*
X136738391Y-154872075D01*
X136729272Y-154901091D01*
X136704509Y-154959661D01*
X136703707Y-154961419D01*
X136687785Y-154991833D01*
X136665938Y-155012288D01*
X136627672Y-155024760D01*
X136562495Y-155031223D01*
X136459913Y-155033652D01*
X136309433Y-155034023D01*
X136213974Y-155034771D01*
X136034571Y-155042744D01*
X135903163Y-155061002D01*
X135812859Y-155091474D01*
X135756767Y-155136088D01*
X135727994Y-155196774D01*
X135725989Y-155205193D01*
X135724423Y-155318861D01*
X135775348Y-155407508D01*
X135877445Y-155468735D01*
X135906961Y-155479654D01*
X135972283Y-155504542D01*
X136002300Y-155517146D01*
X135998164Y-155543031D01*
X135975717Y-155599561D01*
X135938647Y-155652285D01*
X135868587Y-155676322D01*
X135818406Y-155669153D01*
X135716618Y-155625103D01*
X135621235Y-155553877D01*
X135555269Y-155470585D01*
X135540018Y-155435690D01*
X135514521Y-155303557D01*
X135524619Y-155163275D01*
X135569393Y-155042739D01*
X135603034Y-154992612D01*
X135651236Y-154941848D01*
X135712551Y-154905638D01*
X135796024Y-154881607D01*
X135910697Y-154867382D01*
X136065613Y-154860588D01*
X136269814Y-154858851D01*
X136375341Y-154859191D01*
G37*
X136375341Y-154859191D02*
X136519541Y-154860899D01*
X136634620Y-154863799D01*
X136710822Y-154867616D01*
X136738391Y-154872075D01*
X136729272Y-154901091D01*
X136704509Y-154959661D01*
X136703707Y-154961419D01*
X136687785Y-154991833D01*
X136665938Y-155012288D01*
X136627672Y-155024760D01*
X136562495Y-155031223D01*
X136459913Y-155033652D01*
X136309433Y-155034023D01*
X136213974Y-155034771D01*
X136034571Y-155042744D01*
X135903163Y-155061002D01*
X135812859Y-155091474D01*
X135756767Y-155136088D01*
X135727994Y-155196774D01*
X135725989Y-155205193D01*
X135724423Y-155318861D01*
X135775348Y-155407508D01*
X135877445Y-155468735D01*
X135906961Y-155479654D01*
X135972283Y-155504542D01*
X136002300Y-155517146D01*
X135998164Y-155543031D01*
X135975717Y-155599561D01*
X135938647Y-155652285D01*
X135868587Y-155676322D01*
X135818406Y-155669153D01*
X135716618Y-155625103D01*
X135621235Y-155553877D01*
X135555269Y-155470585D01*
X135540018Y-155435690D01*
X135514521Y-155303557D01*
X135524619Y-155163275D01*
X135569393Y-155042739D01*
X135603034Y-154992612D01*
X135651236Y-154941848D01*
X135712551Y-154905638D01*
X135796024Y-154881607D01*
X135910697Y-154867382D01*
X136065613Y-154860588D01*
X136269814Y-154858851D01*
X136375341Y-154859191D01*
G36*
X136127744Y-143531062D02*
G01*
X136268918Y-143532645D01*
X136367285Y-143538084D01*
X136435990Y-143549357D01*
X136488181Y-143568439D01*
X136537004Y-143597306D01*
X136547135Y-143604408D01*
X136627012Y-143679556D01*
X136687253Y-143765180D01*
X136706802Y-143809148D01*
X136739408Y-143967139D01*
X136718317Y-144123387D01*
X136646249Y-144267382D01*
X136525922Y-144388615D01*
X136509803Y-144398850D01*
X136416205Y-144432153D01*
X136285879Y-144454595D01*
X136135371Y-144465484D01*
X135981227Y-144464129D01*
X135839992Y-144449839D01*
X135728213Y-144421925D01*
X135653766Y-144386051D01*
X135537968Y-144285061D01*
X135466015Y-144148221D01*
X135442811Y-143991076D01*
X135716552Y-143991076D01*
X135718807Y-144018368D01*
X135760160Y-144094824D01*
X135852900Y-144145350D01*
X135996147Y-144169616D01*
X136189020Y-144167294D01*
X136201433Y-144166361D01*
X136307857Y-144152758D01*
X136375346Y-144128535D01*
X136421584Y-144087635D01*
X136464895Y-144019059D01*
X136467172Y-143951236D01*
X136417241Y-143881379D01*
X136404102Y-143869229D01*
X136364785Y-143845425D01*
X136307674Y-143831372D01*
X136219256Y-143824687D01*
X136086019Y-143822989D01*
X135961222Y-143825899D01*
X135842326Y-143840418D01*
X135767184Y-143870390D01*
X135727893Y-143919411D01*
X135716552Y-143991076D01*
X135442811Y-143991076D01*
X135441281Y-143980717D01*
X135442619Y-143935981D01*
X135470008Y-143804242D01*
X135539007Y-143696032D01*
X135657864Y-143596724D01*
X135666681Y-143590816D01*
X135714108Y-143564079D01*
X135767714Y-143546688D01*
X135840549Y-143536688D01*
X135945659Y-143532122D01*
X136086019Y-143531107D01*
X136096092Y-143531035D01*
X136127744Y-143531062D01*
G37*
X136127744Y-143531062D02*
X136268918Y-143532645D01*
X136367285Y-143538084D01*
X136435990Y-143549357D01*
X136488181Y-143568439D01*
X136537004Y-143597306D01*
X136547135Y-143604408D01*
X136627012Y-143679556D01*
X136687253Y-143765180D01*
X136706802Y-143809148D01*
X136739408Y-143967139D01*
X136718317Y-144123387D01*
X136646249Y-144267382D01*
X136525922Y-144388615D01*
X136509803Y-144398850D01*
X136416205Y-144432153D01*
X136285879Y-144454595D01*
X136135371Y-144465484D01*
X135981227Y-144464129D01*
X135839992Y-144449839D01*
X135728213Y-144421925D01*
X135653766Y-144386051D01*
X135537968Y-144285061D01*
X135466015Y-144148221D01*
X135442811Y-143991076D01*
X135716552Y-143991076D01*
X135718807Y-144018368D01*
X135760160Y-144094824D01*
X135852900Y-144145350D01*
X135996147Y-144169616D01*
X136189020Y-144167294D01*
X136201433Y-144166361D01*
X136307857Y-144152758D01*
X136375346Y-144128535D01*
X136421584Y-144087635D01*
X136464895Y-144019059D01*
X136467172Y-143951236D01*
X136417241Y-143881379D01*
X136404102Y-143869229D01*
X136364785Y-143845425D01*
X136307674Y-143831372D01*
X136219256Y-143824687D01*
X136086019Y-143822989D01*
X135961222Y-143825899D01*
X135842326Y-143840418D01*
X135767184Y-143870390D01*
X135727893Y-143919411D01*
X135716552Y-143991076D01*
X135442811Y-143991076D01*
X135441281Y-143980717D01*
X135442619Y-143935981D01*
X135470008Y-143804242D01*
X135539007Y-143696032D01*
X135657864Y-143596724D01*
X135666681Y-143590816D01*
X135714108Y-143564079D01*
X135767714Y-143546688D01*
X135840549Y-143536688D01*
X135945659Y-143532122D01*
X136086019Y-143531107D01*
X136096092Y-143531035D01*
X136127744Y-143531062D01*
G36*
X131334160Y-145640402D02*
G01*
X131337785Y-145658943D01*
X131356569Y-145757404D01*
X131382093Y-145893552D01*
X131411468Y-146051913D01*
X131441806Y-146217012D01*
X131454009Y-146282027D01*
X131483697Y-146427303D01*
X131511770Y-146548374D01*
X131535536Y-146634114D01*
X131552301Y-146673399D01*
X131579694Y-146691201D01*
X131652174Y-146723611D01*
X131745977Y-146756766D01*
X131781103Y-146768436D01*
X131896409Y-146811396D01*
X132032876Y-146866808D01*
X132167954Y-146925647D01*
X132238509Y-146957116D01*
X132343895Y-147001949D01*
X132422818Y-147032760D01*
X132462053Y-147044215D01*
X132465014Y-147043578D01*
X132506639Y-147021850D01*
X132586969Y-146972854D01*
X132698220Y-146901562D01*
X132832605Y-146812946D01*
X132982340Y-146711977D01*
X133469931Y-146379739D01*
X133907149Y-146816229D01*
X133949221Y-146858445D01*
X134075153Y-146987530D01*
X134183754Y-147102893D01*
X134268903Y-147197776D01*
X134324482Y-147265418D01*
X134344368Y-147299062D01*
X134329238Y-147335598D01*
X134285801Y-147412110D01*
X134219270Y-147519804D01*
X134134867Y-147650233D01*
X134037816Y-147794948D01*
X133941964Y-147937090D01*
X133857557Y-148065322D01*
X133790850Y-148169946D01*
X133747024Y-148242829D01*
X133731264Y-148275842D01*
X133731408Y-148277777D01*
X133746945Y-148321631D01*
X133783121Y-148399402D01*
X133832785Y-148495608D01*
X133833329Y-148496619D01*
X133897326Y-148624395D01*
X133928591Y-148711949D01*
X133928677Y-148766274D01*
X133899138Y-148794359D01*
X133870061Y-148806248D01*
X133792188Y-148838332D01*
X133672475Y-148887753D01*
X133517286Y-148951882D01*
X133332984Y-149028089D01*
X133125933Y-149113745D01*
X132902496Y-149206219D01*
X132699226Y-149290038D01*
X132490649Y-149375322D01*
X132304263Y-149450778D01*
X132146407Y-149513874D01*
X132023419Y-149562077D01*
X131941639Y-149592856D01*
X131907406Y-149603678D01*
X131876015Y-149583009D01*
X131823602Y-149525591D01*
X131762704Y-149444312D01*
X131603387Y-149249180D01*
X131399807Y-149074555D01*
X131175808Y-148946765D01*
X130938003Y-148866598D01*
X130693007Y-148834840D01*
X130447433Y-148852278D01*
X130207895Y-148919699D01*
X129981007Y-149037889D01*
X129773383Y-149207636D01*
X129692527Y-149296144D01*
X129549559Y-149508196D01*
X129456352Y-149735095D01*
X129410687Y-149970209D01*
X129410344Y-150206906D01*
X129453105Y-150438554D01*
X129536750Y-150658522D01*
X129659061Y-150860178D01*
X129817817Y-151036889D01*
X130010801Y-151182023D01*
X130235793Y-151288950D01*
X130490575Y-151351036D01*
X130613377Y-151362431D01*
X130879434Y-151346754D01*
X131131856Y-151276154D01*
X131366182Y-151152718D01*
X131577952Y-150978534D01*
X131762704Y-150755689D01*
X131821123Y-150677439D01*
X131874110Y-150618756D01*
X131907356Y-150596322D01*
X131936339Y-150605268D01*
X132013996Y-150634297D01*
X132133451Y-150680974D01*
X132288362Y-150742769D01*
X132472392Y-150817150D01*
X132679200Y-150901588D01*
X132902446Y-150993551D01*
X133104742Y-151077229D01*
X133313686Y-151163634D01*
X133500498Y-151240862D01*
X133658814Y-151306284D01*
X133782269Y-151357269D01*
X133864498Y-151391188D01*
X133899138Y-151405410D01*
X133899548Y-151405575D01*
X133928798Y-151434028D01*
X133928463Y-151488618D01*
X133896980Y-151576391D01*
X133832785Y-151704392D01*
X133827380Y-151714468D01*
X133778750Y-151809519D01*
X133744328Y-151884576D01*
X133731264Y-151924158D01*
X133746702Y-151956600D01*
X133790258Y-152029105D01*
X133856751Y-152133435D01*
X133940998Y-152261461D01*
X134037816Y-152405052D01*
X134132734Y-152546532D01*
X134217490Y-152677389D01*
X134284496Y-152785708D01*
X134328529Y-152863040D01*
X134344368Y-152900938D01*
X134342357Y-152907393D01*
X134310658Y-152952391D01*
X134245181Y-153029273D01*
X134152048Y-153131279D01*
X134037381Y-153251649D01*
X133907300Y-153383621D01*
X133470232Y-153819961D01*
X132470440Y-153140267D01*
X132246886Y-153243598D01*
X132246225Y-153243904D01*
X132103714Y-153305954D01*
X131945018Y-153369360D01*
X131804368Y-153420442D01*
X131781683Y-153428173D01*
X131676370Y-153467148D01*
X131594534Y-153502293D01*
X131552301Y-153526805D01*
X131546337Y-153536788D01*
X131526329Y-153596714D01*
X131500442Y-153698468D01*
X131471370Y-153830932D01*
X131441806Y-153982989D01*
X131433467Y-154028534D01*
X131403107Y-154193315D01*
X131374509Y-154347070D01*
X131350564Y-154474322D01*
X131334160Y-154559598D01*
X131303906Y-154712874D01*
X130665645Y-154712874D01*
X130587165Y-154712840D01*
X130395703Y-154712192D01*
X130252812Y-154710280D01*
X130151189Y-154706531D01*
X130083531Y-154700378D01*
X130042536Y-154691249D01*
X130020900Y-154678573D01*
X130011320Y-154661782D01*
X130007439Y-154645526D01*
X129993710Y-154579252D01*
X129972745Y-154473521D01*
X129946588Y-154339085D01*
X129917283Y-154186698D01*
X129886877Y-154027110D01*
X129857413Y-153871075D01*
X129830937Y-153729343D01*
X129809494Y-153612669D01*
X129795128Y-153531803D01*
X129789885Y-153497497D01*
X129786720Y-153495178D01*
X129745642Y-153476526D01*
X129667044Y-153444247D01*
X129563621Y-153403609D01*
X129424273Y-153347212D01*
X129263226Y-153277786D01*
X129121291Y-153212712D01*
X129089432Y-153197798D01*
X128989669Y-153155953D01*
X128912721Y-153130882D01*
X128873130Y-153127574D01*
X128870325Y-153129280D01*
X128829005Y-153156369D01*
X128748740Y-153210073D01*
X128637350Y-153285123D01*
X128502655Y-153376254D01*
X128352476Y-153478200D01*
X128181851Y-153593070D01*
X128049311Y-153679239D01*
X127952112Y-153737869D01*
X127884234Y-153772350D01*
X127839656Y-153786074D01*
X127812361Y-153782432D01*
X127810313Y-153781206D01*
X127770536Y-153748253D01*
X127698052Y-153681073D01*
X127600046Y-153586581D01*
X127483702Y-153471694D01*
X127356205Y-153343328D01*
X127226821Y-153210169D01*
X127105209Y-153079731D01*
X127023156Y-152983881D01*
X126978560Y-152920134D01*
X126969317Y-152886004D01*
X126971393Y-152881544D01*
X126999385Y-152834579D01*
X127054084Y-152749315D01*
X127130237Y-152633741D01*
X127222592Y-152495846D01*
X127325897Y-152343619D01*
X127664765Y-151847390D01*
X127563056Y-151623293D01*
X127560109Y-151616781D01*
X127500504Y-151479196D01*
X127441222Y-151333233D01*
X127394685Y-151209425D01*
X127394493Y-151208878D01*
X127358497Y-151110586D01*
X127328095Y-151034919D01*
X127309852Y-150998220D01*
X127309190Y-150997626D01*
X127271831Y-150985167D01*
X127186871Y-150964664D01*
X127063469Y-150938093D01*
X126910782Y-150907433D01*
X126737967Y-150874664D01*
X126731774Y-150873522D01*
X126555431Y-150840807D01*
X126395743Y-150810845D01*
X126262905Y-150785575D01*
X126167113Y-150766935D01*
X126118563Y-150756865D01*
X126115873Y-150756221D01*
X126095088Y-150749592D01*
X126079466Y-150736159D01*
X126068270Y-150708554D01*
X126060762Y-150659407D01*
X126056205Y-150581347D01*
X126053863Y-150467006D01*
X126052998Y-150309014D01*
X126052874Y-150100000D01*
X126052874Y-150073738D01*
X126053045Y-149870825D01*
X126054039Y-149718105D01*
X126056593Y-149608208D01*
X126061445Y-149533765D01*
X126069331Y-149487406D01*
X126080988Y-149461761D01*
X126097153Y-149449461D01*
X126118563Y-149443135D01*
X126119332Y-149442953D01*
X126169663Y-149432559D01*
X126266888Y-149413661D01*
X126400810Y-149388198D01*
X126561235Y-149358110D01*
X126737967Y-149325336D01*
X126752428Y-149322663D01*
X126923959Y-149289990D01*
X127074625Y-149259587D01*
X127195267Y-149233432D01*
X127276729Y-149213504D01*
X127309852Y-149201780D01*
X127309905Y-149201718D01*
X127328229Y-149164771D01*
X127358677Y-149088943D01*
X127394685Y-148990575D01*
X127396640Y-148985035D01*
X127444170Y-148859276D01*
X127503783Y-148712989D01*
X127563056Y-148576707D01*
X127664765Y-148352610D01*
X127325897Y-147856382D01*
X127302063Y-147821430D01*
X127200755Y-147671720D01*
X127111575Y-147538133D01*
X127039773Y-147428657D01*
X126990603Y-147351282D01*
X126969317Y-147313996D01*
X126974196Y-147288448D01*
X127012002Y-147230445D01*
X127086870Y-147140805D01*
X127200903Y-147017043D01*
X127356205Y-146856672D01*
X127370341Y-146842321D01*
X127496999Y-146715067D01*
X127611745Y-146602031D01*
X127707391Y-146510133D01*
X127776746Y-146446293D01*
X127812620Y-146417430D01*
X127812794Y-146417336D01*
X127840106Y-146413669D01*
X127884408Y-146427192D01*
X127951761Y-146461316D01*
X128048226Y-146519452D01*
X128179863Y-146605012D01*
X128352734Y-146721406D01*
X128381912Y-146741241D01*
X128529726Y-146841555D01*
X128660577Y-146930077D01*
X128766643Y-147001535D01*
X128840102Y-147050657D01*
X128873130Y-147072169D01*
X128880126Y-147073792D01*
X128932326Y-147063613D01*
X129017561Y-147033121D01*
X129121291Y-146987288D01*
X129256951Y-146925000D01*
X129417921Y-146855452D01*
X129563621Y-146796391D01*
X129601333Y-146781748D01*
X129697622Y-146743400D01*
X129764704Y-146715230D01*
X129789885Y-146702503D01*
X129791767Y-146688455D01*
X129802651Y-146625319D01*
X129821449Y-146521981D01*
X129846115Y-146389191D01*
X129874604Y-146237703D01*
X129904873Y-146078268D01*
X129934875Y-145921639D01*
X129962566Y-145778567D01*
X129985900Y-145659805D01*
X130002833Y-145576104D01*
X130011320Y-145538218D01*
X130013713Y-145531937D01*
X130026619Y-145516627D01*
X130054096Y-145505237D01*
X130103446Y-145497197D01*
X130181973Y-145491936D01*
X130296980Y-145488884D01*
X130455770Y-145487471D01*
X130665645Y-145487127D01*
X131303906Y-145487127D01*
X131334160Y-145640402D01*
G37*
X131334160Y-145640402D02*
X131337785Y-145658943D01*
X131356569Y-145757404D01*
X131382093Y-145893552D01*
X131411468Y-146051913D01*
X131441806Y-146217012D01*
X131454009Y-146282027D01*
X131483697Y-146427303D01*
X131511770Y-146548374D01*
X131535536Y-146634114D01*
X131552301Y-146673399D01*
X131579694Y-146691201D01*
X131652174Y-146723611D01*
X131745977Y-146756766D01*
X131781103Y-146768436D01*
X131896409Y-146811396D01*
X132032876Y-146866808D01*
X132167954Y-146925647D01*
X132238509Y-146957116D01*
X132343895Y-147001949D01*
X132422818Y-147032760D01*
X132462053Y-147044215D01*
X132465014Y-147043578D01*
X132506639Y-147021850D01*
X132586969Y-146972854D01*
X132698220Y-146901562D01*
X132832605Y-146812946D01*
X132982340Y-146711977D01*
X133469931Y-146379739D01*
X133907149Y-146816229D01*
X133949221Y-146858445D01*
X134075153Y-146987530D01*
X134183754Y-147102893D01*
X134268903Y-147197776D01*
X134324482Y-147265418D01*
X134344368Y-147299062D01*
X134329238Y-147335598D01*
X134285801Y-147412110D01*
X134219270Y-147519804D01*
X134134867Y-147650233D01*
X134037816Y-147794948D01*
X133941964Y-147937090D01*
X133857557Y-148065322D01*
X133790850Y-148169946D01*
X133747024Y-148242829D01*
X133731264Y-148275842D01*
X133731408Y-148277777D01*
X133746945Y-148321631D01*
X133783121Y-148399402D01*
X133832785Y-148495608D01*
X133833329Y-148496619D01*
X133897326Y-148624395D01*
X133928591Y-148711949D01*
X133928677Y-148766274D01*
X133899138Y-148794359D01*
X133870061Y-148806248D01*
X133792188Y-148838332D01*
X133672475Y-148887753D01*
X133517286Y-148951882D01*
X133332984Y-149028089D01*
X133125933Y-149113745D01*
X132902496Y-149206219D01*
X132699226Y-149290038D01*
X132490649Y-149375322D01*
X132304263Y-149450778D01*
X132146407Y-149513874D01*
X132023419Y-149562077D01*
X131941639Y-149592856D01*
X131907406Y-149603678D01*
X131876015Y-149583009D01*
X131823602Y-149525591D01*
X131762704Y-149444312D01*
X131603387Y-149249180D01*
X131399807Y-149074555D01*
X131175808Y-148946765D01*
X130938003Y-148866598D01*
X130693007Y-148834840D01*
X130447433Y-148852278D01*
X130207895Y-148919699D01*
X129981007Y-149037889D01*
X129773383Y-149207636D01*
X129692527Y-149296144D01*
X129549559Y-149508196D01*
X129456352Y-149735095D01*
X129410687Y-149970209D01*
X129410344Y-150206906D01*
X129453105Y-150438554D01*
X129536750Y-150658522D01*
X129659061Y-150860178D01*
X129817817Y-151036889D01*
X130010801Y-151182023D01*
X130235793Y-151288950D01*
X130490575Y-151351036D01*
X130613377Y-151362431D01*
X130879434Y-151346754D01*
X131131856Y-151276154D01*
X131366182Y-151152718D01*
X131577952Y-150978534D01*
X131762704Y-150755689D01*
X131821123Y-150677439D01*
X131874110Y-150618756D01*
X131907356Y-150596322D01*
X131936339Y-150605268D01*
X132013996Y-150634297D01*
X132133451Y-150680974D01*
X132288362Y-150742769D01*
X132472392Y-150817150D01*
X132679200Y-150901588D01*
X132902446Y-150993551D01*
X133104742Y-151077229D01*
X133313686Y-151163634D01*
X133500498Y-151240862D01*
X133658814Y-151306284D01*
X133782269Y-151357269D01*
X133864498Y-151391188D01*
X133899138Y-151405410D01*
X133899548Y-151405575D01*
X133928798Y-151434028D01*
X133928463Y-151488618D01*
X133896980Y-151576391D01*
X133832785Y-151704392D01*
X133827380Y-151714468D01*
X133778750Y-151809519D01*
X133744328Y-151884576D01*
X133731264Y-151924158D01*
X133746702Y-151956600D01*
X133790258Y-152029105D01*
X133856751Y-152133435D01*
X133940998Y-152261461D01*
X134037816Y-152405052D01*
X134132734Y-152546532D01*
X134217490Y-152677389D01*
X134284496Y-152785708D01*
X134328529Y-152863040D01*
X134344368Y-152900938D01*
X134342357Y-152907393D01*
X134310658Y-152952391D01*
X134245181Y-153029273D01*
X134152048Y-153131279D01*
X134037381Y-153251649D01*
X133907300Y-153383621D01*
X133470232Y-153819961D01*
X132470440Y-153140267D01*
X132246886Y-153243598D01*
X132246225Y-153243904D01*
X132103714Y-153305954D01*
X131945018Y-153369360D01*
X131804368Y-153420442D01*
X131781683Y-153428173D01*
X131676370Y-153467148D01*
X131594534Y-153502293D01*
X131552301Y-153526805D01*
X131546337Y-153536788D01*
X131526329Y-153596714D01*
X131500442Y-153698468D01*
X131471370Y-153830932D01*
X131441806Y-153982989D01*
X131433467Y-154028534D01*
X131403107Y-154193315D01*
X131374509Y-154347070D01*
X131350564Y-154474322D01*
X131334160Y-154559598D01*
X131303906Y-154712874D01*
X130665645Y-154712874D01*
X130587165Y-154712840D01*
X130395703Y-154712192D01*
X130252812Y-154710280D01*
X130151189Y-154706531D01*
X130083531Y-154700378D01*
X130042536Y-154691249D01*
X130020900Y-154678573D01*
X130011320Y-154661782D01*
X130007439Y-154645526D01*
X129993710Y-154579252D01*
X129972745Y-154473521D01*
X129946588Y-154339085D01*
X129917283Y-154186698D01*
X129886877Y-154027110D01*
X129857413Y-153871075D01*
X129830937Y-153729343D01*
X129809494Y-153612669D01*
X129795128Y-153531803D01*
X129789885Y-153497497D01*
X129786720Y-153495178D01*
X129745642Y-153476526D01*
X129667044Y-153444247D01*
X129563621Y-153403609D01*
X129424273Y-153347212D01*
X129263226Y-153277786D01*
X129121291Y-153212712D01*
X129089432Y-153197798D01*
X128989669Y-153155953D01*
X128912721Y-153130882D01*
X128873130Y-153127574D01*
X128870325Y-153129280D01*
X128829005Y-153156369D01*
X128748740Y-153210073D01*
X128637350Y-153285123D01*
X128502655Y-153376254D01*
X128352476Y-153478200D01*
X128181851Y-153593070D01*
X128049311Y-153679239D01*
X127952112Y-153737869D01*
X127884234Y-153772350D01*
X127839656Y-153786074D01*
X127812361Y-153782432D01*
X127810313Y-153781206D01*
X127770536Y-153748253D01*
X127698052Y-153681073D01*
X127600046Y-153586581D01*
X127483702Y-153471694D01*
X127356205Y-153343328D01*
X127226821Y-153210169D01*
X127105209Y-153079731D01*
X127023156Y-152983881D01*
X126978560Y-152920134D01*
X126969317Y-152886004D01*
X126971393Y-152881544D01*
X126999385Y-152834579D01*
X127054084Y-152749315D01*
X127130237Y-152633741D01*
X127222592Y-152495846D01*
X127325897Y-152343619D01*
X127664765Y-151847390D01*
X127563056Y-151623293D01*
X127560109Y-151616781D01*
X127500504Y-151479196D01*
X127441222Y-151333233D01*
X127394685Y-151209425D01*
X127394493Y-151208878D01*
X127358497Y-151110586D01*
X127328095Y-151034919D01*
X127309852Y-150998220D01*
X127309190Y-150997626D01*
X127271831Y-150985167D01*
X127186871Y-150964664D01*
X127063469Y-150938093D01*
X126910782Y-150907433D01*
X126737967Y-150874664D01*
X126731774Y-150873522D01*
X126555431Y-150840807D01*
X126395743Y-150810845D01*
X126262905Y-150785575D01*
X126167113Y-150766935D01*
X126118563Y-150756865D01*
X126115873Y-150756221D01*
X126095088Y-150749592D01*
X126079466Y-150736159D01*
X126068270Y-150708554D01*
X126060762Y-150659407D01*
X126056205Y-150581347D01*
X126053863Y-150467006D01*
X126052998Y-150309014D01*
X126052874Y-150100000D01*
X126052874Y-150073738D01*
X126053045Y-149870825D01*
X126054039Y-149718105D01*
X126056593Y-149608208D01*
X126061445Y-149533765D01*
X126069331Y-149487406D01*
X126080988Y-149461761D01*
X126097153Y-149449461D01*
X126118563Y-149443135D01*
X126119332Y-149442953D01*
X126169663Y-149432559D01*
X126266888Y-149413661D01*
X126400810Y-149388198D01*
X126561235Y-149358110D01*
X126737967Y-149325336D01*
X126752428Y-149322663D01*
X126923959Y-149289990D01*
X127074625Y-149259587D01*
X127195267Y-149233432D01*
X127276729Y-149213504D01*
X127309852Y-149201780D01*
X127309905Y-149201718D01*
X127328229Y-149164771D01*
X127358677Y-149088943D01*
X127394685Y-148990575D01*
X127396640Y-148985035D01*
X127444170Y-148859276D01*
X127503783Y-148712989D01*
X127563056Y-148576707D01*
X127664765Y-148352610D01*
X127325897Y-147856382D01*
X127302063Y-147821430D01*
X127200755Y-147671720D01*
X127111575Y-147538133D01*
X127039773Y-147428657D01*
X126990603Y-147351282D01*
X126969317Y-147313996D01*
X126974196Y-147288448D01*
X127012002Y-147230445D01*
X127086870Y-147140805D01*
X127200903Y-147017043D01*
X127356205Y-146856672D01*
X127370341Y-146842321D01*
X127496999Y-146715067D01*
X127611745Y-146602031D01*
X127707391Y-146510133D01*
X127776746Y-146446293D01*
X127812620Y-146417430D01*
X127812794Y-146417336D01*
X127840106Y-146413669D01*
X127884408Y-146427192D01*
X127951761Y-146461316D01*
X128048226Y-146519452D01*
X128179863Y-146605012D01*
X128352734Y-146721406D01*
X128381912Y-146741241D01*
X128529726Y-146841555D01*
X128660577Y-146930077D01*
X128766643Y-147001535D01*
X128840102Y-147050657D01*
X128873130Y-147072169D01*
X128880126Y-147073792D01*
X128932326Y-147063613D01*
X129017561Y-147033121D01*
X129121291Y-146987288D01*
X129256951Y-146925000D01*
X129417921Y-146855452D01*
X129563621Y-146796391D01*
X129601333Y-146781748D01*
X129697622Y-146743400D01*
X129764704Y-146715230D01*
X129789885Y-146702503D01*
X129791767Y-146688455D01*
X129802651Y-146625319D01*
X129821449Y-146521981D01*
X129846115Y-146389191D01*
X129874604Y-146237703D01*
X129904873Y-146078268D01*
X129934875Y-145921639D01*
X129962566Y-145778567D01*
X129985900Y-145659805D01*
X130002833Y-145576104D01*
X130011320Y-145538218D01*
X130013713Y-145531937D01*
X130026619Y-145516627D01*
X130054096Y-145505237D01*
X130103446Y-145497197D01*
X130181973Y-145491936D01*
X130296980Y-145488884D01*
X130455770Y-145487471D01*
X130665645Y-145487127D01*
X131303906Y-145487127D01*
X131334160Y-145640402D01*
G36*
X136628603Y-150659208D02*
G01*
X136711103Y-150666912D01*
X136738391Y-150679534D01*
X136730220Y-150717733D01*
X136705463Y-150782626D01*
X136698223Y-150797906D01*
X136681835Y-150821773D01*
X136654893Y-150838231D01*
X136607833Y-150848995D01*
X136531088Y-150855781D01*
X136415095Y-150860307D01*
X136250287Y-150864287D01*
X136202112Y-150865378D01*
X136049960Y-150869593D01*
X135943476Y-150875064D01*
X135872565Y-150883446D01*
X135827129Y-150896394D01*
X135797072Y-150915561D01*
X135772296Y-150942602D01*
X135728861Y-151022663D01*
X135720498Y-151121154D01*
X135753734Y-151209281D01*
X135822548Y-151272686D01*
X135920920Y-151297012D01*
X135947658Y-151297689D01*
X135996065Y-151310976D01*
X136003450Y-151350204D01*
X135974624Y-151427017D01*
X135965378Y-151444808D01*
X135911006Y-151492891D01*
X135830161Y-151493843D01*
X135718352Y-151448032D01*
X135657419Y-151406010D01*
X135570859Y-151298565D01*
X135521920Y-151165943D01*
X135515260Y-151024133D01*
X135555536Y-150889128D01*
X135560638Y-150879910D01*
X135619080Y-150804619D01*
X135694215Y-150737302D01*
X135711196Y-150725561D01*
X135750825Y-150703117D01*
X135797858Y-150687082D01*
X135862492Y-150676055D01*
X135954923Y-150668635D01*
X136085349Y-150663421D01*
X136263965Y-150659011D01*
X136294162Y-150658386D01*
X136489941Y-150656380D01*
X136628603Y-150659208D01*
G37*
X136628603Y-150659208D02*
X136711103Y-150666912D01*
X136738391Y-150679534D01*
X136730220Y-150717733D01*
X136705463Y-150782626D01*
X136698223Y-150797906D01*
X136681835Y-150821773D01*
X136654893Y-150838231D01*
X136607833Y-150848995D01*
X136531088Y-150855781D01*
X136415095Y-150860307D01*
X136250287Y-150864287D01*
X136202112Y-150865378D01*
X136049960Y-150869593D01*
X135943476Y-150875064D01*
X135872565Y-150883446D01*
X135827129Y-150896394D01*
X135797072Y-150915561D01*
X135772296Y-150942602D01*
X135728861Y-151022663D01*
X135720498Y-151121154D01*
X135753734Y-151209281D01*
X135822548Y-151272686D01*
X135920920Y-151297012D01*
X135947658Y-151297689D01*
X135996065Y-151310976D01*
X136003450Y-151350204D01*
X135974624Y-151427017D01*
X135965378Y-151444808D01*
X135911006Y-151492891D01*
X135830161Y-151493843D01*
X135718352Y-151448032D01*
X135657419Y-151406010D01*
X135570859Y-151298565D01*
X135521920Y-151165943D01*
X135515260Y-151024133D01*
X135555536Y-150889128D01*
X135560638Y-150879910D01*
X135619080Y-150804619D01*
X135694215Y-150737302D01*
X135711196Y-150725561D01*
X135750825Y-150703117D01*
X135797858Y-150687082D01*
X135862492Y-150676055D01*
X135954923Y-150668635D01*
X136085349Y-150663421D01*
X136263965Y-150659011D01*
X136294162Y-150658386D01*
X136489941Y-150656380D01*
X136628603Y-150659208D01*
G36*
X136239135Y-151649781D02*
G01*
X136394320Y-151666261D01*
X136510612Y-151702117D01*
X136599411Y-151761545D01*
X136672119Y-151848743D01*
X136714150Y-151931805D01*
X136737538Y-152071291D01*
X136711965Y-152210588D01*
X136640694Y-152336490D01*
X136526991Y-152435790D01*
X136506024Y-152447781D01*
X136469291Y-152463616D01*
X136422415Y-152475362D01*
X136357355Y-152483622D01*
X136266070Y-152489002D01*
X136140519Y-152492108D01*
X135972661Y-152493543D01*
X135754455Y-152493914D01*
X135077072Y-152494023D01*
X135116819Y-152399138D01*
X135127699Y-152374051D01*
X135152268Y-152334119D01*
X135189475Y-152311261D01*
X135254541Y-152298699D01*
X135362687Y-152289655D01*
X135459788Y-152281395D01*
X135523535Y-152270477D01*
X135547323Y-152254835D01*
X135540943Y-152231264D01*
X135518525Y-152171199D01*
X135512967Y-152063855D01*
X135518063Y-152035508D01*
X135721235Y-152035508D01*
X135727985Y-152137563D01*
X135784123Y-152226175D01*
X135806382Y-152245251D01*
X135848293Y-152268514D01*
X135906822Y-152281964D01*
X135995880Y-152288159D01*
X136129379Y-152289655D01*
X136235644Y-152288965D01*
X136331762Y-152284600D01*
X136393811Y-152273808D01*
X136435502Y-152253874D01*
X136470543Y-152222084D01*
X136477279Y-152214636D01*
X136526992Y-152118940D01*
X136521905Y-152017688D01*
X136462362Y-151923386D01*
X136431514Y-151895306D01*
X136390618Y-151871804D01*
X136334080Y-151858678D01*
X136247657Y-151852970D01*
X136117106Y-151851724D01*
X136017487Y-151852339D01*
X135920251Y-151856593D01*
X135857502Y-151867318D01*
X135815382Y-151887293D01*
X135780032Y-151919296D01*
X135764114Y-151938095D01*
X135721235Y-152035508D01*
X135518063Y-152035508D01*
X135533728Y-151948376D01*
X135578455Y-151848743D01*
X135619856Y-151793928D01*
X135700632Y-151723548D01*
X135804195Y-151678472D01*
X135941947Y-151654504D01*
X136117106Y-151647761D01*
X136125287Y-151647447D01*
X136239135Y-151649781D01*
G37*
X136239135Y-151649781D02*
X136394320Y-151666261D01*
X136510612Y-151702117D01*
X136599411Y-151761545D01*
X136672119Y-151848743D01*
X136714150Y-151931805D01*
X136737538Y-152071291D01*
X136711965Y-152210588D01*
X136640694Y-152336490D01*
X136526991Y-152435790D01*
X136506024Y-152447781D01*
X136469291Y-152463616D01*
X136422415Y-152475362D01*
X136357355Y-152483622D01*
X136266070Y-152489002D01*
X136140519Y-152492108D01*
X135972661Y-152493543D01*
X135754455Y-152493914D01*
X135077072Y-152494023D01*
X135116819Y-152399138D01*
X135127699Y-152374051D01*
X135152268Y-152334119D01*
X135189475Y-152311261D01*
X135254541Y-152298699D01*
X135362687Y-152289655D01*
X135459788Y-152281395D01*
X135523535Y-152270477D01*
X135547323Y-152254835D01*
X135540943Y-152231264D01*
X135518525Y-152171199D01*
X135512967Y-152063855D01*
X135518063Y-152035508D01*
X135721235Y-152035508D01*
X135727985Y-152137563D01*
X135784123Y-152226175D01*
X135806382Y-152245251D01*
X135848293Y-152268514D01*
X135906822Y-152281964D01*
X135995880Y-152288159D01*
X136129379Y-152289655D01*
X136235644Y-152288965D01*
X136331762Y-152284600D01*
X136393811Y-152273808D01*
X136435502Y-152253874D01*
X136470543Y-152222084D01*
X136477279Y-152214636D01*
X136526992Y-152118940D01*
X136521905Y-152017688D01*
X136462362Y-151923386D01*
X136431514Y-151895306D01*
X136390618Y-151871804D01*
X136334080Y-151858678D01*
X136247657Y-151852970D01*
X136117106Y-151851724D01*
X136017487Y-151852339D01*
X135920251Y-151856593D01*
X135857502Y-151867318D01*
X135815382Y-151887293D01*
X135780032Y-151919296D01*
X135764114Y-151938095D01*
X135721235Y-152035508D01*
X135518063Y-152035508D01*
X135533728Y-151948376D01*
X135578455Y-151848743D01*
X135619856Y-151793928D01*
X135700632Y-151723548D01*
X135804195Y-151678472D01*
X135941947Y-151654504D01*
X136117106Y-151647761D01*
X136125287Y-151647447D01*
X136239135Y-151649781D01*
G36*
X135995372Y-149756037D02*
G01*
X135955504Y-149821023D01*
X135872734Y-149872237D01*
X135855669Y-149877496D01*
X135768724Y-149934097D01*
X135721758Y-150019406D01*
X135719741Y-150117359D01*
X135767644Y-150211894D01*
X135779998Y-150226007D01*
X135833683Y-150273203D01*
X135880488Y-150280997D01*
X135926446Y-150245294D01*
X135977588Y-150161997D01*
X136039948Y-150027012D01*
X136043897Y-150017882D01*
X136113772Y-149868031D01*
X136175672Y-149765684D01*
X136237476Y-149702680D01*
X136307062Y-149670862D01*
X136392308Y-149662069D01*
X136486816Y-149673591D01*
X136607785Y-149731772D01*
X136694688Y-149834125D01*
X136720778Y-149908157D01*
X136735055Y-150012633D01*
X136732006Y-150114083D01*
X136710467Y-150186528D01*
X136705104Y-150194223D01*
X136667632Y-150214659D01*
X136601591Y-150200478D01*
X136549753Y-150175839D01*
X136528172Y-150136330D01*
X136529246Y-150061398D01*
X136523055Y-149957370D01*
X136480311Y-149889395D01*
X136401189Y-149866437D01*
X136398916Y-149866458D01*
X136352986Y-149880371D01*
X136310845Y-149927697D01*
X136262272Y-150019713D01*
X136203790Y-150144849D01*
X136171975Y-150227732D01*
X136174025Y-150275580D01*
X136216051Y-150297937D01*
X136304162Y-150304351D01*
X136444469Y-150304368D01*
X136531081Y-150305083D01*
X136638041Y-150308365D01*
X136711250Y-150313700D01*
X136738391Y-150320415D01*
X136738206Y-150322210D01*
X136723498Y-150361018D01*
X136692456Y-150425291D01*
X136646521Y-150514120D01*
X136232628Y-150503564D01*
X136205179Y-150502829D01*
X136012517Y-150494445D01*
X135867309Y-150479634D01*
X135759887Y-150455371D01*
X135680584Y-150418636D01*
X135619730Y-150366403D01*
X135567658Y-150295652D01*
X135566842Y-150294343D01*
X135524360Y-150179944D01*
X135517184Y-150047635D01*
X135543674Y-149920005D01*
X135602191Y-149819645D01*
X135647784Y-149775495D01*
X135784072Y-149690653D01*
X135932658Y-149662069D01*
X136034882Y-149662069D01*
X135995372Y-149756037D01*
G37*
X135995372Y-149756037D02*
X135955504Y-149821023D01*
X135872734Y-149872237D01*
X135855669Y-149877496D01*
X135768724Y-149934097D01*
X135721758Y-150019406D01*
X135719741Y-150117359D01*
X135767644Y-150211894D01*
X135779998Y-150226007D01*
X135833683Y-150273203D01*
X135880488Y-150280997D01*
X135926446Y-150245294D01*
X135977588Y-150161997D01*
X136039948Y-150027012D01*
X136043897Y-150017882D01*
X136113772Y-149868031D01*
X136175672Y-149765684D01*
X136237476Y-149702680D01*
X136307062Y-149670862D01*
X136392308Y-149662069D01*
X136486816Y-149673591D01*
X136607785Y-149731772D01*
X136694688Y-149834125D01*
X136720778Y-149908157D01*
X136735055Y-150012633D01*
X136732006Y-150114083D01*
X136710467Y-150186528D01*
X136705104Y-150194223D01*
X136667632Y-150214659D01*
X136601591Y-150200478D01*
X136549753Y-150175839D01*
X136528172Y-150136330D01*
X136529246Y-150061398D01*
X136523055Y-149957370D01*
X136480311Y-149889395D01*
X136401189Y-149866437D01*
X136398916Y-149866458D01*
X136352986Y-149880371D01*
X136310845Y-149927697D01*
X136262272Y-150019713D01*
X136203790Y-150144849D01*
X136171975Y-150227732D01*
X136174025Y-150275580D01*
X136216051Y-150297937D01*
X136304162Y-150304351D01*
X136444469Y-150304368D01*
X136531081Y-150305083D01*
X136638041Y-150308365D01*
X136711250Y-150313700D01*
X136738391Y-150320415D01*
X136738206Y-150322210D01*
X136723498Y-150361018D01*
X136692456Y-150425291D01*
X136646521Y-150514120D01*
X136232628Y-150503564D01*
X136205179Y-150502829D01*
X136012517Y-150494445D01*
X135867309Y-150479634D01*
X135759887Y-150455371D01*
X135680584Y-150418636D01*
X135619730Y-150366403D01*
X135567658Y-150295652D01*
X135566842Y-150294343D01*
X135524360Y-150179944D01*
X135517184Y-150047635D01*
X135543674Y-149920005D01*
X135602191Y-149819645D01*
X135647784Y-149775495D01*
X135784072Y-149690653D01*
X135932658Y-149662069D01*
X136034882Y-149662069D01*
X135995372Y-149756037D01*
G36*
X136208946Y-155852256D02*
G01*
X136362254Y-155859388D01*
X136474441Y-155878052D01*
X136557554Y-155912463D01*
X136623641Y-155966838D01*
X136684747Y-156045390D01*
X136712535Y-156095370D01*
X136731251Y-156175487D01*
X136729774Y-156288030D01*
X136723845Y-156350950D01*
X136705742Y-156426847D01*
X136666391Y-156487513D01*
X136593066Y-156558088D01*
X136582356Y-156567518D01*
X136499938Y-156630966D01*
X136428156Y-156661238D01*
X136343034Y-156668966D01*
X136217946Y-156668966D01*
X136250940Y-156581553D01*
X136289509Y-156517825D01*
X136380008Y-156462433D01*
X136408983Y-156450869D01*
X136491041Y-156386212D01*
X136532347Y-156298196D01*
X136528633Y-156202363D01*
X136475632Y-156114253D01*
X136442582Y-156083972D01*
X136392720Y-156056511D01*
X136347416Y-156065101D01*
X136300790Y-156114537D01*
X136246958Y-156209611D01*
X136180039Y-156355115D01*
X136049056Y-156654368D01*
X135919298Y-156662309D01*
X135822255Y-156658804D01*
X135699617Y-156614664D01*
X135632034Y-156558950D01*
X135556540Y-156443439D01*
X135518403Y-156306412D01*
X135518663Y-156294216D01*
X135716250Y-156294216D01*
X135762000Y-156399711D01*
X135784876Y-156428947D01*
X135836649Y-156464348D01*
X135887815Y-156449547D01*
X135942442Y-156382203D01*
X136004597Y-156259973D01*
X136013601Y-156239747D01*
X136055493Y-156143030D01*
X136084958Y-156070666D01*
X136096092Y-156037039D01*
X136087896Y-156031944D01*
X136037853Y-156029899D01*
X135957414Y-156037188D01*
X135878753Y-156055548D01*
X135779651Y-156112812D01*
X135723808Y-156195476D01*
X135716250Y-156294216D01*
X135518663Y-156294216D01*
X135521422Y-156164763D01*
X135569393Y-156035383D01*
X135587813Y-156006901D01*
X135644811Y-155941572D01*
X135716916Y-155896894D01*
X135814853Y-155869359D01*
X135949351Y-155855459D01*
X136037853Y-155853622D01*
X136131136Y-155851687D01*
X136208946Y-155852256D01*
G37*
X136208946Y-155852256D02*
X136362254Y-155859388D01*
X136474441Y-155878052D01*
X136557554Y-155912463D01*
X136623641Y-155966838D01*
X136684747Y-156045390D01*
X136712535Y-156095370D01*
X136731251Y-156175487D01*
X136729774Y-156288030D01*
X136723845Y-156350950D01*
X136705742Y-156426847D01*
X136666391Y-156487513D01*
X136593066Y-156558088D01*
X136582356Y-156567518D01*
X136499938Y-156630966D01*
X136428156Y-156661238D01*
X136343034Y-156668966D01*
X136217946Y-156668966D01*
X136250940Y-156581553D01*
X136289509Y-156517825D01*
X136380008Y-156462433D01*
X136408983Y-156450869D01*
X136491041Y-156386212D01*
X136532347Y-156298196D01*
X136528633Y-156202363D01*
X136475632Y-156114253D01*
X136442582Y-156083972D01*
X136392720Y-156056511D01*
X136347416Y-156065101D01*
X136300790Y-156114537D01*
X136246958Y-156209611D01*
X136180039Y-156355115D01*
X136049056Y-156654368D01*
X135919298Y-156662309D01*
X135822255Y-156658804D01*
X135699617Y-156614664D01*
X135632034Y-156558950D01*
X135556540Y-156443439D01*
X135518403Y-156306412D01*
X135518663Y-156294216D01*
X135716250Y-156294216D01*
X135762000Y-156399711D01*
X135784876Y-156428947D01*
X135836649Y-156464348D01*
X135887815Y-156449547D01*
X135942442Y-156382203D01*
X136004597Y-156259973D01*
X136013601Y-156239747D01*
X136055493Y-156143030D01*
X136084958Y-156070666D01*
X136096092Y-156037039D01*
X136087896Y-156031944D01*
X136037853Y-156029899D01*
X135957414Y-156037188D01*
X135878753Y-156055548D01*
X135779651Y-156112812D01*
X135723808Y-156195476D01*
X135716250Y-156294216D01*
X135518663Y-156294216D01*
X135521422Y-156164763D01*
X135569393Y-156035383D01*
X135587813Y-156006901D01*
X135644811Y-155941572D01*
X135716916Y-155896894D01*
X135814853Y-155869359D01*
X135949351Y-155855459D01*
X136037853Y-155853622D01*
X136131136Y-155851687D01*
X136208946Y-155852256D01*
G36*
X136234639Y-145759832D02*
G01*
X136281526Y-145765074D01*
X136448409Y-145804132D01*
X136575326Y-145874710D01*
X136672602Y-145982045D01*
X136676616Y-145988112D01*
X136733706Y-146124560D01*
X136738786Y-146267027D01*
X136695311Y-146404304D01*
X136606734Y-146525181D01*
X136476509Y-146618448D01*
X136473369Y-146620014D01*
X136392501Y-146651007D01*
X136300593Y-146673708D01*
X136214311Y-146685750D01*
X136150321Y-146684763D01*
X136125287Y-146668377D01*
X136126809Y-146653821D01*
X136154496Y-146584208D01*
X136205409Y-146505303D01*
X136264343Y-146438180D01*
X136316094Y-146403913D01*
X136386291Y-146368293D01*
X136450138Y-146295289D01*
X136475632Y-146210515D01*
X136468261Y-146179442D01*
X136431154Y-146118109D01*
X136379644Y-146064685D01*
X136332913Y-146041839D01*
X136332740Y-146041846D01*
X136311280Y-146067767D01*
X136272565Y-146136873D01*
X136222037Y-146238751D01*
X136165134Y-146362989D01*
X136164833Y-146363672D01*
X136104738Y-146498645D01*
X136061440Y-146589116D01*
X136028179Y-146643961D01*
X135998194Y-146672056D01*
X135964726Y-146682276D01*
X135921015Y-146683497D01*
X135816265Y-146672749D01*
X135673949Y-146619611D01*
X135562111Y-146530658D01*
X135484676Y-146415552D01*
X135445568Y-146283955D01*
X135447807Y-146185323D01*
X135719439Y-146185323D01*
X135723251Y-146269960D01*
X135775121Y-146348553D01*
X135810965Y-146379445D01*
X135838244Y-146386781D01*
X135864265Y-146357030D01*
X135903256Y-146282899D01*
X135904359Y-146280726D01*
X135946009Y-146193267D01*
X135979235Y-146115026D01*
X135993291Y-146065389D01*
X135974503Y-146045479D01*
X135910124Y-146041839D01*
X135830001Y-146056965D01*
X135757189Y-146109403D01*
X135719439Y-146185323D01*
X135447807Y-146185323D01*
X135448711Y-146145528D01*
X135498030Y-146009935D01*
X135597447Y-145886836D01*
X135695829Y-145818634D01*
X135836261Y-145769644D01*
X135910124Y-145761678D01*
X136013329Y-145750548D01*
X136234639Y-145759832D01*
G37*
X136234639Y-145759832D02*
X136281526Y-145765074D01*
X136448409Y-145804132D01*
X136575326Y-145874710D01*
X136672602Y-145982045D01*
X136676616Y-145988112D01*
X136733706Y-146124560D01*
X136738786Y-146267027D01*
X136695311Y-146404304D01*
X136606734Y-146525181D01*
X136476509Y-146618448D01*
X136473369Y-146620014D01*
X136392501Y-146651007D01*
X136300593Y-146673708D01*
X136214311Y-146685750D01*
X136150321Y-146684763D01*
X136125287Y-146668377D01*
X136126809Y-146653821D01*
X136154496Y-146584208D01*
X136205409Y-146505303D01*
X136264343Y-146438180D01*
X136316094Y-146403913D01*
X136386291Y-146368293D01*
X136450138Y-146295289D01*
X136475632Y-146210515D01*
X136468261Y-146179442D01*
X136431154Y-146118109D01*
X136379644Y-146064685D01*
X136332913Y-146041839D01*
X136332740Y-146041846D01*
X136311280Y-146067767D01*
X136272565Y-146136873D01*
X136222037Y-146238751D01*
X136165134Y-146362989D01*
X136164833Y-146363672D01*
X136104738Y-146498645D01*
X136061440Y-146589116D01*
X136028179Y-146643961D01*
X135998194Y-146672056D01*
X135964726Y-146682276D01*
X135921015Y-146683497D01*
X135816265Y-146672749D01*
X135673949Y-146619611D01*
X135562111Y-146530658D01*
X135484676Y-146415552D01*
X135445568Y-146283955D01*
X135447807Y-146185323D01*
X135719439Y-146185323D01*
X135723251Y-146269960D01*
X135775121Y-146348553D01*
X135810965Y-146379445D01*
X135838244Y-146386781D01*
X135864265Y-146357030D01*
X135903256Y-146282899D01*
X135904359Y-146280726D01*
X135946009Y-146193267D01*
X135979235Y-146115026D01*
X135993291Y-146065389D01*
X135974503Y-146045479D01*
X135910124Y-146041839D01*
X135830001Y-146056965D01*
X135757189Y-146109403D01*
X135719439Y-146185323D01*
X135447807Y-146185323D01*
X135448711Y-146145528D01*
X135498030Y-146009935D01*
X135597447Y-145886836D01*
X135695829Y-145818634D01*
X135836261Y-145769644D01*
X135910124Y-145761678D01*
X136013329Y-145750548D01*
X136234639Y-145759832D01*
G36*
X136453736Y-144646332D02*
G01*
X136518785Y-144645529D01*
X136736260Y-144642960D01*
X136902672Y-144642444D01*
X137023846Y-144645563D01*
X137105607Y-144653900D01*
X137153781Y-144669038D01*
X137174194Y-144692559D01*
X137172672Y-144726044D01*
X137155039Y-144771077D01*
X137127121Y-144829239D01*
X137121164Y-144841668D01*
X137092006Y-144893422D01*
X137057314Y-144920450D01*
X136999470Y-144930793D01*
X136900857Y-144932491D01*
X136723793Y-144932567D01*
X136723793Y-145114962D01*
X136718880Y-145227160D01*
X136698953Y-145315380D01*
X136658678Y-145388642D01*
X136654741Y-145394104D01*
X136588243Y-145468442D01*
X136507908Y-145520177D01*
X136402758Y-145552804D01*
X136261815Y-145569818D01*
X136074101Y-145574713D01*
X135937122Y-145573629D01*
X135833364Y-145568693D01*
X135761412Y-145557728D01*
X135707500Y-145538562D01*
X135657864Y-145509023D01*
X135619931Y-145481908D01*
X135517522Y-145383450D01*
X135461903Y-145271900D01*
X135444297Y-145131754D01*
X135445525Y-145120528D01*
X135716552Y-145120528D01*
X135719729Y-145155044D01*
X135751254Y-145214765D01*
X135821505Y-145254248D01*
X135936583Y-145276058D01*
X136102588Y-145282759D01*
X136129276Y-145282709D01*
X136249738Y-145279936D01*
X136328484Y-145271033D01*
X136379618Y-145253383D01*
X136417241Y-145224368D01*
X136419038Y-145222560D01*
X136467720Y-145151247D01*
X136462921Y-145082135D01*
X136403971Y-145004075D01*
X136383823Y-144984981D01*
X136342515Y-144956858D01*
X136288787Y-144941000D01*
X136207326Y-144933991D01*
X136082821Y-144932414D01*
X136007445Y-144933780D01*
X135870362Y-144948598D01*
X135780548Y-144982421D01*
X135731460Y-145038611D01*
X135716552Y-145120528D01*
X135445525Y-145120528D01*
X135461847Y-144971365D01*
X135524797Y-144832712D01*
X135635824Y-144723049D01*
X135647578Y-144714782D01*
X135678813Y-144695501D01*
X135714507Y-144680731D01*
X135762364Y-144669746D01*
X135830087Y-144661826D01*
X135925382Y-144656247D01*
X136055952Y-144652287D01*
X136082821Y-144651812D01*
X136229502Y-144649222D01*
X136453736Y-144646332D01*
G37*
X136453736Y-144646332D02*
X136518785Y-144645529D01*
X136736260Y-144642960D01*
X136902672Y-144642444D01*
X137023846Y-144645563D01*
X137105607Y-144653900D01*
X137153781Y-144669038D01*
X137174194Y-144692559D01*
X137172672Y-144726044D01*
X137155039Y-144771077D01*
X137127121Y-144829239D01*
X137121164Y-144841668D01*
X137092006Y-144893422D01*
X137057314Y-144920450D01*
X136999470Y-144930793D01*
X136900857Y-144932491D01*
X136723793Y-144932567D01*
X136723793Y-145114962D01*
X136718880Y-145227160D01*
X136698953Y-145315380D01*
X136658678Y-145388642D01*
X136654741Y-145394104D01*
X136588243Y-145468442D01*
X136507908Y-145520177D01*
X136402758Y-145552804D01*
X136261815Y-145569818D01*
X136074101Y-145574713D01*
X135937122Y-145573629D01*
X135833364Y-145568693D01*
X135761412Y-145557728D01*
X135707500Y-145538562D01*
X135657864Y-145509023D01*
X135619931Y-145481908D01*
X135517522Y-145383450D01*
X135461903Y-145271900D01*
X135444297Y-145131754D01*
X135445525Y-145120528D01*
X135716552Y-145120528D01*
X135719729Y-145155044D01*
X135751254Y-145214765D01*
X135821505Y-145254248D01*
X135936583Y-145276058D01*
X136102588Y-145282759D01*
X136129276Y-145282709D01*
X136249738Y-145279936D01*
X136328484Y-145271033D01*
X136379618Y-145253383D01*
X136417241Y-145224368D01*
X136419038Y-145222560D01*
X136467720Y-145151247D01*
X136462921Y-145082135D01*
X136403971Y-145004075D01*
X136383823Y-144984981D01*
X136342515Y-144956858D01*
X136288787Y-144941000D01*
X136207326Y-144933991D01*
X136082821Y-144932414D01*
X136007445Y-144933780D01*
X135870362Y-144948598D01*
X135780548Y-144982421D01*
X135731460Y-145038611D01*
X135716552Y-145120528D01*
X135445525Y-145120528D01*
X135461847Y-144971365D01*
X135524797Y-144832712D01*
X135635824Y-144723049D01*
X135647578Y-144714782D01*
X135678813Y-144695501D01*
X135714507Y-144680731D01*
X135762364Y-144669746D01*
X135830087Y-144661826D01*
X135925382Y-144656247D01*
X136055952Y-144652287D01*
X136082821Y-144651812D01*
X136229502Y-144649222D01*
X136453736Y-144646332D01*
G36*
X136738344Y-146961617D02*
G01*
X136711520Y-147031932D01*
X136685706Y-147084576D01*
X136652431Y-147118940D01*
X136601510Y-147138907D01*
X136522761Y-147148361D01*
X136405999Y-147151186D01*
X136241042Y-147151264D01*
X136109558Y-147151664D01*
X135983394Y-147154049D01*
X135897223Y-147159741D01*
X135840672Y-147170039D01*
X135803370Y-147186245D01*
X135774943Y-147209655D01*
X135734827Y-147267207D01*
X135719706Y-147363888D01*
X135757917Y-147459535D01*
X135762810Y-147465848D01*
X135785413Y-147485523D01*
X135821664Y-147500037D01*
X135880511Y-147510606D01*
X135970901Y-147518445D01*
X136101779Y-147524773D01*
X136282095Y-147530805D01*
X136764907Y-147545402D01*
X136709283Y-147669483D01*
X136653659Y-147793563D01*
X136212851Y-147793563D01*
X136093098Y-147793049D01*
X135926506Y-147788620D01*
X135802468Y-147777406D01*
X135710987Y-147756728D01*
X135642066Y-147723907D01*
X135585707Y-147676264D01*
X135531914Y-147611123D01*
X135477719Y-147517429D01*
X135442339Y-147369825D01*
X135457689Y-147221513D01*
X135521770Y-147085152D01*
X135632584Y-146973402D01*
X135667273Y-146950239D01*
X135706590Y-146931027D01*
X135756145Y-146917402D01*
X135825568Y-146908123D01*
X135924490Y-146901950D01*
X136062539Y-146897643D01*
X136249346Y-146893962D01*
X136767542Y-146884820D01*
X136738344Y-146961617D01*
G37*
X136738344Y-146961617D02*
X136711520Y-147031932D01*
X136685706Y-147084576D01*
X136652431Y-147118940D01*
X136601510Y-147138907D01*
X136522761Y-147148361D01*
X136405999Y-147151186D01*
X136241042Y-147151264D01*
X136109558Y-147151664D01*
X135983394Y-147154049D01*
X135897223Y-147159741D01*
X135840672Y-147170039D01*
X135803370Y-147186245D01*
X135774943Y-147209655D01*
X135734827Y-147267207D01*
X135719706Y-147363888D01*
X135757917Y-147459535D01*
X135762810Y-147465848D01*
X135785413Y-147485523D01*
X135821664Y-147500037D01*
X135880511Y-147510606D01*
X135970901Y-147518445D01*
X136101779Y-147524773D01*
X136282095Y-147530805D01*
X136764907Y-147545402D01*
X136709283Y-147669483D01*
X136653659Y-147793563D01*
X136212851Y-147793563D01*
X136093098Y-147793049D01*
X135926506Y-147788620D01*
X135802468Y-147777406D01*
X135710987Y-147756728D01*
X135642066Y-147723907D01*
X135585707Y-147676264D01*
X135531914Y-147611123D01*
X135477719Y-147517429D01*
X135442339Y-147369825D01*
X135457689Y-147221513D01*
X135521770Y-147085152D01*
X135632584Y-146973402D01*
X135667273Y-146950239D01*
X135706590Y-146931027D01*
X135756145Y-146917402D01*
X135825568Y-146908123D01*
X135924490Y-146901950D01*
X136062539Y-146897643D01*
X136249346Y-146893962D01*
X136767542Y-146884820D01*
X136738344Y-146961617D01*
D13*
%TO.C,J7*%
X137896000Y-113704000D02*
X137896000Y-107424000D01*
X138096000Y-111014000D02*
X138096000Y-113014000D01*
X121946000Y-129344000D02*
X137896000Y-129344000D01*
X121946000Y-116904000D02*
X121946000Y-129344000D01*
X137896000Y-107424000D02*
X121946000Y-107424000D01*
X137896000Y-129344000D02*
X137896000Y-116904000D01*
X121946000Y-107424000D02*
X121946000Y-113704000D01*
%TD*%
M02*
