%TF.GenerationSoftware,KiCad,Pcbnew,6.0.5-a6ca702e91~116~ubuntu20.04.1*%
%TF.CreationDate,2022-06-28T21:19:43+02:00*%
%TF.ProjectId,MCH-light,4d43482d-6c69-4676-9874-2e6b69636164,rev?*%
%TF.SameCoordinates,Original*%
%TF.FileFunction,Soldermask,Bot*%
%TF.FilePolarity,Negative*%
%FSLAX46Y46*%
G04 Gerber Fmt 4.6, Leading zero omitted, Abs format (unit mm)*
G04 Created by KiCad (PCBNEW 6.0.5-a6ca702e91~116~ubuntu20.04.1) date 2022-06-28 21:19:43*
%MOMM*%
%LPD*%
G01*
G04 APERTURE LIST*
G04 Aperture macros list*
%AMRoundRect*
0 Rectangle with rounded corners*
0 $1 Rounding radius*
0 $2 $3 $4 $5 $6 $7 $8 $9 X,Y pos of 4 corners*
0 Add a 4 corners polygon primitive as box body*
4,1,4,$2,$3,$4,$5,$6,$7,$8,$9,$2,$3,0*
0 Add four circle primitives for the rounded corners*
1,1,$1+$1,$2,$3*
1,1,$1+$1,$4,$5*
1,1,$1+$1,$6,$7*
1,1,$1+$1,$8,$9*
0 Add four rect primitives between the rounded corners*
20,1,$1+$1,$2,$3,$4,$5,0*
20,1,$1+$1,$4,$5,$6,$7,0*
20,1,$1+$1,$6,$7,$8,$9,0*
20,1,$1+$1,$8,$9,$2,$3,0*%
G04 Aperture macros list end*
%ADD10R,1.700000X1.700000*%
%ADD11O,1.700000X1.700000*%
%ADD12C,6.400000*%
%ADD13R,4.600000X2.000000*%
%ADD14O,4.200000X2.000000*%
%ADD15O,2.000000X4.200000*%
%ADD16RoundRect,0.500000X-0.500000X0.750000X-0.500000X-0.750000X0.500000X-0.750000X0.500000X0.750000X0*%
%ADD17R,2.000000X2.500000*%
%ADD18C,2.000000*%
%ADD19R,0.400000X1.350000*%
%ADD20R,0.875000X1.900000*%
%ADD21O,1.050000X1.250000*%
%ADD22O,1.000000X1.900000*%
%ADD23R,2.900000X1.900000*%
%ADD24C,3.250000*%
%ADD25C,2.600000*%
%ADD26C,1.890000*%
%ADD27R,1.900000X1.900000*%
%ADD28C,1.900000*%
G04 APERTURE END LIST*
D10*
%TO.C,J1*%
X117627000Y-162839000D03*
D11*
X117627000Y-165379000D03*
X117627000Y-167919000D03*
X117627000Y-170459000D03*
X117627000Y-172999000D03*
X117627000Y-175539000D03*
%TD*%
D12*
%TO.C,H1*%
X141104000Y-102197017D03*
%TD*%
D10*
%TO.C,J8*%
X134237820Y-73978017D03*
D11*
X136777820Y-73978017D03*
X139317820Y-73978017D03*
%TD*%
D12*
%TO.C,H5*%
X141104000Y-195415017D03*
%TD*%
D10*
%TO.C,J9*%
X120142000Y-73978017D03*
D11*
X122682000Y-73978017D03*
X125222000Y-73978017D03*
%TD*%
D12*
%TO.C,H6*%
X119006000Y-195415017D03*
%TD*%
%TO.C,H4*%
X141104000Y-21679017D03*
%TD*%
%TO.C,H3*%
X119005999Y-21679017D03*
%TD*%
%TO.C,H2*%
X119006000Y-102197017D03*
%TD*%
D13*
%TO.C,J2*%
X129936000Y-104991017D03*
D14*
X129936000Y-98691017D03*
D15*
X134736000Y-102091017D03*
%TD*%
D16*
%TO.C,U6*%
X137625000Y-28767000D03*
D17*
X121343000Y-28767000D03*
X121343000Y-68433000D03*
D16*
X137625000Y-68433000D03*
%TD*%
D18*
%TO.C,SW1*%
X142374000Y-90363017D03*
X142374000Y-96863017D03*
X137874000Y-90363017D03*
X137874000Y-96863017D03*
%TD*%
%TO.C,SW2*%
X122054000Y-90363017D03*
X122054000Y-96863017D03*
X117554000Y-90363017D03*
X117554000Y-96863017D03*
%TD*%
D19*
%TO.C,J5*%
X128494000Y-20506017D03*
X129144000Y-20506017D03*
X129794000Y-20506017D03*
X130444000Y-20506017D03*
X131094000Y-20506017D03*
D20*
X126056500Y-23181017D03*
D21*
X132019000Y-20181017D03*
D22*
X133969000Y-23181017D03*
D23*
X129794000Y-23181017D03*
D22*
X125619000Y-23181017D03*
D21*
X127569000Y-20181017D03*
D20*
X133531500Y-23181017D03*
%TD*%
D24*
%TO.C,J7*%
X124206000Y-118354000D03*
X135636000Y-118354000D03*
D25*
X137696000Y-115304000D03*
X122146000Y-115304000D03*
D26*
X123596000Y-121734000D03*
X126136000Y-123254000D03*
X133706000Y-121734000D03*
X136246000Y-123254000D03*
D27*
X134366000Y-112014000D03*
D28*
X133096000Y-109474000D03*
X131826000Y-112014000D03*
X130556000Y-109474000D03*
X129286000Y-112014000D03*
X128016000Y-109474000D03*
X126746000Y-112014000D03*
X125476000Y-109474000D03*
%TD*%
M02*
