%TF.GenerationSoftware,KiCad,Pcbnew,6.0.5-a6ca702e91~116~ubuntu20.04.1*%
%TF.CreationDate,2022-06-28T21:19:44+02:00*%
%TF.ProjectId,MCH-light,4d43482d-6c69-4676-9874-2e6b69636164,rev?*%
%TF.SameCoordinates,Original*%
%TF.FileFunction,AssemblyDrawing,Bot*%
%FSLAX46Y46*%
G04 Gerber Fmt 4.6, Leading zero omitted, Abs format (unit mm)*
G04 Created by KiCad (PCBNEW 6.0.5-a6ca702e91~116~ubuntu20.04.1) date 2022-06-28 21:19:44*
%MOMM*%
%LPD*%
G01*
G04 APERTURE LIST*
%ADD10C,0.150000*%
%ADD11C,0.100000*%
G04 APERTURE END LIST*
D10*
%TO.C,J2*%
X136571809Y-89082571D02*
X136428952Y-89130190D01*
X136381333Y-89177809D01*
X136333714Y-89273047D01*
X136333714Y-89415904D01*
X136381333Y-89511142D01*
X136428952Y-89558761D01*
X136524190Y-89606380D01*
X136905142Y-89606380D01*
X136905142Y-88606380D01*
X136571809Y-88606380D01*
X136476571Y-88654000D01*
X136428952Y-88701619D01*
X136381333Y-88796857D01*
X136381333Y-88892095D01*
X136428952Y-88987333D01*
X136476571Y-89034952D01*
X136571809Y-89082571D01*
X136905142Y-89082571D01*
X135476571Y-89606380D02*
X135476571Y-89082571D01*
X135524190Y-88987333D01*
X135619428Y-88939714D01*
X135809904Y-88939714D01*
X135905142Y-88987333D01*
X135476571Y-89558761D02*
X135571809Y-89606380D01*
X135809904Y-89606380D01*
X135905142Y-89558761D01*
X135952761Y-89463523D01*
X135952761Y-89368285D01*
X135905142Y-89273047D01*
X135809904Y-89225428D01*
X135571809Y-89225428D01*
X135476571Y-89177809D01*
X135000380Y-89606380D02*
X135000380Y-88939714D01*
X135000380Y-89130190D02*
X134952761Y-89034952D01*
X134905142Y-88987333D01*
X134809904Y-88939714D01*
X134714666Y-88939714D01*
X134381333Y-89606380D02*
X134381333Y-88939714D01*
X134381333Y-89130190D02*
X134333714Y-89034952D01*
X134286095Y-88987333D01*
X134190857Y-88939714D01*
X134095619Y-88939714D01*
X133381333Y-89558761D02*
X133476571Y-89606380D01*
X133667047Y-89606380D01*
X133762285Y-89558761D01*
X133809904Y-89463523D01*
X133809904Y-89082571D01*
X133762285Y-88987333D01*
X133667047Y-88939714D01*
X133476571Y-88939714D01*
X133381333Y-88987333D01*
X133333714Y-89082571D01*
X133333714Y-89177809D01*
X133809904Y-89273047D01*
X132762285Y-89606380D02*
X132857523Y-89558761D01*
X132905142Y-89463523D01*
X132905142Y-88606380D01*
X132619428Y-89701619D02*
X131857523Y-89701619D01*
X131333714Y-88606380D02*
X131333714Y-89320666D01*
X131381333Y-89463523D01*
X131476571Y-89558761D01*
X131619428Y-89606380D01*
X131714666Y-89606380D01*
X130428952Y-89606380D02*
X130428952Y-89082571D01*
X130476571Y-88987333D01*
X130571809Y-88939714D01*
X130762285Y-88939714D01*
X130857523Y-88987333D01*
X130428952Y-89558761D02*
X130524190Y-89606380D01*
X130762285Y-89606380D01*
X130857523Y-89558761D01*
X130905142Y-89463523D01*
X130905142Y-89368285D01*
X130857523Y-89273047D01*
X130762285Y-89225428D01*
X130524190Y-89225428D01*
X130428952Y-89177809D01*
X129524190Y-89558761D02*
X129619428Y-89606380D01*
X129809904Y-89606380D01*
X129905142Y-89558761D01*
X129952761Y-89511142D01*
X130000380Y-89415904D01*
X130000380Y-89130190D01*
X129952761Y-89034952D01*
X129905142Y-88987333D01*
X129809904Y-88939714D01*
X129619428Y-88939714D01*
X129524190Y-88987333D01*
X129095619Y-89606380D02*
X129095619Y-88606380D01*
X129000380Y-89225428D02*
X128714666Y-89606380D01*
X128714666Y-88939714D02*
X129095619Y-89320666D01*
X128524190Y-89701619D02*
X127762285Y-89701619D01*
X127571809Y-89558761D02*
X127428952Y-89606380D01*
X127190857Y-89606380D01*
X127095619Y-89558761D01*
X127048000Y-89511142D01*
X127000380Y-89415904D01*
X127000380Y-89320666D01*
X127048000Y-89225428D01*
X127095619Y-89177809D01*
X127190857Y-89130190D01*
X127381333Y-89082571D01*
X127476571Y-89034952D01*
X127524190Y-88987333D01*
X127571809Y-88892095D01*
X127571809Y-88796857D01*
X127524190Y-88701619D01*
X127476571Y-88654000D01*
X127381333Y-88606380D01*
X127143238Y-88606380D01*
X127000380Y-88654000D01*
X126667047Y-88939714D02*
X126476571Y-89606380D01*
X126286095Y-89130190D01*
X126095619Y-89606380D01*
X125905142Y-88939714D01*
X125524190Y-89606380D02*
X125524190Y-88939714D01*
X125524190Y-88606380D02*
X125571809Y-88654000D01*
X125524190Y-88701619D01*
X125476571Y-88654000D01*
X125524190Y-88606380D01*
X125524190Y-88701619D01*
X125190857Y-88939714D02*
X124809904Y-88939714D01*
X125048000Y-88606380D02*
X125048000Y-89463523D01*
X125000380Y-89558761D01*
X124905142Y-89606380D01*
X124809904Y-89606380D01*
X124048000Y-89558761D02*
X124143238Y-89606380D01*
X124333714Y-89606380D01*
X124428952Y-89558761D01*
X124476571Y-89511142D01*
X124524190Y-89415904D01*
X124524190Y-89130190D01*
X124476571Y-89034952D01*
X124428952Y-88987333D01*
X124333714Y-88939714D01*
X124143238Y-88939714D01*
X124048000Y-88987333D01*
X123619428Y-89606380D02*
X123619428Y-88606380D01*
X123190857Y-89606380D02*
X123190857Y-89082571D01*
X123238476Y-88987333D01*
X123333714Y-88939714D01*
X123476571Y-88939714D01*
X123571809Y-88987333D01*
X123619428Y-89034952D01*
X130269333Y-101443397D02*
X130269333Y-102157683D01*
X130316952Y-102300540D01*
X130412190Y-102395778D01*
X130555047Y-102443397D01*
X130650285Y-102443397D01*
X129840761Y-101538636D02*
X129793142Y-101491017D01*
X129697904Y-101443397D01*
X129459809Y-101443397D01*
X129364571Y-101491017D01*
X129316952Y-101538636D01*
X129269333Y-101633874D01*
X129269333Y-101729112D01*
X129316952Y-101871969D01*
X129888380Y-102443397D01*
X129269333Y-102443397D01*
%TO.C,U6*%
X122348380Y-31225333D02*
X122348380Y-30749142D01*
X121348380Y-30749142D01*
X122348380Y-31558666D02*
X121348380Y-31558666D01*
X122062666Y-31892000D01*
X121348380Y-32225333D01*
X122348380Y-32225333D01*
X121443619Y-32653904D02*
X121396000Y-32701523D01*
X121348380Y-32796761D01*
X121348380Y-33034857D01*
X121396000Y-33130095D01*
X121443619Y-33177714D01*
X121538857Y-33225333D01*
X121634095Y-33225333D01*
X121776952Y-33177714D01*
X122348380Y-32606285D01*
X122348380Y-33225333D01*
X121348380Y-34130095D02*
X121348380Y-33653904D01*
X121824571Y-33606285D01*
X121776952Y-33653904D01*
X121729333Y-33749142D01*
X121729333Y-33987238D01*
X121776952Y-34082476D01*
X121824571Y-34130095D01*
X121919809Y-34177714D01*
X122157904Y-34177714D01*
X122253142Y-34130095D01*
X122300761Y-34082476D01*
X122348380Y-33987238D01*
X122348380Y-33749142D01*
X122300761Y-33653904D01*
X122253142Y-33606285D01*
X122348380Y-34653904D02*
X122348380Y-34844380D01*
X122300761Y-34939619D01*
X122253142Y-34987238D01*
X122110285Y-35082476D01*
X121919809Y-35130095D01*
X121538857Y-35130095D01*
X121443619Y-35082476D01*
X121396000Y-35034857D01*
X121348380Y-34939619D01*
X121348380Y-34749142D01*
X121396000Y-34653904D01*
X121443619Y-34606285D01*
X121538857Y-34558666D01*
X121776952Y-34558666D01*
X121872190Y-34606285D01*
X121919809Y-34653904D01*
X121967428Y-34749142D01*
X121967428Y-34939619D01*
X121919809Y-35034857D01*
X121872190Y-35082476D01*
X121776952Y-35130095D01*
X121348380Y-35987238D02*
X121348380Y-35796761D01*
X121396000Y-35701523D01*
X121443619Y-35653904D01*
X121586476Y-35558666D01*
X121776952Y-35511047D01*
X122157904Y-35511047D01*
X122253142Y-35558666D01*
X122300761Y-35606285D01*
X122348380Y-35701523D01*
X122348380Y-35892000D01*
X122300761Y-35987238D01*
X122253142Y-36034857D01*
X122157904Y-36082476D01*
X121919809Y-36082476D01*
X121824571Y-36034857D01*
X121776952Y-35987238D01*
X121729333Y-35892000D01*
X121729333Y-35701523D01*
X121776952Y-35606285D01*
X121824571Y-35558666D01*
X121919809Y-35511047D01*
%TO.C,SW1*%
X136126380Y-91874921D02*
X135650190Y-91541588D01*
X136126380Y-91303493D02*
X135126380Y-91303493D01*
X135126380Y-91684445D01*
X135174000Y-91779683D01*
X135221619Y-91827302D01*
X135316857Y-91874921D01*
X135459714Y-91874921D01*
X135554952Y-91827302D01*
X135602571Y-91779683D01*
X135650190Y-91684445D01*
X135650190Y-91303493D01*
X136078761Y-92684445D02*
X136126380Y-92589207D01*
X136126380Y-92398731D01*
X136078761Y-92303493D01*
X135983523Y-92255874D01*
X135602571Y-92255874D01*
X135507333Y-92303493D01*
X135459714Y-92398731D01*
X135459714Y-92589207D01*
X135507333Y-92684445D01*
X135602571Y-92732064D01*
X135697809Y-92732064D01*
X135793047Y-92255874D01*
X136078761Y-93113017D02*
X136126380Y-93208255D01*
X136126380Y-93398731D01*
X136078761Y-93493969D01*
X135983523Y-93541588D01*
X135935904Y-93541588D01*
X135840666Y-93493969D01*
X135793047Y-93398731D01*
X135793047Y-93255874D01*
X135745428Y-93160636D01*
X135650190Y-93113017D01*
X135602571Y-93113017D01*
X135507333Y-93160636D01*
X135459714Y-93255874D01*
X135459714Y-93398731D01*
X135507333Y-93493969D01*
X136078761Y-94351112D02*
X136126380Y-94255874D01*
X136126380Y-94065397D01*
X136078761Y-93970159D01*
X135983523Y-93922540D01*
X135602571Y-93922540D01*
X135507333Y-93970159D01*
X135459714Y-94065397D01*
X135459714Y-94255874D01*
X135507333Y-94351112D01*
X135602571Y-94398731D01*
X135697809Y-94398731D01*
X135793047Y-93922540D01*
X135459714Y-94684445D02*
X135459714Y-95065397D01*
X135126380Y-94827302D02*
X135983523Y-94827302D01*
X136078761Y-94874921D01*
X136126380Y-94970159D01*
X136126380Y-95065397D01*
X140358761Y-91993683D02*
X140406380Y-92136540D01*
X140406380Y-92374636D01*
X140358761Y-92469874D01*
X140311142Y-92517493D01*
X140215904Y-92565112D01*
X140120666Y-92565112D01*
X140025428Y-92517493D01*
X139977809Y-92469874D01*
X139930190Y-92374636D01*
X139882571Y-92184159D01*
X139834952Y-92088921D01*
X139787333Y-92041302D01*
X139692095Y-91993683D01*
X139596857Y-91993683D01*
X139501619Y-92041302D01*
X139454000Y-92088921D01*
X139406380Y-92184159D01*
X139406380Y-92422255D01*
X139454000Y-92565112D01*
X139406380Y-92898445D02*
X140406380Y-93136540D01*
X139692095Y-93327017D01*
X140406380Y-93517493D01*
X139406380Y-93755588D01*
X140406380Y-94660350D02*
X140406380Y-94088921D01*
X140406380Y-94374636D02*
X139406380Y-94374636D01*
X139549238Y-94279397D01*
X139644476Y-94184159D01*
X139692095Y-94088921D01*
%TO.C,SW2*%
X115282571Y-91255874D02*
X115330190Y-91398731D01*
X115377809Y-91446350D01*
X115473047Y-91493969D01*
X115615904Y-91493969D01*
X115711142Y-91446350D01*
X115758761Y-91398731D01*
X115806380Y-91303493D01*
X115806380Y-90922540D01*
X114806380Y-90922540D01*
X114806380Y-91255874D01*
X114854000Y-91351112D01*
X114901619Y-91398731D01*
X114996857Y-91446350D01*
X115092095Y-91446350D01*
X115187333Y-91398731D01*
X115234952Y-91351112D01*
X115282571Y-91255874D01*
X115282571Y-90922540D01*
X115139714Y-92351112D02*
X115806380Y-92351112D01*
X115139714Y-91922540D02*
X115663523Y-91922540D01*
X115758761Y-91970159D01*
X115806380Y-92065397D01*
X115806380Y-92208255D01*
X115758761Y-92303493D01*
X115711142Y-92351112D01*
X115139714Y-92684445D02*
X115139714Y-93065397D01*
X114806380Y-92827302D02*
X115663523Y-92827302D01*
X115758761Y-92874921D01*
X115806380Y-92970159D01*
X115806380Y-93065397D01*
X115139714Y-93255874D02*
X115139714Y-93636826D01*
X114806380Y-93398731D02*
X115663523Y-93398731D01*
X115758761Y-93446350D01*
X115806380Y-93541588D01*
X115806380Y-93636826D01*
X115806380Y-94113017D02*
X115758761Y-94017778D01*
X115711142Y-93970159D01*
X115615904Y-93922540D01*
X115330190Y-93922540D01*
X115234952Y-93970159D01*
X115187333Y-94017778D01*
X115139714Y-94113017D01*
X115139714Y-94255874D01*
X115187333Y-94351112D01*
X115234952Y-94398731D01*
X115330190Y-94446350D01*
X115615904Y-94446350D01*
X115711142Y-94398731D01*
X115758761Y-94351112D01*
X115806380Y-94255874D01*
X115806380Y-94113017D01*
X115139714Y-94874921D02*
X115806380Y-94874921D01*
X115234952Y-94874921D02*
X115187333Y-94922540D01*
X115139714Y-95017778D01*
X115139714Y-95160636D01*
X115187333Y-95255874D01*
X115282571Y-95303493D01*
X115806380Y-95303493D01*
X120208761Y-92279683D02*
X120256380Y-92422540D01*
X120256380Y-92660636D01*
X120208761Y-92755874D01*
X120161142Y-92803493D01*
X120065904Y-92851112D01*
X119970666Y-92851112D01*
X119875428Y-92803493D01*
X119827809Y-92755874D01*
X119780190Y-92660636D01*
X119732571Y-92470159D01*
X119684952Y-92374921D01*
X119637333Y-92327302D01*
X119542095Y-92279683D01*
X119446857Y-92279683D01*
X119351619Y-92327302D01*
X119304000Y-92374921D01*
X119256380Y-92470159D01*
X119256380Y-92708255D01*
X119304000Y-92851112D01*
X119256380Y-93184445D02*
X120256380Y-93422540D01*
X119542095Y-93613017D01*
X120256380Y-93803493D01*
X119256380Y-94041588D01*
X119351619Y-94374921D02*
X119304000Y-94422540D01*
X119256380Y-94517778D01*
X119256380Y-94755874D01*
X119304000Y-94851112D01*
X119351619Y-94898731D01*
X119446857Y-94946350D01*
X119542095Y-94946350D01*
X119684952Y-94898731D01*
X120256380Y-94327302D01*
X120256380Y-94946350D01*
%TO.C,J5*%
X133817809Y-26133397D02*
X133817809Y-26942921D01*
X133770190Y-27038159D01*
X133722571Y-27085778D01*
X133627333Y-27133397D01*
X133436857Y-27133397D01*
X133341619Y-27085778D01*
X133294000Y-27038159D01*
X133246380Y-26942921D01*
X133246380Y-26133397D01*
X132817809Y-27085778D02*
X132674952Y-27133397D01*
X132436857Y-27133397D01*
X132341619Y-27085778D01*
X132294000Y-27038159D01*
X132246380Y-26942921D01*
X132246380Y-26847683D01*
X132294000Y-26752445D01*
X132341619Y-26704826D01*
X132436857Y-26657207D01*
X132627333Y-26609588D01*
X132722571Y-26561969D01*
X132770190Y-26514350D01*
X132817809Y-26419112D01*
X132817809Y-26323874D01*
X132770190Y-26228636D01*
X132722571Y-26181017D01*
X132627333Y-26133397D01*
X132389238Y-26133397D01*
X132246380Y-26181017D01*
X131484476Y-26609588D02*
X131341619Y-26657207D01*
X131294000Y-26704826D01*
X131246380Y-26800064D01*
X131246380Y-26942921D01*
X131294000Y-27038159D01*
X131341619Y-27085778D01*
X131436857Y-27133397D01*
X131817809Y-27133397D01*
X131817809Y-26133397D01*
X131484476Y-26133397D01*
X131389238Y-26181017D01*
X131341619Y-26228636D01*
X131294000Y-26323874D01*
X131294000Y-26419112D01*
X131341619Y-26514350D01*
X131389238Y-26561969D01*
X131484476Y-26609588D01*
X131817809Y-26609588D01*
X131055904Y-27228636D02*
X130294000Y-27228636D01*
X129722571Y-26609588D02*
X129579714Y-26657207D01*
X129532095Y-26704826D01*
X129484476Y-26800064D01*
X129484476Y-26942921D01*
X129532095Y-27038159D01*
X129579714Y-27085778D01*
X129674952Y-27133397D01*
X130055904Y-27133397D01*
X130055904Y-26133397D01*
X129722571Y-26133397D01*
X129627333Y-26181017D01*
X129579714Y-26228636D01*
X129532095Y-26323874D01*
X129532095Y-26419112D01*
X129579714Y-26514350D01*
X129627333Y-26561969D01*
X129722571Y-26609588D01*
X130055904Y-26609588D01*
X129294000Y-27228636D02*
X128532095Y-27228636D01*
X128294000Y-27133397D02*
X128294000Y-26133397D01*
X127960666Y-26847683D01*
X127627333Y-26133397D01*
X127627333Y-27133397D01*
X127151142Y-27133397D02*
X127151142Y-26466731D01*
X127151142Y-26133397D02*
X127198761Y-26181017D01*
X127151142Y-26228636D01*
X127103523Y-26181017D01*
X127151142Y-26133397D01*
X127151142Y-26228636D01*
X126674952Y-26466731D02*
X126674952Y-27133397D01*
X126674952Y-26561969D02*
X126627333Y-26514350D01*
X126532095Y-26466731D01*
X126389238Y-26466731D01*
X126294000Y-26514350D01*
X126246380Y-26609588D01*
X126246380Y-27133397D01*
X125770190Y-27133397D02*
X125770190Y-26466731D01*
X125770190Y-26133397D02*
X125817809Y-26181017D01*
X125770190Y-26228636D01*
X125722571Y-26181017D01*
X125770190Y-26133397D01*
X125770190Y-26228636D01*
X130127333Y-21133397D02*
X130127333Y-21847683D01*
X130174952Y-21990540D01*
X130270190Y-22085778D01*
X130413047Y-22133397D01*
X130508285Y-22133397D01*
X129174952Y-21133397D02*
X129651142Y-21133397D01*
X129698761Y-21609588D01*
X129651142Y-21561969D01*
X129555904Y-21514350D01*
X129317809Y-21514350D01*
X129222571Y-21561969D01*
X129174952Y-21609588D01*
X129127333Y-21704826D01*
X129127333Y-21942921D01*
X129174952Y-22038159D01*
X129222571Y-22085778D01*
X129317809Y-22133397D01*
X129555904Y-22133397D01*
X129651142Y-22085778D01*
X129698761Y-22038159D01*
%TO.C,J7*%
X143754476Y-107894380D02*
X144087809Y-107418190D01*
X144325904Y-107894380D02*
X144325904Y-106894380D01*
X143944952Y-106894380D01*
X143849714Y-106942000D01*
X143802095Y-106989619D01*
X143754476Y-107084857D01*
X143754476Y-107227714D01*
X143802095Y-107322952D01*
X143849714Y-107370571D01*
X143944952Y-107418190D01*
X144325904Y-107418190D01*
X143040190Y-106894380D02*
X143040190Y-107608666D01*
X143087809Y-107751523D01*
X143183047Y-107846761D01*
X143325904Y-107894380D01*
X143421142Y-107894380D01*
X142135428Y-107227714D02*
X142135428Y-107894380D01*
X142373523Y-106846761D02*
X142611619Y-107561047D01*
X141992571Y-107561047D01*
X141135428Y-106894380D02*
X141611619Y-106894380D01*
X141659238Y-107370571D01*
X141611619Y-107322952D01*
X141516380Y-107275333D01*
X141278285Y-107275333D01*
X141183047Y-107322952D01*
X141135428Y-107370571D01*
X141087809Y-107465809D01*
X141087809Y-107703904D01*
X141135428Y-107799142D01*
X141183047Y-107846761D01*
X141278285Y-107894380D01*
X141516380Y-107894380D01*
X141611619Y-107846761D01*
X141659238Y-107799142D01*
X140897333Y-107989619D02*
X140135428Y-107989619D01*
X139944952Y-107608666D02*
X139468761Y-107608666D01*
X140040190Y-107894380D02*
X139706857Y-106894380D01*
X139373523Y-107894380D01*
X139040190Y-107894380D02*
X139040190Y-107227714D01*
X139040190Y-107322952D02*
X138992571Y-107275333D01*
X138897333Y-107227714D01*
X138754476Y-107227714D01*
X138659238Y-107275333D01*
X138611619Y-107370571D01*
X138611619Y-107894380D01*
X138611619Y-107370571D02*
X138564000Y-107275333D01*
X138468761Y-107227714D01*
X138325904Y-107227714D01*
X138230666Y-107275333D01*
X138183047Y-107370571D01*
X138183047Y-107894380D01*
X137706857Y-107227714D02*
X137706857Y-108227714D01*
X137706857Y-107275333D02*
X137611619Y-107227714D01*
X137421142Y-107227714D01*
X137325904Y-107275333D01*
X137278285Y-107322952D01*
X137230666Y-107418190D01*
X137230666Y-107703904D01*
X137278285Y-107799142D01*
X137325904Y-107846761D01*
X137421142Y-107894380D01*
X137611619Y-107894380D01*
X137706857Y-107846761D01*
X136802095Y-107894380D02*
X136802095Y-106894380D01*
X136373523Y-107894380D02*
X136373523Y-107370571D01*
X136421142Y-107275333D01*
X136516380Y-107227714D01*
X136659238Y-107227714D01*
X136754476Y-107275333D01*
X136802095Y-107322952D01*
X135516380Y-107846761D02*
X135611619Y-107894380D01*
X135802095Y-107894380D01*
X135897333Y-107846761D01*
X135944952Y-107751523D01*
X135944952Y-107370571D01*
X135897333Y-107275333D01*
X135802095Y-107227714D01*
X135611619Y-107227714D01*
X135516380Y-107275333D01*
X135468761Y-107370571D01*
X135468761Y-107465809D01*
X135944952Y-107561047D01*
X135040190Y-107227714D02*
X135040190Y-107894380D01*
X135040190Y-107322952D02*
X134992571Y-107275333D01*
X134897333Y-107227714D01*
X134754476Y-107227714D01*
X134659238Y-107275333D01*
X134611619Y-107370571D01*
X134611619Y-107894380D01*
X133992571Y-107894380D02*
X134087809Y-107846761D01*
X134135428Y-107799142D01*
X134183047Y-107703904D01*
X134183047Y-107418190D01*
X134135428Y-107322952D01*
X134087809Y-107275333D01*
X133992571Y-107227714D01*
X133849714Y-107227714D01*
X133754476Y-107275333D01*
X133706857Y-107322952D01*
X133659238Y-107418190D01*
X133659238Y-107703904D01*
X133706857Y-107799142D01*
X133754476Y-107846761D01*
X133849714Y-107894380D01*
X133992571Y-107894380D01*
X133087809Y-107894380D02*
X133183047Y-107846761D01*
X133230666Y-107751523D01*
X133230666Y-106894380D01*
X132944952Y-107989619D02*
X132183047Y-107989619D01*
X131373523Y-107894380D02*
X131706857Y-107418190D01*
X131944952Y-107894380D02*
X131944952Y-106894380D01*
X131564000Y-106894380D01*
X131468761Y-106942000D01*
X131421142Y-106989619D01*
X131373523Y-107084857D01*
X131373523Y-107227714D01*
X131421142Y-107322952D01*
X131468761Y-107370571D01*
X131564000Y-107418190D01*
X131944952Y-107418190D01*
X130659238Y-106894380D02*
X130659238Y-107608666D01*
X130706857Y-107751523D01*
X130802095Y-107846761D01*
X130944952Y-107894380D01*
X131040190Y-107894380D01*
X130183047Y-107894380D02*
X130183047Y-106894380D01*
X129849714Y-107608666D01*
X129516380Y-106894380D01*
X129516380Y-107894380D01*
X128516380Y-106942000D02*
X128611619Y-106894380D01*
X128754476Y-106894380D01*
X128897333Y-106942000D01*
X128992571Y-107037238D01*
X129040190Y-107132476D01*
X129087809Y-107322952D01*
X129087809Y-107465809D01*
X129040190Y-107656285D01*
X128992571Y-107751523D01*
X128897333Y-107846761D01*
X128754476Y-107894380D01*
X128659238Y-107894380D01*
X128516380Y-107846761D01*
X128468761Y-107799142D01*
X128468761Y-107465809D01*
X128659238Y-107465809D01*
X127516380Y-107894380D02*
X128087809Y-107894380D01*
X127802095Y-107894380D02*
X127802095Y-106894380D01*
X127897333Y-107037238D01*
X127992571Y-107132476D01*
X128087809Y-107180095D01*
X126754476Y-107370571D02*
X126611619Y-107418190D01*
X126564000Y-107465809D01*
X126516380Y-107561047D01*
X126516380Y-107703904D01*
X126564000Y-107799142D01*
X126611619Y-107846761D01*
X126706857Y-107894380D01*
X127087809Y-107894380D01*
X127087809Y-106894380D01*
X126754476Y-106894380D01*
X126659238Y-106942000D01*
X126611619Y-106989619D01*
X126564000Y-107084857D01*
X126564000Y-107180095D01*
X126611619Y-107275333D01*
X126659238Y-107322952D01*
X126754476Y-107370571D01*
X127087809Y-107370571D01*
X126087809Y-107894380D02*
X126087809Y-106894380D01*
X125849714Y-106894380D01*
X125706857Y-106942000D01*
X125611619Y-107037238D01*
X125564000Y-107132476D01*
X125516380Y-107322952D01*
X125516380Y-107465809D01*
X125564000Y-107656285D01*
X125611619Y-107751523D01*
X125706857Y-107846761D01*
X125849714Y-107894380D01*
X126087809Y-107894380D01*
X125183047Y-106894380D02*
X124564000Y-106894380D01*
X124897333Y-107275333D01*
X124754476Y-107275333D01*
X124659238Y-107322952D01*
X124611619Y-107370571D01*
X124564000Y-107465809D01*
X124564000Y-107703904D01*
X124611619Y-107799142D01*
X124659238Y-107846761D01*
X124754476Y-107894380D01*
X125040190Y-107894380D01*
X125135428Y-107846761D01*
X125183047Y-107799142D01*
X123802095Y-107370571D02*
X123659238Y-107418190D01*
X123611619Y-107465809D01*
X123564000Y-107561047D01*
X123564000Y-107703904D01*
X123611619Y-107799142D01*
X123659238Y-107846761D01*
X123754476Y-107894380D01*
X124135428Y-107894380D01*
X124135428Y-106894380D01*
X123802095Y-106894380D01*
X123706857Y-106942000D01*
X123659238Y-106989619D01*
X123611619Y-107084857D01*
X123611619Y-107180095D01*
X123659238Y-107275333D01*
X123706857Y-107322952D01*
X123802095Y-107370571D01*
X124135428Y-107370571D01*
X122992571Y-107322952D02*
X123087809Y-107275333D01*
X123135428Y-107227714D01*
X123183047Y-107132476D01*
X123183047Y-107084857D01*
X123135428Y-106989619D01*
X123087809Y-106942000D01*
X122992571Y-106894380D01*
X122802095Y-106894380D01*
X122706857Y-106942000D01*
X122659238Y-106989619D01*
X122611619Y-107084857D01*
X122611619Y-107132476D01*
X122659238Y-107227714D01*
X122706857Y-107275333D01*
X122802095Y-107322952D01*
X122992571Y-107322952D01*
X123087809Y-107370571D01*
X123135428Y-107418190D01*
X123183047Y-107513428D01*
X123183047Y-107703904D01*
X123135428Y-107799142D01*
X123087809Y-107846761D01*
X122992571Y-107894380D01*
X122802095Y-107894380D01*
X122706857Y-107846761D01*
X122659238Y-107799142D01*
X122611619Y-107703904D01*
X122611619Y-107513428D01*
X122659238Y-107418190D01*
X122706857Y-107370571D01*
X122802095Y-107322952D01*
X122183047Y-107894380D02*
X122183047Y-106894380D01*
X121611619Y-107894380D02*
X122040190Y-107322952D01*
X121611619Y-106894380D02*
X122183047Y-107465809D01*
X120659238Y-107894380D02*
X121230666Y-107894380D01*
X120944952Y-107894380D02*
X120944952Y-106894380D01*
X121040190Y-107037238D01*
X121135428Y-107132476D01*
X121230666Y-107180095D01*
X120278285Y-107608666D02*
X119802095Y-107608666D01*
X120373523Y-107894380D02*
X120040190Y-106894380D01*
X119706857Y-107894380D01*
X119373523Y-107894380D02*
X119373523Y-106894380D01*
X118802095Y-107894380D01*
X118802095Y-106894380D01*
X117754476Y-107894380D02*
X118087809Y-107418190D01*
X118325904Y-107894380D02*
X118325904Y-106894380D01*
X117944952Y-106894380D01*
X117849714Y-106942000D01*
X117802095Y-106989619D01*
X117754476Y-107084857D01*
X117754476Y-107227714D01*
X117802095Y-107322952D01*
X117849714Y-107370571D01*
X117944952Y-107418190D01*
X118325904Y-107418190D01*
X130254333Y-117836380D02*
X130254333Y-118550666D01*
X130301952Y-118693523D01*
X130397190Y-118788761D01*
X130540047Y-118836380D01*
X130635285Y-118836380D01*
X129873380Y-117836380D02*
X129206714Y-117836380D01*
X129635285Y-118836380D01*
D11*
%TO.C,J2*%
X134436000Y-105591017D02*
X134436000Y-91291017D01*
X134436000Y-105591017D02*
X126436000Y-105591017D01*
X134436000Y-91291017D02*
X125436000Y-91291017D01*
X125436000Y-91291017D02*
X125436000Y-104591017D01*
X125436000Y-104591017D02*
X126436000Y-105591017D01*
%TO.C,SW1*%
X137124000Y-90613017D02*
X137124000Y-96613017D01*
X143124000Y-96613017D02*
X143124000Y-93613017D01*
X137124000Y-96613017D02*
X143124000Y-96613017D01*
X143124000Y-93613017D02*
X143124000Y-90613017D01*
X143124000Y-90613017D02*
X137124000Y-90613017D01*
X142139564Y-93613017D02*
G75*
G03*
X142139564Y-93613017I-2015564J0D01*
G01*
%TO.C,SW2*%
X122804000Y-90613017D02*
X116804000Y-90613017D01*
X122804000Y-93613017D02*
X122804000Y-90613017D01*
X122804000Y-96613017D02*
X122804000Y-93613017D01*
X116804000Y-90613017D02*
X116804000Y-96613017D01*
X116804000Y-96613017D02*
X122804000Y-96613017D01*
X121819564Y-93613017D02*
G75*
G03*
X121819564Y-93613017I-2015564J0D01*
G01*
%TO.C,J5*%
X133544000Y-20031017D02*
X126044000Y-20031017D01*
X133544000Y-25331017D02*
X126044000Y-25331017D01*
X126044000Y-20031017D02*
X126044000Y-24631017D01*
X133544000Y-24631017D02*
X126044000Y-24631017D01*
X133544000Y-20031017D02*
X133544000Y-24631017D01*
%TO.C,J7*%
X137796000Y-108524000D02*
X136796000Y-107524000D01*
X122046000Y-129244000D02*
X137796000Y-129244000D01*
X136796000Y-107524000D02*
X122046000Y-107524000D01*
X137796000Y-129244000D02*
X137796000Y-108524000D01*
X122046000Y-107524000D02*
X122046000Y-129244000D01*
%TD*%
M02*
