%TF.GenerationSoftware,KiCad,Pcbnew,6.0.5-a6ca702e91~116~ubuntu20.04.1*%
%TF.CreationDate,2022-06-28T21:19:43+02:00*%
%TF.ProjectId,MCH-light,4d43482d-6c69-4676-9874-2e6b69636164,rev?*%
%TF.SameCoordinates,Original*%
%TF.FileFunction,AssemblyDrawing,Top*%
%FSLAX46Y46*%
G04 Gerber Fmt 4.6, Leading zero omitted, Abs format (unit mm)*
G04 Created by KiCad (PCBNEW 6.0.5-a6ca702e91~116~ubuntu20.04.1) date 2022-06-28 21:19:43*
%MOMM*%
%LPD*%
G01*
G04 APERTURE LIST*
%ADD10C,0.150000*%
%ADD11C,0.060000*%
%ADD12C,0.080000*%
%ADD13C,0.120000*%
%ADD14C,0.105000*%
%ADD15C,0.100000*%
G04 APERTURE END LIST*
D10*
%TO.C,R4*%
X135072380Y-158424476D02*
X135072380Y-158995904D01*
X135072380Y-158710190D02*
X134072380Y-158710190D01*
X134215238Y-158805428D01*
X134310476Y-158900666D01*
X134358095Y-158995904D01*
X134072380Y-157805428D02*
X134072380Y-157710190D01*
X134120000Y-157614952D01*
X134167619Y-157567333D01*
X134262857Y-157519714D01*
X134453333Y-157472095D01*
X134691428Y-157472095D01*
X134881904Y-157519714D01*
X134977142Y-157567333D01*
X135024761Y-157614952D01*
X135072380Y-157710190D01*
X135072380Y-157805428D01*
X135024761Y-157900666D01*
X134977142Y-157948285D01*
X134881904Y-157995904D01*
X134691428Y-158043523D01*
X134453333Y-158043523D01*
X134262857Y-157995904D01*
X134167619Y-157948285D01*
X134120000Y-157900666D01*
X134072380Y-157805428D01*
X135072380Y-156472095D02*
X134596190Y-156805428D01*
X135072380Y-157043523D02*
X134072380Y-157043523D01*
X134072380Y-156662571D01*
X134120000Y-156567333D01*
X134167619Y-156519714D01*
X134262857Y-156472095D01*
X134405714Y-156472095D01*
X134500952Y-156519714D01*
X134548571Y-156567333D01*
X134596190Y-156662571D01*
X134596190Y-157043523D01*
D11*
X134800952Y-154752666D02*
X134610476Y-154886000D01*
X134800952Y-154981238D02*
X134400952Y-154981238D01*
X134400952Y-154828857D01*
X134420000Y-154790761D01*
X134439047Y-154771714D01*
X134477142Y-154752666D01*
X134534285Y-154752666D01*
X134572380Y-154771714D01*
X134591428Y-154790761D01*
X134610476Y-154828857D01*
X134610476Y-154981238D01*
X134534285Y-154409809D02*
X134800952Y-154409809D01*
X134381904Y-154505047D02*
X134667619Y-154600285D01*
X134667619Y-154352666D01*
D10*
%TO.C,C6*%
X115160571Y-133548380D02*
X114589142Y-133548380D01*
X114874857Y-133548380D02*
X114874857Y-132548380D01*
X114779619Y-132691238D01*
X114684380Y-132786476D01*
X114589142Y-132834095D01*
X115732000Y-132976952D02*
X115636761Y-132929333D01*
X115589142Y-132881714D01*
X115541523Y-132786476D01*
X115541523Y-132738857D01*
X115589142Y-132643619D01*
X115636761Y-132596000D01*
X115732000Y-132548380D01*
X115922476Y-132548380D01*
X116017714Y-132596000D01*
X116065333Y-132643619D01*
X116112952Y-132738857D01*
X116112952Y-132786476D01*
X116065333Y-132881714D01*
X116017714Y-132929333D01*
X115922476Y-132976952D01*
X115732000Y-132976952D01*
X115636761Y-133024571D01*
X115589142Y-133072190D01*
X115541523Y-133167428D01*
X115541523Y-133357904D01*
X115589142Y-133453142D01*
X115636761Y-133500761D01*
X115732000Y-133548380D01*
X115922476Y-133548380D01*
X116017714Y-133500761D01*
X116065333Y-133453142D01*
X116112952Y-133357904D01*
X116112952Y-133167428D01*
X116065333Y-133072190D01*
X116017714Y-133024571D01*
X115922476Y-132976952D01*
X116541523Y-132881714D02*
X116541523Y-133881714D01*
X116541523Y-132929333D02*
X116636761Y-132881714D01*
X116827238Y-132881714D01*
X116922476Y-132929333D01*
X116970095Y-132976952D01*
X117017714Y-133072190D01*
X117017714Y-133357904D01*
X116970095Y-133453142D01*
X116922476Y-133500761D01*
X116827238Y-133548380D01*
X116636761Y-133548380D01*
X116541523Y-133500761D01*
X117779619Y-133024571D02*
X117446285Y-133024571D01*
X117446285Y-133548380D02*
X117446285Y-132548380D01*
X117922476Y-132548380D01*
D12*
X121990666Y-133274571D02*
X121966857Y-133298380D01*
X121895428Y-133322190D01*
X121847809Y-133322190D01*
X121776380Y-133298380D01*
X121728761Y-133250761D01*
X121704952Y-133203142D01*
X121681142Y-133107904D01*
X121681142Y-133036476D01*
X121704952Y-132941238D01*
X121728761Y-132893619D01*
X121776380Y-132846000D01*
X121847809Y-132822190D01*
X121895428Y-132822190D01*
X121966857Y-132846000D01*
X121990666Y-132869809D01*
X122419238Y-132822190D02*
X122324000Y-132822190D01*
X122276380Y-132846000D01*
X122252571Y-132869809D01*
X122204952Y-132941238D01*
X122181142Y-133036476D01*
X122181142Y-133226952D01*
X122204952Y-133274571D01*
X122228761Y-133298380D01*
X122276380Y-133322190D01*
X122371619Y-133322190D01*
X122419238Y-133298380D01*
X122443047Y-133274571D01*
X122466857Y-133226952D01*
X122466857Y-133107904D01*
X122443047Y-133060285D01*
X122419238Y-133036476D01*
X122371619Y-133012666D01*
X122276380Y-133012666D01*
X122228761Y-133036476D01*
X122204952Y-133060285D01*
X122181142Y-133107904D01*
D10*
%TO.C,C10*%
X140882952Y-128833619D02*
X140930571Y-128786000D01*
X141025809Y-128738380D01*
X141263904Y-128738380D01*
X141359142Y-128786000D01*
X141406761Y-128833619D01*
X141454380Y-128928857D01*
X141454380Y-129024095D01*
X141406761Y-129166952D01*
X140835333Y-129738380D01*
X141454380Y-129738380D01*
X141787714Y-128738380D02*
X142454380Y-128738380D01*
X142025809Y-129738380D01*
X143025809Y-128738380D02*
X143121047Y-128738380D01*
X143216285Y-128786000D01*
X143263904Y-128833619D01*
X143311523Y-128928857D01*
X143359142Y-129119333D01*
X143359142Y-129357428D01*
X143311523Y-129547904D01*
X143263904Y-129643142D01*
X143216285Y-129690761D01*
X143121047Y-129738380D01*
X143025809Y-129738380D01*
X142930571Y-129690761D01*
X142882952Y-129643142D01*
X142835333Y-129547904D01*
X142787714Y-129357428D01*
X142787714Y-129119333D01*
X142835333Y-128928857D01*
X142882952Y-128833619D01*
X142930571Y-128786000D01*
X143025809Y-128738380D01*
X143787714Y-129071714D02*
X143787714Y-130071714D01*
X143787714Y-129119333D02*
X143882952Y-129071714D01*
X144073428Y-129071714D01*
X144168666Y-129119333D01*
X144216285Y-129166952D01*
X144263904Y-129262190D01*
X144263904Y-129547904D01*
X144216285Y-129643142D01*
X144168666Y-129690761D01*
X144073428Y-129738380D01*
X143882952Y-129738380D01*
X143787714Y-129690761D01*
X145025809Y-129214571D02*
X144692476Y-129214571D01*
X144692476Y-129738380D02*
X144692476Y-128738380D01*
X145168666Y-128738380D01*
D11*
X136140857Y-129428857D02*
X136121809Y-129447904D01*
X136064666Y-129466952D01*
X136026571Y-129466952D01*
X135969428Y-129447904D01*
X135931333Y-129409809D01*
X135912285Y-129371714D01*
X135893238Y-129295523D01*
X135893238Y-129238380D01*
X135912285Y-129162190D01*
X135931333Y-129124095D01*
X135969428Y-129086000D01*
X136026571Y-129066952D01*
X136064666Y-129066952D01*
X136121809Y-129086000D01*
X136140857Y-129105047D01*
X136521809Y-129466952D02*
X136293238Y-129466952D01*
X136407523Y-129466952D02*
X136407523Y-129066952D01*
X136369428Y-129124095D01*
X136331333Y-129162190D01*
X136293238Y-129181238D01*
X136769428Y-129066952D02*
X136807523Y-129066952D01*
X136845619Y-129086000D01*
X136864666Y-129105047D01*
X136883714Y-129143142D01*
X136902761Y-129219333D01*
X136902761Y-129314571D01*
X136883714Y-129390761D01*
X136864666Y-129428857D01*
X136845619Y-129447904D01*
X136807523Y-129466952D01*
X136769428Y-129466952D01*
X136731333Y-129447904D01*
X136712285Y-129428857D01*
X136693238Y-129390761D01*
X136674190Y-129314571D01*
X136674190Y-129219333D01*
X136693238Y-129143142D01*
X136712285Y-129105047D01*
X136731333Y-129086000D01*
X136769428Y-129066952D01*
D10*
%TO.C,J1*%
X116650809Y-178237571D02*
X116317476Y-178237571D01*
X116317476Y-178761380D02*
X116317476Y-177761380D01*
X116793666Y-177761380D01*
X117031761Y-177761380D02*
X117603190Y-177761380D01*
X117317476Y-178761380D02*
X117317476Y-177761380D01*
X117936523Y-178761380D02*
X117936523Y-177761380D01*
X118174619Y-177761380D01*
X118317476Y-177809000D01*
X118412714Y-177904238D01*
X118460333Y-177999476D01*
X118507952Y-178189952D01*
X118507952Y-178332809D01*
X118460333Y-178523285D01*
X118412714Y-178618523D01*
X118317476Y-178713761D01*
X118174619Y-178761380D01*
X117936523Y-178761380D01*
X118936523Y-178761380D02*
X118936523Y-177761380D01*
X117079380Y-169522333D02*
X117793666Y-169522333D01*
X117936523Y-169569952D01*
X118031761Y-169665190D01*
X118079380Y-169808047D01*
X118079380Y-169903285D01*
X118079380Y-168522333D02*
X118079380Y-169093761D01*
X118079380Y-168808047D02*
X117079380Y-168808047D01*
X117222238Y-168903285D01*
X117317476Y-168998523D01*
X117365095Y-169093761D01*
%TO.C,C13*%
X133984380Y-140816380D02*
X133412952Y-140816380D01*
X133698666Y-140816380D02*
X133698666Y-139816380D01*
X133603428Y-139959238D01*
X133508190Y-140054476D01*
X133412952Y-140102095D01*
X134603428Y-139816380D02*
X134698666Y-139816380D01*
X134793904Y-139864000D01*
X134841523Y-139911619D01*
X134889142Y-140006857D01*
X134936761Y-140197333D01*
X134936761Y-140435428D01*
X134889142Y-140625904D01*
X134841523Y-140721142D01*
X134793904Y-140768761D01*
X134698666Y-140816380D01*
X134603428Y-140816380D01*
X134508190Y-140768761D01*
X134460571Y-140721142D01*
X134412952Y-140625904D01*
X134365333Y-140435428D01*
X134365333Y-140197333D01*
X134412952Y-140006857D01*
X134460571Y-139911619D01*
X134508190Y-139864000D01*
X134603428Y-139816380D01*
X135555809Y-139816380D02*
X135651047Y-139816380D01*
X135746285Y-139864000D01*
X135793904Y-139911619D01*
X135841523Y-140006857D01*
X135889142Y-140197333D01*
X135889142Y-140435428D01*
X135841523Y-140625904D01*
X135793904Y-140721142D01*
X135746285Y-140768761D01*
X135651047Y-140816380D01*
X135555809Y-140816380D01*
X135460571Y-140768761D01*
X135412952Y-140721142D01*
X135365333Y-140625904D01*
X135317714Y-140435428D01*
X135317714Y-140197333D01*
X135365333Y-140006857D01*
X135412952Y-139911619D01*
X135460571Y-139864000D01*
X135555809Y-139816380D01*
X136317714Y-140149714D02*
X136317714Y-140816380D01*
X136317714Y-140244952D02*
X136365333Y-140197333D01*
X136460571Y-140149714D01*
X136603428Y-140149714D01*
X136698666Y-140197333D01*
X136746285Y-140292571D01*
X136746285Y-140816380D01*
X137555809Y-140292571D02*
X137222476Y-140292571D01*
X137222476Y-140816380D02*
X137222476Y-139816380D01*
X137698666Y-139816380D01*
D11*
X139084857Y-135172857D02*
X139065809Y-135191904D01*
X139008666Y-135210952D01*
X138970571Y-135210952D01*
X138913428Y-135191904D01*
X138875333Y-135153809D01*
X138856285Y-135115714D01*
X138837238Y-135039523D01*
X138837238Y-134982380D01*
X138856285Y-134906190D01*
X138875333Y-134868095D01*
X138913428Y-134830000D01*
X138970571Y-134810952D01*
X139008666Y-134810952D01*
X139065809Y-134830000D01*
X139084857Y-134849047D01*
X139465809Y-135210952D02*
X139237238Y-135210952D01*
X139351523Y-135210952D02*
X139351523Y-134810952D01*
X139313428Y-134868095D01*
X139275333Y-134906190D01*
X139237238Y-134925238D01*
X139599142Y-134810952D02*
X139846761Y-134810952D01*
X139713428Y-134963333D01*
X139770571Y-134963333D01*
X139808666Y-134982380D01*
X139827714Y-135001428D01*
X139846761Y-135039523D01*
X139846761Y-135134761D01*
X139827714Y-135172857D01*
X139808666Y-135191904D01*
X139770571Y-135210952D01*
X139656285Y-135210952D01*
X139618190Y-135191904D01*
X139599142Y-135172857D01*
D10*
%TO.C,C4*%
X117149523Y-71985142D02*
X117101904Y-72032761D01*
X116959047Y-72080380D01*
X116863809Y-72080380D01*
X116720952Y-72032761D01*
X116625714Y-71937523D01*
X116578095Y-71842285D01*
X116530476Y-71651809D01*
X116530476Y-71508952D01*
X116578095Y-71318476D01*
X116625714Y-71223238D01*
X116720952Y-71128000D01*
X116863809Y-71080380D01*
X116959047Y-71080380D01*
X117101904Y-71128000D01*
X117149523Y-71175619D01*
D12*
X117018571Y-68729333D02*
X117042380Y-68753142D01*
X117066190Y-68824571D01*
X117066190Y-68872190D01*
X117042380Y-68943619D01*
X116994761Y-68991238D01*
X116947142Y-69015047D01*
X116851904Y-69038857D01*
X116780476Y-69038857D01*
X116685238Y-69015047D01*
X116637619Y-68991238D01*
X116590000Y-68943619D01*
X116566190Y-68872190D01*
X116566190Y-68824571D01*
X116590000Y-68753142D01*
X116613809Y-68729333D01*
X116732857Y-68300761D02*
X117066190Y-68300761D01*
X116542380Y-68419809D02*
X116899523Y-68538857D01*
X116899523Y-68229333D01*
D10*
%TO.C,C7*%
X115260571Y-124912380D02*
X114689142Y-124912380D01*
X114974857Y-124912380D02*
X114974857Y-123912380D01*
X114879619Y-124055238D01*
X114784380Y-124150476D01*
X114689142Y-124198095D01*
X115832000Y-124340952D02*
X115736761Y-124293333D01*
X115689142Y-124245714D01*
X115641523Y-124150476D01*
X115641523Y-124102857D01*
X115689142Y-124007619D01*
X115736761Y-123960000D01*
X115832000Y-123912380D01*
X116022476Y-123912380D01*
X116117714Y-123960000D01*
X116165333Y-124007619D01*
X116212952Y-124102857D01*
X116212952Y-124150476D01*
X116165333Y-124245714D01*
X116117714Y-124293333D01*
X116022476Y-124340952D01*
X115832000Y-124340952D01*
X115736761Y-124388571D01*
X115689142Y-124436190D01*
X115641523Y-124531428D01*
X115641523Y-124721904D01*
X115689142Y-124817142D01*
X115736761Y-124864761D01*
X115832000Y-124912380D01*
X116022476Y-124912380D01*
X116117714Y-124864761D01*
X116165333Y-124817142D01*
X116212952Y-124721904D01*
X116212952Y-124531428D01*
X116165333Y-124436190D01*
X116117714Y-124388571D01*
X116022476Y-124340952D01*
X116641523Y-124245714D02*
X116641523Y-125245714D01*
X116641523Y-124293333D02*
X116736761Y-124245714D01*
X116927238Y-124245714D01*
X117022476Y-124293333D01*
X117070095Y-124340952D01*
X117117714Y-124436190D01*
X117117714Y-124721904D01*
X117070095Y-124817142D01*
X117022476Y-124864761D01*
X116927238Y-124912380D01*
X116736761Y-124912380D01*
X116641523Y-124864761D01*
X117879619Y-124388571D02*
X117546285Y-124388571D01*
X117546285Y-124912380D02*
X117546285Y-123912380D01*
X118022476Y-123912380D01*
D12*
X122090666Y-124638571D02*
X122066857Y-124662380D01*
X121995428Y-124686190D01*
X121947809Y-124686190D01*
X121876380Y-124662380D01*
X121828761Y-124614761D01*
X121804952Y-124567142D01*
X121781142Y-124471904D01*
X121781142Y-124400476D01*
X121804952Y-124305238D01*
X121828761Y-124257619D01*
X121876380Y-124210000D01*
X121947809Y-124186190D01*
X121995428Y-124186190D01*
X122066857Y-124210000D01*
X122090666Y-124233809D01*
X122257333Y-124186190D02*
X122590666Y-124186190D01*
X122376380Y-124686190D01*
D10*
%TO.C,R1*%
X124563761Y-158440380D02*
X123992333Y-158440380D01*
X124278047Y-158440380D02*
X124278047Y-157440380D01*
X124182809Y-157583238D01*
X124087571Y-157678476D01*
X123992333Y-157726095D01*
X124944714Y-157535619D02*
X124992333Y-157488000D01*
X125087571Y-157440380D01*
X125325666Y-157440380D01*
X125420904Y-157488000D01*
X125468523Y-157535619D01*
X125516142Y-157630857D01*
X125516142Y-157726095D01*
X125468523Y-157868952D01*
X124897095Y-158440380D01*
X125516142Y-158440380D01*
X125944714Y-158440380D02*
X125944714Y-157440380D01*
X126039952Y-158059428D02*
X126325666Y-158440380D01*
X126325666Y-157773714D02*
X125944714Y-158154666D01*
D11*
X122044333Y-158168952D02*
X121911000Y-157978476D01*
X121815761Y-158168952D02*
X121815761Y-157768952D01*
X121968142Y-157768952D01*
X122006238Y-157788000D01*
X122025285Y-157807047D01*
X122044333Y-157845142D01*
X122044333Y-157902285D01*
X122025285Y-157940380D01*
X122006238Y-157959428D01*
X121968142Y-157978476D01*
X121815761Y-157978476D01*
X122425285Y-158168952D02*
X122196714Y-158168952D01*
X122311000Y-158168952D02*
X122311000Y-157768952D01*
X122272904Y-157826095D01*
X122234809Y-157864190D01*
X122196714Y-157883238D01*
D10*
%TO.C,C5*%
X141787523Y-80875142D02*
X141739904Y-80922761D01*
X141597047Y-80970380D01*
X141501809Y-80970380D01*
X141358952Y-80922761D01*
X141263714Y-80827523D01*
X141216095Y-80732285D01*
X141168476Y-80541809D01*
X141168476Y-80398952D01*
X141216095Y-80208476D01*
X141263714Y-80113238D01*
X141358952Y-80018000D01*
X141501809Y-79970380D01*
X141597047Y-79970380D01*
X141739904Y-80018000D01*
X141787523Y-80065619D01*
D12*
X141656571Y-83141333D02*
X141680380Y-83165142D01*
X141704190Y-83236571D01*
X141704190Y-83284190D01*
X141680380Y-83355619D01*
X141632761Y-83403238D01*
X141585142Y-83427047D01*
X141489904Y-83450857D01*
X141418476Y-83450857D01*
X141323238Y-83427047D01*
X141275619Y-83403238D01*
X141228000Y-83355619D01*
X141204190Y-83284190D01*
X141204190Y-83236571D01*
X141228000Y-83165142D01*
X141251809Y-83141333D01*
X141204190Y-82688952D02*
X141204190Y-82927047D01*
X141442285Y-82950857D01*
X141418476Y-82927047D01*
X141394666Y-82879428D01*
X141394666Y-82760380D01*
X141418476Y-82712761D01*
X141442285Y-82688952D01*
X141489904Y-82665142D01*
X141608952Y-82665142D01*
X141656571Y-82688952D01*
X141680380Y-82712761D01*
X141704190Y-82760380D01*
X141704190Y-82879428D01*
X141680380Y-82927047D01*
X141656571Y-82950857D01*
D10*
%TO.C,R3*%
X136850380Y-158424476D02*
X136850380Y-158995904D01*
X136850380Y-158710190D02*
X135850380Y-158710190D01*
X135993238Y-158805428D01*
X136088476Y-158900666D01*
X136136095Y-158995904D01*
X135850380Y-157805428D02*
X135850380Y-157710190D01*
X135898000Y-157614952D01*
X135945619Y-157567333D01*
X136040857Y-157519714D01*
X136231333Y-157472095D01*
X136469428Y-157472095D01*
X136659904Y-157519714D01*
X136755142Y-157567333D01*
X136802761Y-157614952D01*
X136850380Y-157710190D01*
X136850380Y-157805428D01*
X136802761Y-157900666D01*
X136755142Y-157948285D01*
X136659904Y-157995904D01*
X136469428Y-158043523D01*
X136231333Y-158043523D01*
X136040857Y-157995904D01*
X135945619Y-157948285D01*
X135898000Y-157900666D01*
X135850380Y-157805428D01*
X136850380Y-156472095D02*
X136374190Y-156805428D01*
X136850380Y-157043523D02*
X135850380Y-157043523D01*
X135850380Y-156662571D01*
X135898000Y-156567333D01*
X135945619Y-156519714D01*
X136040857Y-156472095D01*
X136183714Y-156472095D01*
X136278952Y-156519714D01*
X136326571Y-156567333D01*
X136374190Y-156662571D01*
X136374190Y-157043523D01*
D11*
X136578952Y-154752666D02*
X136388476Y-154886000D01*
X136578952Y-154981238D02*
X136178952Y-154981238D01*
X136178952Y-154828857D01*
X136198000Y-154790761D01*
X136217047Y-154771714D01*
X136255142Y-154752666D01*
X136312285Y-154752666D01*
X136350380Y-154771714D01*
X136369428Y-154790761D01*
X136388476Y-154828857D01*
X136388476Y-154981238D01*
X136178952Y-154619333D02*
X136178952Y-154371714D01*
X136331333Y-154505047D01*
X136331333Y-154447904D01*
X136350380Y-154409809D01*
X136369428Y-154390761D01*
X136407523Y-154371714D01*
X136502761Y-154371714D01*
X136540857Y-154390761D01*
X136559904Y-154409809D01*
X136578952Y-154447904D01*
X136578952Y-154562190D01*
X136559904Y-154600285D01*
X136540857Y-154619333D01*
D10*
%TO.C,H1*%
X131790571Y-107668380D02*
X131790571Y-106668380D01*
X132123904Y-107382666D01*
X132457238Y-106668380D01*
X132457238Y-107668380D01*
X133076285Y-107668380D02*
X132981047Y-107620761D01*
X132933428Y-107573142D01*
X132885809Y-107477904D01*
X132885809Y-107192190D01*
X132933428Y-107096952D01*
X132981047Y-107049333D01*
X133076285Y-107001714D01*
X133219142Y-107001714D01*
X133314380Y-107049333D01*
X133362000Y-107096952D01*
X133409619Y-107192190D01*
X133409619Y-107477904D01*
X133362000Y-107573142D01*
X133314380Y-107620761D01*
X133219142Y-107668380D01*
X133076285Y-107668380D01*
X134266761Y-107001714D02*
X134266761Y-107668380D01*
X133838190Y-107001714D02*
X133838190Y-107525523D01*
X133885809Y-107620761D01*
X133981047Y-107668380D01*
X134123904Y-107668380D01*
X134219142Y-107620761D01*
X134266761Y-107573142D01*
X134742952Y-107001714D02*
X134742952Y-107668380D01*
X134742952Y-107096952D02*
X134790571Y-107049333D01*
X134885809Y-107001714D01*
X135028666Y-107001714D01*
X135123904Y-107049333D01*
X135171523Y-107144571D01*
X135171523Y-107668380D01*
X135504857Y-107001714D02*
X135885809Y-107001714D01*
X135647714Y-106668380D02*
X135647714Y-107525523D01*
X135695333Y-107620761D01*
X135790571Y-107668380D01*
X135885809Y-107668380D01*
X136219142Y-107668380D02*
X136219142Y-107001714D01*
X136219142Y-106668380D02*
X136171523Y-106716000D01*
X136219142Y-106763619D01*
X136266761Y-106716000D01*
X136219142Y-106668380D01*
X136219142Y-106763619D01*
X136695333Y-107001714D02*
X136695333Y-107668380D01*
X136695333Y-107096952D02*
X136742952Y-107049333D01*
X136838190Y-107001714D01*
X136981047Y-107001714D01*
X137076285Y-107049333D01*
X137123904Y-107144571D01*
X137123904Y-107668380D01*
X138028666Y-107001714D02*
X138028666Y-107811238D01*
X137981047Y-107906476D01*
X137933428Y-107954095D01*
X137838190Y-108001714D01*
X137695333Y-108001714D01*
X137600095Y-107954095D01*
X138028666Y-107620761D02*
X137933428Y-107668380D01*
X137742952Y-107668380D01*
X137647714Y-107620761D01*
X137600095Y-107573142D01*
X137552476Y-107477904D01*
X137552476Y-107192190D01*
X137600095Y-107096952D01*
X137647714Y-107049333D01*
X137742952Y-107001714D01*
X137933428Y-107001714D01*
X138028666Y-107049333D01*
X138504857Y-107668380D02*
X138504857Y-106668380D01*
X138504857Y-107144571D02*
X139076285Y-107144571D01*
X139076285Y-107668380D02*
X139076285Y-106668380D01*
X139695333Y-107668380D02*
X139600095Y-107620761D01*
X139552476Y-107573142D01*
X139504857Y-107477904D01*
X139504857Y-107192190D01*
X139552476Y-107096952D01*
X139600095Y-107049333D01*
X139695333Y-107001714D01*
X139838190Y-107001714D01*
X139933428Y-107049333D01*
X139981047Y-107096952D01*
X140028666Y-107192190D01*
X140028666Y-107477904D01*
X139981047Y-107573142D01*
X139933428Y-107620761D01*
X139838190Y-107668380D01*
X139695333Y-107668380D01*
X140600095Y-107668380D02*
X140504857Y-107620761D01*
X140457238Y-107525523D01*
X140457238Y-106668380D01*
X141362000Y-107620761D02*
X141266761Y-107668380D01*
X141076285Y-107668380D01*
X140981047Y-107620761D01*
X140933428Y-107525523D01*
X140933428Y-107144571D01*
X140981047Y-107049333D01*
X141076285Y-107001714D01*
X141266761Y-107001714D01*
X141362000Y-107049333D01*
X141409619Y-107144571D01*
X141409619Y-107239809D01*
X140933428Y-107335047D01*
X141600095Y-107763619D02*
X142362000Y-107763619D01*
X142600095Y-107668380D02*
X142600095Y-106668380D01*
X142981047Y-106668380D01*
X143076285Y-106716000D01*
X143123904Y-106763619D01*
X143171523Y-106858857D01*
X143171523Y-107001714D01*
X143123904Y-107096952D01*
X143076285Y-107144571D01*
X142981047Y-107192190D01*
X142600095Y-107192190D01*
X144028666Y-107668380D02*
X144028666Y-107144571D01*
X143981047Y-107049333D01*
X143885809Y-107001714D01*
X143695333Y-107001714D01*
X143600095Y-107049333D01*
X144028666Y-107620761D02*
X143933428Y-107668380D01*
X143695333Y-107668380D01*
X143600095Y-107620761D01*
X143552476Y-107525523D01*
X143552476Y-107430285D01*
X143600095Y-107335047D01*
X143695333Y-107287428D01*
X143933428Y-107287428D01*
X144028666Y-107239809D01*
X144933428Y-107668380D02*
X144933428Y-106668380D01*
X144933428Y-107620761D02*
X144838190Y-107668380D01*
X144647714Y-107668380D01*
X144552476Y-107620761D01*
X144504857Y-107573142D01*
X144457238Y-107477904D01*
X144457238Y-107192190D01*
X144504857Y-107096952D01*
X144552476Y-107049333D01*
X144647714Y-107001714D01*
X144838190Y-107001714D01*
X144933428Y-107049333D01*
X140342095Y-102649397D02*
X140342095Y-101649397D01*
X140342095Y-102125588D02*
X140913523Y-102125588D01*
X140913523Y-102649397D02*
X140913523Y-101649397D01*
X141913523Y-102649397D02*
X141342095Y-102649397D01*
X141627809Y-102649397D02*
X141627809Y-101649397D01*
X141532571Y-101792255D01*
X141437333Y-101887493D01*
X141342095Y-101935112D01*
%TO.C,J8*%
X143616761Y-80752095D02*
X143664380Y-80609238D01*
X143664380Y-80371142D01*
X143616761Y-80275904D01*
X143569142Y-80228285D01*
X143473904Y-80180666D01*
X143378666Y-80180666D01*
X143283428Y-80228285D01*
X143235809Y-80275904D01*
X143188190Y-80371142D01*
X143140571Y-80561619D01*
X143092952Y-80656857D01*
X143045333Y-80704476D01*
X142950095Y-80752095D01*
X142854857Y-80752095D01*
X142759619Y-80704476D01*
X142712000Y-80656857D01*
X142664380Y-80561619D01*
X142664380Y-80323523D01*
X142712000Y-80180666D01*
X143616761Y-79323523D02*
X143664380Y-79418761D01*
X143664380Y-79609238D01*
X143616761Y-79704476D01*
X143569142Y-79752095D01*
X143473904Y-79799714D01*
X143188190Y-79799714D01*
X143092952Y-79752095D01*
X143045333Y-79704476D01*
X142997714Y-79609238D01*
X142997714Y-79418761D01*
X143045333Y-79323523D01*
X143664380Y-78894952D02*
X142997714Y-78894952D01*
X143188190Y-78894952D02*
X143092952Y-78847333D01*
X143045333Y-78799714D01*
X142997714Y-78704476D01*
X142997714Y-78609238D01*
X143616761Y-77894952D02*
X143664380Y-77990190D01*
X143664380Y-78180666D01*
X143616761Y-78275904D01*
X143521523Y-78323523D01*
X143140571Y-78323523D01*
X143045333Y-78275904D01*
X142997714Y-78180666D01*
X142997714Y-77990190D01*
X143045333Y-77894952D01*
X143140571Y-77847333D01*
X143235809Y-77847333D01*
X143331047Y-78323523D01*
X142997714Y-77514000D02*
X143664380Y-77323523D01*
X143188190Y-77133047D01*
X143664380Y-76942571D01*
X142997714Y-76752095D01*
X143759619Y-76609238D02*
X143759619Y-75847333D01*
X142664380Y-75752095D02*
X142664380Y-75180666D01*
X143664380Y-75466380D02*
X142664380Y-75466380D01*
X143616761Y-74466380D02*
X143664380Y-74561619D01*
X143664380Y-74752095D01*
X143616761Y-74847333D01*
X143521523Y-74894952D01*
X143140571Y-74894952D01*
X143045333Y-74847333D01*
X142997714Y-74752095D01*
X142997714Y-74561619D01*
X143045333Y-74466380D01*
X143140571Y-74418761D01*
X143235809Y-74418761D01*
X143331047Y-74894952D01*
X143664380Y-73990190D02*
X142997714Y-73990190D01*
X143188190Y-73990190D02*
X143092952Y-73942571D01*
X143045333Y-73894952D01*
X142997714Y-73799714D01*
X142997714Y-73704476D01*
X143664380Y-73371142D02*
X142997714Y-73371142D01*
X143092952Y-73371142D02*
X143045333Y-73323523D01*
X142997714Y-73228285D01*
X142997714Y-73085428D01*
X143045333Y-72990190D01*
X143140571Y-72942571D01*
X143664380Y-72942571D01*
X143140571Y-72942571D02*
X143045333Y-72894952D01*
X142997714Y-72799714D01*
X142997714Y-72656857D01*
X143045333Y-72561619D01*
X143140571Y-72514000D01*
X143664380Y-72514000D01*
X143664380Y-72037809D02*
X142997714Y-72037809D01*
X142664380Y-72037809D02*
X142712000Y-72085428D01*
X142759619Y-72037809D01*
X142712000Y-71990190D01*
X142664380Y-72037809D01*
X142759619Y-72037809D01*
X142997714Y-71561619D02*
X143664380Y-71561619D01*
X143092952Y-71561619D02*
X143045333Y-71514000D01*
X142997714Y-71418761D01*
X142997714Y-71275904D01*
X143045333Y-71180666D01*
X143140571Y-71133047D01*
X143664380Y-71133047D01*
X143664380Y-70228285D02*
X143140571Y-70228285D01*
X143045333Y-70275904D01*
X142997714Y-70371142D01*
X142997714Y-70561619D01*
X143045333Y-70656857D01*
X143616761Y-70228285D02*
X143664380Y-70323523D01*
X143664380Y-70561619D01*
X143616761Y-70656857D01*
X143521523Y-70704476D01*
X143426285Y-70704476D01*
X143331047Y-70656857D01*
X143283428Y-70561619D01*
X143283428Y-70323523D01*
X143235809Y-70228285D01*
X143664380Y-69609238D02*
X143616761Y-69704476D01*
X143521523Y-69752095D01*
X142664380Y-69752095D01*
X143759619Y-69466380D02*
X143759619Y-68704476D01*
X142664380Y-68275904D02*
X142664380Y-68180666D01*
X142712000Y-68085428D01*
X142759619Y-68037809D01*
X142854857Y-67990190D01*
X143045333Y-67942571D01*
X143283428Y-67942571D01*
X143473904Y-67990190D01*
X143569142Y-68037809D01*
X143616761Y-68085428D01*
X143664380Y-68180666D01*
X143664380Y-68275904D01*
X143616761Y-68371142D01*
X143569142Y-68418761D01*
X143473904Y-68466380D01*
X143283428Y-68514000D01*
X143045333Y-68514000D01*
X142854857Y-68466380D01*
X142759619Y-68418761D01*
X142712000Y-68371142D01*
X142664380Y-68275904D01*
X143664380Y-66990190D02*
X143664380Y-67561619D01*
X143664380Y-67275904D02*
X142664380Y-67275904D01*
X142807238Y-67371142D01*
X142902476Y-67466380D01*
X142950095Y-67561619D01*
X143664380Y-66656857D02*
X142997714Y-66133047D01*
X142997714Y-66656857D02*
X143664380Y-66133047D01*
X142664380Y-65561619D02*
X142664380Y-65466380D01*
X142712000Y-65371142D01*
X142759619Y-65323523D01*
X142854857Y-65275904D01*
X143045333Y-65228285D01*
X143283428Y-65228285D01*
X143473904Y-65275904D01*
X143569142Y-65323523D01*
X143616761Y-65371142D01*
X143664380Y-65466380D01*
X143664380Y-65561619D01*
X143616761Y-65656857D01*
X143569142Y-65704476D01*
X143473904Y-65752095D01*
X143283428Y-65799714D01*
X143045333Y-65799714D01*
X142854857Y-65752095D01*
X142759619Y-65704476D01*
X142712000Y-65656857D01*
X142664380Y-65561619D01*
X142664380Y-64894952D02*
X142664380Y-64275904D01*
X143045333Y-64609238D01*
X143045333Y-64466380D01*
X143092952Y-64371142D01*
X143140571Y-64323523D01*
X143235809Y-64275904D01*
X143473904Y-64275904D01*
X143569142Y-64323523D01*
X143616761Y-64371142D01*
X143664380Y-64466380D01*
X143664380Y-64752095D01*
X143616761Y-64847333D01*
X143569142Y-64894952D01*
X136444486Y-73430397D02*
X136444486Y-74144683D01*
X136396867Y-74287540D01*
X136301629Y-74382778D01*
X136158772Y-74430397D01*
X136063534Y-74430397D01*
X137063534Y-73858969D02*
X136968296Y-73811350D01*
X136920677Y-73763731D01*
X136873058Y-73668493D01*
X136873058Y-73620874D01*
X136920677Y-73525636D01*
X136968296Y-73478017D01*
X137063534Y-73430397D01*
X137254010Y-73430397D01*
X137349248Y-73478017D01*
X137396867Y-73525636D01*
X137444486Y-73620874D01*
X137444486Y-73668493D01*
X137396867Y-73763731D01*
X137349248Y-73811350D01*
X137254010Y-73858969D01*
X137063534Y-73858969D01*
X136968296Y-73906588D01*
X136920677Y-73954207D01*
X136873058Y-74049445D01*
X136873058Y-74239921D01*
X136920677Y-74335159D01*
X136968296Y-74382778D01*
X137063534Y-74430397D01*
X137254010Y-74430397D01*
X137349248Y-74382778D01*
X137396867Y-74335159D01*
X137444486Y-74239921D01*
X137444486Y-74049445D01*
X137396867Y-73954207D01*
X137349248Y-73906588D01*
X137254010Y-73858969D01*
%TO.C,R6*%
X138628380Y-158424476D02*
X138628380Y-158995904D01*
X138628380Y-158710190D02*
X137628380Y-158710190D01*
X137771238Y-158805428D01*
X137866476Y-158900666D01*
X137914095Y-158995904D01*
X137628380Y-157805428D02*
X137628380Y-157710190D01*
X137676000Y-157614952D01*
X137723619Y-157567333D01*
X137818857Y-157519714D01*
X138009333Y-157472095D01*
X138247428Y-157472095D01*
X138437904Y-157519714D01*
X138533142Y-157567333D01*
X138580761Y-157614952D01*
X138628380Y-157710190D01*
X138628380Y-157805428D01*
X138580761Y-157900666D01*
X138533142Y-157948285D01*
X138437904Y-157995904D01*
X138247428Y-158043523D01*
X138009333Y-158043523D01*
X137818857Y-157995904D01*
X137723619Y-157948285D01*
X137676000Y-157900666D01*
X137628380Y-157805428D01*
X138628380Y-156472095D02*
X138152190Y-156805428D01*
X138628380Y-157043523D02*
X137628380Y-157043523D01*
X137628380Y-156662571D01*
X137676000Y-156567333D01*
X137723619Y-156519714D01*
X137818857Y-156472095D01*
X137961714Y-156472095D01*
X138056952Y-156519714D01*
X138104571Y-156567333D01*
X138152190Y-156662571D01*
X138152190Y-157043523D01*
D11*
X138356952Y-154752666D02*
X138166476Y-154886000D01*
X138356952Y-154981238D02*
X137956952Y-154981238D01*
X137956952Y-154828857D01*
X137976000Y-154790761D01*
X137995047Y-154771714D01*
X138033142Y-154752666D01*
X138090285Y-154752666D01*
X138128380Y-154771714D01*
X138147428Y-154790761D01*
X138166476Y-154828857D01*
X138166476Y-154981238D01*
X137956952Y-154409809D02*
X137956952Y-154486000D01*
X137976000Y-154524095D01*
X137995047Y-154543142D01*
X138052190Y-154581238D01*
X138128380Y-154600285D01*
X138280761Y-154600285D01*
X138318857Y-154581238D01*
X138337904Y-154562190D01*
X138356952Y-154524095D01*
X138356952Y-154447904D01*
X138337904Y-154409809D01*
X138318857Y-154390761D01*
X138280761Y-154371714D01*
X138185523Y-154371714D01*
X138147428Y-154390761D01*
X138128380Y-154409809D01*
X138109333Y-154447904D01*
X138109333Y-154524095D01*
X138128380Y-154562190D01*
X138147428Y-154581238D01*
X138185523Y-154600285D01*
D10*
%TO.C,C14*%
X120848380Y-111561428D02*
X120848380Y-112132857D01*
X120848380Y-111847142D02*
X119848380Y-111847142D01*
X119991238Y-111942380D01*
X120086476Y-112037619D01*
X120134095Y-112132857D01*
X120276952Y-110990000D02*
X120229333Y-111085238D01*
X120181714Y-111132857D01*
X120086476Y-111180476D01*
X120038857Y-111180476D01*
X119943619Y-111132857D01*
X119896000Y-111085238D01*
X119848380Y-110990000D01*
X119848380Y-110799523D01*
X119896000Y-110704285D01*
X119943619Y-110656666D01*
X120038857Y-110609047D01*
X120086476Y-110609047D01*
X120181714Y-110656666D01*
X120229333Y-110704285D01*
X120276952Y-110799523D01*
X120276952Y-110990000D01*
X120324571Y-111085238D01*
X120372190Y-111132857D01*
X120467428Y-111180476D01*
X120657904Y-111180476D01*
X120753142Y-111132857D01*
X120800761Y-111085238D01*
X120848380Y-110990000D01*
X120848380Y-110799523D01*
X120800761Y-110704285D01*
X120753142Y-110656666D01*
X120657904Y-110609047D01*
X120467428Y-110609047D01*
X120372190Y-110656666D01*
X120324571Y-110704285D01*
X120276952Y-110799523D01*
X120181714Y-110180476D02*
X121181714Y-110180476D01*
X120229333Y-110180476D02*
X120181714Y-110085238D01*
X120181714Y-109894761D01*
X120229333Y-109799523D01*
X120276952Y-109751904D01*
X120372190Y-109704285D01*
X120657904Y-109704285D01*
X120753142Y-109751904D01*
X120800761Y-109799523D01*
X120848380Y-109894761D01*
X120848380Y-110085238D01*
X120800761Y-110180476D01*
X120324571Y-108942380D02*
X120324571Y-109275714D01*
X120848380Y-109275714D02*
X119848380Y-109275714D01*
X119848380Y-108799523D01*
D12*
X122606571Y-110811428D02*
X122630380Y-110835238D01*
X122654190Y-110906666D01*
X122654190Y-110954285D01*
X122630380Y-111025714D01*
X122582761Y-111073333D01*
X122535142Y-111097142D01*
X122439904Y-111120952D01*
X122368476Y-111120952D01*
X122273238Y-111097142D01*
X122225619Y-111073333D01*
X122178000Y-111025714D01*
X122154190Y-110954285D01*
X122154190Y-110906666D01*
X122178000Y-110835238D01*
X122201809Y-110811428D01*
X122654190Y-110335238D02*
X122654190Y-110620952D01*
X122654190Y-110478095D02*
X122154190Y-110478095D01*
X122225619Y-110525714D01*
X122273238Y-110573333D01*
X122297047Y-110620952D01*
X122320857Y-109906666D02*
X122654190Y-109906666D01*
X122130380Y-110025714D02*
X122487523Y-110144761D01*
X122487523Y-109835238D01*
D10*
%TO.C,JP1*%
X115594190Y-155376571D02*
X115260857Y-155376571D01*
X115260857Y-155900380D02*
X115260857Y-154900380D01*
X115737047Y-154900380D01*
X115975142Y-154900380D02*
X116546571Y-154900380D01*
X116260857Y-155900380D02*
X116260857Y-154900380D01*
X116879904Y-155900380D02*
X116879904Y-154900380D01*
X117118000Y-154900380D01*
X117260857Y-154948000D01*
X117356095Y-155043238D01*
X117403714Y-155138476D01*
X117451333Y-155328952D01*
X117451333Y-155471809D01*
X117403714Y-155662285D01*
X117356095Y-155757523D01*
X117260857Y-155852761D01*
X117118000Y-155900380D01*
X116879904Y-155900380D01*
X117879904Y-155900380D02*
X117879904Y-154900380D01*
X118356095Y-155519428D02*
X119118000Y-155519428D01*
X119451333Y-154900380D02*
X119784666Y-155900380D01*
X120118000Y-154900380D01*
X121022761Y-155805142D02*
X120975142Y-155852761D01*
X120832285Y-155900380D01*
X120737047Y-155900380D01*
X120594190Y-155852761D01*
X120498952Y-155757523D01*
X120451333Y-155662285D01*
X120403714Y-155471809D01*
X120403714Y-155328952D01*
X120451333Y-155138476D01*
X120498952Y-155043238D01*
X120594190Y-154948000D01*
X120737047Y-154900380D01*
X120832285Y-154900380D01*
X120975142Y-154948000D01*
X121022761Y-154995619D01*
X122022761Y-155805142D02*
X121975142Y-155852761D01*
X121832285Y-155900380D01*
X121737047Y-155900380D01*
X121594190Y-155852761D01*
X121498952Y-155757523D01*
X121451333Y-155662285D01*
X121403714Y-155471809D01*
X121403714Y-155328952D01*
X121451333Y-155138476D01*
X121498952Y-155043238D01*
X121594190Y-154948000D01*
X121737047Y-154900380D01*
X121832285Y-154900380D01*
X121975142Y-154948000D01*
X122022761Y-154995619D01*
%TO.C,U3*%
X131516380Y-142422190D02*
X131516380Y-142898380D01*
X130516380Y-142898380D01*
X131230666Y-142136476D02*
X131230666Y-141660285D01*
X131516380Y-142231714D02*
X130516380Y-141898380D01*
X131516380Y-141565047D01*
X131516380Y-141231714D02*
X130516380Y-141231714D01*
X131516380Y-140660285D01*
X130516380Y-140660285D01*
X130944952Y-140041238D02*
X130897333Y-140136476D01*
X130849714Y-140184095D01*
X130754476Y-140231714D01*
X130706857Y-140231714D01*
X130611619Y-140184095D01*
X130564000Y-140136476D01*
X130516380Y-140041238D01*
X130516380Y-139850761D01*
X130564000Y-139755523D01*
X130611619Y-139707904D01*
X130706857Y-139660285D01*
X130754476Y-139660285D01*
X130849714Y-139707904D01*
X130897333Y-139755523D01*
X130944952Y-139850761D01*
X130944952Y-140041238D01*
X130992571Y-140136476D01*
X131040190Y-140184095D01*
X131135428Y-140231714D01*
X131325904Y-140231714D01*
X131421142Y-140184095D01*
X131468761Y-140136476D01*
X131516380Y-140041238D01*
X131516380Y-139850761D01*
X131468761Y-139755523D01*
X131421142Y-139707904D01*
X131325904Y-139660285D01*
X131135428Y-139660285D01*
X131040190Y-139707904D01*
X130992571Y-139755523D01*
X130944952Y-139850761D01*
X130516380Y-139326952D02*
X130516380Y-138660285D01*
X131516380Y-139088857D01*
X130611619Y-138326952D02*
X130564000Y-138279333D01*
X130516380Y-138184095D01*
X130516380Y-137946000D01*
X130564000Y-137850761D01*
X130611619Y-137803142D01*
X130706857Y-137755523D01*
X130802095Y-137755523D01*
X130944952Y-137803142D01*
X131516380Y-138374571D01*
X131516380Y-137755523D01*
X130516380Y-137136476D02*
X130516380Y-137041238D01*
X130564000Y-136946000D01*
X130611619Y-136898380D01*
X130706857Y-136850761D01*
X130897333Y-136803142D01*
X131135428Y-136803142D01*
X131325904Y-136850761D01*
X131421142Y-136898380D01*
X131468761Y-136946000D01*
X131516380Y-137041238D01*
X131516380Y-137136476D01*
X131468761Y-137231714D01*
X131421142Y-137279333D01*
X131325904Y-137326952D01*
X131135428Y-137374571D01*
X130897333Y-137374571D01*
X130706857Y-137326952D01*
X130611619Y-137279333D01*
X130564000Y-137231714D01*
X130516380Y-137136476D01*
X131230666Y-136422190D02*
X131230666Y-135946000D01*
X131516380Y-136517428D02*
X130516380Y-136184095D01*
X131516380Y-135850761D01*
X130516380Y-133603904D02*
X131325904Y-133603904D01*
X131421142Y-133556285D01*
X131468761Y-133508666D01*
X131516380Y-133413428D01*
X131516380Y-133222952D01*
X131468761Y-133127714D01*
X131421142Y-133080095D01*
X131325904Y-133032476D01*
X130516380Y-133032476D01*
X130516380Y-132651523D02*
X130516380Y-132032476D01*
X130897333Y-132365809D01*
X130897333Y-132222952D01*
X130944952Y-132127714D01*
X130992571Y-132080095D01*
X131087809Y-132032476D01*
X131325904Y-132032476D01*
X131421142Y-132080095D01*
X131468761Y-132127714D01*
X131516380Y-132222952D01*
X131516380Y-132508666D01*
X131468761Y-132603904D01*
X131421142Y-132651523D01*
%TO.C,U1*%
X123016000Y-154018666D02*
X123492190Y-154018666D01*
X122920761Y-154304380D02*
X123254095Y-153304380D01*
X123587428Y-154304380D01*
X123920761Y-154304380D02*
X123920761Y-153304380D01*
X124254095Y-154018666D01*
X124587428Y-153304380D01*
X124587428Y-154304380D01*
X125016000Y-154256761D02*
X125158857Y-154304380D01*
X125396952Y-154304380D01*
X125492190Y-154256761D01*
X125539809Y-154209142D01*
X125587428Y-154113904D01*
X125587428Y-154018666D01*
X125539809Y-153923428D01*
X125492190Y-153875809D01*
X125396952Y-153828190D01*
X125206476Y-153780571D01*
X125111238Y-153732952D01*
X125063619Y-153685333D01*
X125016000Y-153590095D01*
X125016000Y-153494857D01*
X125063619Y-153399619D01*
X125111238Y-153352000D01*
X125206476Y-153304380D01*
X125444571Y-153304380D01*
X125587428Y-153352000D01*
X126539809Y-154304380D02*
X125968380Y-154304380D01*
X126254095Y-154304380D02*
X126254095Y-153304380D01*
X126158857Y-153447238D01*
X126063619Y-153542476D01*
X125968380Y-153590095D01*
X127492190Y-154304380D02*
X126920761Y-154304380D01*
X127206476Y-154304380D02*
X127206476Y-153304380D01*
X127111238Y-153447238D01*
X127016000Y-153542476D01*
X126920761Y-153590095D01*
X128444571Y-154304380D02*
X127873142Y-154304380D01*
X128158857Y-154304380D02*
X128158857Y-153304380D01*
X128063619Y-153447238D01*
X127968380Y-153542476D01*
X127873142Y-153590095D01*
X128777904Y-153304380D02*
X129444571Y-153304380D01*
X129016000Y-154304380D01*
X129825523Y-153923428D02*
X130587428Y-153923428D01*
X130968380Y-153304380D02*
X131587428Y-153304380D01*
X131254095Y-153685333D01*
X131396952Y-153685333D01*
X131492190Y-153732952D01*
X131539809Y-153780571D01*
X131587428Y-153875809D01*
X131587428Y-154113904D01*
X131539809Y-154209142D01*
X131492190Y-154256761D01*
X131396952Y-154304380D01*
X131111238Y-154304380D01*
X131016000Y-154256761D01*
X130968380Y-154209142D01*
X132016000Y-154209142D02*
X132063619Y-154256761D01*
X132016000Y-154304380D01*
X131968380Y-154256761D01*
X132016000Y-154209142D01*
X132016000Y-154304380D01*
X132396952Y-153304380D02*
X133016000Y-153304380D01*
X132682666Y-153685333D01*
X132825523Y-153685333D01*
X132920761Y-153732952D01*
X132968380Y-153780571D01*
X133016000Y-153875809D01*
X133016000Y-154113904D01*
X132968380Y-154209142D01*
X132920761Y-154256761D01*
X132825523Y-154304380D01*
X132539809Y-154304380D01*
X132444571Y-154256761D01*
X132396952Y-154209142D01*
D13*
X127577904Y-149961523D02*
X128225523Y-149961523D01*
X128301714Y-149923428D01*
X128339809Y-149885333D01*
X128377904Y-149809142D01*
X128377904Y-149656761D01*
X128339809Y-149580571D01*
X128301714Y-149542476D01*
X128225523Y-149504380D01*
X127577904Y-149504380D01*
X128377904Y-148704380D02*
X128377904Y-149161523D01*
X128377904Y-148932952D02*
X127577904Y-148932952D01*
X127692190Y-149009142D01*
X127768380Y-149085333D01*
X127806476Y-149161523D01*
D10*
%TO.C,R15*%
X130786380Y-127931714D02*
X130786380Y-127312666D01*
X131167333Y-127646000D01*
X131167333Y-127503142D01*
X131214952Y-127407904D01*
X131262571Y-127360285D01*
X131357809Y-127312666D01*
X131595904Y-127312666D01*
X131691142Y-127360285D01*
X131738761Y-127407904D01*
X131786380Y-127503142D01*
X131786380Y-127788857D01*
X131738761Y-127884095D01*
X131691142Y-127931714D01*
X130786380Y-126979333D02*
X130786380Y-126360285D01*
X131167333Y-126693619D01*
X131167333Y-126550761D01*
X131214952Y-126455523D01*
X131262571Y-126407904D01*
X131357809Y-126360285D01*
X131595904Y-126360285D01*
X131691142Y-126407904D01*
X131738761Y-126455523D01*
X131786380Y-126550761D01*
X131786380Y-126836476D01*
X131738761Y-126931714D01*
X131691142Y-126979333D01*
X130786380Y-125741238D02*
X130786380Y-125646000D01*
X130834000Y-125550761D01*
X130881619Y-125503142D01*
X130976857Y-125455523D01*
X131167333Y-125407904D01*
X131405428Y-125407904D01*
X131595904Y-125455523D01*
X131691142Y-125503142D01*
X131738761Y-125550761D01*
X131786380Y-125646000D01*
X131786380Y-125741238D01*
X131738761Y-125836476D01*
X131691142Y-125884095D01*
X131595904Y-125931714D01*
X131405428Y-125979333D01*
X131167333Y-125979333D01*
X130976857Y-125931714D01*
X130881619Y-125884095D01*
X130834000Y-125836476D01*
X130786380Y-125741238D01*
D11*
X132784952Y-126903142D02*
X132594476Y-127036476D01*
X132784952Y-127131714D02*
X132384952Y-127131714D01*
X132384952Y-126979333D01*
X132404000Y-126941238D01*
X132423047Y-126922190D01*
X132461142Y-126903142D01*
X132518285Y-126903142D01*
X132556380Y-126922190D01*
X132575428Y-126941238D01*
X132594476Y-126979333D01*
X132594476Y-127131714D01*
X132784952Y-126522190D02*
X132784952Y-126750761D01*
X132784952Y-126636476D02*
X132384952Y-126636476D01*
X132442095Y-126674571D01*
X132480190Y-126712666D01*
X132499238Y-126750761D01*
X132384952Y-126160285D02*
X132384952Y-126350761D01*
X132575428Y-126369809D01*
X132556380Y-126350761D01*
X132537333Y-126312666D01*
X132537333Y-126217428D01*
X132556380Y-126179333D01*
X132575428Y-126160285D01*
X132613523Y-126141238D01*
X132708761Y-126141238D01*
X132746857Y-126160285D01*
X132765904Y-126179333D01*
X132784952Y-126217428D01*
X132784952Y-126312666D01*
X132765904Y-126350761D01*
X132746857Y-126369809D01*
D10*
%TO.C,H5*%
X130132571Y-190567397D02*
X130132571Y-189567397D01*
X130465904Y-190281683D01*
X130799238Y-189567397D01*
X130799238Y-190567397D01*
X131418285Y-190567397D02*
X131323047Y-190519778D01*
X131275428Y-190472159D01*
X131227809Y-190376921D01*
X131227809Y-190091207D01*
X131275428Y-189995969D01*
X131323047Y-189948350D01*
X131418285Y-189900731D01*
X131561142Y-189900731D01*
X131656380Y-189948350D01*
X131704000Y-189995969D01*
X131751619Y-190091207D01*
X131751619Y-190376921D01*
X131704000Y-190472159D01*
X131656380Y-190519778D01*
X131561142Y-190567397D01*
X131418285Y-190567397D01*
X132608761Y-189900731D02*
X132608761Y-190567397D01*
X132180190Y-189900731D02*
X132180190Y-190424540D01*
X132227809Y-190519778D01*
X132323047Y-190567397D01*
X132465904Y-190567397D01*
X132561142Y-190519778D01*
X132608761Y-190472159D01*
X133084952Y-189900731D02*
X133084952Y-190567397D01*
X133084952Y-189995969D02*
X133132571Y-189948350D01*
X133227809Y-189900731D01*
X133370666Y-189900731D01*
X133465904Y-189948350D01*
X133513523Y-190043588D01*
X133513523Y-190567397D01*
X133846857Y-189900731D02*
X134227809Y-189900731D01*
X133989714Y-189567397D02*
X133989714Y-190424540D01*
X134037333Y-190519778D01*
X134132571Y-190567397D01*
X134227809Y-190567397D01*
X134561142Y-190567397D02*
X134561142Y-189900731D01*
X134561142Y-189567397D02*
X134513523Y-189615017D01*
X134561142Y-189662636D01*
X134608761Y-189615017D01*
X134561142Y-189567397D01*
X134561142Y-189662636D01*
X135037333Y-189900731D02*
X135037333Y-190567397D01*
X135037333Y-189995969D02*
X135084952Y-189948350D01*
X135180190Y-189900731D01*
X135323047Y-189900731D01*
X135418285Y-189948350D01*
X135465904Y-190043588D01*
X135465904Y-190567397D01*
X136370666Y-189900731D02*
X136370666Y-190710255D01*
X136323047Y-190805493D01*
X136275428Y-190853112D01*
X136180190Y-190900731D01*
X136037333Y-190900731D01*
X135942095Y-190853112D01*
X136370666Y-190519778D02*
X136275428Y-190567397D01*
X136084952Y-190567397D01*
X135989714Y-190519778D01*
X135942095Y-190472159D01*
X135894476Y-190376921D01*
X135894476Y-190091207D01*
X135942095Y-189995969D01*
X135989714Y-189948350D01*
X136084952Y-189900731D01*
X136275428Y-189900731D01*
X136370666Y-189948350D01*
X136846857Y-190567397D02*
X136846857Y-189567397D01*
X136846857Y-190043588D02*
X137418285Y-190043588D01*
X137418285Y-190567397D02*
X137418285Y-189567397D01*
X138037333Y-190567397D02*
X137942095Y-190519778D01*
X137894476Y-190472159D01*
X137846857Y-190376921D01*
X137846857Y-190091207D01*
X137894476Y-189995969D01*
X137942095Y-189948350D01*
X138037333Y-189900731D01*
X138180190Y-189900731D01*
X138275428Y-189948350D01*
X138323047Y-189995969D01*
X138370666Y-190091207D01*
X138370666Y-190376921D01*
X138323047Y-190472159D01*
X138275428Y-190519778D01*
X138180190Y-190567397D01*
X138037333Y-190567397D01*
X138942095Y-190567397D02*
X138846857Y-190519778D01*
X138799238Y-190424540D01*
X138799238Y-189567397D01*
X139704000Y-190519778D02*
X139608761Y-190567397D01*
X139418285Y-190567397D01*
X139323047Y-190519778D01*
X139275428Y-190424540D01*
X139275428Y-190043588D01*
X139323047Y-189948350D01*
X139418285Y-189900731D01*
X139608761Y-189900731D01*
X139704000Y-189948350D01*
X139751619Y-190043588D01*
X139751619Y-190138826D01*
X139275428Y-190234064D01*
X139942095Y-190662636D02*
X140704000Y-190662636D01*
X140942095Y-190567397D02*
X140942095Y-189567397D01*
X141323047Y-189567397D01*
X141418285Y-189615017D01*
X141465904Y-189662636D01*
X141513523Y-189757874D01*
X141513523Y-189900731D01*
X141465904Y-189995969D01*
X141418285Y-190043588D01*
X141323047Y-190091207D01*
X140942095Y-190091207D01*
X142370666Y-190567397D02*
X142370666Y-190043588D01*
X142323047Y-189948350D01*
X142227809Y-189900731D01*
X142037333Y-189900731D01*
X141942095Y-189948350D01*
X142370666Y-190519778D02*
X142275428Y-190567397D01*
X142037333Y-190567397D01*
X141942095Y-190519778D01*
X141894476Y-190424540D01*
X141894476Y-190329302D01*
X141942095Y-190234064D01*
X142037333Y-190186445D01*
X142275428Y-190186445D01*
X142370666Y-190138826D01*
X143275428Y-190567397D02*
X143275428Y-189567397D01*
X143275428Y-190519778D02*
X143180190Y-190567397D01*
X142989714Y-190567397D01*
X142894476Y-190519778D01*
X142846857Y-190472159D01*
X142799238Y-190376921D01*
X142799238Y-190091207D01*
X142846857Y-189995969D01*
X142894476Y-189948350D01*
X142989714Y-189900731D01*
X143180190Y-189900731D01*
X143275428Y-189948350D01*
X140642095Y-195867397D02*
X140642095Y-194867397D01*
X140642095Y-195343588D02*
X141213523Y-195343588D01*
X141213523Y-195867397D02*
X141213523Y-194867397D01*
X142165904Y-194867397D02*
X141689714Y-194867397D01*
X141642095Y-195343588D01*
X141689714Y-195295969D01*
X141784952Y-195248350D01*
X142023047Y-195248350D01*
X142118285Y-195295969D01*
X142165904Y-195343588D01*
X142213523Y-195438826D01*
X142213523Y-195676921D01*
X142165904Y-195772159D01*
X142118285Y-195819778D01*
X142023047Y-195867397D01*
X141784952Y-195867397D01*
X141689714Y-195819778D01*
X141642095Y-195772159D01*
%TO.C,C1*%
X120245142Y-145526476D02*
X120292761Y-145574095D01*
X120340380Y-145716952D01*
X120340380Y-145812190D01*
X120292761Y-145955047D01*
X120197523Y-146050285D01*
X120102285Y-146097904D01*
X119911809Y-146145523D01*
X119768952Y-146145523D01*
X119578476Y-146097904D01*
X119483238Y-146050285D01*
X119388000Y-145955047D01*
X119340380Y-145812190D01*
X119340380Y-145716952D01*
X119388000Y-145574095D01*
X119435619Y-145526476D01*
D12*
X120066571Y-148205333D02*
X120090380Y-148229142D01*
X120114190Y-148300571D01*
X120114190Y-148348190D01*
X120090380Y-148419619D01*
X120042761Y-148467238D01*
X119995142Y-148491047D01*
X119899904Y-148514857D01*
X119828476Y-148514857D01*
X119733238Y-148491047D01*
X119685619Y-148467238D01*
X119638000Y-148419619D01*
X119614190Y-148348190D01*
X119614190Y-148300571D01*
X119638000Y-148229142D01*
X119661809Y-148205333D01*
X120114190Y-147729142D02*
X120114190Y-148014857D01*
X120114190Y-147872000D02*
X119614190Y-147872000D01*
X119685619Y-147919619D01*
X119733238Y-147967238D01*
X119757047Y-148014857D01*
D10*
%TO.C,R13*%
X140247714Y-120387904D02*
X140914380Y-120387904D01*
X139866761Y-120626000D02*
X140581047Y-120864095D01*
X140581047Y-120245047D01*
X140914380Y-119816476D02*
X140914380Y-119626000D01*
X140866761Y-119530761D01*
X140819142Y-119483142D01*
X140676285Y-119387904D01*
X140485809Y-119340285D01*
X140104857Y-119340285D01*
X140009619Y-119387904D01*
X139962000Y-119435523D01*
X139914380Y-119530761D01*
X139914380Y-119721238D01*
X139962000Y-119816476D01*
X140009619Y-119864095D01*
X140104857Y-119911714D01*
X140342952Y-119911714D01*
X140438190Y-119864095D01*
X140485809Y-119816476D01*
X140533428Y-119721238D01*
X140533428Y-119530761D01*
X140485809Y-119435523D01*
X140438190Y-119387904D01*
X140342952Y-119340285D01*
X140914380Y-118340285D02*
X140438190Y-118673619D01*
X140914380Y-118911714D02*
X139914380Y-118911714D01*
X139914380Y-118530761D01*
X139962000Y-118435523D01*
X140009619Y-118387904D01*
X140104857Y-118340285D01*
X140247714Y-118340285D01*
X140342952Y-118387904D01*
X140390571Y-118435523D01*
X140438190Y-118530761D01*
X140438190Y-118911714D01*
X140914380Y-117864095D02*
X140914380Y-117673619D01*
X140866761Y-117578380D01*
X140819142Y-117530761D01*
X140676285Y-117435523D01*
X140485809Y-117387904D01*
X140104857Y-117387904D01*
X140009619Y-117435523D01*
X139962000Y-117483142D01*
X139914380Y-117578380D01*
X139914380Y-117768857D01*
X139962000Y-117864095D01*
X140009619Y-117911714D01*
X140104857Y-117959333D01*
X140342952Y-117959333D01*
X140438190Y-117911714D01*
X140485809Y-117864095D01*
X140533428Y-117768857D01*
X140533428Y-117578380D01*
X140485809Y-117483142D01*
X140438190Y-117435523D01*
X140342952Y-117387904D01*
D11*
X132006952Y-115319142D02*
X131816476Y-115452476D01*
X132006952Y-115547714D02*
X131606952Y-115547714D01*
X131606952Y-115395333D01*
X131626000Y-115357238D01*
X131645047Y-115338190D01*
X131683142Y-115319142D01*
X131740285Y-115319142D01*
X131778380Y-115338190D01*
X131797428Y-115357238D01*
X131816476Y-115395333D01*
X131816476Y-115547714D01*
X132006952Y-114938190D02*
X132006952Y-115166761D01*
X132006952Y-115052476D02*
X131606952Y-115052476D01*
X131664095Y-115090571D01*
X131702190Y-115128666D01*
X131721238Y-115166761D01*
X131606952Y-114804857D02*
X131606952Y-114557238D01*
X131759333Y-114690571D01*
X131759333Y-114633428D01*
X131778380Y-114595333D01*
X131797428Y-114576285D01*
X131835523Y-114557238D01*
X131930761Y-114557238D01*
X131968857Y-114576285D01*
X131987904Y-114595333D01*
X132006952Y-114633428D01*
X132006952Y-114747714D01*
X131987904Y-114785809D01*
X131968857Y-114804857D01*
D10*
%TO.C,C2*%
X140771523Y-96525142D02*
X140723904Y-96572761D01*
X140581047Y-96620380D01*
X140485809Y-96620380D01*
X140342952Y-96572761D01*
X140247714Y-96477523D01*
X140200095Y-96382285D01*
X140152476Y-96191809D01*
X140152476Y-96048952D01*
X140200095Y-95858476D01*
X140247714Y-95763238D01*
X140342952Y-95668000D01*
X140485809Y-95620380D01*
X140581047Y-95620380D01*
X140723904Y-95668000D01*
X140771523Y-95715619D01*
D12*
X140378666Y-94666571D02*
X140354857Y-94690380D01*
X140283428Y-94714190D01*
X140235809Y-94714190D01*
X140164380Y-94690380D01*
X140116761Y-94642761D01*
X140092952Y-94595142D01*
X140069142Y-94499904D01*
X140069142Y-94428476D01*
X140092952Y-94333238D01*
X140116761Y-94285619D01*
X140164380Y-94238000D01*
X140235809Y-94214190D01*
X140283428Y-94214190D01*
X140354857Y-94238000D01*
X140378666Y-94261809D01*
X140569142Y-94261809D02*
X140592952Y-94238000D01*
X140640571Y-94214190D01*
X140759619Y-94214190D01*
X140807238Y-94238000D01*
X140831047Y-94261809D01*
X140854857Y-94309428D01*
X140854857Y-94357047D01*
X140831047Y-94428476D01*
X140545333Y-94714190D01*
X140854857Y-94714190D01*
D10*
%TO.C,R18*%
X120110285Y-76160380D02*
X119919809Y-76160380D01*
X119824571Y-76208000D01*
X119776952Y-76255619D01*
X119681714Y-76398476D01*
X119634095Y-76588952D01*
X119634095Y-76969904D01*
X119681714Y-77065142D01*
X119729333Y-77112761D01*
X119824571Y-77160380D01*
X120015047Y-77160380D01*
X120110285Y-77112761D01*
X120157904Y-77065142D01*
X120205523Y-76969904D01*
X120205523Y-76731809D01*
X120157904Y-76636571D01*
X120110285Y-76588952D01*
X120015047Y-76541333D01*
X119824571Y-76541333D01*
X119729333Y-76588952D01*
X119681714Y-76636571D01*
X119634095Y-76731809D01*
X120586476Y-76255619D02*
X120634095Y-76208000D01*
X120729333Y-76160380D01*
X120967428Y-76160380D01*
X121062666Y-76208000D01*
X121110285Y-76255619D01*
X121157904Y-76350857D01*
X121157904Y-76446095D01*
X121110285Y-76588952D01*
X120538857Y-77160380D01*
X121157904Y-77160380D01*
D11*
X123186857Y-76888952D02*
X123053523Y-76698476D01*
X122958285Y-76888952D02*
X122958285Y-76488952D01*
X123110666Y-76488952D01*
X123148761Y-76508000D01*
X123167809Y-76527047D01*
X123186857Y-76565142D01*
X123186857Y-76622285D01*
X123167809Y-76660380D01*
X123148761Y-76679428D01*
X123110666Y-76698476D01*
X122958285Y-76698476D01*
X123567809Y-76888952D02*
X123339238Y-76888952D01*
X123453523Y-76888952D02*
X123453523Y-76488952D01*
X123415428Y-76546095D01*
X123377333Y-76584190D01*
X123339238Y-76603238D01*
X123796380Y-76660380D02*
X123758285Y-76641333D01*
X123739238Y-76622285D01*
X123720190Y-76584190D01*
X123720190Y-76565142D01*
X123739238Y-76527047D01*
X123758285Y-76508000D01*
X123796380Y-76488952D01*
X123872571Y-76488952D01*
X123910666Y-76508000D01*
X123929714Y-76527047D01*
X123948761Y-76565142D01*
X123948761Y-76584190D01*
X123929714Y-76622285D01*
X123910666Y-76641333D01*
X123872571Y-76660380D01*
X123796380Y-76660380D01*
X123758285Y-76679428D01*
X123739238Y-76698476D01*
X123720190Y-76736571D01*
X123720190Y-76812761D01*
X123739238Y-76850857D01*
X123758285Y-76869904D01*
X123796380Y-76888952D01*
X123872571Y-76888952D01*
X123910666Y-76869904D01*
X123929714Y-76850857D01*
X123948761Y-76812761D01*
X123948761Y-76736571D01*
X123929714Y-76698476D01*
X123910666Y-76679428D01*
X123872571Y-76660380D01*
D10*
%TO.C,U4*%
X124819047Y-86954761D02*
X124961904Y-87002380D01*
X125200000Y-87002380D01*
X125295238Y-86954761D01*
X125342857Y-86907142D01*
X125390476Y-86811904D01*
X125390476Y-86716666D01*
X125342857Y-86621428D01*
X125295238Y-86573809D01*
X125200000Y-86526190D01*
X125009523Y-86478571D01*
X124914285Y-86430952D01*
X124866666Y-86383333D01*
X124819047Y-86288095D01*
X124819047Y-86192857D01*
X124866666Y-86097619D01*
X124914285Y-86050000D01*
X125009523Y-86002380D01*
X125247619Y-86002380D01*
X125390476Y-86050000D01*
X125819047Y-87002380D02*
X125819047Y-86002380D01*
X126390476Y-87002380D01*
X126390476Y-86002380D01*
X126771428Y-86002380D02*
X127438095Y-86002380D01*
X127009523Y-87002380D01*
X128247619Y-86335714D02*
X128247619Y-87002380D01*
X128009523Y-85954761D02*
X127771428Y-86669047D01*
X128390476Y-86669047D01*
X129247619Y-87002380D02*
X128771428Y-87002380D01*
X128771428Y-86002380D01*
X129438095Y-86002380D02*
X129771428Y-87002380D01*
X130104761Y-86002380D01*
X130866666Y-86335714D02*
X130866666Y-87002380D01*
X130628571Y-85954761D02*
X130390476Y-86669047D01*
X131009523Y-86669047D01*
X131247619Y-86002380D02*
X131819047Y-86002380D01*
X131533333Y-87002380D02*
X131533333Y-86002380D01*
X132676190Y-87002380D02*
X132104761Y-87002380D01*
X132390476Y-87002380D02*
X132390476Y-86002380D01*
X132295238Y-86145238D01*
X132200000Y-86240476D01*
X132104761Y-86288095D01*
X133057142Y-86097619D02*
X133104761Y-86050000D01*
X133200000Y-86002380D01*
X133438095Y-86002380D01*
X133533333Y-86050000D01*
X133580952Y-86097619D01*
X133628571Y-86192857D01*
X133628571Y-86288095D01*
X133580952Y-86430952D01*
X133009523Y-87002380D01*
X133628571Y-87002380D01*
X134533333Y-86002380D02*
X134057142Y-86002380D01*
X134009523Y-86478571D01*
X134057142Y-86430952D01*
X134152380Y-86383333D01*
X134390476Y-86383333D01*
X134485714Y-86430952D01*
X134533333Y-86478571D01*
X134580952Y-86573809D01*
X134580952Y-86811904D01*
X134533333Y-86907142D01*
X134485714Y-86954761D01*
X134390476Y-87002380D01*
X134152380Y-87002380D01*
X134057142Y-86954761D01*
X134009523Y-86907142D01*
X128938095Y-82552380D02*
X128938095Y-83361904D01*
X128985714Y-83457142D01*
X129033333Y-83504761D01*
X129128571Y-83552380D01*
X129319047Y-83552380D01*
X129414285Y-83504761D01*
X129461904Y-83457142D01*
X129509523Y-83361904D01*
X129509523Y-82552380D01*
X130414285Y-82885714D02*
X130414285Y-83552380D01*
X130176190Y-82504761D02*
X129938095Y-83219047D01*
X130557142Y-83219047D01*
%TO.C,R7*%
X118435523Y-135326380D02*
X117864095Y-135326380D01*
X118149809Y-135326380D02*
X118149809Y-134326380D01*
X118054571Y-134469238D01*
X117959333Y-134564476D01*
X117864095Y-134612095D01*
X119054571Y-134326380D02*
X119149809Y-134326380D01*
X119245047Y-134374000D01*
X119292666Y-134421619D01*
X119340285Y-134516857D01*
X119387904Y-134707333D01*
X119387904Y-134945428D01*
X119340285Y-135135904D01*
X119292666Y-135231142D01*
X119245047Y-135278761D01*
X119149809Y-135326380D01*
X119054571Y-135326380D01*
X118959333Y-135278761D01*
X118911714Y-135231142D01*
X118864095Y-135135904D01*
X118816476Y-134945428D01*
X118816476Y-134707333D01*
X118864095Y-134516857D01*
X118911714Y-134421619D01*
X118959333Y-134374000D01*
X119054571Y-134326380D01*
X120387904Y-135326380D02*
X120054571Y-134850190D01*
X119816476Y-135326380D02*
X119816476Y-134326380D01*
X120197428Y-134326380D01*
X120292666Y-134374000D01*
X120340285Y-134421619D01*
X120387904Y-134516857D01*
X120387904Y-134659714D01*
X120340285Y-134754952D01*
X120292666Y-134802571D01*
X120197428Y-134850190D01*
X119816476Y-134850190D01*
D11*
X125409333Y-133784952D02*
X125276000Y-133594476D01*
X125180761Y-133784952D02*
X125180761Y-133384952D01*
X125333142Y-133384952D01*
X125371238Y-133404000D01*
X125390285Y-133423047D01*
X125409333Y-133461142D01*
X125409333Y-133518285D01*
X125390285Y-133556380D01*
X125371238Y-133575428D01*
X125333142Y-133594476D01*
X125180761Y-133594476D01*
X125542666Y-133384952D02*
X125809333Y-133384952D01*
X125637904Y-133784952D01*
D10*
%TO.C,C9*%
X141390761Y-127960380D02*
X140819333Y-127960380D01*
X141105047Y-127960380D02*
X141105047Y-126960380D01*
X141009809Y-127103238D01*
X140914571Y-127198476D01*
X140819333Y-127246095D01*
X142247904Y-127293714D02*
X142247904Y-127960380D01*
X141819333Y-127293714D02*
X141819333Y-127817523D01*
X141866952Y-127912761D01*
X141962190Y-127960380D01*
X142105047Y-127960380D01*
X142200285Y-127912761D01*
X142247904Y-127865142D01*
X143057428Y-127436571D02*
X142724095Y-127436571D01*
X142724095Y-127960380D02*
X142724095Y-126960380D01*
X143200285Y-126960380D01*
D11*
X136331333Y-127650857D02*
X136312285Y-127669904D01*
X136255142Y-127688952D01*
X136217047Y-127688952D01*
X136159904Y-127669904D01*
X136121809Y-127631809D01*
X136102761Y-127593714D01*
X136083714Y-127517523D01*
X136083714Y-127460380D01*
X136102761Y-127384190D01*
X136121809Y-127346095D01*
X136159904Y-127308000D01*
X136217047Y-127288952D01*
X136255142Y-127288952D01*
X136312285Y-127308000D01*
X136331333Y-127327047D01*
X136521809Y-127688952D02*
X136598000Y-127688952D01*
X136636095Y-127669904D01*
X136655142Y-127650857D01*
X136693238Y-127593714D01*
X136712285Y-127517523D01*
X136712285Y-127365142D01*
X136693238Y-127327047D01*
X136674190Y-127308000D01*
X136636095Y-127288952D01*
X136559904Y-127288952D01*
X136521809Y-127308000D01*
X136502761Y-127327047D01*
X136483714Y-127365142D01*
X136483714Y-127460380D01*
X136502761Y-127498476D01*
X136521809Y-127517523D01*
X136559904Y-127536571D01*
X136636095Y-127536571D01*
X136674190Y-127517523D01*
X136693238Y-127498476D01*
X136712285Y-127460380D01*
D10*
%TO.C,C11*%
X133984380Y-139038380D02*
X133412952Y-139038380D01*
X133698666Y-139038380D02*
X133698666Y-138038380D01*
X133603428Y-138181238D01*
X133508190Y-138276476D01*
X133412952Y-138324095D01*
X134603428Y-138038380D02*
X134698666Y-138038380D01*
X134793904Y-138086000D01*
X134841523Y-138133619D01*
X134889142Y-138228857D01*
X134936761Y-138419333D01*
X134936761Y-138657428D01*
X134889142Y-138847904D01*
X134841523Y-138943142D01*
X134793904Y-138990761D01*
X134698666Y-139038380D01*
X134603428Y-139038380D01*
X134508190Y-138990761D01*
X134460571Y-138943142D01*
X134412952Y-138847904D01*
X134365333Y-138657428D01*
X134365333Y-138419333D01*
X134412952Y-138228857D01*
X134460571Y-138133619D01*
X134508190Y-138086000D01*
X134603428Y-138038380D01*
X135555809Y-138038380D02*
X135651047Y-138038380D01*
X135746285Y-138086000D01*
X135793904Y-138133619D01*
X135841523Y-138228857D01*
X135889142Y-138419333D01*
X135889142Y-138657428D01*
X135841523Y-138847904D01*
X135793904Y-138943142D01*
X135746285Y-138990761D01*
X135651047Y-139038380D01*
X135555809Y-139038380D01*
X135460571Y-138990761D01*
X135412952Y-138943142D01*
X135365333Y-138847904D01*
X135317714Y-138657428D01*
X135317714Y-138419333D01*
X135365333Y-138228857D01*
X135412952Y-138133619D01*
X135460571Y-138086000D01*
X135555809Y-138038380D01*
X136317714Y-138371714D02*
X136317714Y-139038380D01*
X136317714Y-138466952D02*
X136365333Y-138419333D01*
X136460571Y-138371714D01*
X136603428Y-138371714D01*
X136698666Y-138419333D01*
X136746285Y-138514571D01*
X136746285Y-139038380D01*
X137555809Y-138514571D02*
X137222476Y-138514571D01*
X137222476Y-139038380D02*
X137222476Y-138038380D01*
X137698666Y-138038380D01*
D11*
X139084857Y-133394857D02*
X139065809Y-133413904D01*
X139008666Y-133432952D01*
X138970571Y-133432952D01*
X138913428Y-133413904D01*
X138875333Y-133375809D01*
X138856285Y-133337714D01*
X138837238Y-133261523D01*
X138837238Y-133204380D01*
X138856285Y-133128190D01*
X138875333Y-133090095D01*
X138913428Y-133052000D01*
X138970571Y-133032952D01*
X139008666Y-133032952D01*
X139065809Y-133052000D01*
X139084857Y-133071047D01*
X139465809Y-133432952D02*
X139237238Y-133432952D01*
X139351523Y-133432952D02*
X139351523Y-133032952D01*
X139313428Y-133090095D01*
X139275333Y-133128190D01*
X139237238Y-133147238D01*
X139846761Y-133432952D02*
X139618190Y-133432952D01*
X139732476Y-133432952D02*
X139732476Y-133032952D01*
X139694380Y-133090095D01*
X139656285Y-133128190D01*
X139618190Y-133147238D01*
D10*
%TO.C,J9*%
X115480761Y-83522095D02*
X115528380Y-83379238D01*
X115528380Y-83141142D01*
X115480761Y-83045904D01*
X115433142Y-82998285D01*
X115337904Y-82950666D01*
X115242666Y-82950666D01*
X115147428Y-82998285D01*
X115099809Y-83045904D01*
X115052190Y-83141142D01*
X115004571Y-83331619D01*
X114956952Y-83426857D01*
X114909333Y-83474476D01*
X114814095Y-83522095D01*
X114718857Y-83522095D01*
X114623619Y-83474476D01*
X114576000Y-83426857D01*
X114528380Y-83331619D01*
X114528380Y-83093523D01*
X114576000Y-82950666D01*
X115480761Y-82093523D02*
X115528380Y-82188761D01*
X115528380Y-82379238D01*
X115480761Y-82474476D01*
X115433142Y-82522095D01*
X115337904Y-82569714D01*
X115052190Y-82569714D01*
X114956952Y-82522095D01*
X114909333Y-82474476D01*
X114861714Y-82379238D01*
X114861714Y-82188761D01*
X114909333Y-82093523D01*
X115528380Y-81664952D02*
X114861714Y-81664952D01*
X115052190Y-81664952D02*
X114956952Y-81617333D01*
X114909333Y-81569714D01*
X114861714Y-81474476D01*
X114861714Y-81379238D01*
X115480761Y-80664952D02*
X115528380Y-80760190D01*
X115528380Y-80950666D01*
X115480761Y-81045904D01*
X115385523Y-81093523D01*
X115004571Y-81093523D01*
X114909333Y-81045904D01*
X114861714Y-80950666D01*
X114861714Y-80760190D01*
X114909333Y-80664952D01*
X115004571Y-80617333D01*
X115099809Y-80617333D01*
X115195047Y-81093523D01*
X114861714Y-80284000D02*
X115528380Y-80093523D01*
X115052190Y-79903047D01*
X115528380Y-79712571D01*
X114861714Y-79522095D01*
X115623619Y-79379238D02*
X115623619Y-78617333D01*
X114528380Y-78522095D02*
X114528380Y-77950666D01*
X115528380Y-78236380D02*
X114528380Y-78236380D01*
X115480761Y-77236380D02*
X115528380Y-77331619D01*
X115528380Y-77522095D01*
X115480761Y-77617333D01*
X115385523Y-77664952D01*
X115004571Y-77664952D01*
X114909333Y-77617333D01*
X114861714Y-77522095D01*
X114861714Y-77331619D01*
X114909333Y-77236380D01*
X115004571Y-77188761D01*
X115099809Y-77188761D01*
X115195047Y-77664952D01*
X115528380Y-76760190D02*
X114861714Y-76760190D01*
X115052190Y-76760190D02*
X114956952Y-76712571D01*
X114909333Y-76664952D01*
X114861714Y-76569714D01*
X114861714Y-76474476D01*
X115528380Y-76141142D02*
X114861714Y-76141142D01*
X114956952Y-76141142D02*
X114909333Y-76093523D01*
X114861714Y-75998285D01*
X114861714Y-75855428D01*
X114909333Y-75760190D01*
X115004571Y-75712571D01*
X115528380Y-75712571D01*
X115004571Y-75712571D02*
X114909333Y-75664952D01*
X114861714Y-75569714D01*
X114861714Y-75426857D01*
X114909333Y-75331619D01*
X115004571Y-75284000D01*
X115528380Y-75284000D01*
X115528380Y-74807809D02*
X114861714Y-74807809D01*
X114528380Y-74807809D02*
X114576000Y-74855428D01*
X114623619Y-74807809D01*
X114576000Y-74760190D01*
X114528380Y-74807809D01*
X114623619Y-74807809D01*
X114861714Y-74331619D02*
X115528380Y-74331619D01*
X114956952Y-74331619D02*
X114909333Y-74284000D01*
X114861714Y-74188761D01*
X114861714Y-74045904D01*
X114909333Y-73950666D01*
X115004571Y-73903047D01*
X115528380Y-73903047D01*
X115528380Y-72998285D02*
X115004571Y-72998285D01*
X114909333Y-73045904D01*
X114861714Y-73141142D01*
X114861714Y-73331619D01*
X114909333Y-73426857D01*
X115480761Y-72998285D02*
X115528380Y-73093523D01*
X115528380Y-73331619D01*
X115480761Y-73426857D01*
X115385523Y-73474476D01*
X115290285Y-73474476D01*
X115195047Y-73426857D01*
X115147428Y-73331619D01*
X115147428Y-73093523D01*
X115099809Y-72998285D01*
X115528380Y-72379238D02*
X115480761Y-72474476D01*
X115385523Y-72522095D01*
X114528380Y-72522095D01*
X115623619Y-72236380D02*
X115623619Y-71474476D01*
X114528380Y-71045904D02*
X114528380Y-70950666D01*
X114576000Y-70855428D01*
X114623619Y-70807809D01*
X114718857Y-70760190D01*
X114909333Y-70712571D01*
X115147428Y-70712571D01*
X115337904Y-70760190D01*
X115433142Y-70807809D01*
X115480761Y-70855428D01*
X115528380Y-70950666D01*
X115528380Y-71045904D01*
X115480761Y-71141142D01*
X115433142Y-71188761D01*
X115337904Y-71236380D01*
X115147428Y-71284000D01*
X114909333Y-71284000D01*
X114718857Y-71236380D01*
X114623619Y-71188761D01*
X114576000Y-71141142D01*
X114528380Y-71045904D01*
X115528380Y-69760190D02*
X115528380Y-70331619D01*
X115528380Y-70045904D02*
X114528380Y-70045904D01*
X114671238Y-70141142D01*
X114766476Y-70236380D01*
X114814095Y-70331619D01*
X115528380Y-69426857D02*
X114861714Y-68903047D01*
X114861714Y-69426857D02*
X115528380Y-68903047D01*
X114528380Y-68331619D02*
X114528380Y-68236380D01*
X114576000Y-68141142D01*
X114623619Y-68093523D01*
X114718857Y-68045904D01*
X114909333Y-67998285D01*
X115147428Y-67998285D01*
X115337904Y-68045904D01*
X115433142Y-68093523D01*
X115480761Y-68141142D01*
X115528380Y-68236380D01*
X115528380Y-68331619D01*
X115480761Y-68426857D01*
X115433142Y-68474476D01*
X115337904Y-68522095D01*
X115147428Y-68569714D01*
X114909333Y-68569714D01*
X114718857Y-68522095D01*
X114623619Y-68474476D01*
X114576000Y-68426857D01*
X114528380Y-68331619D01*
X114528380Y-67664952D02*
X114528380Y-67045904D01*
X114909333Y-67379238D01*
X114909333Y-67236380D01*
X114956952Y-67141142D01*
X115004571Y-67093523D01*
X115099809Y-67045904D01*
X115337904Y-67045904D01*
X115433142Y-67093523D01*
X115480761Y-67141142D01*
X115528380Y-67236380D01*
X115528380Y-67522095D01*
X115480761Y-67617333D01*
X115433142Y-67664952D01*
X122348666Y-73430397D02*
X122348666Y-74144683D01*
X122301047Y-74287540D01*
X122205809Y-74382778D01*
X122062952Y-74430397D01*
X121967714Y-74430397D01*
X122872476Y-74430397D02*
X123062952Y-74430397D01*
X123158190Y-74382778D01*
X123205809Y-74335159D01*
X123301047Y-74192302D01*
X123348666Y-74001826D01*
X123348666Y-73620874D01*
X123301047Y-73525636D01*
X123253428Y-73478017D01*
X123158190Y-73430397D01*
X122967714Y-73430397D01*
X122872476Y-73478017D01*
X122824857Y-73525636D01*
X122777238Y-73620874D01*
X122777238Y-73858969D01*
X122824857Y-73954207D01*
X122872476Y-74001826D01*
X122967714Y-74049445D01*
X123158190Y-74049445D01*
X123253428Y-74001826D01*
X123301047Y-73954207D01*
X123348666Y-73858969D01*
%TO.C,C3*%
X122521142Y-145486476D02*
X122568761Y-145534095D01*
X122616380Y-145676952D01*
X122616380Y-145772190D01*
X122568761Y-145915047D01*
X122473523Y-146010285D01*
X122378285Y-146057904D01*
X122187809Y-146105523D01*
X122044952Y-146105523D01*
X121854476Y-146057904D01*
X121759238Y-146010285D01*
X121664000Y-145915047D01*
X121616380Y-145772190D01*
X121616380Y-145676952D01*
X121664000Y-145534095D01*
X121711619Y-145486476D01*
D12*
X122342571Y-148205333D02*
X122366380Y-148229142D01*
X122390190Y-148300571D01*
X122390190Y-148348190D01*
X122366380Y-148419619D01*
X122318761Y-148467238D01*
X122271142Y-148491047D01*
X122175904Y-148514857D01*
X122104476Y-148514857D01*
X122009238Y-148491047D01*
X121961619Y-148467238D01*
X121914000Y-148419619D01*
X121890190Y-148348190D01*
X121890190Y-148300571D01*
X121914000Y-148229142D01*
X121937809Y-148205333D01*
X121890190Y-148038666D02*
X121890190Y-147729142D01*
X122080666Y-147895809D01*
X122080666Y-147824380D01*
X122104476Y-147776761D01*
X122128285Y-147752952D01*
X122175904Y-147729142D01*
X122294952Y-147729142D01*
X122342571Y-147752952D01*
X122366380Y-147776761D01*
X122390190Y-147824380D01*
X122390190Y-147967238D01*
X122366380Y-148014857D01*
X122342571Y-148038666D01*
D10*
%TO.C,C8*%
X120372380Y-139644380D02*
X119800952Y-139644380D01*
X120086666Y-139644380D02*
X120086666Y-138644380D01*
X119991428Y-138787238D01*
X119896190Y-138882476D01*
X119800952Y-138930095D01*
X120991428Y-138644380D02*
X121086666Y-138644380D01*
X121181904Y-138692000D01*
X121229523Y-138739619D01*
X121277142Y-138834857D01*
X121324761Y-139025333D01*
X121324761Y-139263428D01*
X121277142Y-139453904D01*
X121229523Y-139549142D01*
X121181904Y-139596761D01*
X121086666Y-139644380D01*
X120991428Y-139644380D01*
X120896190Y-139596761D01*
X120848571Y-139549142D01*
X120800952Y-139453904D01*
X120753333Y-139263428D01*
X120753333Y-139025333D01*
X120800952Y-138834857D01*
X120848571Y-138739619D01*
X120896190Y-138692000D01*
X120991428Y-138644380D01*
X121943809Y-138644380D02*
X122039047Y-138644380D01*
X122134285Y-138692000D01*
X122181904Y-138739619D01*
X122229523Y-138834857D01*
X122277142Y-139025333D01*
X122277142Y-139263428D01*
X122229523Y-139453904D01*
X122181904Y-139549142D01*
X122134285Y-139596761D01*
X122039047Y-139644380D01*
X121943809Y-139644380D01*
X121848571Y-139596761D01*
X121800952Y-139549142D01*
X121753333Y-139453904D01*
X121705714Y-139263428D01*
X121705714Y-139025333D01*
X121753333Y-138834857D01*
X121800952Y-138739619D01*
X121848571Y-138692000D01*
X121943809Y-138644380D01*
X122705714Y-138977714D02*
X122705714Y-139644380D01*
X122705714Y-139072952D02*
X122753333Y-139025333D01*
X122848571Y-138977714D01*
X122991428Y-138977714D01*
X123086666Y-139025333D01*
X123134285Y-139120571D01*
X123134285Y-139644380D01*
X123943809Y-139120571D02*
X123610476Y-139120571D01*
X123610476Y-139644380D02*
X123610476Y-138644380D01*
X124086666Y-138644380D01*
D11*
X127695333Y-139334857D02*
X127676285Y-139353904D01*
X127619142Y-139372952D01*
X127581047Y-139372952D01*
X127523904Y-139353904D01*
X127485809Y-139315809D01*
X127466761Y-139277714D01*
X127447714Y-139201523D01*
X127447714Y-139144380D01*
X127466761Y-139068190D01*
X127485809Y-139030095D01*
X127523904Y-138992000D01*
X127581047Y-138972952D01*
X127619142Y-138972952D01*
X127676285Y-138992000D01*
X127695333Y-139011047D01*
X127923904Y-139144380D02*
X127885809Y-139125333D01*
X127866761Y-139106285D01*
X127847714Y-139068190D01*
X127847714Y-139049142D01*
X127866761Y-139011047D01*
X127885809Y-138992000D01*
X127923904Y-138972952D01*
X128000095Y-138972952D01*
X128038190Y-138992000D01*
X128057238Y-139011047D01*
X128076285Y-139049142D01*
X128076285Y-139068190D01*
X128057238Y-139106285D01*
X128038190Y-139125333D01*
X128000095Y-139144380D01*
X127923904Y-139144380D01*
X127885809Y-139163428D01*
X127866761Y-139182476D01*
X127847714Y-139220571D01*
X127847714Y-139296761D01*
X127866761Y-139334857D01*
X127885809Y-139353904D01*
X127923904Y-139372952D01*
X128000095Y-139372952D01*
X128038190Y-139353904D01*
X128057238Y-139334857D01*
X128076285Y-139296761D01*
X128076285Y-139220571D01*
X128057238Y-139182476D01*
X128038190Y-139163428D01*
X128000095Y-139144380D01*
D10*
%TO.C,R8*%
X117848190Y-137707714D02*
X117848190Y-138374380D01*
X117610095Y-137326761D02*
X117372000Y-138041047D01*
X117991047Y-138041047D01*
X118372000Y-138279142D02*
X118419619Y-138326761D01*
X118372000Y-138374380D01*
X118324380Y-138326761D01*
X118372000Y-138279142D01*
X118372000Y-138374380D01*
X118752952Y-137374380D02*
X119419619Y-137374380D01*
X118991047Y-138374380D01*
X119800571Y-138374380D02*
X119800571Y-137374380D01*
X120372000Y-138374380D02*
X119943428Y-137802952D01*
X120372000Y-137374380D02*
X119800571Y-137945809D01*
D11*
X125409333Y-137340952D02*
X125276000Y-137150476D01*
X125180761Y-137340952D02*
X125180761Y-136940952D01*
X125333142Y-136940952D01*
X125371238Y-136960000D01*
X125390285Y-136979047D01*
X125409333Y-137017142D01*
X125409333Y-137074285D01*
X125390285Y-137112380D01*
X125371238Y-137131428D01*
X125333142Y-137150476D01*
X125180761Y-137150476D01*
X125637904Y-137112380D02*
X125599809Y-137093333D01*
X125580761Y-137074285D01*
X125561714Y-137036190D01*
X125561714Y-137017142D01*
X125580761Y-136979047D01*
X125599809Y-136960000D01*
X125637904Y-136940952D01*
X125714095Y-136940952D01*
X125752190Y-136960000D01*
X125771238Y-136979047D01*
X125790285Y-137017142D01*
X125790285Y-137036190D01*
X125771238Y-137074285D01*
X125752190Y-137093333D01*
X125714095Y-137112380D01*
X125637904Y-137112380D01*
X125599809Y-137131428D01*
X125580761Y-137150476D01*
X125561714Y-137188571D01*
X125561714Y-137264761D01*
X125580761Y-137302857D01*
X125599809Y-137321904D01*
X125637904Y-137340952D01*
X125714095Y-137340952D01*
X125752190Y-137321904D01*
X125771238Y-137302857D01*
X125790285Y-137264761D01*
X125790285Y-137188571D01*
X125771238Y-137150476D01*
X125752190Y-137131428D01*
X125714095Y-137112380D01*
D10*
%TO.C,L1*%
X137850571Y-141271333D02*
X137850571Y-141604666D01*
X138374380Y-141604666D02*
X137374380Y-141604666D01*
X137374380Y-141128476D01*
X137850571Y-140414190D02*
X137898190Y-140271333D01*
X137945809Y-140223714D01*
X138041047Y-140176095D01*
X138183904Y-140176095D01*
X138279142Y-140223714D01*
X138326761Y-140271333D01*
X138374380Y-140366571D01*
X138374380Y-140747523D01*
X137374380Y-140747523D01*
X137374380Y-140414190D01*
X137422000Y-140318952D01*
X137469619Y-140271333D01*
X137564857Y-140223714D01*
X137660095Y-140223714D01*
X137755333Y-140271333D01*
X137802952Y-140318952D01*
X137850571Y-140414190D01*
X137850571Y-140747523D01*
X137326761Y-139033238D02*
X138612476Y-139890380D01*
X137374380Y-138795142D02*
X137374380Y-138176095D01*
X137755333Y-138509428D01*
X137755333Y-138366571D01*
X137802952Y-138271333D01*
X137850571Y-138223714D01*
X137945809Y-138176095D01*
X138183904Y-138176095D01*
X138279142Y-138223714D01*
X138326761Y-138271333D01*
X138374380Y-138366571D01*
X138374380Y-138652285D01*
X138326761Y-138747523D01*
X138279142Y-138795142D01*
X137374380Y-137557047D02*
X137374380Y-137461809D01*
X137422000Y-137366571D01*
X137469619Y-137318952D01*
X137564857Y-137271333D01*
X137755333Y-137223714D01*
X137993428Y-137223714D01*
X138183904Y-137271333D01*
X138279142Y-137318952D01*
X138326761Y-137366571D01*
X138374380Y-137461809D01*
X138374380Y-137557047D01*
X138326761Y-137652285D01*
X138279142Y-137699904D01*
X138183904Y-137747523D01*
X137993428Y-137795142D01*
X137755333Y-137795142D01*
X137564857Y-137747523D01*
X137469619Y-137699904D01*
X137422000Y-137652285D01*
X137374380Y-137557047D01*
X138374380Y-136223714D02*
X137898190Y-136557047D01*
X138374380Y-136795142D02*
X137374380Y-136795142D01*
X137374380Y-136414190D01*
X137422000Y-136318952D01*
X137469619Y-136271333D01*
X137564857Y-136223714D01*
X137707714Y-136223714D01*
X137802952Y-136271333D01*
X137850571Y-136318952D01*
X137898190Y-136414190D01*
X137898190Y-136795142D01*
D12*
X136370190Y-137751333D02*
X136370190Y-137989428D01*
X135870190Y-137989428D01*
X136370190Y-137322761D02*
X136370190Y-137608476D01*
X136370190Y-137465619D02*
X135870190Y-137465619D01*
X135941619Y-137513238D01*
X135989238Y-137560857D01*
X136013047Y-137608476D01*
D10*
%TO.C,C12*%
X133984380Y-137260380D02*
X133412952Y-137260380D01*
X133698666Y-137260380D02*
X133698666Y-136260380D01*
X133603428Y-136403238D01*
X133508190Y-136498476D01*
X133412952Y-136546095D01*
X134603428Y-136260380D02*
X134698666Y-136260380D01*
X134793904Y-136308000D01*
X134841523Y-136355619D01*
X134889142Y-136450857D01*
X134936761Y-136641333D01*
X134936761Y-136879428D01*
X134889142Y-137069904D01*
X134841523Y-137165142D01*
X134793904Y-137212761D01*
X134698666Y-137260380D01*
X134603428Y-137260380D01*
X134508190Y-137212761D01*
X134460571Y-137165142D01*
X134412952Y-137069904D01*
X134365333Y-136879428D01*
X134365333Y-136641333D01*
X134412952Y-136450857D01*
X134460571Y-136355619D01*
X134508190Y-136308000D01*
X134603428Y-136260380D01*
X135555809Y-136260380D02*
X135651047Y-136260380D01*
X135746285Y-136308000D01*
X135793904Y-136355619D01*
X135841523Y-136450857D01*
X135889142Y-136641333D01*
X135889142Y-136879428D01*
X135841523Y-137069904D01*
X135793904Y-137165142D01*
X135746285Y-137212761D01*
X135651047Y-137260380D01*
X135555809Y-137260380D01*
X135460571Y-137212761D01*
X135412952Y-137165142D01*
X135365333Y-137069904D01*
X135317714Y-136879428D01*
X135317714Y-136641333D01*
X135365333Y-136450857D01*
X135412952Y-136355619D01*
X135460571Y-136308000D01*
X135555809Y-136260380D01*
X136317714Y-136593714D02*
X136317714Y-137260380D01*
X136317714Y-136688952D02*
X136365333Y-136641333D01*
X136460571Y-136593714D01*
X136603428Y-136593714D01*
X136698666Y-136641333D01*
X136746285Y-136736571D01*
X136746285Y-137260380D01*
X137555809Y-136736571D02*
X137222476Y-136736571D01*
X137222476Y-137260380D02*
X137222476Y-136260380D01*
X137698666Y-136260380D01*
D11*
X139084857Y-131616857D02*
X139065809Y-131635904D01*
X139008666Y-131654952D01*
X138970571Y-131654952D01*
X138913428Y-131635904D01*
X138875333Y-131597809D01*
X138856285Y-131559714D01*
X138837238Y-131483523D01*
X138837238Y-131426380D01*
X138856285Y-131350190D01*
X138875333Y-131312095D01*
X138913428Y-131274000D01*
X138970571Y-131254952D01*
X139008666Y-131254952D01*
X139065809Y-131274000D01*
X139084857Y-131293047D01*
X139465809Y-131654952D02*
X139237238Y-131654952D01*
X139351523Y-131654952D02*
X139351523Y-131254952D01*
X139313428Y-131312095D01*
X139275333Y-131350190D01*
X139237238Y-131369238D01*
X139618190Y-131293047D02*
X139637238Y-131274000D01*
X139675333Y-131254952D01*
X139770571Y-131254952D01*
X139808666Y-131274000D01*
X139827714Y-131293047D01*
X139846761Y-131331142D01*
X139846761Y-131369238D01*
X139827714Y-131426380D01*
X139599142Y-131654952D01*
X139846761Y-131654952D01*
D10*
%TO.C,U2*%
X123024190Y-179252571D02*
X123357523Y-179252571D01*
X123500380Y-179776380D02*
X123024190Y-179776380D01*
X123024190Y-178776380D01*
X123500380Y-178776380D01*
X123881333Y-179728761D02*
X124024190Y-179776380D01*
X124262285Y-179776380D01*
X124357523Y-179728761D01*
X124405142Y-179681142D01*
X124452761Y-179585904D01*
X124452761Y-179490666D01*
X124405142Y-179395428D01*
X124357523Y-179347809D01*
X124262285Y-179300190D01*
X124071809Y-179252571D01*
X123976571Y-179204952D01*
X123928952Y-179157333D01*
X123881333Y-179062095D01*
X123881333Y-178966857D01*
X123928952Y-178871619D01*
X123976571Y-178824000D01*
X124071809Y-178776380D01*
X124309904Y-178776380D01*
X124452761Y-178824000D01*
X124881333Y-179776380D02*
X124881333Y-178776380D01*
X125262285Y-178776380D01*
X125357523Y-178824000D01*
X125405142Y-178871619D01*
X125452761Y-178966857D01*
X125452761Y-179109714D01*
X125405142Y-179204952D01*
X125357523Y-179252571D01*
X125262285Y-179300190D01*
X124881333Y-179300190D01*
X125786095Y-178776380D02*
X126405142Y-178776380D01*
X126071809Y-179157333D01*
X126214666Y-179157333D01*
X126309904Y-179204952D01*
X126357523Y-179252571D01*
X126405142Y-179347809D01*
X126405142Y-179585904D01*
X126357523Y-179681142D01*
X126309904Y-179728761D01*
X126214666Y-179776380D01*
X125928952Y-179776380D01*
X125833714Y-179728761D01*
X125786095Y-179681142D01*
X126786095Y-178871619D02*
X126833714Y-178824000D01*
X126928952Y-178776380D01*
X127167047Y-178776380D01*
X127262285Y-178824000D01*
X127309904Y-178871619D01*
X127357523Y-178966857D01*
X127357523Y-179062095D01*
X127309904Y-179204952D01*
X126738476Y-179776380D01*
X127357523Y-179776380D01*
X127786095Y-179395428D02*
X128548000Y-179395428D01*
X128928952Y-178776380D02*
X129167047Y-179776380D01*
X129357523Y-179062095D01*
X129548000Y-179776380D01*
X129786095Y-178776380D01*
X130738476Y-179776380D02*
X130405142Y-179300190D01*
X130167047Y-179776380D02*
X130167047Y-178776380D01*
X130548000Y-178776380D01*
X130643238Y-178824000D01*
X130690857Y-178871619D01*
X130738476Y-178966857D01*
X130738476Y-179109714D01*
X130690857Y-179204952D01*
X130643238Y-179252571D01*
X130548000Y-179300190D01*
X130167047Y-179300190D01*
X131357523Y-178776380D02*
X131548000Y-178776380D01*
X131643238Y-178824000D01*
X131738476Y-178919238D01*
X131786095Y-179109714D01*
X131786095Y-179443047D01*
X131738476Y-179633523D01*
X131643238Y-179728761D01*
X131548000Y-179776380D01*
X131357523Y-179776380D01*
X131262285Y-179728761D01*
X131167047Y-179633523D01*
X131119428Y-179443047D01*
X131119428Y-179109714D01*
X131167047Y-178919238D01*
X131262285Y-178824000D01*
X131357523Y-178776380D01*
X132405142Y-178776380D02*
X132595619Y-178776380D01*
X132690857Y-178824000D01*
X132786095Y-178919238D01*
X132833714Y-179109714D01*
X132833714Y-179443047D01*
X132786095Y-179633523D01*
X132690857Y-179728761D01*
X132595619Y-179776380D01*
X132405142Y-179776380D01*
X132309904Y-179728761D01*
X132214666Y-179633523D01*
X132167047Y-179443047D01*
X132167047Y-179109714D01*
X132214666Y-178919238D01*
X132309904Y-178824000D01*
X132405142Y-178776380D01*
X133262285Y-179776380D02*
X133262285Y-178776380D01*
X133595619Y-179490666D01*
X133928952Y-178776380D01*
X133928952Y-179776380D01*
X134405142Y-179395428D02*
X135167047Y-179395428D01*
X135548000Y-178776380D02*
X136167047Y-178776380D01*
X135833714Y-179157333D01*
X135976571Y-179157333D01*
X136071809Y-179204952D01*
X136119428Y-179252571D01*
X136167047Y-179347809D01*
X136167047Y-179585904D01*
X136119428Y-179681142D01*
X136071809Y-179728761D01*
X135976571Y-179776380D01*
X135690857Y-179776380D01*
X135595619Y-179728761D01*
X135548000Y-179681142D01*
X136548000Y-178871619D02*
X136595619Y-178824000D01*
X136690857Y-178776380D01*
X136928952Y-178776380D01*
X137024190Y-178824000D01*
X137071809Y-178871619D01*
X137119428Y-178966857D01*
X137119428Y-179062095D01*
X137071809Y-179204952D01*
X136500380Y-179776380D01*
X137119428Y-179776380D01*
X129166095Y-169462380D02*
X129166095Y-170271904D01*
X129213714Y-170367142D01*
X129261333Y-170414761D01*
X129356571Y-170462380D01*
X129547047Y-170462380D01*
X129642285Y-170414761D01*
X129689904Y-170367142D01*
X129737523Y-170271904D01*
X129737523Y-169462380D01*
X130166095Y-169557619D02*
X130213714Y-169510000D01*
X130308952Y-169462380D01*
X130547047Y-169462380D01*
X130642285Y-169510000D01*
X130689904Y-169557619D01*
X130737523Y-169652857D01*
X130737523Y-169748095D01*
X130689904Y-169890952D01*
X130118476Y-170462380D01*
X130737523Y-170462380D01*
%TO.C,R11*%
X142787714Y-120387904D02*
X143454380Y-120387904D01*
X142406761Y-120626000D02*
X143121047Y-120864095D01*
X143121047Y-120245047D01*
X143454380Y-119816476D02*
X143454380Y-119626000D01*
X143406761Y-119530761D01*
X143359142Y-119483142D01*
X143216285Y-119387904D01*
X143025809Y-119340285D01*
X142644857Y-119340285D01*
X142549619Y-119387904D01*
X142502000Y-119435523D01*
X142454380Y-119530761D01*
X142454380Y-119721238D01*
X142502000Y-119816476D01*
X142549619Y-119864095D01*
X142644857Y-119911714D01*
X142882952Y-119911714D01*
X142978190Y-119864095D01*
X143025809Y-119816476D01*
X143073428Y-119721238D01*
X143073428Y-119530761D01*
X143025809Y-119435523D01*
X142978190Y-119387904D01*
X142882952Y-119340285D01*
X143454380Y-118340285D02*
X142978190Y-118673619D01*
X143454380Y-118911714D02*
X142454380Y-118911714D01*
X142454380Y-118530761D01*
X142502000Y-118435523D01*
X142549619Y-118387904D01*
X142644857Y-118340285D01*
X142787714Y-118340285D01*
X142882952Y-118387904D01*
X142930571Y-118435523D01*
X142978190Y-118530761D01*
X142978190Y-118911714D01*
X143454380Y-117864095D02*
X143454380Y-117673619D01*
X143406761Y-117578380D01*
X143359142Y-117530761D01*
X143216285Y-117435523D01*
X143025809Y-117387904D01*
X142644857Y-117387904D01*
X142549619Y-117435523D01*
X142502000Y-117483142D01*
X142454380Y-117578380D01*
X142454380Y-117768857D01*
X142502000Y-117864095D01*
X142549619Y-117911714D01*
X142644857Y-117959333D01*
X142882952Y-117959333D01*
X142978190Y-117911714D01*
X143025809Y-117864095D01*
X143073428Y-117768857D01*
X143073428Y-117578380D01*
X143025809Y-117483142D01*
X142978190Y-117435523D01*
X142882952Y-117387904D01*
D11*
X135562952Y-115319142D02*
X135372476Y-115452476D01*
X135562952Y-115547714D02*
X135162952Y-115547714D01*
X135162952Y-115395333D01*
X135182000Y-115357238D01*
X135201047Y-115338190D01*
X135239142Y-115319142D01*
X135296285Y-115319142D01*
X135334380Y-115338190D01*
X135353428Y-115357238D01*
X135372476Y-115395333D01*
X135372476Y-115547714D01*
X135562952Y-114938190D02*
X135562952Y-115166761D01*
X135562952Y-115052476D02*
X135162952Y-115052476D01*
X135220095Y-115090571D01*
X135258190Y-115128666D01*
X135277238Y-115166761D01*
X135562952Y-114557238D02*
X135562952Y-114785809D01*
X135562952Y-114671523D02*
X135162952Y-114671523D01*
X135220095Y-114709619D01*
X135258190Y-114747714D01*
X135277238Y-114785809D01*
D10*
%TO.C,R16*%
X132884380Y-127931714D02*
X132884380Y-127312666D01*
X133265333Y-127646000D01*
X133265333Y-127503142D01*
X133312952Y-127407904D01*
X133360571Y-127360285D01*
X133455809Y-127312666D01*
X133693904Y-127312666D01*
X133789142Y-127360285D01*
X133836761Y-127407904D01*
X133884380Y-127503142D01*
X133884380Y-127788857D01*
X133836761Y-127884095D01*
X133789142Y-127931714D01*
X132884380Y-126979333D02*
X132884380Y-126360285D01*
X133265333Y-126693619D01*
X133265333Y-126550761D01*
X133312952Y-126455523D01*
X133360571Y-126407904D01*
X133455809Y-126360285D01*
X133693904Y-126360285D01*
X133789142Y-126407904D01*
X133836761Y-126455523D01*
X133884380Y-126550761D01*
X133884380Y-126836476D01*
X133836761Y-126931714D01*
X133789142Y-126979333D01*
X132884380Y-125741238D02*
X132884380Y-125646000D01*
X132932000Y-125550761D01*
X132979619Y-125503142D01*
X133074857Y-125455523D01*
X133265333Y-125407904D01*
X133503428Y-125407904D01*
X133693904Y-125455523D01*
X133789142Y-125503142D01*
X133836761Y-125550761D01*
X133884380Y-125646000D01*
X133884380Y-125741238D01*
X133836761Y-125836476D01*
X133789142Y-125884095D01*
X133693904Y-125931714D01*
X133503428Y-125979333D01*
X133265333Y-125979333D01*
X133074857Y-125931714D01*
X132979619Y-125884095D01*
X132932000Y-125836476D01*
X132884380Y-125741238D01*
D11*
X130818952Y-126903142D02*
X130628476Y-127036476D01*
X130818952Y-127131714D02*
X130418952Y-127131714D01*
X130418952Y-126979333D01*
X130438000Y-126941238D01*
X130457047Y-126922190D01*
X130495142Y-126903142D01*
X130552285Y-126903142D01*
X130590380Y-126922190D01*
X130609428Y-126941238D01*
X130628476Y-126979333D01*
X130628476Y-127131714D01*
X130818952Y-126522190D02*
X130818952Y-126750761D01*
X130818952Y-126636476D02*
X130418952Y-126636476D01*
X130476095Y-126674571D01*
X130514190Y-126712666D01*
X130533238Y-126750761D01*
X130418952Y-126179333D02*
X130418952Y-126255523D01*
X130438000Y-126293619D01*
X130457047Y-126312666D01*
X130514190Y-126350761D01*
X130590380Y-126369809D01*
X130742761Y-126369809D01*
X130780857Y-126350761D01*
X130799904Y-126331714D01*
X130818952Y-126293619D01*
X130818952Y-126217428D01*
X130799904Y-126179333D01*
X130780857Y-126160285D01*
X130742761Y-126141238D01*
X130647523Y-126141238D01*
X130609428Y-126160285D01*
X130590380Y-126179333D01*
X130571333Y-126217428D01*
X130571333Y-126293619D01*
X130590380Y-126331714D01*
X130609428Y-126350761D01*
X130647523Y-126369809D01*
D10*
%TO.C,Y1*%
X123571619Y-130939904D02*
X123524000Y-130892285D01*
X123476380Y-130797047D01*
X123476380Y-130558952D01*
X123524000Y-130463714D01*
X123571619Y-130416095D01*
X123666857Y-130368476D01*
X123762095Y-130368476D01*
X123904952Y-130416095D01*
X124476380Y-130987523D01*
X124476380Y-130368476D01*
X123476380Y-129463714D02*
X123476380Y-129939904D01*
X123952571Y-129987523D01*
X123904952Y-129939904D01*
X123857333Y-129844666D01*
X123857333Y-129606571D01*
X123904952Y-129511333D01*
X123952571Y-129463714D01*
X124047809Y-129416095D01*
X124285904Y-129416095D01*
X124381142Y-129463714D01*
X124428761Y-129511333D01*
X124476380Y-129606571D01*
X124476380Y-129844666D01*
X124428761Y-129939904D01*
X124381142Y-129987523D01*
X124476380Y-128987523D02*
X123476380Y-128987523D01*
X124190666Y-128654190D01*
X123476380Y-128320857D01*
X124476380Y-128320857D01*
X124476380Y-127844666D02*
X123476380Y-127844666D01*
X123952571Y-127844666D02*
X123952571Y-127273238D01*
X124476380Y-127273238D02*
X123476380Y-127273238D01*
X123809714Y-126892285D02*
X123809714Y-126368476D01*
X124476380Y-126892285D01*
X124476380Y-126368476D01*
D14*
X121557333Y-129011333D02*
X121890666Y-129011333D01*
X121190666Y-129244666D02*
X121557333Y-129011333D01*
X121190666Y-128778000D01*
X121890666Y-128178000D02*
X121890666Y-128578000D01*
X121890666Y-128378000D02*
X121190666Y-128378000D01*
X121290666Y-128444666D01*
X121357333Y-128511333D01*
X121390666Y-128578000D01*
D10*
%TO.C,H6*%
X115834571Y-190567397D02*
X115834571Y-189567397D01*
X116167904Y-190281683D01*
X116501238Y-189567397D01*
X116501238Y-190567397D01*
X117120285Y-190567397D02*
X117025047Y-190519778D01*
X116977428Y-190472159D01*
X116929809Y-190376921D01*
X116929809Y-190091207D01*
X116977428Y-189995969D01*
X117025047Y-189948350D01*
X117120285Y-189900731D01*
X117263142Y-189900731D01*
X117358380Y-189948350D01*
X117406000Y-189995969D01*
X117453619Y-190091207D01*
X117453619Y-190376921D01*
X117406000Y-190472159D01*
X117358380Y-190519778D01*
X117263142Y-190567397D01*
X117120285Y-190567397D01*
X118310761Y-189900731D02*
X118310761Y-190567397D01*
X117882190Y-189900731D02*
X117882190Y-190424540D01*
X117929809Y-190519778D01*
X118025047Y-190567397D01*
X118167904Y-190567397D01*
X118263142Y-190519778D01*
X118310761Y-190472159D01*
X118786952Y-189900731D02*
X118786952Y-190567397D01*
X118786952Y-189995969D02*
X118834571Y-189948350D01*
X118929809Y-189900731D01*
X119072666Y-189900731D01*
X119167904Y-189948350D01*
X119215523Y-190043588D01*
X119215523Y-190567397D01*
X119548857Y-189900731D02*
X119929809Y-189900731D01*
X119691714Y-189567397D02*
X119691714Y-190424540D01*
X119739333Y-190519778D01*
X119834571Y-190567397D01*
X119929809Y-190567397D01*
X120263142Y-190567397D02*
X120263142Y-189900731D01*
X120263142Y-189567397D02*
X120215523Y-189615017D01*
X120263142Y-189662636D01*
X120310761Y-189615017D01*
X120263142Y-189567397D01*
X120263142Y-189662636D01*
X120739333Y-189900731D02*
X120739333Y-190567397D01*
X120739333Y-189995969D02*
X120786952Y-189948350D01*
X120882190Y-189900731D01*
X121025047Y-189900731D01*
X121120285Y-189948350D01*
X121167904Y-190043588D01*
X121167904Y-190567397D01*
X122072666Y-189900731D02*
X122072666Y-190710255D01*
X122025047Y-190805493D01*
X121977428Y-190853112D01*
X121882190Y-190900731D01*
X121739333Y-190900731D01*
X121644095Y-190853112D01*
X122072666Y-190519778D02*
X121977428Y-190567397D01*
X121786952Y-190567397D01*
X121691714Y-190519778D01*
X121644095Y-190472159D01*
X121596476Y-190376921D01*
X121596476Y-190091207D01*
X121644095Y-189995969D01*
X121691714Y-189948350D01*
X121786952Y-189900731D01*
X121977428Y-189900731D01*
X122072666Y-189948350D01*
X122548857Y-190567397D02*
X122548857Y-189567397D01*
X122548857Y-190043588D02*
X123120285Y-190043588D01*
X123120285Y-190567397D02*
X123120285Y-189567397D01*
X123739333Y-190567397D02*
X123644095Y-190519778D01*
X123596476Y-190472159D01*
X123548857Y-190376921D01*
X123548857Y-190091207D01*
X123596476Y-189995969D01*
X123644095Y-189948350D01*
X123739333Y-189900731D01*
X123882190Y-189900731D01*
X123977428Y-189948350D01*
X124025047Y-189995969D01*
X124072666Y-190091207D01*
X124072666Y-190376921D01*
X124025047Y-190472159D01*
X123977428Y-190519778D01*
X123882190Y-190567397D01*
X123739333Y-190567397D01*
X124644095Y-190567397D02*
X124548857Y-190519778D01*
X124501238Y-190424540D01*
X124501238Y-189567397D01*
X125406000Y-190519778D02*
X125310761Y-190567397D01*
X125120285Y-190567397D01*
X125025047Y-190519778D01*
X124977428Y-190424540D01*
X124977428Y-190043588D01*
X125025047Y-189948350D01*
X125120285Y-189900731D01*
X125310761Y-189900731D01*
X125406000Y-189948350D01*
X125453619Y-190043588D01*
X125453619Y-190138826D01*
X124977428Y-190234064D01*
X125644095Y-190662636D02*
X126406000Y-190662636D01*
X126644095Y-190567397D02*
X126644095Y-189567397D01*
X127025047Y-189567397D01*
X127120285Y-189615017D01*
X127167904Y-189662636D01*
X127215523Y-189757874D01*
X127215523Y-189900731D01*
X127167904Y-189995969D01*
X127120285Y-190043588D01*
X127025047Y-190091207D01*
X126644095Y-190091207D01*
X128072666Y-190567397D02*
X128072666Y-190043588D01*
X128025047Y-189948350D01*
X127929809Y-189900731D01*
X127739333Y-189900731D01*
X127644095Y-189948350D01*
X128072666Y-190519778D02*
X127977428Y-190567397D01*
X127739333Y-190567397D01*
X127644095Y-190519778D01*
X127596476Y-190424540D01*
X127596476Y-190329302D01*
X127644095Y-190234064D01*
X127739333Y-190186445D01*
X127977428Y-190186445D01*
X128072666Y-190138826D01*
X128977428Y-190567397D02*
X128977428Y-189567397D01*
X128977428Y-190519778D02*
X128882190Y-190567397D01*
X128691714Y-190567397D01*
X128596476Y-190519778D01*
X128548857Y-190472159D01*
X128501238Y-190376921D01*
X128501238Y-190091207D01*
X128548857Y-189995969D01*
X128596476Y-189948350D01*
X128691714Y-189900731D01*
X128882190Y-189900731D01*
X128977428Y-189948350D01*
X118544095Y-195867397D02*
X118544095Y-194867397D01*
X118544095Y-195343588D02*
X119115523Y-195343588D01*
X119115523Y-195867397D02*
X119115523Y-194867397D01*
X120020285Y-194867397D02*
X119829809Y-194867397D01*
X119734571Y-194915017D01*
X119686952Y-194962636D01*
X119591714Y-195105493D01*
X119544095Y-195295969D01*
X119544095Y-195676921D01*
X119591714Y-195772159D01*
X119639333Y-195819778D01*
X119734571Y-195867397D01*
X119925047Y-195867397D01*
X120020285Y-195819778D01*
X120067904Y-195772159D01*
X120115523Y-195676921D01*
X120115523Y-195438826D01*
X120067904Y-195343588D01*
X120020285Y-195295969D01*
X119925047Y-195248350D01*
X119734571Y-195248350D01*
X119639333Y-195295969D01*
X119591714Y-195343588D01*
X119544095Y-195438826D01*
%TO.C,R14*%
X127801714Y-123181904D02*
X128468380Y-123181904D01*
X127420761Y-123420000D02*
X128135047Y-123658095D01*
X128135047Y-123039047D01*
X128468380Y-122610476D02*
X128468380Y-122420000D01*
X128420761Y-122324761D01*
X128373142Y-122277142D01*
X128230285Y-122181904D01*
X128039809Y-122134285D01*
X127658857Y-122134285D01*
X127563619Y-122181904D01*
X127516000Y-122229523D01*
X127468380Y-122324761D01*
X127468380Y-122515238D01*
X127516000Y-122610476D01*
X127563619Y-122658095D01*
X127658857Y-122705714D01*
X127896952Y-122705714D01*
X127992190Y-122658095D01*
X128039809Y-122610476D01*
X128087428Y-122515238D01*
X128087428Y-122324761D01*
X128039809Y-122229523D01*
X127992190Y-122181904D01*
X127896952Y-122134285D01*
X128468380Y-121134285D02*
X127992190Y-121467619D01*
X128468380Y-121705714D02*
X127468380Y-121705714D01*
X127468380Y-121324761D01*
X127516000Y-121229523D01*
X127563619Y-121181904D01*
X127658857Y-121134285D01*
X127801714Y-121134285D01*
X127896952Y-121181904D01*
X127944571Y-121229523D01*
X127992190Y-121324761D01*
X127992190Y-121705714D01*
X128468380Y-120658095D02*
X128468380Y-120467619D01*
X128420761Y-120372380D01*
X128373142Y-120324761D01*
X128230285Y-120229523D01*
X128039809Y-120181904D01*
X127658857Y-120181904D01*
X127563619Y-120229523D01*
X127516000Y-120277142D01*
X127468380Y-120372380D01*
X127468380Y-120562857D01*
X127516000Y-120658095D01*
X127563619Y-120705714D01*
X127658857Y-120753333D01*
X127896952Y-120753333D01*
X127992190Y-120705714D01*
X128039809Y-120658095D01*
X128087428Y-120562857D01*
X128087428Y-120372380D01*
X128039809Y-120277142D01*
X127992190Y-120229523D01*
X127896952Y-120181904D01*
D11*
X128196952Y-115319142D02*
X128006476Y-115452476D01*
X128196952Y-115547714D02*
X127796952Y-115547714D01*
X127796952Y-115395333D01*
X127816000Y-115357238D01*
X127835047Y-115338190D01*
X127873142Y-115319142D01*
X127930285Y-115319142D01*
X127968380Y-115338190D01*
X127987428Y-115357238D01*
X128006476Y-115395333D01*
X128006476Y-115547714D01*
X128196952Y-114938190D02*
X128196952Y-115166761D01*
X128196952Y-115052476D02*
X127796952Y-115052476D01*
X127854095Y-115090571D01*
X127892190Y-115128666D01*
X127911238Y-115166761D01*
X127930285Y-114595333D02*
X128196952Y-114595333D01*
X127777904Y-114690571D02*
X128063619Y-114785809D01*
X128063619Y-114538190D01*
D10*
%TO.C,H4*%
X131832571Y-26331397D02*
X131832571Y-25331397D01*
X132165904Y-26045683D01*
X132499238Y-25331397D01*
X132499238Y-26331397D01*
X133118285Y-26331397D02*
X133023047Y-26283778D01*
X132975428Y-26236159D01*
X132927809Y-26140921D01*
X132927809Y-25855207D01*
X132975428Y-25759969D01*
X133023047Y-25712350D01*
X133118285Y-25664731D01*
X133261142Y-25664731D01*
X133356380Y-25712350D01*
X133404000Y-25759969D01*
X133451619Y-25855207D01*
X133451619Y-26140921D01*
X133404000Y-26236159D01*
X133356380Y-26283778D01*
X133261142Y-26331397D01*
X133118285Y-26331397D01*
X134308761Y-25664731D02*
X134308761Y-26331397D01*
X133880190Y-25664731D02*
X133880190Y-26188540D01*
X133927809Y-26283778D01*
X134023047Y-26331397D01*
X134165904Y-26331397D01*
X134261142Y-26283778D01*
X134308761Y-26236159D01*
X134784952Y-25664731D02*
X134784952Y-26331397D01*
X134784952Y-25759969D02*
X134832571Y-25712350D01*
X134927809Y-25664731D01*
X135070666Y-25664731D01*
X135165904Y-25712350D01*
X135213523Y-25807588D01*
X135213523Y-26331397D01*
X135546857Y-25664731D02*
X135927809Y-25664731D01*
X135689714Y-25331397D02*
X135689714Y-26188540D01*
X135737333Y-26283778D01*
X135832571Y-26331397D01*
X135927809Y-26331397D01*
X136261142Y-26331397D02*
X136261142Y-25664731D01*
X136261142Y-25331397D02*
X136213523Y-25379017D01*
X136261142Y-25426636D01*
X136308761Y-25379017D01*
X136261142Y-25331397D01*
X136261142Y-25426636D01*
X136737333Y-25664731D02*
X136737333Y-26331397D01*
X136737333Y-25759969D02*
X136784952Y-25712350D01*
X136880190Y-25664731D01*
X137023047Y-25664731D01*
X137118285Y-25712350D01*
X137165904Y-25807588D01*
X137165904Y-26331397D01*
X138070666Y-25664731D02*
X138070666Y-26474255D01*
X138023047Y-26569493D01*
X137975428Y-26617112D01*
X137880190Y-26664731D01*
X137737333Y-26664731D01*
X137642095Y-26617112D01*
X138070666Y-26283778D02*
X137975428Y-26331397D01*
X137784952Y-26331397D01*
X137689714Y-26283778D01*
X137642095Y-26236159D01*
X137594476Y-26140921D01*
X137594476Y-25855207D01*
X137642095Y-25759969D01*
X137689714Y-25712350D01*
X137784952Y-25664731D01*
X137975428Y-25664731D01*
X138070666Y-25712350D01*
X138546857Y-26331397D02*
X138546857Y-25331397D01*
X138546857Y-25807588D02*
X139118285Y-25807588D01*
X139118285Y-26331397D02*
X139118285Y-25331397D01*
X139737333Y-26331397D02*
X139642095Y-26283778D01*
X139594476Y-26236159D01*
X139546857Y-26140921D01*
X139546857Y-25855207D01*
X139594476Y-25759969D01*
X139642095Y-25712350D01*
X139737333Y-25664731D01*
X139880190Y-25664731D01*
X139975428Y-25712350D01*
X140023047Y-25759969D01*
X140070666Y-25855207D01*
X140070666Y-26140921D01*
X140023047Y-26236159D01*
X139975428Y-26283778D01*
X139880190Y-26331397D01*
X139737333Y-26331397D01*
X140642095Y-26331397D02*
X140546857Y-26283778D01*
X140499238Y-26188540D01*
X140499238Y-25331397D01*
X141404000Y-26283778D02*
X141308761Y-26331397D01*
X141118285Y-26331397D01*
X141023047Y-26283778D01*
X140975428Y-26188540D01*
X140975428Y-25807588D01*
X141023047Y-25712350D01*
X141118285Y-25664731D01*
X141308761Y-25664731D01*
X141404000Y-25712350D01*
X141451619Y-25807588D01*
X141451619Y-25902826D01*
X140975428Y-25998064D01*
X141642095Y-26426636D02*
X142404000Y-26426636D01*
X142642095Y-26331397D02*
X142642095Y-25331397D01*
X143023047Y-25331397D01*
X143118285Y-25379017D01*
X143165904Y-25426636D01*
X143213523Y-25521874D01*
X143213523Y-25664731D01*
X143165904Y-25759969D01*
X143118285Y-25807588D01*
X143023047Y-25855207D01*
X142642095Y-25855207D01*
X144070666Y-26331397D02*
X144070666Y-25807588D01*
X144023047Y-25712350D01*
X143927809Y-25664731D01*
X143737333Y-25664731D01*
X143642095Y-25712350D01*
X144070666Y-26283778D02*
X143975428Y-26331397D01*
X143737333Y-26331397D01*
X143642095Y-26283778D01*
X143594476Y-26188540D01*
X143594476Y-26093302D01*
X143642095Y-25998064D01*
X143737333Y-25950445D01*
X143975428Y-25950445D01*
X144070666Y-25902826D01*
X144975428Y-26331397D02*
X144975428Y-25331397D01*
X144975428Y-26283778D02*
X144880190Y-26331397D01*
X144689714Y-26331397D01*
X144594476Y-26283778D01*
X144546857Y-26236159D01*
X144499238Y-26140921D01*
X144499238Y-25855207D01*
X144546857Y-25759969D01*
X144594476Y-25712350D01*
X144689714Y-25664731D01*
X144880190Y-25664731D01*
X144975428Y-25712350D01*
X140342095Y-22131397D02*
X140342095Y-21131397D01*
X140342095Y-21607588D02*
X140913523Y-21607588D01*
X140913523Y-22131397D02*
X140913523Y-21131397D01*
X141818285Y-21464731D02*
X141818285Y-22131397D01*
X141580190Y-21083778D02*
X141342095Y-21798064D01*
X141961142Y-21798064D01*
%TO.C,R9*%
X117943428Y-136850380D02*
X117372000Y-136850380D01*
X117657714Y-136850380D02*
X117657714Y-135850380D01*
X117562476Y-135993238D01*
X117467238Y-136088476D01*
X117372000Y-136136095D01*
X118372000Y-136755142D02*
X118419619Y-136802761D01*
X118372000Y-136850380D01*
X118324380Y-136802761D01*
X118372000Y-136755142D01*
X118372000Y-136850380D01*
X119324380Y-135850380D02*
X118848190Y-135850380D01*
X118800571Y-136326571D01*
X118848190Y-136278952D01*
X118943428Y-136231333D01*
X119181523Y-136231333D01*
X119276761Y-136278952D01*
X119324380Y-136326571D01*
X119372000Y-136421809D01*
X119372000Y-136659904D01*
X119324380Y-136755142D01*
X119276761Y-136802761D01*
X119181523Y-136850380D01*
X118943428Y-136850380D01*
X118848190Y-136802761D01*
X118800571Y-136755142D01*
X119800571Y-136850380D02*
X119800571Y-135850380D01*
X120372000Y-136850380D02*
X119943428Y-136278952D01*
X120372000Y-135850380D02*
X119800571Y-136421809D01*
D11*
X125409333Y-135562952D02*
X125276000Y-135372476D01*
X125180761Y-135562952D02*
X125180761Y-135162952D01*
X125333142Y-135162952D01*
X125371238Y-135182000D01*
X125390285Y-135201047D01*
X125409333Y-135239142D01*
X125409333Y-135296285D01*
X125390285Y-135334380D01*
X125371238Y-135353428D01*
X125333142Y-135372476D01*
X125180761Y-135372476D01*
X125599809Y-135562952D02*
X125676000Y-135562952D01*
X125714095Y-135543904D01*
X125733142Y-135524857D01*
X125771238Y-135467714D01*
X125790285Y-135391523D01*
X125790285Y-135239142D01*
X125771238Y-135201047D01*
X125752190Y-135182000D01*
X125714095Y-135162952D01*
X125637904Y-135162952D01*
X125599809Y-135182000D01*
X125580761Y-135201047D01*
X125561714Y-135239142D01*
X125561714Y-135334380D01*
X125580761Y-135372476D01*
X125599809Y-135391523D01*
X125637904Y-135410571D01*
X125714095Y-135410571D01*
X125752190Y-135391523D01*
X125771238Y-135372476D01*
X125790285Y-135334380D01*
D10*
%TO.C,R5*%
X128155714Y-131325809D02*
X128822380Y-131325809D01*
X127774761Y-131563904D02*
X128489047Y-131802000D01*
X128489047Y-131182952D01*
X128727142Y-130802000D02*
X128774761Y-130754380D01*
X128822380Y-130802000D01*
X128774761Y-130849619D01*
X128727142Y-130802000D01*
X128822380Y-130802000D01*
X127822380Y-130421047D02*
X127822380Y-129754380D01*
X128822380Y-130182952D01*
X128822380Y-129373428D02*
X127822380Y-129373428D01*
X128822380Y-128802000D02*
X128250952Y-129230571D01*
X127822380Y-128802000D02*
X128393809Y-129373428D01*
D12*
X125802190Y-130893333D02*
X125564095Y-131060000D01*
X125802190Y-131179047D02*
X125302190Y-131179047D01*
X125302190Y-130988571D01*
X125326000Y-130940952D01*
X125349809Y-130917142D01*
X125397428Y-130893333D01*
X125468857Y-130893333D01*
X125516476Y-130917142D01*
X125540285Y-130940952D01*
X125564095Y-130988571D01*
X125564095Y-131179047D01*
X125302190Y-130440952D02*
X125302190Y-130679047D01*
X125540285Y-130702857D01*
X125516476Y-130679047D01*
X125492666Y-130631428D01*
X125492666Y-130512380D01*
X125516476Y-130464761D01*
X125540285Y-130440952D01*
X125587904Y-130417142D01*
X125706952Y-130417142D01*
X125754571Y-130440952D01*
X125778380Y-130464761D01*
X125802190Y-130512380D01*
X125802190Y-130631428D01*
X125778380Y-130679047D01*
X125754571Y-130702857D01*
D10*
%TO.C,R12*%
X141517714Y-120387904D02*
X142184380Y-120387904D01*
X141136761Y-120626000D02*
X141851047Y-120864095D01*
X141851047Y-120245047D01*
X142184380Y-119816476D02*
X142184380Y-119626000D01*
X142136761Y-119530761D01*
X142089142Y-119483142D01*
X141946285Y-119387904D01*
X141755809Y-119340285D01*
X141374857Y-119340285D01*
X141279619Y-119387904D01*
X141232000Y-119435523D01*
X141184380Y-119530761D01*
X141184380Y-119721238D01*
X141232000Y-119816476D01*
X141279619Y-119864095D01*
X141374857Y-119911714D01*
X141612952Y-119911714D01*
X141708190Y-119864095D01*
X141755809Y-119816476D01*
X141803428Y-119721238D01*
X141803428Y-119530761D01*
X141755809Y-119435523D01*
X141708190Y-119387904D01*
X141612952Y-119340285D01*
X142184380Y-118340285D02*
X141708190Y-118673619D01*
X142184380Y-118911714D02*
X141184380Y-118911714D01*
X141184380Y-118530761D01*
X141232000Y-118435523D01*
X141279619Y-118387904D01*
X141374857Y-118340285D01*
X141517714Y-118340285D01*
X141612952Y-118387904D01*
X141660571Y-118435523D01*
X141708190Y-118530761D01*
X141708190Y-118911714D01*
X142184380Y-117864095D02*
X142184380Y-117673619D01*
X142136761Y-117578380D01*
X142089142Y-117530761D01*
X141946285Y-117435523D01*
X141755809Y-117387904D01*
X141374857Y-117387904D01*
X141279619Y-117435523D01*
X141232000Y-117483142D01*
X141184380Y-117578380D01*
X141184380Y-117768857D01*
X141232000Y-117864095D01*
X141279619Y-117911714D01*
X141374857Y-117959333D01*
X141612952Y-117959333D01*
X141708190Y-117911714D01*
X141755809Y-117864095D01*
X141803428Y-117768857D01*
X141803428Y-117578380D01*
X141755809Y-117483142D01*
X141708190Y-117435523D01*
X141612952Y-117387904D01*
D11*
X133784952Y-115319142D02*
X133594476Y-115452476D01*
X133784952Y-115547714D02*
X133384952Y-115547714D01*
X133384952Y-115395333D01*
X133404000Y-115357238D01*
X133423047Y-115338190D01*
X133461142Y-115319142D01*
X133518285Y-115319142D01*
X133556380Y-115338190D01*
X133575428Y-115357238D01*
X133594476Y-115395333D01*
X133594476Y-115547714D01*
X133784952Y-114938190D02*
X133784952Y-115166761D01*
X133784952Y-115052476D02*
X133384952Y-115052476D01*
X133442095Y-115090571D01*
X133480190Y-115128666D01*
X133499238Y-115166761D01*
X133423047Y-114785809D02*
X133404000Y-114766761D01*
X133384952Y-114728666D01*
X133384952Y-114633428D01*
X133404000Y-114595333D01*
X133423047Y-114576285D01*
X133461142Y-114557238D01*
X133499238Y-114557238D01*
X133556380Y-114576285D01*
X133784952Y-114804857D01*
X133784952Y-114557238D01*
D10*
%TO.C,H3*%
X114734570Y-26431397D02*
X114734570Y-25431397D01*
X115067903Y-26145683D01*
X115401237Y-25431397D01*
X115401237Y-26431397D01*
X116020284Y-26431397D02*
X115925046Y-26383778D01*
X115877427Y-26336159D01*
X115829808Y-26240921D01*
X115829808Y-25955207D01*
X115877427Y-25859969D01*
X115925046Y-25812350D01*
X116020284Y-25764731D01*
X116163141Y-25764731D01*
X116258379Y-25812350D01*
X116305999Y-25859969D01*
X116353618Y-25955207D01*
X116353618Y-26240921D01*
X116305999Y-26336159D01*
X116258379Y-26383778D01*
X116163141Y-26431397D01*
X116020284Y-26431397D01*
X117210760Y-25764731D02*
X117210760Y-26431397D01*
X116782189Y-25764731D02*
X116782189Y-26288540D01*
X116829808Y-26383778D01*
X116925046Y-26431397D01*
X117067903Y-26431397D01*
X117163141Y-26383778D01*
X117210760Y-26336159D01*
X117686951Y-25764731D02*
X117686951Y-26431397D01*
X117686951Y-25859969D02*
X117734570Y-25812350D01*
X117829808Y-25764731D01*
X117972665Y-25764731D01*
X118067903Y-25812350D01*
X118115522Y-25907588D01*
X118115522Y-26431397D01*
X118448856Y-25764731D02*
X118829808Y-25764731D01*
X118591713Y-25431397D02*
X118591713Y-26288540D01*
X118639332Y-26383778D01*
X118734570Y-26431397D01*
X118829808Y-26431397D01*
X119163141Y-26431397D02*
X119163141Y-25764731D01*
X119163141Y-25431397D02*
X119115522Y-25479017D01*
X119163141Y-25526636D01*
X119210760Y-25479017D01*
X119163141Y-25431397D01*
X119163141Y-25526636D01*
X119639332Y-25764731D02*
X119639332Y-26431397D01*
X119639332Y-25859969D02*
X119686951Y-25812350D01*
X119782189Y-25764731D01*
X119925046Y-25764731D01*
X120020284Y-25812350D01*
X120067903Y-25907588D01*
X120067903Y-26431397D01*
X120972665Y-25764731D02*
X120972665Y-26574255D01*
X120925046Y-26669493D01*
X120877427Y-26717112D01*
X120782189Y-26764731D01*
X120639332Y-26764731D01*
X120544094Y-26717112D01*
X120972665Y-26383778D02*
X120877427Y-26431397D01*
X120686951Y-26431397D01*
X120591713Y-26383778D01*
X120544094Y-26336159D01*
X120496475Y-26240921D01*
X120496475Y-25955207D01*
X120544094Y-25859969D01*
X120591713Y-25812350D01*
X120686951Y-25764731D01*
X120877427Y-25764731D01*
X120972665Y-25812350D01*
X121448856Y-26431397D02*
X121448856Y-25431397D01*
X121448856Y-25907588D02*
X122020284Y-25907588D01*
X122020284Y-26431397D02*
X122020284Y-25431397D01*
X122639332Y-26431397D02*
X122544094Y-26383778D01*
X122496475Y-26336159D01*
X122448856Y-26240921D01*
X122448856Y-25955207D01*
X122496475Y-25859969D01*
X122544094Y-25812350D01*
X122639332Y-25764731D01*
X122782189Y-25764731D01*
X122877427Y-25812350D01*
X122925046Y-25859969D01*
X122972665Y-25955207D01*
X122972665Y-26240921D01*
X122925046Y-26336159D01*
X122877427Y-26383778D01*
X122782189Y-26431397D01*
X122639332Y-26431397D01*
X123544094Y-26431397D02*
X123448856Y-26383778D01*
X123401237Y-26288540D01*
X123401237Y-25431397D01*
X124305999Y-26383778D02*
X124210760Y-26431397D01*
X124020284Y-26431397D01*
X123925046Y-26383778D01*
X123877427Y-26288540D01*
X123877427Y-25907588D01*
X123925046Y-25812350D01*
X124020284Y-25764731D01*
X124210760Y-25764731D01*
X124305999Y-25812350D01*
X124353618Y-25907588D01*
X124353618Y-26002826D01*
X123877427Y-26098064D01*
X124544094Y-26526636D02*
X125305999Y-26526636D01*
X125544094Y-26431397D02*
X125544094Y-25431397D01*
X125925046Y-25431397D01*
X126020284Y-25479017D01*
X126067903Y-25526636D01*
X126115522Y-25621874D01*
X126115522Y-25764731D01*
X126067903Y-25859969D01*
X126020284Y-25907588D01*
X125925046Y-25955207D01*
X125544094Y-25955207D01*
X126972665Y-26431397D02*
X126972665Y-25907588D01*
X126925046Y-25812350D01*
X126829808Y-25764731D01*
X126639332Y-25764731D01*
X126544094Y-25812350D01*
X126972665Y-26383778D02*
X126877427Y-26431397D01*
X126639332Y-26431397D01*
X126544094Y-26383778D01*
X126496475Y-26288540D01*
X126496475Y-26193302D01*
X126544094Y-26098064D01*
X126639332Y-26050445D01*
X126877427Y-26050445D01*
X126972665Y-26002826D01*
X127877427Y-26431397D02*
X127877427Y-25431397D01*
X127877427Y-26383778D02*
X127782189Y-26431397D01*
X127591713Y-26431397D01*
X127496475Y-26383778D01*
X127448856Y-26336159D01*
X127401237Y-26240921D01*
X127401237Y-25955207D01*
X127448856Y-25859969D01*
X127496475Y-25812350D01*
X127591713Y-25764731D01*
X127782189Y-25764731D01*
X127877427Y-25812350D01*
X118244094Y-22131397D02*
X118244094Y-21131397D01*
X118244094Y-21607588D02*
X118815522Y-21607588D01*
X118815522Y-22131397D02*
X118815522Y-21131397D01*
X119196475Y-21131397D02*
X119815522Y-21131397D01*
X119482189Y-21512350D01*
X119625046Y-21512350D01*
X119720284Y-21559969D01*
X119767903Y-21607588D01*
X119815522Y-21702826D01*
X119815522Y-21940921D01*
X119767903Y-22036159D01*
X119720284Y-22083778D01*
X119625046Y-22131397D01*
X119339332Y-22131397D01*
X119244094Y-22083778D01*
X119196475Y-22036159D01*
%TO.C,H2*%
X115752571Y-107414380D02*
X115752571Y-106414380D01*
X116085904Y-107128666D01*
X116419238Y-106414380D01*
X116419238Y-107414380D01*
X117038285Y-107414380D02*
X116943047Y-107366761D01*
X116895428Y-107319142D01*
X116847809Y-107223904D01*
X116847809Y-106938190D01*
X116895428Y-106842952D01*
X116943047Y-106795333D01*
X117038285Y-106747714D01*
X117181142Y-106747714D01*
X117276380Y-106795333D01*
X117324000Y-106842952D01*
X117371619Y-106938190D01*
X117371619Y-107223904D01*
X117324000Y-107319142D01*
X117276380Y-107366761D01*
X117181142Y-107414380D01*
X117038285Y-107414380D01*
X118228761Y-106747714D02*
X118228761Y-107414380D01*
X117800190Y-106747714D02*
X117800190Y-107271523D01*
X117847809Y-107366761D01*
X117943047Y-107414380D01*
X118085904Y-107414380D01*
X118181142Y-107366761D01*
X118228761Y-107319142D01*
X118704952Y-106747714D02*
X118704952Y-107414380D01*
X118704952Y-106842952D02*
X118752571Y-106795333D01*
X118847809Y-106747714D01*
X118990666Y-106747714D01*
X119085904Y-106795333D01*
X119133523Y-106890571D01*
X119133523Y-107414380D01*
X119466857Y-106747714D02*
X119847809Y-106747714D01*
X119609714Y-106414380D02*
X119609714Y-107271523D01*
X119657333Y-107366761D01*
X119752571Y-107414380D01*
X119847809Y-107414380D01*
X120181142Y-107414380D02*
X120181142Y-106747714D01*
X120181142Y-106414380D02*
X120133523Y-106462000D01*
X120181142Y-106509619D01*
X120228761Y-106462000D01*
X120181142Y-106414380D01*
X120181142Y-106509619D01*
X120657333Y-106747714D02*
X120657333Y-107414380D01*
X120657333Y-106842952D02*
X120704952Y-106795333D01*
X120800190Y-106747714D01*
X120943047Y-106747714D01*
X121038285Y-106795333D01*
X121085904Y-106890571D01*
X121085904Y-107414380D01*
X121990666Y-106747714D02*
X121990666Y-107557238D01*
X121943047Y-107652476D01*
X121895428Y-107700095D01*
X121800190Y-107747714D01*
X121657333Y-107747714D01*
X121562095Y-107700095D01*
X121990666Y-107366761D02*
X121895428Y-107414380D01*
X121704952Y-107414380D01*
X121609714Y-107366761D01*
X121562095Y-107319142D01*
X121514476Y-107223904D01*
X121514476Y-106938190D01*
X121562095Y-106842952D01*
X121609714Y-106795333D01*
X121704952Y-106747714D01*
X121895428Y-106747714D01*
X121990666Y-106795333D01*
X122466857Y-107414380D02*
X122466857Y-106414380D01*
X122466857Y-106890571D02*
X123038285Y-106890571D01*
X123038285Y-107414380D02*
X123038285Y-106414380D01*
X123657333Y-107414380D02*
X123562095Y-107366761D01*
X123514476Y-107319142D01*
X123466857Y-107223904D01*
X123466857Y-106938190D01*
X123514476Y-106842952D01*
X123562095Y-106795333D01*
X123657333Y-106747714D01*
X123800190Y-106747714D01*
X123895428Y-106795333D01*
X123943047Y-106842952D01*
X123990666Y-106938190D01*
X123990666Y-107223904D01*
X123943047Y-107319142D01*
X123895428Y-107366761D01*
X123800190Y-107414380D01*
X123657333Y-107414380D01*
X124562095Y-107414380D02*
X124466857Y-107366761D01*
X124419238Y-107271523D01*
X124419238Y-106414380D01*
X125324000Y-107366761D02*
X125228761Y-107414380D01*
X125038285Y-107414380D01*
X124943047Y-107366761D01*
X124895428Y-107271523D01*
X124895428Y-106890571D01*
X124943047Y-106795333D01*
X125038285Y-106747714D01*
X125228761Y-106747714D01*
X125324000Y-106795333D01*
X125371619Y-106890571D01*
X125371619Y-106985809D01*
X124895428Y-107081047D01*
X125562095Y-107509619D02*
X126324000Y-107509619D01*
X126562095Y-107414380D02*
X126562095Y-106414380D01*
X126943047Y-106414380D01*
X127038285Y-106462000D01*
X127085904Y-106509619D01*
X127133523Y-106604857D01*
X127133523Y-106747714D01*
X127085904Y-106842952D01*
X127038285Y-106890571D01*
X126943047Y-106938190D01*
X126562095Y-106938190D01*
X127990666Y-107414380D02*
X127990666Y-106890571D01*
X127943047Y-106795333D01*
X127847809Y-106747714D01*
X127657333Y-106747714D01*
X127562095Y-106795333D01*
X127990666Y-107366761D02*
X127895428Y-107414380D01*
X127657333Y-107414380D01*
X127562095Y-107366761D01*
X127514476Y-107271523D01*
X127514476Y-107176285D01*
X127562095Y-107081047D01*
X127657333Y-107033428D01*
X127895428Y-107033428D01*
X127990666Y-106985809D01*
X128895428Y-107414380D02*
X128895428Y-106414380D01*
X128895428Y-107366761D02*
X128800190Y-107414380D01*
X128609714Y-107414380D01*
X128514476Y-107366761D01*
X128466857Y-107319142D01*
X128419238Y-107223904D01*
X128419238Y-106938190D01*
X128466857Y-106842952D01*
X128514476Y-106795333D01*
X128609714Y-106747714D01*
X128800190Y-106747714D01*
X128895428Y-106795333D01*
X118244095Y-102649397D02*
X118244095Y-101649397D01*
X118244095Y-102125588D02*
X118815523Y-102125588D01*
X118815523Y-102649397D02*
X118815523Y-101649397D01*
X119244095Y-101744636D02*
X119291714Y-101697017D01*
X119386952Y-101649397D01*
X119625047Y-101649397D01*
X119720285Y-101697017D01*
X119767904Y-101744636D01*
X119815523Y-101839874D01*
X119815523Y-101935112D01*
X119767904Y-102077969D01*
X119196476Y-102649397D01*
X119815523Y-102649397D01*
%TO.C,R2*%
X139866761Y-94084380D02*
X139295333Y-94084380D01*
X139581047Y-94084380D02*
X139581047Y-93084380D01*
X139485809Y-93227238D01*
X139390571Y-93322476D01*
X139295333Y-93370095D01*
X140247714Y-93179619D02*
X140295333Y-93132000D01*
X140390571Y-93084380D01*
X140628666Y-93084380D01*
X140723904Y-93132000D01*
X140771523Y-93179619D01*
X140819142Y-93274857D01*
X140819142Y-93370095D01*
X140771523Y-93512952D01*
X140200095Y-94084380D01*
X140819142Y-94084380D01*
X141247714Y-94084380D02*
X141247714Y-93084380D01*
X141342952Y-93703428D02*
X141628666Y-94084380D01*
X141628666Y-93417714D02*
X141247714Y-93798666D01*
D11*
X140395333Y-92382952D02*
X140262000Y-92192476D01*
X140166761Y-92382952D02*
X140166761Y-91982952D01*
X140319142Y-91982952D01*
X140357238Y-92002000D01*
X140376285Y-92021047D01*
X140395333Y-92059142D01*
X140395333Y-92116285D01*
X140376285Y-92154380D01*
X140357238Y-92173428D01*
X140319142Y-92192476D01*
X140166761Y-92192476D01*
X140547714Y-92021047D02*
X140566761Y-92002000D01*
X140604857Y-91982952D01*
X140700095Y-91982952D01*
X140738190Y-92002000D01*
X140757238Y-92021047D01*
X140776285Y-92059142D01*
X140776285Y-92097238D01*
X140757238Y-92154380D01*
X140528666Y-92382952D01*
X140776285Y-92382952D01*
D10*
%TO.C,R17*%
X139612761Y-76414380D02*
X139422285Y-76414380D01*
X139327047Y-76462000D01*
X139279428Y-76509619D01*
X139184190Y-76652476D01*
X139136571Y-76842952D01*
X139136571Y-77223904D01*
X139184190Y-77319142D01*
X139231809Y-77366761D01*
X139327047Y-77414380D01*
X139517523Y-77414380D01*
X139612761Y-77366761D01*
X139660380Y-77319142D01*
X139708000Y-77223904D01*
X139708000Y-76985809D01*
X139660380Y-76890571D01*
X139612761Y-76842952D01*
X139517523Y-76795333D01*
X139327047Y-76795333D01*
X139231809Y-76842952D01*
X139184190Y-76890571D01*
X139136571Y-76985809D01*
X140088952Y-76509619D02*
X140136571Y-76462000D01*
X140231809Y-76414380D01*
X140469904Y-76414380D01*
X140565142Y-76462000D01*
X140612761Y-76509619D01*
X140660380Y-76604857D01*
X140660380Y-76700095D01*
X140612761Y-76842952D01*
X140041333Y-77414380D01*
X140660380Y-77414380D01*
X141088952Y-77414380D02*
X141088952Y-76747714D01*
X141088952Y-76938190D02*
X141136571Y-76842952D01*
X141184190Y-76795333D01*
X141279428Y-76747714D01*
X141374666Y-76747714D01*
D11*
X136902857Y-77142952D02*
X136769523Y-76952476D01*
X136674285Y-77142952D02*
X136674285Y-76742952D01*
X136826666Y-76742952D01*
X136864761Y-76762000D01*
X136883809Y-76781047D01*
X136902857Y-76819142D01*
X136902857Y-76876285D01*
X136883809Y-76914380D01*
X136864761Y-76933428D01*
X136826666Y-76952476D01*
X136674285Y-76952476D01*
X137283809Y-77142952D02*
X137055238Y-77142952D01*
X137169523Y-77142952D02*
X137169523Y-76742952D01*
X137131428Y-76800095D01*
X137093333Y-76838190D01*
X137055238Y-76857238D01*
X137417142Y-76742952D02*
X137683809Y-76742952D01*
X137512380Y-77142952D01*
D10*
%TO.C,R10*%
X141597238Y-131516380D02*
X141025809Y-131516380D01*
X141311523Y-131516380D02*
X141311523Y-130516380D01*
X141216285Y-130659238D01*
X141121047Y-130754476D01*
X141025809Y-130802095D01*
X141978190Y-130611619D02*
X142025809Y-130564000D01*
X142121047Y-130516380D01*
X142359142Y-130516380D01*
X142454380Y-130564000D01*
X142502000Y-130611619D01*
X142549619Y-130706857D01*
X142549619Y-130802095D01*
X142502000Y-130944952D01*
X141930571Y-131516380D01*
X142549619Y-131516380D01*
X142978190Y-131421142D02*
X143025809Y-131468761D01*
X142978190Y-131516380D01*
X142930571Y-131468761D01*
X142978190Y-131421142D01*
X142978190Y-131516380D01*
X143978190Y-131516380D02*
X143406761Y-131516380D01*
X143692476Y-131516380D02*
X143692476Y-130516380D01*
X143597238Y-130659238D01*
X143502000Y-130754476D01*
X143406761Y-130802095D01*
X144406761Y-131516380D02*
X144406761Y-130516380D01*
X144978190Y-131516380D02*
X144549619Y-130944952D01*
X144978190Y-130516380D02*
X144406761Y-131087809D01*
D11*
X135632857Y-131244952D02*
X135499523Y-131054476D01*
X135404285Y-131244952D02*
X135404285Y-130844952D01*
X135556666Y-130844952D01*
X135594761Y-130864000D01*
X135613809Y-130883047D01*
X135632857Y-130921142D01*
X135632857Y-130978285D01*
X135613809Y-131016380D01*
X135594761Y-131035428D01*
X135556666Y-131054476D01*
X135404285Y-131054476D01*
X136013809Y-131244952D02*
X135785238Y-131244952D01*
X135899523Y-131244952D02*
X135899523Y-130844952D01*
X135861428Y-130902095D01*
X135823333Y-130940190D01*
X135785238Y-130959238D01*
X136261428Y-130844952D02*
X136299523Y-130844952D01*
X136337619Y-130864000D01*
X136356666Y-130883047D01*
X136375714Y-130921142D01*
X136394761Y-130997333D01*
X136394761Y-131092571D01*
X136375714Y-131168761D01*
X136356666Y-131206857D01*
X136337619Y-131225904D01*
X136299523Y-131244952D01*
X136261428Y-131244952D01*
X136223333Y-131225904D01*
X136204285Y-131206857D01*
X136185238Y-131168761D01*
X136166190Y-131092571D01*
X136166190Y-130997333D01*
X136185238Y-130921142D01*
X136204285Y-130883047D01*
X136223333Y-130864000D01*
X136261428Y-130844952D01*
D15*
%TO.C,R4*%
X135032500Y-153886000D02*
X135032500Y-155486000D01*
X135032500Y-155486000D02*
X134207500Y-155486000D01*
X134207500Y-153886000D02*
X135032500Y-153886000D01*
X134207500Y-155486000D02*
X134207500Y-153886000D01*
%TO.C,C6*%
X121074000Y-132471000D02*
X123074000Y-132471000D01*
X123074000Y-133721000D02*
X121074000Y-133721000D01*
X121074000Y-133721000D02*
X121074000Y-132471000D01*
X123074000Y-132471000D02*
X123074000Y-133721000D01*
%TO.C,C10*%
X137198000Y-128886000D02*
X137198000Y-129686000D01*
X135598000Y-129686000D02*
X135598000Y-128886000D01*
X137198000Y-129686000D02*
X135598000Y-129686000D01*
X135598000Y-128886000D02*
X137198000Y-128886000D01*
%TO.C,J1*%
X118897000Y-176809000D02*
X116357000Y-176809000D01*
X116357000Y-176809000D02*
X116357000Y-161569000D01*
X118897000Y-162204000D02*
X118897000Y-176809000D01*
X118262000Y-161569000D02*
X118897000Y-162204000D01*
X116357000Y-161569000D02*
X118262000Y-161569000D01*
%TO.C,C13*%
X140142000Y-134630000D02*
X140142000Y-135430000D01*
X138542000Y-134630000D02*
X140142000Y-134630000D01*
X138542000Y-135430000D02*
X138542000Y-134630000D01*
X140142000Y-135430000D02*
X138542000Y-135430000D01*
%TO.C,C4*%
X117465000Y-67646000D02*
X117465000Y-69646000D01*
X117465000Y-69646000D02*
X116215000Y-69646000D01*
X116215000Y-67646000D02*
X117465000Y-67646000D01*
X116215000Y-69646000D02*
X116215000Y-67646000D01*
%TO.C,C7*%
X123174000Y-123835000D02*
X123174000Y-125085000D01*
X121174000Y-123835000D02*
X123174000Y-123835000D01*
X123174000Y-125085000D02*
X121174000Y-125085000D01*
X121174000Y-125085000D02*
X121174000Y-123835000D01*
%TO.C,R1*%
X121311000Y-157575500D02*
X122911000Y-157575500D01*
X122911000Y-158400500D02*
X121311000Y-158400500D01*
X121311000Y-158400500D02*
X121311000Y-157575500D01*
X122911000Y-157575500D02*
X122911000Y-158400500D01*
%TO.C,C5*%
X142103000Y-82058000D02*
X142103000Y-84058000D01*
X140853000Y-82058000D02*
X142103000Y-82058000D01*
X142103000Y-84058000D02*
X140853000Y-84058000D01*
X140853000Y-84058000D02*
X140853000Y-82058000D01*
%TO.C,R3*%
X135985500Y-153886000D02*
X136810500Y-153886000D01*
X135985500Y-155486000D02*
X135985500Y-153886000D01*
X136810500Y-153886000D02*
X136810500Y-155486000D01*
X136810500Y-155486000D02*
X135985500Y-155486000D01*
%TO.C,J8*%
X132967820Y-73343017D02*
X133602820Y-72708017D01*
X132967820Y-75248017D02*
X132967820Y-73343017D01*
X133602820Y-72708017D02*
X140587820Y-72708017D01*
X140587820Y-72708017D02*
X140587820Y-75248017D01*
X140587820Y-75248017D02*
X132967820Y-75248017D01*
%TO.C,R6*%
X137763500Y-153886000D02*
X138588500Y-153886000D01*
X138588500Y-155486000D02*
X137763500Y-155486000D01*
X138588500Y-153886000D02*
X138588500Y-155486000D01*
X137763500Y-155486000D02*
X137763500Y-153886000D01*
%TO.C,C14*%
X121803000Y-109490000D02*
X123053000Y-109490000D01*
X123053000Y-109490000D02*
X123053000Y-111490000D01*
X121803000Y-111490000D02*
X121803000Y-109490000D01*
X123053000Y-111490000D02*
X121803000Y-111490000D01*
%TO.C,U3*%
X129064000Y-134842000D02*
X129064000Y-130842000D01*
X133064000Y-134842000D02*
X129064000Y-134842000D01*
X129064000Y-130842000D02*
X132064000Y-130842000D01*
X133064000Y-131842000D02*
X133064000Y-134842000D01*
X132064000Y-130842000D02*
X133064000Y-131842000D01*
%TO.C,U1*%
X126166000Y-152702000D02*
X129866000Y-152702000D01*
X126166000Y-147002000D02*
X127166000Y-146002000D01*
X126166000Y-147002000D02*
X126166000Y-152702000D01*
X127166000Y-146002000D02*
X129866000Y-146002000D01*
X129866000Y-146002000D02*
X129866000Y-152702000D01*
%TO.C,R15*%
X132191500Y-125846000D02*
X133016500Y-125846000D01*
X132191500Y-127446000D02*
X132191500Y-125846000D01*
X133016500Y-127446000D02*
X132191500Y-127446000D01*
X133016500Y-125846000D02*
X133016500Y-127446000D01*
%TO.C,C1*%
X119263000Y-147122000D02*
X120513000Y-147122000D01*
X120513000Y-149122000D02*
X119263000Y-149122000D01*
X120513000Y-147122000D02*
X120513000Y-149122000D01*
X119263000Y-149122000D02*
X119263000Y-147122000D01*
%TO.C,R13*%
X131413500Y-114262000D02*
X132238500Y-114262000D01*
X132238500Y-114262000D02*
X132238500Y-115862000D01*
X131413500Y-115862000D02*
X131413500Y-114262000D01*
X132238500Y-115862000D02*
X131413500Y-115862000D01*
%TO.C,C2*%
X141462000Y-93863000D02*
X141462000Y-95113000D01*
X139462000Y-93863000D02*
X141462000Y-93863000D01*
X139462000Y-95113000D02*
X139462000Y-93863000D01*
X141462000Y-95113000D02*
X139462000Y-95113000D01*
%TO.C,R18*%
X124244000Y-77120500D02*
X122644000Y-77120500D01*
X124244000Y-76295500D02*
X124244000Y-77120500D01*
X122644000Y-77120500D02*
X122644000Y-76295500D01*
X122644000Y-76295500D02*
X124244000Y-76295500D01*
%TO.C,U4*%
X128500000Y-80600000D02*
X131900000Y-80600000D01*
X127500000Y-85600000D02*
X127500000Y-81600000D01*
X131900000Y-85600000D02*
X127500000Y-85600000D01*
X131900000Y-80600000D02*
X131900000Y-85600000D01*
X127500000Y-81600000D02*
X128500000Y-80600000D01*
%TO.C,R7*%
X126276000Y-133191500D02*
X126276000Y-134016500D01*
X126276000Y-134016500D02*
X124676000Y-134016500D01*
X124676000Y-134016500D02*
X124676000Y-133191500D01*
X124676000Y-133191500D02*
X126276000Y-133191500D01*
%TO.C,C9*%
X137198000Y-127108000D02*
X137198000Y-127908000D01*
X135598000Y-127908000D02*
X135598000Y-127108000D01*
X135598000Y-127108000D02*
X137198000Y-127108000D01*
X137198000Y-127908000D02*
X135598000Y-127908000D01*
%TO.C,C11*%
X138542000Y-132852000D02*
X140142000Y-132852000D01*
X140142000Y-132852000D02*
X140142000Y-133652000D01*
X138542000Y-133652000D02*
X138542000Y-132852000D01*
X140142000Y-133652000D02*
X138542000Y-133652000D01*
%TO.C,J9*%
X119507000Y-72708017D02*
X126492000Y-72708017D01*
X118872000Y-73343017D02*
X119507000Y-72708017D01*
X126492000Y-75248017D02*
X118872000Y-75248017D01*
X126492000Y-72708017D02*
X126492000Y-75248017D01*
X118872000Y-75248017D02*
X118872000Y-73343017D01*
%TO.C,C3*%
X121539000Y-149122000D02*
X121539000Y-147122000D01*
X121539000Y-147122000D02*
X122789000Y-147122000D01*
X122789000Y-147122000D02*
X122789000Y-149122000D01*
X122789000Y-149122000D02*
X121539000Y-149122000D01*
%TO.C,C8*%
X126962000Y-138792000D02*
X128562000Y-138792000D01*
X126962000Y-139592000D02*
X126962000Y-138792000D01*
X128562000Y-138792000D02*
X128562000Y-139592000D01*
X128562000Y-139592000D02*
X126962000Y-139592000D01*
%TO.C,R8*%
X126276000Y-137572500D02*
X124676000Y-137572500D01*
X124676000Y-136747500D02*
X126276000Y-136747500D01*
X126276000Y-136747500D02*
X126276000Y-137572500D01*
X124676000Y-137572500D02*
X124676000Y-136747500D01*
%TO.C,L1*%
X135694000Y-138668000D02*
X135694000Y-136668000D01*
X136594000Y-136668000D02*
X136594000Y-138668000D01*
X135694000Y-136668000D02*
X136594000Y-136668000D01*
X136594000Y-138668000D02*
X135694000Y-138668000D01*
%TO.C,C12*%
X140142000Y-131074000D02*
X140142000Y-131874000D01*
X140142000Y-131874000D02*
X138542000Y-131874000D01*
X138542000Y-131074000D02*
X140142000Y-131074000D01*
X138542000Y-131874000D02*
X138542000Y-131074000D01*
%TO.C,U2*%
X138928000Y-179030000D02*
X138928000Y-160250000D01*
X138428000Y-179530000D02*
X138928000Y-180030000D01*
X138928000Y-160250000D02*
X120928000Y-160250000D01*
X138928000Y-185755000D02*
X120928000Y-185755000D01*
X138928000Y-179030000D02*
X138428000Y-179530000D01*
X120928000Y-160250000D02*
X120928000Y-185755000D01*
X138928000Y-185755000D02*
X138928000Y-180030000D01*
%TO.C,R11*%
X134969500Y-114262000D02*
X135794500Y-114262000D01*
X135794500Y-114262000D02*
X135794500Y-115862000D01*
X135794500Y-115862000D02*
X134969500Y-115862000D01*
X134969500Y-115862000D02*
X134969500Y-114262000D01*
%TO.C,R16*%
X131050500Y-125846000D02*
X131050500Y-127446000D01*
X130225500Y-127446000D02*
X130225500Y-125846000D01*
X130225500Y-125846000D02*
X131050500Y-125846000D01*
X131050500Y-127446000D02*
X130225500Y-127446000D01*
%TO.C,Y1*%
X122624000Y-127078000D02*
X122824000Y-127278000D01*
X120324000Y-130078000D02*
X120324000Y-127278000D01*
X122624000Y-130278000D02*
X120524000Y-130278000D01*
X122824000Y-130078000D02*
X122624000Y-130278000D01*
X120324000Y-127278000D02*
X120524000Y-127078000D01*
X122824000Y-127278000D02*
X122824000Y-130078000D01*
X120524000Y-127078000D02*
X122624000Y-127078000D01*
X121824000Y-130278000D02*
X122824000Y-129278000D01*
X120524000Y-130278000D02*
X120324000Y-130078000D01*
%TO.C,R14*%
X128428500Y-115862000D02*
X127603500Y-115862000D01*
X128428500Y-114262000D02*
X128428500Y-115862000D01*
X127603500Y-114262000D02*
X128428500Y-114262000D01*
X127603500Y-115862000D02*
X127603500Y-114262000D01*
%TO.C,R9*%
X126276000Y-135794500D02*
X124676000Y-135794500D01*
X124676000Y-134969500D02*
X126276000Y-134969500D01*
X124676000Y-135794500D02*
X124676000Y-134969500D01*
X126276000Y-134969500D02*
X126276000Y-135794500D01*
%TO.C,R5*%
X124951000Y-131810000D02*
X124951000Y-129810000D01*
X124951000Y-129810000D02*
X126201000Y-129810000D01*
X126201000Y-131810000D02*
X124951000Y-131810000D01*
X126201000Y-129810000D02*
X126201000Y-131810000D01*
%TO.C,R12*%
X133191500Y-114262000D02*
X134016500Y-114262000D01*
X134016500Y-114262000D02*
X134016500Y-115862000D01*
X134016500Y-115862000D02*
X133191500Y-115862000D01*
X133191500Y-115862000D02*
X133191500Y-114262000D01*
%TO.C,R2*%
X139662000Y-92614500D02*
X139662000Y-91789500D01*
X141262000Y-91789500D02*
X141262000Y-92614500D01*
X141262000Y-92614500D02*
X139662000Y-92614500D01*
X139662000Y-91789500D02*
X141262000Y-91789500D01*
%TO.C,R17*%
X136360000Y-77374500D02*
X136360000Y-76549500D01*
X136360000Y-76549500D02*
X137960000Y-76549500D01*
X137960000Y-76549500D02*
X137960000Y-77374500D01*
X137960000Y-77374500D02*
X136360000Y-77374500D01*
%TO.C,R10*%
X136690000Y-131476500D02*
X135090000Y-131476500D01*
X135090000Y-130651500D02*
X136690000Y-130651500D01*
X136690000Y-130651500D02*
X136690000Y-131476500D01*
X135090000Y-131476500D02*
X135090000Y-130651500D01*
%TD*%
M02*
