M48
; DRILL file {KiCad 6.0.6-3a73a75311~116~ubuntu20.04.1} date Wed 20 Jul 2022 09:27:02 AM CEST
; FORMAT={-:-/ absolute / metric / decimal}
; #@! TF.CreationDate,2022-07-20T09:27:02+02:00
; #@! TF.GenerationSoftware,Kicad,Pcbnew,6.0.6-3a73a75311~116~ubuntu20.04.1
; #@! TF.FileFunction,Plated,1,2,PTH
FMAT,2
METRIC
; #@! TA.AperFunction,Plated,PTH,ViaDrill
T1C0.400
; #@! TA.AperFunction,Plated,PTH,ComponentDrill
T2C0.600
; #@! TA.AperFunction,Plated,PTH,ComponentDrill
T3C0.650
; #@! TA.AperFunction,Plated,PTH,ComponentDrill
T4C0.762
; #@! TA.AperFunction,Plated,PTH,ComponentDrill
T5C0.890
; #@! TA.AperFunction,Plated,PTH,ComponentDrill
T6C0.900
; #@! TA.AperFunction,Plated,PTH,ComponentDrill
T7C1.000
; #@! TA.AperFunction,Plated,PTH,ComponentDrill
T8C1.100
; #@! TA.AperFunction,Plated,PTH,ComponentDrill
T9C1.600
; #@! TA.AperFunction,Plated,PTH,ComponentDrill
T10C3.200
%
G90
G05
T1
X115.062Y-97.028
X116.078Y-109.728
X116.332Y-150.876
X116.5Y-64.3
X116.586Y-106.934
X117.856Y-106.934
X119.292Y-82.4
X119.292Y-83.6
X119.4Y-133.0
X119.8Y-125.8
X119.888Y-157.988
X120.142Y-156.21
X120.8Y-122.8
X121.5Y-83.4
X122.8Y-81.6
X123.428Y-178.265
X123.444Y-135.382
X123.698Y-21.402
X123.7Y-83.8
X124.14Y-20.64
X124.206Y-132.334
X124.6Y-98.0
X124.7Y-126.9
X124.714Y-165.608
X124.714Y-168.148
X124.714Y-169.418
X124.79Y-19.99
X124.9Y-91.9
X125.1Y-84.7
X125.222Y-157.48
X125.9Y-154.3
X126.1Y-142.3
X126.238Y-172.72
X126.492Y-157.48
X126.5Y-147.2
X127.0Y-129.794
X127.0Y-131.868
X127.0Y-150.876
X127.073Y-134.437
X127.2Y-167.1
X127.3Y-140.9
X127.508Y-136.144
X127.508Y-172.72
X128.007Y-129.832
X128.1Y-117.2
X128.168Y-131.28
X128.4Y-81.2
X128.524Y-137.624
X129.1Y-64.3
X129.286Y-115.062
X129.286Y-128.524
X129.29Y-127.504
X129.3Y-83.1
X129.6Y-126.4
X130.048Y-136.906
X130.1Y-64.3
X130.835Y-115.062
X131.1Y-64.3
X131.318Y-176.022
X131.572Y-140.97
X131.826Y-132.08
X131.918Y-129.54
X132.2Y-64.3
X132.606Y-142.494
X132.838Y-115.056
X132.917Y-129.641
X133.0Y-148.2
X133.096Y-140.97
X133.2Y-130.6
X133.316Y-64.3
X133.35Y-138.43
X133.604Y-178.054
X134.2Y-127.0
X134.563Y-115.101
X134.62Y-150.622
X135.0Y-132.825
X135.89Y-176.784
X135.9Y-132.1
X136.398Y-150.622
X136.659Y-133.959
X136.7Y-135.2
X136.906Y-158.75
X138.0Y-136.5
X138.176Y-150.622
X138.9Y-146.9
X139.3Y-86.3
X140.1Y-136.3
X142.8Y-124.4
X143.764Y-149.352
X144.526Y-108.966
T5
X123.63Y-121.72
X126.17Y-123.24
X133.74Y-121.72
X136.28Y-123.24
T6
X125.51Y-109.46
X126.78Y-112.0
X128.05Y-109.46
X129.32Y-112.0
X130.59Y-109.46
X131.86Y-112.0
X133.13Y-109.46
X134.4Y-112.0
T7
X117.627Y-162.839
X117.627Y-165.379
X117.627Y-167.919
X117.627Y-170.459
X117.627Y-172.999
X117.627Y-175.539
X120.142Y-73.978
X122.682Y-73.978
X125.222Y-73.978
X134.238Y-73.978
X136.778Y-73.978
X139.318Y-73.978
T8
X117.554Y-90.363
X117.554Y-96.863
X122.054Y-90.363
X122.054Y-96.863
X137.874Y-90.363
X137.874Y-96.863
X142.374Y-90.363
X142.374Y-96.863
T9
X122.18Y-115.29
X137.73Y-115.29
T10
X119.006Y-21.679
X119.006Y-102.197
X119.006Y-195.415
X141.104Y-21.679
X141.104Y-102.197
X141.104Y-195.415
T2
G00X125.619Y-23.531
M15
G01X125.619Y-22.831
M16
G05
G00X133.969Y-23.531
M15
G01X133.969Y-22.831
M16
G05
T3
G00X127.569Y-20.281
M15
G01X127.569Y-20.081
M16
G05
G00X132.019Y-20.281
M15
G01X132.019Y-20.081
M16
G05
T4
G00X121.343Y-28.648
M15
G01X121.343Y-28.886
M16
G05
G00X121.343Y-68.314
M15
G01X121.343Y-68.552
M16
G05
G00X137.625Y-28.648
M15
G01X137.625Y-28.886
M16
G05
G00X137.625Y-68.314
M15
G01X137.625Y-68.552
M16
G05
T7
G00X128.836Y-98.691
M15
G01X131.036Y-98.691
M16
G05
G00X128.636Y-104.991
M15
G01X131.236Y-104.991
M16
G05
G00X134.736Y-100.991
M15
G01X134.736Y-103.191
M16
G05
T0
M30
