%TF.GenerationSoftware,KiCad,Pcbnew,6.0.6-3a73a75311~116~ubuntu20.04.1*%
%TF.CreationDate,2022-07-20T09:27:06+02:00*%
%TF.ProjectId,MCH-light,4d43482d-6c69-4676-9874-2e6b69636164,rev?*%
%TF.SameCoordinates,Original*%
%TF.FileFunction,Soldermask,Top*%
%TF.FilePolarity,Negative*%
%FSLAX46Y46*%
G04 Gerber Fmt 4.6, Leading zero omitted, Abs format (unit mm)*
G04 Created by KiCad (PCBNEW 6.0.6-3a73a75311~116~ubuntu20.04.1) date 2022-07-20 09:27:06*
%MOMM*%
%LPD*%
G01*
G04 APERTURE LIST*
G04 Aperture macros list*
%AMRoundRect*
0 Rectangle with rounded corners*
0 $1 Rounding radius*
0 $2 $3 $4 $5 $6 $7 $8 $9 X,Y pos of 4 corners*
0 Add a 4 corners polygon primitive as box body*
4,1,4,$2,$3,$4,$5,$6,$7,$8,$9,$2,$3,0*
0 Add four circle primitives for the rounded corners*
1,1,$1+$1,$2,$3*
1,1,$1+$1,$4,$5*
1,1,$1+$1,$6,$7*
1,1,$1+$1,$8,$9*
0 Add four rect primitives between the rounded corners*
20,1,$1+$1,$2,$3,$4,$5,0*
20,1,$1+$1,$4,$5,$6,$7,0*
20,1,$1+$1,$6,$7,$8,$9,0*
20,1,$1+$1,$8,$9,$2,$3,0*%
%AMFreePoly0*
4,1,22,0.550000,-0.750000,0.000000,-0.750000,0.000000,-0.745033,-0.079941,-0.743568,-0.215256,-0.701293,-0.333266,-0.622738,-0.424486,-0.514219,-0.481581,-0.384460,-0.499164,-0.250000,-0.500000,-0.250000,-0.500000,0.250000,-0.499164,0.250000,-0.499963,0.256109,-0.478152,0.396186,-0.417904,0.524511,-0.324060,0.630769,-0.204165,0.706417,-0.067858,0.745374,0.000000,0.744959,0.000000,0.750000,
0.550000,0.750000,0.550000,-0.750000,0.550000,-0.750000,$1*%
%AMFreePoly1*
4,1,20,0.000000,0.744959,0.073905,0.744508,0.209726,0.703889,0.328688,0.626782,0.421226,0.519385,0.479903,0.390333,0.500000,0.250000,0.500000,-0.250000,0.499851,-0.262216,0.476331,-0.402017,0.414519,-0.529596,0.319384,-0.634700,0.198574,-0.708877,0.061801,-0.746166,0.000000,-0.745033,0.000000,-0.750000,-0.550000,-0.750000,-0.550000,0.750000,0.000000,0.750000,0.000000,0.744959,
0.000000,0.744959,$1*%
G04 Aperture macros list end*
%ADD10RoundRect,0.200000X0.275000X-0.200000X0.275000X0.200000X-0.275000X0.200000X-0.275000X-0.200000X0*%
%ADD11RoundRect,0.250000X0.250000X0.475000X-0.250000X0.475000X-0.250000X-0.475000X0.250000X-0.475000X0*%
%ADD12RoundRect,0.225000X-0.225000X-0.250000X0.225000X-0.250000X0.225000X0.250000X-0.225000X0.250000X0*%
%ADD13R,1.700000X1.700000*%
%ADD14O,1.700000X1.700000*%
%ADD15RoundRect,0.250000X0.475000X-0.250000X0.475000X0.250000X-0.475000X0.250000X-0.475000X-0.250000X0*%
%ADD16RoundRect,0.250000X-0.250000X-0.475000X0.250000X-0.475000X0.250000X0.475000X-0.250000X0.475000X0*%
%ADD17RoundRect,0.200000X-0.200000X-0.275000X0.200000X-0.275000X0.200000X0.275000X-0.200000X0.275000X0*%
%ADD18RoundRect,0.250000X-0.475000X0.250000X-0.475000X-0.250000X0.475000X-0.250000X0.475000X0.250000X0*%
%ADD19C,6.400000*%
%ADD20FreePoly0,270.000000*%
%ADD21R,1.500000X1.000000*%
%ADD22FreePoly1,270.000000*%
%ADD23RoundRect,0.062500X-0.062500X0.350000X-0.062500X-0.350000X0.062500X-0.350000X0.062500X0.350000X0*%
%ADD24RoundRect,0.062500X-0.350000X0.062500X-0.350000X-0.062500X0.350000X-0.062500X0.350000X0.062500X0*%
%ADD25R,2.600000X2.600000*%
%ADD26R,2.000000X1.500000*%
%ADD27R,2.000000X3.800000*%
%ADD28RoundRect,0.200000X-0.275000X0.200000X-0.275000X-0.200000X0.275000X-0.200000X0.275000X0.200000X0*%
%ADD29RoundRect,0.100000X-0.637500X-0.100000X0.637500X-0.100000X0.637500X0.100000X-0.637500X0.100000X0*%
%ADD30RoundRect,0.200000X0.200000X0.275000X-0.200000X0.275000X-0.200000X-0.275000X0.200000X-0.275000X0*%
%ADD31RoundRect,0.218750X0.381250X-0.218750X0.381250X0.218750X-0.381250X0.218750X-0.381250X-0.218750X0*%
%ADD32R,2.000000X0.900000*%
%ADD33R,0.900000X2.000000*%
%ADD34R,5.000000X5.000000*%
%ADD35R,1.200000X1.400000*%
%ADD36C,3.250000*%
%ADD37C,2.600000*%
%ADD38C,1.890000*%
%ADD39R,1.900000X1.900000*%
%ADD40C,1.900000*%
%ADD41R,4.600000X2.000000*%
%ADD42O,4.200000X2.000000*%
%ADD43O,2.000000X4.200000*%
%ADD44RoundRect,0.500000X-0.500000X0.750000X-0.500000X-0.750000X0.500000X-0.750000X0.500000X0.750000X0*%
%ADD45R,2.000000X2.500000*%
%ADD46C,2.000000*%
%ADD47O,1.050000X1.250000*%
%ADD48O,1.000000X1.900000*%
G04 APERTURE END LIST*
D10*
%TO.C,R4*%
X134620000Y-155511000D03*
X134620000Y-153861000D03*
%TD*%
D11*
%TO.C,C6*%
X123024000Y-133096000D03*
X121124000Y-133096000D03*
%TD*%
D12*
%TO.C,C10*%
X135623000Y-129286000D03*
X137173000Y-129286000D03*
%TD*%
D13*
%TO.C,J1*%
X117627000Y-162839000D03*
D14*
X117627000Y-165379000D03*
X117627000Y-167919000D03*
X117627000Y-170459000D03*
X117627000Y-172999000D03*
X117627000Y-175539000D03*
%TD*%
D12*
%TO.C,C13*%
X138567000Y-135030000D03*
X140117000Y-135030000D03*
%TD*%
D15*
%TO.C,C4*%
X116840000Y-69596000D03*
X116840000Y-67696000D03*
%TD*%
D16*
%TO.C,C7*%
X121224000Y-124460000D03*
X123124000Y-124460000D03*
%TD*%
D17*
%TO.C,R1*%
X121286000Y-157988000D03*
X122936000Y-157988000D03*
%TD*%
D18*
%TO.C,C5*%
X141478000Y-82108000D03*
X141478000Y-84008000D03*
%TD*%
D10*
%TO.C,R3*%
X136398000Y-155511000D03*
X136398000Y-153861000D03*
%TD*%
D19*
%TO.C,H1*%
X141104000Y-102197017D03*
%TD*%
D13*
%TO.C,J8*%
X134237820Y-73978017D03*
D14*
X136777820Y-73978017D03*
X139317820Y-73978017D03*
%TD*%
D10*
%TO.C,R6*%
X138176000Y-155511000D03*
X138176000Y-153861000D03*
%TD*%
D15*
%TO.C,C14*%
X122428000Y-111440000D03*
X122428000Y-109540000D03*
%TD*%
D20*
%TO.C,JP1*%
X117602000Y-157196000D03*
D21*
X117602000Y-158496000D03*
D22*
X117602000Y-159796000D03*
%TD*%
D23*
%TO.C,U3*%
X132314000Y-130904500D03*
X131814000Y-130904500D03*
X131314000Y-130904500D03*
X130814000Y-130904500D03*
X130314000Y-130904500D03*
X129814000Y-130904500D03*
D24*
X129126500Y-131592000D03*
X129126500Y-132092000D03*
X129126500Y-132592000D03*
X129126500Y-133092000D03*
X129126500Y-133592000D03*
X129126500Y-134092000D03*
D23*
X129814000Y-134779500D03*
X130314000Y-134779500D03*
X130814000Y-134779500D03*
X131314000Y-134779500D03*
X131814000Y-134779500D03*
X132314000Y-134779500D03*
D24*
X133001500Y-134092000D03*
X133001500Y-133592000D03*
X133001500Y-133092000D03*
X133001500Y-132592000D03*
X133001500Y-132092000D03*
X133001500Y-131592000D03*
D25*
X131064000Y-132842000D03*
%TD*%
D26*
%TO.C,U1*%
X124866000Y-147052000D03*
X124866000Y-149352000D03*
D27*
X131166000Y-149352000D03*
D26*
X124866000Y-151652000D03*
%TD*%
D10*
%TO.C,R15*%
X132604000Y-127471000D03*
X132604000Y-125821000D03*
%TD*%
D19*
%TO.C,H5*%
X141104000Y-195415017D03*
%TD*%
D15*
%TO.C,C1*%
X119888000Y-149072000D03*
X119888000Y-147172000D03*
%TD*%
D17*
%TO.C,R19*%
X138465000Y-124380000D03*
X140115000Y-124380000D03*
%TD*%
D10*
%TO.C,R13*%
X131826000Y-115887000D03*
X131826000Y-114237000D03*
%TD*%
D16*
%TO.C,C2*%
X139512000Y-94488000D03*
X141412000Y-94488000D03*
%TD*%
D17*
%TO.C,R18*%
X122619000Y-76708000D03*
X124269000Y-76708000D03*
%TD*%
D28*
%TO.C,R20*%
X127250000Y-124705000D03*
X127250000Y-126355000D03*
%TD*%
D29*
%TO.C,U4*%
X126837500Y-81150000D03*
X126837500Y-81800000D03*
X126837500Y-82450000D03*
X126837500Y-83100000D03*
X126837500Y-83750000D03*
X126837500Y-84400000D03*
X126837500Y-85050000D03*
X132562500Y-85050000D03*
X132562500Y-84400000D03*
X132562500Y-83750000D03*
X132562500Y-83100000D03*
X132562500Y-82450000D03*
X132562500Y-81800000D03*
X132562500Y-81150000D03*
%TD*%
D30*
%TO.C,R7*%
X126301000Y-133604000D03*
X124651000Y-133604000D03*
%TD*%
D12*
%TO.C,C9*%
X135623000Y-127508000D03*
X137173000Y-127508000D03*
%TD*%
%TO.C,C11*%
X138567000Y-133252000D03*
X140117000Y-133252000D03*
%TD*%
D13*
%TO.C,J9*%
X120142000Y-73978017D03*
D14*
X122682000Y-73978017D03*
X125222000Y-73978017D03*
%TD*%
D15*
%TO.C,C3*%
X122164000Y-149072000D03*
X122164000Y-147172000D03*
%TD*%
D12*
%TO.C,C8*%
X126987000Y-139192000D03*
X128537000Y-139192000D03*
%TD*%
D17*
%TO.C,R8*%
X124651000Y-137160000D03*
X126301000Y-137160000D03*
%TD*%
D31*
%TO.C,L1*%
X136144000Y-138730500D03*
X136144000Y-136605500D03*
%TD*%
D12*
%TO.C,C12*%
X138567000Y-131474000D03*
X140117000Y-131474000D03*
%TD*%
D32*
%TO.C,U2*%
X138428000Y-178265000D03*
X138428000Y-176995000D03*
X138428000Y-175725000D03*
X138428000Y-174455000D03*
X138428000Y-173185000D03*
X138428000Y-171915000D03*
X138428000Y-170645000D03*
X138428000Y-169375000D03*
X138428000Y-168105000D03*
X138428000Y-166835000D03*
X138428000Y-165565000D03*
X138428000Y-164295000D03*
X138428000Y-163025000D03*
X138428000Y-161755000D03*
D33*
X135643000Y-160755000D03*
X134373000Y-160755000D03*
X133103000Y-160755000D03*
X131833000Y-160755000D03*
X130563000Y-160755000D03*
X129293000Y-160755000D03*
X128023000Y-160755000D03*
X126753000Y-160755000D03*
X125483000Y-160755000D03*
X124213000Y-160755000D03*
D32*
X121428000Y-161755000D03*
X121428000Y-163025000D03*
X121428000Y-164295000D03*
X121428000Y-165565000D03*
X121428000Y-166835000D03*
X121428000Y-168105000D03*
X121428000Y-169375000D03*
X121428000Y-170645000D03*
X121428000Y-171915000D03*
X121428000Y-173185000D03*
X121428000Y-174455000D03*
X121428000Y-175725000D03*
X121428000Y-176995000D03*
X121428000Y-178265000D03*
D34*
X130928000Y-170765000D03*
%TD*%
D10*
%TO.C,R11*%
X135382000Y-115887000D03*
X135382000Y-114237000D03*
%TD*%
%TO.C,R16*%
X130638000Y-127471000D03*
X130638000Y-125821000D03*
%TD*%
D35*
%TO.C,Y1*%
X122424000Y-129778000D03*
X122424000Y-127578000D03*
X120724000Y-127578000D03*
X120724000Y-129778000D03*
%TD*%
D19*
%TO.C,H6*%
X119006000Y-195415017D03*
%TD*%
D10*
%TO.C,R14*%
X128016000Y-115887000D03*
X128016000Y-114237000D03*
%TD*%
D19*
%TO.C,H4*%
X141104000Y-21679017D03*
%TD*%
D17*
%TO.C,R9*%
X124651000Y-135382000D03*
X126301000Y-135382000D03*
%TD*%
D18*
%TO.C,R5*%
X125576000Y-129860000D03*
X125576000Y-131760000D03*
%TD*%
D10*
%TO.C,R12*%
X133604000Y-115887000D03*
X133604000Y-114237000D03*
%TD*%
D19*
%TO.C,H3*%
X119005999Y-21679017D03*
%TD*%
%TO.C,H2*%
X119006000Y-102197017D03*
%TD*%
D17*
%TO.C,R2*%
X139637000Y-92202000D03*
X141287000Y-92202000D03*
%TD*%
%TO.C,R17*%
X136335000Y-76962000D03*
X137985000Y-76962000D03*
%TD*%
%TO.C,R10*%
X135065000Y-131064000D03*
X136715000Y-131064000D03*
%TD*%
D36*
%TO.C,J7*%
X124240000Y-118340000D03*
X135670000Y-118340000D03*
D37*
X137730000Y-115290000D03*
X122180000Y-115290000D03*
D38*
X123630000Y-121720000D03*
X126170000Y-123240000D03*
X133740000Y-121720000D03*
X136280000Y-123240000D03*
D39*
X134400000Y-112000000D03*
D40*
X133130000Y-109460000D03*
X131860000Y-112000000D03*
X130590000Y-109460000D03*
X129320000Y-112000000D03*
X128050000Y-109460000D03*
X126780000Y-112000000D03*
X125510000Y-109460000D03*
%TD*%
D41*
%TO.C,J2*%
X129936000Y-104991017D03*
D42*
X129936000Y-98691017D03*
D43*
X134736000Y-102091017D03*
%TD*%
D44*
%TO.C,U6*%
X137625000Y-28767000D03*
D45*
X121343000Y-28767000D03*
X121343000Y-68433000D03*
D44*
X137625000Y-68433000D03*
%TD*%
D46*
%TO.C,SW1*%
X142374000Y-90363017D03*
X142374000Y-96863017D03*
X137874000Y-90363017D03*
X137874000Y-96863017D03*
%TD*%
%TO.C,SW2*%
X122054000Y-90363017D03*
X122054000Y-96863017D03*
X117554000Y-90363017D03*
X117554000Y-96863017D03*
%TD*%
D47*
%TO.C,J5*%
X132019000Y-20181017D03*
D48*
X133969000Y-23181017D03*
X125619000Y-23181017D03*
D47*
X127569000Y-20181017D03*
%TD*%
M02*
