%TF.GenerationSoftware,KiCad,Pcbnew,6.0.6-3a73a75311~116~ubuntu20.04.1*%
%TF.CreationDate,2022-07-20T09:27:06+02:00*%
%TF.ProjectId,MCH-light,4d43482d-6c69-4676-9874-2e6b69636164,rev?*%
%TF.SameCoordinates,Original*%
%TF.FileFunction,Legend,Bot*%
%TF.FilePolarity,Positive*%
%FSLAX46Y46*%
G04 Gerber Fmt 4.6, Leading zero omitted, Abs format (unit mm)*
G04 Created by KiCad (PCBNEW 6.0.6-3a73a75311~116~ubuntu20.04.1) date 2022-07-20 09:27:06*
%MOMM*%
%LPD*%
G01*
G04 APERTURE LIST*
%ADD10C,0.150000*%
%ADD11C,0.200000*%
%ADD12C,0.300000*%
%ADD13C,0.270000*%
%ADD14C,0.010000*%
%ADD15C,0.120000*%
G04 APERTURE END LIST*
D10*
X136600000Y-76504761D02*
X136552380Y-76409523D01*
X136552380Y-76266666D01*
X136600000Y-76123809D01*
X136695238Y-76028571D01*
X136790476Y-75980952D01*
X136980952Y-75933333D01*
X137123809Y-75933333D01*
X137314285Y-75980952D01*
X137409523Y-76028571D01*
X137504761Y-76123809D01*
X137552380Y-76266666D01*
X137552380Y-76361904D01*
X137504761Y-76504761D01*
X137457142Y-76552380D01*
X137123809Y-76552380D01*
X137123809Y-76361904D01*
X137552380Y-76980952D02*
X136552380Y-76980952D01*
X136552380Y-77361904D01*
X136600000Y-77457142D01*
X136647619Y-77504761D01*
X136742857Y-77552380D01*
X136885714Y-77552380D01*
X136980952Y-77504761D01*
X137028571Y-77457142D01*
X137076190Y-77361904D01*
X137076190Y-76980952D01*
X137552380Y-77980952D02*
X136552380Y-77980952D01*
X136552380Y-78647619D02*
X136552380Y-78838095D01*
X136600000Y-78933333D01*
X136695238Y-79028571D01*
X136885714Y-79076190D01*
X137219047Y-79076190D01*
X137409523Y-79028571D01*
X137504761Y-78933333D01*
X137552380Y-78838095D01*
X137552380Y-78647619D01*
X137504761Y-78552380D01*
X137409523Y-78457142D01*
X137219047Y-78409523D01*
X136885714Y-78409523D01*
X136695238Y-78457142D01*
X136600000Y-78552380D01*
X136552380Y-78647619D01*
X137171428Y-79504761D02*
X137171428Y-80266666D01*
X136647619Y-80695238D02*
X136600000Y-80742857D01*
X136552380Y-80838095D01*
X136552380Y-81076190D01*
X136600000Y-81171428D01*
X136647619Y-81219047D01*
X136742857Y-81266666D01*
X136838095Y-81266666D01*
X136980952Y-81219047D01*
X137552380Y-80647619D01*
X137552380Y-81266666D01*
X138861904Y-71928571D02*
X138100000Y-71928571D01*
X138480952Y-71547619D02*
X138480952Y-72309523D01*
X136861904Y-71547619D02*
X136861904Y-72547619D01*
X136623809Y-72547619D01*
X136480952Y-72500000D01*
X136385714Y-72404761D01*
X136338095Y-72309523D01*
X136290476Y-72119047D01*
X136290476Y-71976190D01*
X136338095Y-71785714D01*
X136385714Y-71690476D01*
X136480952Y-71595238D01*
X136623809Y-71547619D01*
X136861904Y-71547619D01*
X135100000Y-71928571D02*
X134338095Y-71928571D01*
X124961904Y-71928571D02*
X124200000Y-71928571D01*
X124580952Y-71547619D02*
X124580952Y-72309523D01*
X122961904Y-71547619D02*
X122961904Y-72547619D01*
X122723809Y-72547619D01*
X122580952Y-72500000D01*
X122485714Y-72404761D01*
X122438095Y-72309523D01*
X122390476Y-72119047D01*
X122390476Y-71976190D01*
X122438095Y-71785714D01*
X122485714Y-71690476D01*
X122580952Y-71595238D01*
X122723809Y-71547619D01*
X122961904Y-71547619D01*
X121200000Y-71928571D02*
X120438095Y-71928571D01*
X122100000Y-76404761D02*
X122052380Y-76309523D01*
X122052380Y-76166666D01*
X122100000Y-76023809D01*
X122195238Y-75928571D01*
X122290476Y-75880952D01*
X122480952Y-75833333D01*
X122623809Y-75833333D01*
X122814285Y-75880952D01*
X122909523Y-75928571D01*
X123004761Y-76023809D01*
X123052380Y-76166666D01*
X123052380Y-76261904D01*
X123004761Y-76404761D01*
X122957142Y-76452380D01*
X122623809Y-76452380D01*
X122623809Y-76261904D01*
X123052380Y-76880952D02*
X122052380Y-76880952D01*
X122052380Y-77261904D01*
X122100000Y-77357142D01*
X122147619Y-77404761D01*
X122242857Y-77452380D01*
X122385714Y-77452380D01*
X122480952Y-77404761D01*
X122528571Y-77357142D01*
X122576190Y-77261904D01*
X122576190Y-76880952D01*
X123052380Y-77880952D02*
X122052380Y-77880952D01*
X122052380Y-78547619D02*
X122052380Y-78738095D01*
X122100000Y-78833333D01*
X122195238Y-78928571D01*
X122385714Y-78976190D01*
X122719047Y-78976190D01*
X122909523Y-78928571D01*
X123004761Y-78833333D01*
X123052380Y-78738095D01*
X123052380Y-78547619D01*
X123004761Y-78452380D01*
X122909523Y-78357142D01*
X122719047Y-78309523D01*
X122385714Y-78309523D01*
X122195238Y-78357142D01*
X122100000Y-78452380D01*
X122052380Y-78547619D01*
X122671428Y-79404761D02*
X122671428Y-80166666D01*
X122385714Y-81071428D02*
X123052380Y-81071428D01*
X122004761Y-80833333D02*
X122719047Y-80595238D01*
X122719047Y-81214285D01*
D11*
X114336000Y-17395017D02*
X145336000Y-17395017D01*
X145336000Y-17395017D02*
X145336000Y-199295017D01*
X145336000Y-199295017D02*
X114336000Y-199295017D01*
X114336000Y-199295017D02*
X114336000Y-17395017D01*
D12*
X120357142Y-172521428D02*
X119857142Y-173235714D01*
X119500000Y-172521428D02*
X119500000Y-174021428D01*
X120071428Y-174021428D01*
X120214285Y-173950000D01*
X120285714Y-173878571D01*
X120357142Y-173735714D01*
X120357142Y-173521428D01*
X120285714Y-173378571D01*
X120214285Y-173307142D01*
X120071428Y-173235714D01*
X119500000Y-173235714D01*
X120857142Y-172521428D02*
X121642857Y-173521428D01*
X120857142Y-173521428D02*
X121642857Y-172521428D01*
D13*
X142833333Y-118400000D02*
X141433333Y-118400000D01*
X142833333Y-119000000D02*
X142100000Y-119000000D01*
X141966666Y-118933333D01*
X141900000Y-118800000D01*
X141900000Y-118600000D01*
X141966666Y-118466666D01*
X142033333Y-118400000D01*
X141900000Y-119466666D02*
X141900000Y-120000000D01*
X141433333Y-119666666D02*
X142633333Y-119666666D01*
X142766666Y-119733333D01*
X142833333Y-119866666D01*
X142833333Y-120000000D01*
X141900000Y-120266666D02*
X141900000Y-120800000D01*
X141433333Y-120466666D02*
X142633333Y-120466666D01*
X142766666Y-120533333D01*
X142833333Y-120666666D01*
X142833333Y-120800000D01*
X141900000Y-121266666D02*
X143300000Y-121266666D01*
X141966666Y-121266666D02*
X141900000Y-121400000D01*
X141900000Y-121666666D01*
X141966666Y-121800000D01*
X142033333Y-121866666D01*
X142166666Y-121933333D01*
X142566666Y-121933333D01*
X142700000Y-121866666D01*
X142766666Y-121800000D01*
X142833333Y-121666666D01*
X142833333Y-121400000D01*
X142766666Y-121266666D01*
X142766666Y-122466666D02*
X142833333Y-122600000D01*
X142833333Y-122866666D01*
X142766666Y-123000000D01*
X142633333Y-123066666D01*
X142566666Y-123066666D01*
X142433333Y-123000000D01*
X142366666Y-122866666D01*
X142366666Y-122666666D01*
X142300000Y-122533333D01*
X142166666Y-122466666D01*
X142100000Y-122466666D01*
X141966666Y-122533333D01*
X141900000Y-122666666D01*
X141900000Y-122866666D01*
X141966666Y-123000000D01*
X142700000Y-123666666D02*
X142766666Y-123733333D01*
X142833333Y-123666666D01*
X142766666Y-123600000D01*
X142700000Y-123666666D01*
X142833333Y-123666666D01*
X141966666Y-123666666D02*
X142033333Y-123733333D01*
X142100000Y-123666666D01*
X142033333Y-123600000D01*
X141966666Y-123666666D01*
X142100000Y-123666666D01*
X141366666Y-125333333D02*
X143166666Y-124133333D01*
X141366666Y-126800000D02*
X143166666Y-125600000D01*
X141900000Y-127133333D02*
X142833333Y-127400000D01*
X142166666Y-127666666D01*
X142833333Y-127933333D01*
X141900000Y-128200000D01*
X142833333Y-128733333D02*
X141900000Y-128733333D01*
X141433333Y-128733333D02*
X141500000Y-128666666D01*
X141566666Y-128733333D01*
X141500000Y-128800000D01*
X141433333Y-128733333D01*
X141566666Y-128733333D01*
X142833333Y-129400000D02*
X141433333Y-129400000D01*
X142300000Y-129533333D02*
X142833333Y-129933333D01*
X141900000Y-129933333D02*
X142433333Y-129400000D01*
X142833333Y-130533333D02*
X141900000Y-130533333D01*
X141433333Y-130533333D02*
X141500000Y-130466666D01*
X141566666Y-130533333D01*
X141500000Y-130600000D01*
X141433333Y-130533333D01*
X141566666Y-130533333D01*
X142700000Y-131200000D02*
X142766666Y-131266666D01*
X142833333Y-131200000D01*
X142766666Y-131133333D01*
X142700000Y-131200000D01*
X142833333Y-131200000D01*
X142833333Y-131866666D02*
X141900000Y-131866666D01*
X142033333Y-131866666D02*
X141966666Y-131933333D01*
X141900000Y-132066666D01*
X141900000Y-132266666D01*
X141966666Y-132400000D01*
X142100000Y-132466666D01*
X142833333Y-132466666D01*
X142100000Y-132466666D02*
X141966666Y-132533333D01*
X141900000Y-132666666D01*
X141900000Y-132866666D01*
X141966666Y-133000000D01*
X142100000Y-133066666D01*
X142833333Y-133066666D01*
X142766666Y-134333333D02*
X142833333Y-134200000D01*
X142833333Y-133933333D01*
X142766666Y-133800000D01*
X142700000Y-133733333D01*
X142566666Y-133666666D01*
X142166666Y-133666666D01*
X142033333Y-133733333D01*
X141966666Y-133800000D01*
X141900000Y-133933333D01*
X141900000Y-134200000D01*
X141966666Y-134333333D01*
X142833333Y-134933333D02*
X141433333Y-134933333D01*
X142833333Y-135533333D02*
X142100000Y-135533333D01*
X141966666Y-135466666D01*
X141900000Y-135333333D01*
X141900000Y-135133333D01*
X141966666Y-135000000D01*
X142033333Y-134933333D01*
X141566666Y-136133333D02*
X141500000Y-136200000D01*
X141433333Y-136333333D01*
X141433333Y-136666666D01*
X141500000Y-136800000D01*
X141566666Y-136866666D01*
X141700000Y-136933333D01*
X141833333Y-136933333D01*
X142033333Y-136866666D01*
X142833333Y-136066666D01*
X142833333Y-136933333D01*
X141433333Y-137800000D02*
X141433333Y-137933333D01*
X141500000Y-138066666D01*
X141566666Y-138133333D01*
X141700000Y-138200000D01*
X141966666Y-138266666D01*
X142300000Y-138266666D01*
X142566666Y-138200000D01*
X142700000Y-138133333D01*
X142766666Y-138066666D01*
X142833333Y-137933333D01*
X142833333Y-137800000D01*
X142766666Y-137666666D01*
X142700000Y-137600000D01*
X142566666Y-137533333D01*
X142300000Y-137466666D01*
X141966666Y-137466666D01*
X141700000Y-137533333D01*
X141566666Y-137600000D01*
X141500000Y-137666666D01*
X141433333Y-137800000D01*
X141566666Y-138800000D02*
X141500000Y-138866666D01*
X141433333Y-139000000D01*
X141433333Y-139333333D01*
X141500000Y-139466666D01*
X141566666Y-139533333D01*
X141700000Y-139600000D01*
X141833333Y-139600000D01*
X142033333Y-139533333D01*
X142833333Y-138733333D01*
X142833333Y-139600000D01*
X141566666Y-140133333D02*
X141500000Y-140200000D01*
X141433333Y-140333333D01*
X141433333Y-140666666D01*
X141500000Y-140800000D01*
X141566666Y-140866666D01*
X141700000Y-140933333D01*
X141833333Y-140933333D01*
X142033333Y-140866666D01*
X142833333Y-140066666D01*
X142833333Y-140933333D01*
X142700000Y-141533333D02*
X142766666Y-141600000D01*
X142833333Y-141533333D01*
X142766666Y-141466666D01*
X142700000Y-141533333D01*
X142833333Y-141533333D01*
X142833333Y-142400000D02*
X142766666Y-142266666D01*
X142700000Y-142200000D01*
X142566666Y-142133333D01*
X142166666Y-142133333D01*
X142033333Y-142200000D01*
X141966666Y-142266666D01*
X141900000Y-142400000D01*
X141900000Y-142600000D01*
X141966666Y-142733333D01*
X142033333Y-142800000D01*
X142166666Y-142866666D01*
X142566666Y-142866666D01*
X142700000Y-142800000D01*
X142766666Y-142733333D01*
X142833333Y-142600000D01*
X142833333Y-142400000D01*
X142833333Y-143466666D02*
X141900000Y-143466666D01*
X142166666Y-143466666D02*
X142033333Y-143533333D01*
X141966666Y-143600000D01*
X141900000Y-143733333D01*
X141900000Y-143866666D01*
X141900000Y-144933333D02*
X143033333Y-144933333D01*
X143166666Y-144866666D01*
X143233333Y-144800000D01*
X143300000Y-144666666D01*
X143300000Y-144466666D01*
X143233333Y-144333333D01*
X142766666Y-144933333D02*
X142833333Y-144800000D01*
X142833333Y-144533333D01*
X142766666Y-144400000D01*
X142700000Y-144333333D01*
X142566666Y-144266666D01*
X142166666Y-144266666D01*
X142033333Y-144333333D01*
X141966666Y-144400000D01*
X141900000Y-144533333D01*
X141900000Y-144800000D01*
X141966666Y-144933333D01*
X141366666Y-146600000D02*
X143166666Y-145400000D01*
X141433333Y-146866666D02*
X141433333Y-147666666D01*
X142833333Y-147266666D02*
X141433333Y-147266666D01*
X142833333Y-148133333D02*
X141900000Y-148133333D01*
X142166666Y-148133333D02*
X142033333Y-148199999D01*
X141966666Y-148266666D01*
X141900000Y-148399999D01*
X141900000Y-148533333D01*
X142833333Y-148999999D02*
X141900000Y-148999999D01*
X141433333Y-148999999D02*
X141500000Y-148933333D01*
X141566666Y-148999999D01*
X141500000Y-149066666D01*
X141433333Y-148999999D01*
X141566666Y-148999999D01*
X142833333Y-150266666D02*
X142100000Y-150266666D01*
X141966666Y-150199999D01*
X141900000Y-150066666D01*
X141900000Y-149799999D01*
X141966666Y-149666666D01*
X142766666Y-150266666D02*
X142833333Y-150133333D01*
X142833333Y-149799999D01*
X142766666Y-149666666D01*
X142633333Y-149599999D01*
X142500000Y-149599999D01*
X142366666Y-149666666D01*
X142300000Y-149799999D01*
X142300000Y-150133333D01*
X142233333Y-150266666D01*
X141900000Y-150933333D02*
X142833333Y-150933333D01*
X142033333Y-150933333D02*
X141966666Y-150999999D01*
X141900000Y-151133333D01*
X141900000Y-151333333D01*
X141966666Y-151466666D01*
X142100000Y-151533333D01*
X142833333Y-151533333D01*
X141900000Y-152799999D02*
X143033333Y-152799999D01*
X143166666Y-152733333D01*
X143233333Y-152666666D01*
X143300000Y-152533333D01*
X143300000Y-152333333D01*
X143233333Y-152199999D01*
X142766666Y-152799999D02*
X142833333Y-152666666D01*
X142833333Y-152399999D01*
X142766666Y-152266666D01*
X142700000Y-152199999D01*
X142566666Y-152133333D01*
X142166666Y-152133333D01*
X142033333Y-152199999D01*
X141966666Y-152266666D01*
X141900000Y-152399999D01*
X141900000Y-152666666D01*
X141966666Y-152799999D01*
X141900000Y-154066666D02*
X142833333Y-154066666D01*
X141900000Y-153466666D02*
X142633333Y-153466666D01*
X142766666Y-153533333D01*
X142833333Y-153666666D01*
X142833333Y-153866666D01*
X142766666Y-153999999D01*
X142700000Y-154066666D01*
X142833333Y-154933333D02*
X142766666Y-154799999D01*
X142633333Y-154733333D01*
X141433333Y-154733333D01*
X142833333Y-156066666D02*
X142100000Y-156066666D01*
X141966666Y-155999999D01*
X141900000Y-155866666D01*
X141900000Y-155599999D01*
X141966666Y-155466666D01*
X142766666Y-156066666D02*
X142833333Y-155933333D01*
X142833333Y-155599999D01*
X142766666Y-155466666D01*
X142633333Y-155399999D01*
X142500000Y-155399999D01*
X142366666Y-155466666D01*
X142300000Y-155599999D01*
X142300000Y-155933333D01*
X142233333Y-156066666D01*
X142833333Y-156733333D02*
X141900000Y-156733333D01*
X142166666Y-156733333D02*
X142033333Y-156799999D01*
X141966666Y-156866666D01*
X141900000Y-156999999D01*
X141900000Y-157133333D01*
X142966666Y-157266666D02*
X142966666Y-158333333D01*
X142100000Y-159133333D02*
X142166666Y-159333333D01*
X142233333Y-159400000D01*
X142366666Y-159466666D01*
X142566666Y-159466666D01*
X142700000Y-159400000D01*
X142766666Y-159333333D01*
X142833333Y-159200000D01*
X142833333Y-158666666D01*
X141433333Y-158666666D01*
X141433333Y-159133333D01*
X141500000Y-159266666D01*
X141566666Y-159333333D01*
X141700000Y-159400000D01*
X141833333Y-159400000D01*
X141966666Y-159333333D01*
X142033333Y-159266666D01*
X142100000Y-159133333D01*
X142100000Y-158666666D01*
X142833333Y-160066666D02*
X141900000Y-160066666D01*
X141433333Y-160066666D02*
X141500000Y-160000000D01*
X141566666Y-160066666D01*
X141500000Y-160133333D01*
X141433333Y-160066666D01*
X141566666Y-160066666D01*
X141900000Y-160733333D02*
X143300000Y-160733333D01*
X141966666Y-160733333D02*
X141900000Y-160866666D01*
X141900000Y-161133333D01*
X141966666Y-161266666D01*
X142033333Y-161333333D01*
X142166666Y-161400000D01*
X142566666Y-161400000D01*
X142700000Y-161333333D01*
X142766666Y-161266666D01*
X142833333Y-161133333D01*
X142833333Y-160866666D01*
X142766666Y-160733333D01*
X141900000Y-161866666D02*
X142833333Y-162200000D01*
X141900000Y-162533333D02*
X142833333Y-162200000D01*
X143166666Y-162066666D01*
X143233333Y-162000000D01*
X143300000Y-161866666D01*
X142833333Y-163066666D02*
X141900000Y-163066666D01*
X142166666Y-163066666D02*
X142033333Y-163133333D01*
X141966666Y-163200000D01*
X141900000Y-163333333D01*
X141900000Y-163466666D01*
X142833333Y-164533333D02*
X142100000Y-164533333D01*
X141966666Y-164466666D01*
X141900000Y-164333333D01*
X141900000Y-164066666D01*
X141966666Y-163933333D01*
X142766666Y-164533333D02*
X142833333Y-164400000D01*
X142833333Y-164066666D01*
X142766666Y-163933333D01*
X142633333Y-163866666D01*
X142500000Y-163866666D01*
X142366666Y-163933333D01*
X142300000Y-164066666D01*
X142300000Y-164400000D01*
X142233333Y-164533333D01*
X142833333Y-165200000D02*
X141900000Y-165200000D01*
X142033333Y-165200000D02*
X141966666Y-165266666D01*
X141900000Y-165400000D01*
X141900000Y-165600000D01*
X141966666Y-165733333D01*
X142100000Y-165800000D01*
X142833333Y-165800000D01*
X142100000Y-165800000D02*
X141966666Y-165866666D01*
X141900000Y-166000000D01*
X141900000Y-166200000D01*
X141966666Y-166333333D01*
X142100000Y-166400000D01*
X142833333Y-166400000D01*
X142833333Y-167066666D02*
X141900000Y-167066666D01*
X141433333Y-167066666D02*
X141500000Y-167000000D01*
X141566666Y-167066666D01*
X141500000Y-167133333D01*
X141433333Y-167066666D01*
X141566666Y-167066666D01*
X142833333Y-168333333D02*
X141433333Y-168333333D01*
X142766666Y-168333333D02*
X142833333Y-168200000D01*
X142833333Y-167933333D01*
X142766666Y-167800000D01*
X142700000Y-167733333D01*
X142566666Y-167666666D01*
X142166666Y-167666666D01*
X142033333Y-167733333D01*
X141966666Y-167800000D01*
X141900000Y-167933333D01*
X141900000Y-168200000D01*
X141966666Y-168333333D01*
X142833333Y-169600000D02*
X142100000Y-169600000D01*
X141966666Y-169533333D01*
X141900000Y-169400000D01*
X141900000Y-169133333D01*
X141966666Y-169000000D01*
X142766666Y-169600000D02*
X142833333Y-169466666D01*
X142833333Y-169133333D01*
X142766666Y-169000000D01*
X142633333Y-168933333D01*
X142500000Y-168933333D01*
X142366666Y-169000000D01*
X142300000Y-169133333D01*
X142300000Y-169466666D01*
X142233333Y-169600000D01*
X142833333Y-170466666D02*
X142766666Y-170333333D01*
X142633333Y-170266666D01*
X141433333Y-170266666D01*
X142966666Y-170666666D02*
X142966666Y-171733333D01*
X142100000Y-172066666D02*
X142100000Y-172533333D01*
X142833333Y-172733333D02*
X142833333Y-172066666D01*
X141433333Y-172066666D01*
X141433333Y-172733333D01*
X141900000Y-173133333D02*
X141900000Y-173666666D01*
X141433333Y-173333333D02*
X142633333Y-173333333D01*
X142766666Y-173400000D01*
X142833333Y-173533333D01*
X142833333Y-173666666D01*
X142833333Y-174133333D02*
X141433333Y-174133333D01*
X142833333Y-174733333D02*
X142100000Y-174733333D01*
X141966666Y-174666666D01*
X141900000Y-174533333D01*
X141900000Y-174333333D01*
X141966666Y-174200000D01*
X142033333Y-174133333D01*
X142766666Y-175933333D02*
X142833333Y-175800000D01*
X142833333Y-175533333D01*
X142766666Y-175400000D01*
X142633333Y-175333333D01*
X142100000Y-175333333D01*
X141966666Y-175400000D01*
X141900000Y-175533333D01*
X141900000Y-175800000D01*
X141966666Y-175933333D01*
X142100000Y-176000000D01*
X142233333Y-176000000D01*
X142366666Y-175333333D01*
X142833333Y-176600000D02*
X141900000Y-176600000D01*
X142166666Y-176600000D02*
X142033333Y-176666666D01*
X141966666Y-176733333D01*
X141900000Y-176866666D01*
X141900000Y-177000000D01*
X142966666Y-177133333D02*
X142966666Y-178200000D01*
X142833333Y-179200000D02*
X142833333Y-178533333D01*
X141433333Y-178533333D01*
X142833333Y-179666666D02*
X141900000Y-179666666D01*
X141433333Y-179666666D02*
X141500000Y-179600000D01*
X141566666Y-179666666D01*
X141500000Y-179733333D01*
X141433333Y-179666666D01*
X141566666Y-179666666D01*
X141900000Y-180933333D02*
X143033333Y-180933333D01*
X143166666Y-180866666D01*
X143233333Y-180800000D01*
X143300000Y-180666666D01*
X143300000Y-180466666D01*
X143233333Y-180333333D01*
X142766666Y-180933333D02*
X142833333Y-180800000D01*
X142833333Y-180533333D01*
X142766666Y-180400000D01*
X142700000Y-180333333D01*
X142566666Y-180266666D01*
X142166666Y-180266666D01*
X142033333Y-180333333D01*
X141966666Y-180400000D01*
X141900000Y-180533333D01*
X141900000Y-180800000D01*
X141966666Y-180933333D01*
X142833333Y-181600000D02*
X141433333Y-181600000D01*
X142833333Y-182200000D02*
X142100000Y-182200000D01*
X141966666Y-182133333D01*
X141900000Y-182000000D01*
X141900000Y-181800000D01*
X141966666Y-181666666D01*
X142033333Y-181600000D01*
X141900000Y-182666666D02*
X141900000Y-183200000D01*
X141433333Y-182866666D02*
X142633333Y-182866666D01*
X142766666Y-182933333D01*
X142833333Y-183066666D01*
X142833333Y-183200000D01*
D12*
X119214285Y-168921428D02*
X119714285Y-167421428D01*
X120214285Y-168921428D01*
X121357142Y-167492857D02*
X121214285Y-167421428D01*
X120928571Y-167421428D01*
X120785714Y-167492857D01*
X120714285Y-167564285D01*
X120642857Y-167707142D01*
X120642857Y-168135714D01*
X120714285Y-168278571D01*
X120785714Y-168350000D01*
X120928571Y-168421428D01*
X121214285Y-168421428D01*
X121357142Y-168350000D01*
X122642857Y-167492857D02*
X122500000Y-167421428D01*
X122214285Y-167421428D01*
X122071428Y-167492857D01*
X122000000Y-167564285D01*
X121928571Y-167707142D01*
X121928571Y-168135714D01*
X122000000Y-168278571D01*
X122071428Y-168350000D01*
X122214285Y-168421428D01*
X122500000Y-168421428D01*
X122642857Y-168350000D01*
X124285714Y-168921428D02*
X125214285Y-168921428D01*
X124714285Y-168350000D01*
X124928571Y-168350000D01*
X125071428Y-168278571D01*
X125142857Y-168207142D01*
X125214285Y-168064285D01*
X125214285Y-167707142D01*
X125142857Y-167564285D01*
X125071428Y-167492857D01*
X124928571Y-167421428D01*
X124500000Y-167421428D01*
X124357142Y-167492857D01*
X124285714Y-167564285D01*
X125857142Y-167564285D02*
X125928571Y-167492857D01*
X125857142Y-167421428D01*
X125785714Y-167492857D01*
X125857142Y-167564285D01*
X125857142Y-167421428D01*
X126428571Y-168921428D02*
X127357142Y-168921428D01*
X126857142Y-168350000D01*
X127071428Y-168350000D01*
X127214285Y-168278571D01*
X127285714Y-168207142D01*
X127357142Y-168064285D01*
X127357142Y-167707142D01*
X127285714Y-167564285D01*
X127214285Y-167492857D01*
X127071428Y-167421428D01*
X126642857Y-167421428D01*
X126500000Y-167492857D01*
X126428571Y-167564285D01*
X130214285Y-168992857D02*
X128928571Y-167064285D01*
X132571428Y-168921428D02*
X131857142Y-168921428D01*
X131785714Y-168207142D01*
X131857142Y-168278571D01*
X132000000Y-168350000D01*
X132357142Y-168350000D01*
X132500000Y-168278571D01*
X132571428Y-168207142D01*
X132642857Y-168064285D01*
X132642857Y-167707142D01*
X132571428Y-167564285D01*
X132500000Y-167492857D01*
X132357142Y-167421428D01*
X132000000Y-167421428D01*
X131857142Y-167492857D01*
X131785714Y-167564285D01*
X119264285Y-171421428D02*
X120121428Y-171421428D01*
X119692857Y-169921428D02*
X119692857Y-171421428D01*
X120478571Y-169921428D02*
X121264285Y-170921428D01*
X120478571Y-170921428D02*
X121264285Y-169921428D01*
X120257142Y-163750000D02*
X120114285Y-163821428D01*
X119900000Y-163821428D01*
X119685714Y-163750000D01*
X119542857Y-163607142D01*
X119471428Y-163464285D01*
X119400000Y-163178571D01*
X119400000Y-162964285D01*
X119471428Y-162678571D01*
X119542857Y-162535714D01*
X119685714Y-162392857D01*
X119900000Y-162321428D01*
X120042857Y-162321428D01*
X120257142Y-162392857D01*
X120328571Y-162464285D01*
X120328571Y-162964285D01*
X120042857Y-162964285D01*
X120971428Y-162321428D02*
X120971428Y-163821428D01*
X121828571Y-162321428D01*
X121828571Y-163821428D01*
X122542857Y-162321428D02*
X122542857Y-163821428D01*
X122900000Y-163821428D01*
X123114285Y-163750000D01*
X123257142Y-163607142D01*
X123328571Y-163464285D01*
X123400000Y-163178571D01*
X123400000Y-162964285D01*
X123328571Y-162678571D01*
X123257142Y-162535714D01*
X123114285Y-162392857D01*
X122900000Y-162321428D01*
X122542857Y-162321428D01*
D10*
%TO.C,J7*%
X130288333Y-105962380D02*
X130288333Y-106676666D01*
X130335952Y-106819523D01*
X130431190Y-106914761D01*
X130574047Y-106962380D01*
X130669285Y-106962380D01*
X129907380Y-105962380D02*
X129240714Y-105962380D01*
X129669285Y-106962380D01*
%TO.C,J2*%
X130169333Y-101443397D02*
X130169333Y-102157683D01*
X130216952Y-102300540D01*
X130312190Y-102395778D01*
X130455047Y-102443397D01*
X130550285Y-102443397D01*
X129740761Y-101538636D02*
X129693142Y-101491017D01*
X129597904Y-101443397D01*
X129359809Y-101443397D01*
X129264571Y-101491017D01*
X129216952Y-101538636D01*
X129169333Y-101633874D01*
X129169333Y-101729112D01*
X129216952Y-101871969D01*
X129788380Y-102443397D01*
X129169333Y-102443397D01*
%TO.C,U6*%
X130492380Y-40504095D02*
X131301904Y-40504095D01*
X131397142Y-40551714D01*
X131444761Y-40599333D01*
X131492380Y-40694571D01*
X131492380Y-40885047D01*
X131444761Y-40980285D01*
X131397142Y-41027904D01*
X131301904Y-41075523D01*
X130492380Y-41075523D01*
X130492380Y-41980285D02*
X130492380Y-41789809D01*
X130540000Y-41694571D01*
X130587619Y-41646952D01*
X130730476Y-41551714D01*
X130920952Y-41504095D01*
X131301904Y-41504095D01*
X131397142Y-41551714D01*
X131444761Y-41599333D01*
X131492380Y-41694571D01*
X131492380Y-41885047D01*
X131444761Y-41980285D01*
X131397142Y-42027904D01*
X131301904Y-42075523D01*
X131063809Y-42075523D01*
X130968571Y-42027904D01*
X130920952Y-41980285D01*
X130873333Y-41885047D01*
X130873333Y-41694571D01*
X130920952Y-41599333D01*
X130968571Y-41551714D01*
X131063809Y-41504095D01*
X136178142Y-35324904D02*
X136225761Y-35277285D01*
X136273380Y-35134428D01*
X136273380Y-35039190D01*
X136225761Y-34896333D01*
X136130523Y-34801095D01*
X136035285Y-34753476D01*
X135844809Y-34705857D01*
X135701952Y-34705857D01*
X135511476Y-34753476D01*
X135416238Y-34801095D01*
X135321000Y-34896333D01*
X135273380Y-35039190D01*
X135273380Y-35134428D01*
X135321000Y-35277285D01*
X135368619Y-35324904D01*
X136273380Y-35896333D02*
X136225761Y-35801095D01*
X136178142Y-35753476D01*
X136082904Y-35705857D01*
X135797190Y-35705857D01*
X135701952Y-35753476D01*
X135654333Y-35801095D01*
X135606714Y-35896333D01*
X135606714Y-36039190D01*
X135654333Y-36134428D01*
X135701952Y-36182047D01*
X135797190Y-36229666D01*
X136082904Y-36229666D01*
X136178142Y-36182047D01*
X136225761Y-36134428D01*
X136273380Y-36039190D01*
X136273380Y-35896333D01*
X136273380Y-36658238D02*
X135606714Y-36658238D01*
X135701952Y-36658238D02*
X135654333Y-36705857D01*
X135606714Y-36801095D01*
X135606714Y-36943952D01*
X135654333Y-37039190D01*
X135749571Y-37086809D01*
X136273380Y-37086809D01*
X135749571Y-37086809D02*
X135654333Y-37134428D01*
X135606714Y-37229666D01*
X135606714Y-37372523D01*
X135654333Y-37467761D01*
X135749571Y-37515380D01*
X136273380Y-37515380D01*
X135606714Y-37991571D02*
X136606714Y-37991571D01*
X135654333Y-37991571D02*
X135606714Y-38086809D01*
X135606714Y-38277285D01*
X135654333Y-38372523D01*
X135701952Y-38420142D01*
X135797190Y-38467761D01*
X136082904Y-38467761D01*
X136178142Y-38420142D01*
X136225761Y-38372523D01*
X136273380Y-38277285D01*
X136273380Y-38086809D01*
X136225761Y-37991571D01*
X136273380Y-39039190D02*
X136225761Y-38943952D01*
X136178142Y-38896333D01*
X136082904Y-38848714D01*
X135797190Y-38848714D01*
X135701952Y-38896333D01*
X135654333Y-38943952D01*
X135606714Y-39039190D01*
X135606714Y-39182047D01*
X135654333Y-39277285D01*
X135701952Y-39324904D01*
X135797190Y-39372523D01*
X136082904Y-39372523D01*
X136178142Y-39324904D01*
X136225761Y-39277285D01*
X136273380Y-39182047D01*
X136273380Y-39039190D01*
X135606714Y-39801095D02*
X136273380Y-39801095D01*
X135701952Y-39801095D02*
X135654333Y-39848714D01*
X135606714Y-39943952D01*
X135606714Y-40086809D01*
X135654333Y-40182047D01*
X135749571Y-40229666D01*
X136273380Y-40229666D01*
X136225761Y-41086809D02*
X136273380Y-40991571D01*
X136273380Y-40801095D01*
X136225761Y-40705857D01*
X136130523Y-40658238D01*
X135749571Y-40658238D01*
X135654333Y-40705857D01*
X135606714Y-40801095D01*
X135606714Y-40991571D01*
X135654333Y-41086809D01*
X135749571Y-41134428D01*
X135844809Y-41134428D01*
X135940047Y-40658238D01*
X135606714Y-41563000D02*
X136273380Y-41563000D01*
X135701952Y-41563000D02*
X135654333Y-41610619D01*
X135606714Y-41705857D01*
X135606714Y-41848714D01*
X135654333Y-41943952D01*
X135749571Y-41991571D01*
X136273380Y-41991571D01*
X135606714Y-42324904D02*
X135606714Y-42705857D01*
X135273380Y-42467761D02*
X136130523Y-42467761D01*
X136225761Y-42515380D01*
X136273380Y-42610619D01*
X136273380Y-42705857D01*
X136225761Y-43753476D02*
X136273380Y-43848714D01*
X136273380Y-44039190D01*
X136225761Y-44134428D01*
X136130523Y-44182047D01*
X136082904Y-44182047D01*
X135987666Y-44134428D01*
X135940047Y-44039190D01*
X135940047Y-43896333D01*
X135892428Y-43801095D01*
X135797190Y-43753476D01*
X135749571Y-43753476D01*
X135654333Y-43801095D01*
X135606714Y-43896333D01*
X135606714Y-44039190D01*
X135654333Y-44134428D01*
X136273380Y-44610619D02*
X135606714Y-44610619D01*
X135273380Y-44610619D02*
X135321000Y-44562999D01*
X135368619Y-44610619D01*
X135321000Y-44658238D01*
X135273380Y-44610619D01*
X135368619Y-44610619D01*
X136273380Y-45515380D02*
X135273380Y-45515380D01*
X136225761Y-45515380D02*
X136273380Y-45420142D01*
X136273380Y-45229666D01*
X136225761Y-45134428D01*
X136178142Y-45086809D01*
X136082904Y-45039190D01*
X135797190Y-45039190D01*
X135701952Y-45086809D01*
X135654333Y-45134428D01*
X135606714Y-45229666D01*
X135606714Y-45420142D01*
X135654333Y-45515380D01*
X136225761Y-46372523D02*
X136273380Y-46277285D01*
X136273380Y-46086809D01*
X136225761Y-45991571D01*
X136130523Y-45943952D01*
X135749571Y-45943952D01*
X135654333Y-45991571D01*
X135606714Y-46086809D01*
X135606714Y-46277285D01*
X135654333Y-46372523D01*
X135749571Y-46420142D01*
X135844809Y-46420142D01*
X135940047Y-45943952D01*
X135606714Y-48039190D02*
X136273380Y-48039190D01*
X135606714Y-47610619D02*
X136130523Y-47610619D01*
X136225761Y-47658238D01*
X136273380Y-47753476D01*
X136273380Y-47896333D01*
X136225761Y-47991571D01*
X136178142Y-48039190D01*
X135606714Y-48515380D02*
X136606714Y-48515380D01*
X135654333Y-48515380D02*
X135606714Y-48610619D01*
X135606714Y-48801095D01*
X135654333Y-48896333D01*
X135701952Y-48943952D01*
X135797190Y-48991571D01*
X136082904Y-48991571D01*
X136178142Y-48943952D01*
X136225761Y-48896333D01*
X136273380Y-48801095D01*
X136273380Y-48610619D01*
X136225761Y-48515380D01*
X136178142Y-49420142D02*
X136225761Y-49467761D01*
X136273380Y-49420142D01*
X136225761Y-49372523D01*
X136178142Y-49420142D01*
X136273380Y-49420142D01*
X136273380Y-50801095D02*
X136225761Y-50705857D01*
X136178142Y-50658238D01*
X136082904Y-50610619D01*
X135797190Y-50610619D01*
X135701952Y-50658238D01*
X135654333Y-50705857D01*
X135606714Y-50801095D01*
X135606714Y-50943952D01*
X135654333Y-51039190D01*
X135701952Y-51086809D01*
X135797190Y-51134428D01*
X136082904Y-51134428D01*
X136178142Y-51086809D01*
X136225761Y-51039190D01*
X136273380Y-50943952D01*
X136273380Y-50801095D01*
X135606714Y-51562999D02*
X136273380Y-51562999D01*
X135701952Y-51562999D02*
X135654333Y-51610619D01*
X135606714Y-51705857D01*
X135606714Y-51848714D01*
X135654333Y-51943952D01*
X135749571Y-51991571D01*
X136273380Y-51991571D01*
X135606714Y-52324904D02*
X135606714Y-52705857D01*
X135273380Y-52467761D02*
X136130523Y-52467761D01*
X136225761Y-52515380D01*
X136273380Y-52610619D01*
X136273380Y-52705857D01*
X136273380Y-53182047D02*
X136225761Y-53086809D01*
X136178142Y-53039190D01*
X136082904Y-52991571D01*
X135797190Y-52991571D01*
X135701952Y-53039190D01*
X135654333Y-53086809D01*
X135606714Y-53182047D01*
X135606714Y-53324904D01*
X135654333Y-53420142D01*
X135701952Y-53467761D01*
X135797190Y-53515380D01*
X136082904Y-53515380D01*
X136178142Y-53467761D01*
X136225761Y-53420142D01*
X136273380Y-53324904D01*
X136273380Y-53182047D01*
X135606714Y-53943952D02*
X136606714Y-53943952D01*
X135654333Y-53943952D02*
X135606714Y-54039190D01*
X135606714Y-54229666D01*
X135654333Y-54324904D01*
X135701952Y-54372523D01*
X135797190Y-54420142D01*
X136082904Y-54420142D01*
X136178142Y-54372523D01*
X136225761Y-54324904D01*
X136273380Y-54229666D01*
X136273380Y-54039190D01*
X136225761Y-53943952D01*
X136273380Y-55753476D02*
X136225761Y-55658238D01*
X136178142Y-55610619D01*
X136082904Y-55562999D01*
X135797190Y-55562999D01*
X135701952Y-55610619D01*
X135654333Y-55658238D01*
X135606714Y-55753476D01*
X135606714Y-55896333D01*
X135654333Y-55991571D01*
X135701952Y-56039190D01*
X135797190Y-56086809D01*
X136082904Y-56086809D01*
X136178142Y-56039190D01*
X136225761Y-55991571D01*
X136273380Y-55896333D01*
X136273380Y-55753476D01*
X135606714Y-56372523D02*
X135606714Y-56753476D01*
X136273380Y-56515380D02*
X135416238Y-56515380D01*
X135321000Y-56562999D01*
X135273380Y-56658238D01*
X135273380Y-56753476D01*
X136273380Y-57848714D02*
X135273380Y-57848714D01*
X135273380Y-58229666D01*
X135321000Y-58324904D01*
X135368619Y-58372523D01*
X135463857Y-58420142D01*
X135606714Y-58420142D01*
X135701952Y-58372523D01*
X135749571Y-58324904D01*
X135797190Y-58229666D01*
X135797190Y-57848714D01*
X136178142Y-59420142D02*
X136225761Y-59372523D01*
X136273380Y-59229666D01*
X136273380Y-59134428D01*
X136225761Y-58991571D01*
X136130523Y-58896333D01*
X136035285Y-58848714D01*
X135844809Y-58801095D01*
X135701952Y-58801095D01*
X135511476Y-58848714D01*
X135416238Y-58896333D01*
X135321000Y-58991571D01*
X135273380Y-59134428D01*
X135273380Y-59229666D01*
X135321000Y-59372523D01*
X135368619Y-59420142D01*
X135749571Y-60182047D02*
X135797190Y-60324904D01*
X135844809Y-60372523D01*
X135940047Y-60420142D01*
X136082904Y-60420142D01*
X136178142Y-60372523D01*
X136225761Y-60324904D01*
X136273380Y-60229666D01*
X136273380Y-59848714D01*
X135273380Y-59848714D01*
X135273380Y-60182047D01*
X135321000Y-60277285D01*
X135368619Y-60324904D01*
X135463857Y-60372523D01*
X135559095Y-60372523D01*
X135654333Y-60324904D01*
X135701952Y-60277285D01*
X135749571Y-60182047D01*
X135749571Y-59848714D01*
X136090047Y-68208428D02*
X135328142Y-68208428D01*
X135709095Y-68589380D02*
X135709095Y-67827476D01*
X134090047Y-68208428D02*
X133328142Y-68208428D01*
X132851952Y-68208428D02*
X132090047Y-68208428D01*
X130994809Y-67589380D02*
X130661476Y-68589380D01*
X130328142Y-67589380D01*
X129851952Y-68589380D02*
X129947190Y-68541761D01*
X129994809Y-68494142D01*
X130042428Y-68398904D01*
X130042428Y-68113190D01*
X129994809Y-68017952D01*
X129947190Y-67970333D01*
X129851952Y-67922714D01*
X129709095Y-67922714D01*
X129613857Y-67970333D01*
X129566238Y-68017952D01*
X129518619Y-68113190D01*
X129518619Y-68398904D01*
X129566238Y-68494142D01*
X129613857Y-68541761D01*
X129709095Y-68589380D01*
X129851952Y-68589380D01*
X128661476Y-67922714D02*
X128661476Y-68589380D01*
X129090047Y-67922714D02*
X129090047Y-68446523D01*
X129042428Y-68541761D01*
X128947190Y-68589380D01*
X128804333Y-68589380D01*
X128709095Y-68541761D01*
X128661476Y-68494142D01*
X128328142Y-67922714D02*
X127947190Y-67922714D01*
X128185285Y-67589380D02*
X128185285Y-68446523D01*
X128137666Y-68541761D01*
X128042428Y-68589380D01*
X127947190Y-68589380D01*
X126851952Y-68208428D02*
X126090047Y-68208428D01*
X125613857Y-68208428D02*
X124851952Y-68208428D01*
X123613857Y-68208428D02*
X122851952Y-68208428D01*
X122303380Y-41602904D02*
X121303380Y-41602904D01*
X121684333Y-41602904D02*
X121636714Y-41698142D01*
X121636714Y-41888619D01*
X121684333Y-41983857D01*
X121731952Y-42031476D01*
X121827190Y-42079095D01*
X122112904Y-42079095D01*
X122208142Y-42031476D01*
X122255761Y-41983857D01*
X122303380Y-41888619D01*
X122303380Y-41698142D01*
X122255761Y-41602904D01*
X122303380Y-42650523D02*
X122255761Y-42555285D01*
X122208142Y-42507666D01*
X122112904Y-42460047D01*
X121827190Y-42460047D01*
X121731952Y-42507666D01*
X121684333Y-42555285D01*
X121636714Y-42650523D01*
X121636714Y-42793380D01*
X121684333Y-42888619D01*
X121731952Y-42936238D01*
X121827190Y-42983857D01*
X122112904Y-42983857D01*
X122208142Y-42936238D01*
X122255761Y-42888619D01*
X122303380Y-42793380D01*
X122303380Y-42650523D01*
X121636714Y-43269571D02*
X121636714Y-43650523D01*
X121303380Y-43412428D02*
X122160523Y-43412428D01*
X122255761Y-43460047D01*
X122303380Y-43555285D01*
X122303380Y-43650523D01*
X121636714Y-43841000D02*
X121636714Y-44221952D01*
X121303380Y-43983857D02*
X122160523Y-43983857D01*
X122255761Y-44031476D01*
X122303380Y-44126714D01*
X122303380Y-44221952D01*
X122303380Y-44698142D02*
X122255761Y-44602904D01*
X122208142Y-44555285D01*
X122112904Y-44507666D01*
X121827190Y-44507666D01*
X121731952Y-44555285D01*
X121684333Y-44602904D01*
X121636714Y-44698142D01*
X121636714Y-44841000D01*
X121684333Y-44936238D01*
X121731952Y-44983857D01*
X121827190Y-45031476D01*
X122112904Y-45031476D01*
X122208142Y-44983857D01*
X122255761Y-44936238D01*
X122303380Y-44841000D01*
X122303380Y-44698142D01*
X122303380Y-45460047D02*
X121636714Y-45460047D01*
X121731952Y-45460047D02*
X121684333Y-45507666D01*
X121636714Y-45602904D01*
X121636714Y-45745761D01*
X121684333Y-45841000D01*
X121779571Y-45888619D01*
X122303380Y-45888619D01*
X121779571Y-45888619D02*
X121684333Y-45936238D01*
X121636714Y-46031476D01*
X121636714Y-46174333D01*
X121684333Y-46269571D01*
X121779571Y-46317190D01*
X122303380Y-46317190D01*
X122255761Y-47507666D02*
X122303380Y-47602904D01*
X122303380Y-47793380D01*
X122255761Y-47888619D01*
X122160523Y-47936238D01*
X122112904Y-47936238D01*
X122017666Y-47888619D01*
X121970047Y-47793380D01*
X121970047Y-47650523D01*
X121922428Y-47555285D01*
X121827190Y-47507666D01*
X121779571Y-47507666D01*
X121684333Y-47555285D01*
X121636714Y-47650523D01*
X121636714Y-47793380D01*
X121684333Y-47888619D01*
X122303380Y-48364809D02*
X121636714Y-48364809D01*
X121303380Y-48364809D02*
X121351000Y-48317190D01*
X121398619Y-48364809D01*
X121351000Y-48412428D01*
X121303380Y-48364809D01*
X121398619Y-48364809D01*
X122303380Y-49269571D02*
X121303380Y-49269571D01*
X122255761Y-49269571D02*
X122303380Y-49174333D01*
X122303380Y-48983857D01*
X122255761Y-48888619D01*
X122208142Y-48841000D01*
X122112904Y-48793380D01*
X121827190Y-48793380D01*
X121731952Y-48841000D01*
X121684333Y-48888619D01*
X121636714Y-48983857D01*
X121636714Y-49174333D01*
X121684333Y-49269571D01*
X122255761Y-50126714D02*
X122303380Y-50031476D01*
X122303380Y-49841000D01*
X122255761Y-49745761D01*
X122160523Y-49698142D01*
X121779571Y-49698142D01*
X121684333Y-49745761D01*
X121636714Y-49841000D01*
X121636714Y-50031476D01*
X121684333Y-50126714D01*
X121779571Y-50174333D01*
X121874809Y-50174333D01*
X121970047Y-49698142D01*
X122255761Y-50650523D02*
X122303380Y-50650523D01*
X122398619Y-50602904D01*
X122446238Y-50555285D01*
X121636714Y-51698142D02*
X121636714Y-52079095D01*
X121303380Y-51841000D02*
X122160523Y-51841000D01*
X122255761Y-51888619D01*
X122303380Y-51983857D01*
X122303380Y-52079095D01*
X122303380Y-52555285D02*
X122255761Y-52460047D01*
X122208142Y-52412428D01*
X122112904Y-52364809D01*
X121827190Y-52364809D01*
X121731952Y-52412428D01*
X121684333Y-52460047D01*
X121636714Y-52555285D01*
X121636714Y-52698142D01*
X121684333Y-52793380D01*
X121731952Y-52841000D01*
X121827190Y-52888619D01*
X122112904Y-52888619D01*
X122208142Y-52841000D01*
X122255761Y-52793380D01*
X122303380Y-52698142D01*
X122303380Y-52555285D01*
X122303380Y-54079095D02*
X121303380Y-54079095D01*
X121303380Y-54460047D01*
X121351000Y-54555285D01*
X121398619Y-54602904D01*
X121493857Y-54650523D01*
X121636714Y-54650523D01*
X121731952Y-54602904D01*
X121779571Y-54555285D01*
X121827190Y-54460047D01*
X121827190Y-54079095D01*
X122208142Y-55650523D02*
X122255761Y-55602904D01*
X122303380Y-55460047D01*
X122303380Y-55364809D01*
X122255761Y-55221952D01*
X122160523Y-55126714D01*
X122065285Y-55079095D01*
X121874809Y-55031476D01*
X121731952Y-55031476D01*
X121541476Y-55079095D01*
X121446238Y-55126714D01*
X121351000Y-55221952D01*
X121303380Y-55364809D01*
X121303380Y-55460047D01*
X121351000Y-55602904D01*
X121398619Y-55650523D01*
X121779571Y-56412428D02*
X121827190Y-56555285D01*
X121874809Y-56602904D01*
X121970047Y-56650523D01*
X122112904Y-56650523D01*
X122208142Y-56602904D01*
X122255761Y-56555285D01*
X122303380Y-56460047D01*
X122303380Y-56079095D01*
X121303380Y-56079095D01*
X121303380Y-56412428D01*
X121351000Y-56507666D01*
X121398619Y-56555285D01*
X121493857Y-56602904D01*
X121589095Y-56602904D01*
X121684333Y-56555285D01*
X121731952Y-56507666D01*
X121779571Y-56412428D01*
X121779571Y-56079095D01*
X122208142Y-57079095D02*
X122255761Y-57126714D01*
X122303380Y-57079095D01*
X122255761Y-57031476D01*
X122208142Y-57079095D01*
X122303380Y-57079095D01*
X135590047Y-28838428D02*
X134828142Y-28838428D01*
X135209095Y-29219380D02*
X135209095Y-28457476D01*
X133590047Y-28838428D02*
X132828142Y-28838428D01*
X132351952Y-28838428D02*
X131590047Y-28838428D01*
X130494809Y-28219380D02*
X130161476Y-29219380D01*
X129828142Y-28219380D01*
X129494809Y-29219380D02*
X129494809Y-28552714D01*
X129494809Y-28219380D02*
X129542428Y-28267000D01*
X129494809Y-28314619D01*
X129447190Y-28267000D01*
X129494809Y-28219380D01*
X129494809Y-28314619D01*
X129018619Y-28552714D02*
X129018619Y-29219380D01*
X129018619Y-28647952D02*
X128971000Y-28600333D01*
X128875761Y-28552714D01*
X128732904Y-28552714D01*
X128637666Y-28600333D01*
X128590047Y-28695571D01*
X128590047Y-29219380D01*
X127351952Y-28838428D02*
X126590047Y-28838428D01*
X126113857Y-28838428D02*
X125351952Y-28838428D01*
X124113857Y-28838428D02*
X123351952Y-28838428D01*
X128653380Y-41047000D02*
X128653380Y-40570809D01*
X127653380Y-40570809D01*
X128653380Y-41380333D02*
X127653380Y-41380333D01*
X128367666Y-41713666D01*
X127653380Y-42047000D01*
X128653380Y-42047000D01*
X127748619Y-42475571D02*
X127701000Y-42523190D01*
X127653380Y-42618428D01*
X127653380Y-42856523D01*
X127701000Y-42951761D01*
X127748619Y-42999380D01*
X127843857Y-43047000D01*
X127939095Y-43047000D01*
X128081952Y-42999380D01*
X128653380Y-42427952D01*
X128653380Y-43047000D01*
X127653380Y-43951761D02*
X127653380Y-43475571D01*
X128129571Y-43427952D01*
X128081952Y-43475571D01*
X128034333Y-43570809D01*
X128034333Y-43808904D01*
X128081952Y-43904142D01*
X128129571Y-43951761D01*
X128224809Y-43999380D01*
X128462904Y-43999380D01*
X128558142Y-43951761D01*
X128605761Y-43904142D01*
X128653380Y-43808904D01*
X128653380Y-43570809D01*
X128605761Y-43475571D01*
X128558142Y-43427952D01*
X128653380Y-44475571D02*
X128653380Y-44666047D01*
X128605761Y-44761285D01*
X128558142Y-44808904D01*
X128415285Y-44904142D01*
X128224809Y-44951761D01*
X127843857Y-44951761D01*
X127748619Y-44904142D01*
X127701000Y-44856523D01*
X127653380Y-44761285D01*
X127653380Y-44570809D01*
X127701000Y-44475571D01*
X127748619Y-44427952D01*
X127843857Y-44380333D01*
X128081952Y-44380333D01*
X128177190Y-44427952D01*
X128224809Y-44475571D01*
X128272428Y-44570809D01*
X128272428Y-44761285D01*
X128224809Y-44856523D01*
X128177190Y-44904142D01*
X128081952Y-44951761D01*
X127653380Y-45808904D02*
X127653380Y-45618428D01*
X127701000Y-45523190D01*
X127748619Y-45475571D01*
X127891476Y-45380333D01*
X128081952Y-45332714D01*
X128462904Y-45332714D01*
X128558142Y-45380333D01*
X128605761Y-45427952D01*
X128653380Y-45523190D01*
X128653380Y-45713666D01*
X128605761Y-45808904D01*
X128558142Y-45856523D01*
X128462904Y-45904142D01*
X128224809Y-45904142D01*
X128129571Y-45856523D01*
X128081952Y-45808904D01*
X128034333Y-45713666D01*
X128034333Y-45523190D01*
X128081952Y-45427952D01*
X128129571Y-45380333D01*
X128224809Y-45332714D01*
X128272428Y-46332714D02*
X128272428Y-47094619D01*
X128653380Y-47570809D02*
X127986714Y-47570809D01*
X128081952Y-47570809D02*
X128034333Y-47618428D01*
X127986714Y-47713666D01*
X127986714Y-47856523D01*
X128034333Y-47951761D01*
X128129571Y-47999380D01*
X128653380Y-47999380D01*
X128129571Y-47999380D02*
X128034333Y-48047000D01*
X127986714Y-48142238D01*
X127986714Y-48285095D01*
X128034333Y-48380333D01*
X128129571Y-48427952D01*
X128653380Y-48427952D01*
X128653380Y-49047000D02*
X128605761Y-48951761D01*
X128558142Y-48904142D01*
X128462904Y-48856523D01*
X128177190Y-48856523D01*
X128081952Y-48904142D01*
X128034333Y-48951761D01*
X127986714Y-49047000D01*
X127986714Y-49189857D01*
X128034333Y-49285095D01*
X128081952Y-49332714D01*
X128177190Y-49380333D01*
X128462904Y-49380333D01*
X128558142Y-49332714D01*
X128605761Y-49285095D01*
X128653380Y-49189857D01*
X128653380Y-49047000D01*
X128653380Y-50237476D02*
X127653380Y-50237476D01*
X128605761Y-50237476D02*
X128653380Y-50142238D01*
X128653380Y-49951761D01*
X128605761Y-49856523D01*
X128558142Y-49808904D01*
X128462904Y-49761285D01*
X128177190Y-49761285D01*
X128081952Y-49808904D01*
X128034333Y-49856523D01*
X127986714Y-49951761D01*
X127986714Y-50142238D01*
X128034333Y-50237476D01*
X127986714Y-51142238D02*
X128653380Y-51142238D01*
X127986714Y-50713666D02*
X128510523Y-50713666D01*
X128605761Y-50761285D01*
X128653380Y-50856523D01*
X128653380Y-50999380D01*
X128605761Y-51094619D01*
X128558142Y-51142238D01*
X128653380Y-51761285D02*
X128605761Y-51666047D01*
X128510523Y-51618428D01*
X127653380Y-51618428D01*
X128605761Y-52523190D02*
X128653380Y-52427952D01*
X128653380Y-52237476D01*
X128605761Y-52142238D01*
X128510523Y-52094619D01*
X128129571Y-52094619D01*
X128034333Y-52142238D01*
X127986714Y-52237476D01*
X127986714Y-52427952D01*
X128034333Y-52523190D01*
X128129571Y-52570809D01*
X128224809Y-52570809D01*
X128320047Y-52094619D01*
%TO.C,SW1*%
X144778761Y-92279683D02*
X144826380Y-92422540D01*
X144826380Y-92660636D01*
X144778761Y-92755874D01*
X144731142Y-92803493D01*
X144635904Y-92851112D01*
X144540666Y-92851112D01*
X144445428Y-92803493D01*
X144397809Y-92755874D01*
X144350190Y-92660636D01*
X144302571Y-92470159D01*
X144254952Y-92374921D01*
X144207333Y-92327302D01*
X144112095Y-92279683D01*
X144016857Y-92279683D01*
X143921619Y-92327302D01*
X143874000Y-92374921D01*
X143826380Y-92470159D01*
X143826380Y-92708255D01*
X143874000Y-92851112D01*
X143826380Y-93184445D02*
X144826380Y-93422540D01*
X144112095Y-93613017D01*
X144826380Y-93803493D01*
X143826380Y-94041588D01*
X144826380Y-94946350D02*
X144826380Y-94374921D01*
X144826380Y-94660636D02*
X143826380Y-94660636D01*
X143969238Y-94565397D01*
X144064476Y-94470159D01*
X144112095Y-94374921D01*
X141651112Y-88478380D02*
X141984445Y-88002190D01*
X142222540Y-88478380D02*
X142222540Y-87478380D01*
X141841588Y-87478380D01*
X141746350Y-87526000D01*
X141698731Y-87573619D01*
X141651112Y-87668857D01*
X141651112Y-87811714D01*
X141698731Y-87906952D01*
X141746350Y-87954571D01*
X141841588Y-88002190D01*
X142222540Y-88002190D01*
X140841588Y-88430761D02*
X140936826Y-88478380D01*
X141127302Y-88478380D01*
X141222540Y-88430761D01*
X141270159Y-88335523D01*
X141270159Y-87954571D01*
X141222540Y-87859333D01*
X141127302Y-87811714D01*
X140936826Y-87811714D01*
X140841588Y-87859333D01*
X140793969Y-87954571D01*
X140793969Y-88049809D01*
X141270159Y-88145047D01*
X140413017Y-88430761D02*
X140317778Y-88478380D01*
X140127302Y-88478380D01*
X140032064Y-88430761D01*
X139984445Y-88335523D01*
X139984445Y-88287904D01*
X140032064Y-88192666D01*
X140127302Y-88145047D01*
X140270159Y-88145047D01*
X140365397Y-88097428D01*
X140413017Y-88002190D01*
X140413017Y-87954571D01*
X140365397Y-87859333D01*
X140270159Y-87811714D01*
X140127302Y-87811714D01*
X140032064Y-87859333D01*
X139174921Y-88430761D02*
X139270159Y-88478380D01*
X139460636Y-88478380D01*
X139555874Y-88430761D01*
X139603493Y-88335523D01*
X139603493Y-87954571D01*
X139555874Y-87859333D01*
X139460636Y-87811714D01*
X139270159Y-87811714D01*
X139174921Y-87859333D01*
X139127302Y-87954571D01*
X139127302Y-88049809D01*
X139603493Y-88145047D01*
X138841588Y-87811714D02*
X138460636Y-87811714D01*
X138698731Y-87478380D02*
X138698731Y-88335523D01*
X138651112Y-88430761D01*
X138555874Y-88478380D01*
X138460636Y-88478380D01*
%TO.C,SW2*%
X124458761Y-92279683D02*
X124506380Y-92422540D01*
X124506380Y-92660636D01*
X124458761Y-92755874D01*
X124411142Y-92803493D01*
X124315904Y-92851112D01*
X124220666Y-92851112D01*
X124125428Y-92803493D01*
X124077809Y-92755874D01*
X124030190Y-92660636D01*
X123982571Y-92470159D01*
X123934952Y-92374921D01*
X123887333Y-92327302D01*
X123792095Y-92279683D01*
X123696857Y-92279683D01*
X123601619Y-92327302D01*
X123554000Y-92374921D01*
X123506380Y-92470159D01*
X123506380Y-92708255D01*
X123554000Y-92851112D01*
X123506380Y-93184445D02*
X124506380Y-93422540D01*
X123792095Y-93613017D01*
X124506380Y-93803493D01*
X123506380Y-94041588D01*
X123601619Y-94374921D02*
X123554000Y-94422540D01*
X123506380Y-94517778D01*
X123506380Y-94755874D01*
X123554000Y-94851112D01*
X123601619Y-94898731D01*
X123696857Y-94946350D01*
X123792095Y-94946350D01*
X123934952Y-94898731D01*
X124506380Y-94327302D01*
X124506380Y-94946350D01*
X123927302Y-87874571D02*
X123784445Y-87922190D01*
X123736826Y-87969809D01*
X123689207Y-88065047D01*
X123689207Y-88207904D01*
X123736826Y-88303142D01*
X123784445Y-88350761D01*
X123879683Y-88398380D01*
X124260636Y-88398380D01*
X124260636Y-87398380D01*
X123927302Y-87398380D01*
X123832064Y-87446000D01*
X123784445Y-87493619D01*
X123736826Y-87588857D01*
X123736826Y-87684095D01*
X123784445Y-87779333D01*
X123832064Y-87826952D01*
X123927302Y-87874571D01*
X124260636Y-87874571D01*
X122832064Y-87731714D02*
X122832064Y-88398380D01*
X123260636Y-87731714D02*
X123260636Y-88255523D01*
X123213017Y-88350761D01*
X123117778Y-88398380D01*
X122974921Y-88398380D01*
X122879683Y-88350761D01*
X122832064Y-88303142D01*
X122498731Y-87731714D02*
X122117778Y-87731714D01*
X122355874Y-87398380D02*
X122355874Y-88255523D01*
X122308255Y-88350761D01*
X122213017Y-88398380D01*
X122117778Y-88398380D01*
X121927302Y-87731714D02*
X121546350Y-87731714D01*
X121784445Y-87398380D02*
X121784445Y-88255523D01*
X121736826Y-88350761D01*
X121641588Y-88398380D01*
X121546350Y-88398380D01*
X121070159Y-88398380D02*
X121165397Y-88350761D01*
X121213017Y-88303142D01*
X121260636Y-88207904D01*
X121260636Y-87922190D01*
X121213017Y-87826952D01*
X121165397Y-87779333D01*
X121070159Y-87731714D01*
X120927302Y-87731714D01*
X120832064Y-87779333D01*
X120784445Y-87826952D01*
X120736826Y-87922190D01*
X120736826Y-88207904D01*
X120784445Y-88303142D01*
X120832064Y-88350761D01*
X120927302Y-88398380D01*
X121070159Y-88398380D01*
X120308255Y-87731714D02*
X120308255Y-88398380D01*
X120308255Y-87826952D02*
X120260636Y-87779333D01*
X120165397Y-87731714D01*
X120022540Y-87731714D01*
X119927302Y-87779333D01*
X119879683Y-87874571D01*
X119879683Y-88398380D01*
X118641588Y-88017428D02*
X117879683Y-88017428D01*
X116451112Y-87398380D02*
X116355874Y-87398380D01*
X116260636Y-87446000D01*
X116213017Y-87493619D01*
X116165397Y-87588857D01*
X116117778Y-87779333D01*
X116117778Y-88017428D01*
X116165397Y-88207904D01*
X116213017Y-88303142D01*
X116260636Y-88350761D01*
X116355874Y-88398380D01*
X116451112Y-88398380D01*
X116546350Y-88350761D01*
X116593969Y-88303142D01*
X116641588Y-88207904D01*
X116689207Y-88017428D01*
X116689207Y-87779333D01*
X116641588Y-87588857D01*
X116593969Y-87493619D01*
X116546350Y-87446000D01*
X116451112Y-87398380D01*
%TO.C,J5*%
X130127333Y-17833397D02*
X130127333Y-18547683D01*
X130174952Y-18690540D01*
X130270190Y-18785778D01*
X130413047Y-18833397D01*
X130508285Y-18833397D01*
X129174952Y-17833397D02*
X129651142Y-17833397D01*
X129698761Y-18309588D01*
X129651142Y-18261969D01*
X129555904Y-18214350D01*
X129317809Y-18214350D01*
X129222571Y-18261969D01*
X129174952Y-18309588D01*
X129127333Y-18404826D01*
X129127333Y-18642921D01*
X129174952Y-18738159D01*
X129222571Y-18785778D01*
X129317809Y-18833397D01*
X129555904Y-18833397D01*
X129651142Y-18785778D01*
X129698761Y-18738159D01*
%TO.C,REF\u002A\u002A*%
G36*
X137781577Y-187687094D02*
G01*
X138037090Y-187698980D01*
X138224069Y-187730087D01*
X138362591Y-187787439D01*
X138472735Y-187878063D01*
X138574579Y-188008983D01*
X138620892Y-188092284D01*
X138652085Y-188225811D01*
X138649623Y-188413384D01*
X138639742Y-188518250D01*
X138609570Y-188644746D01*
X138543986Y-188745855D01*
X138421777Y-188863480D01*
X138403927Y-188879197D01*
X138266563Y-188984943D01*
X138146926Y-189035396D01*
X138005057Y-189048276D01*
X137796576Y-189048276D01*
X137851567Y-188902588D01*
X137915848Y-188796376D01*
X138066680Y-188704055D01*
X138114972Y-188684781D01*
X138251735Y-188577020D01*
X138320579Y-188430328D01*
X138314389Y-188270605D01*
X138226054Y-188123755D01*
X138170971Y-188073287D01*
X138087867Y-188027518D01*
X138012361Y-188041836D01*
X137934650Y-188124229D01*
X137844930Y-188282685D01*
X137733398Y-188525192D01*
X137515094Y-189023947D01*
X137298830Y-189037183D01*
X137137092Y-189031340D01*
X136932696Y-188957774D01*
X136820057Y-188864917D01*
X136694233Y-188672399D01*
X136630672Y-188444021D01*
X136631105Y-188423694D01*
X136960417Y-188423694D01*
X137036667Y-188599518D01*
X137074794Y-188648245D01*
X137161081Y-188707247D01*
X137246359Y-188682579D01*
X137337404Y-188570339D01*
X137440995Y-188366622D01*
X137456002Y-188332913D01*
X137525822Y-188171718D01*
X137574931Y-188051110D01*
X137593487Y-187995066D01*
X137579827Y-187986573D01*
X137496421Y-187983166D01*
X137362357Y-187995314D01*
X137231256Y-188025913D01*
X137066086Y-188121354D01*
X136973014Y-188259127D01*
X136960417Y-188423694D01*
X136631105Y-188423694D01*
X136635703Y-188207938D01*
X136715655Y-187992305D01*
X136746355Y-187944836D01*
X136841352Y-187835954D01*
X136961526Y-187761490D01*
X137124756Y-187715599D01*
X137348919Y-187692432D01*
X137496421Y-187689371D01*
X137651894Y-187686145D01*
X137781577Y-187687094D01*
G37*
D14*
X137781577Y-187687094D02*
X138037090Y-187698980D01*
X138224069Y-187730087D01*
X138362591Y-187787439D01*
X138472735Y-187878063D01*
X138574579Y-188008983D01*
X138620892Y-188092284D01*
X138652085Y-188225811D01*
X138649623Y-188413384D01*
X138639742Y-188518250D01*
X138609570Y-188644746D01*
X138543986Y-188745855D01*
X138421777Y-188863480D01*
X138403927Y-188879197D01*
X138266563Y-188984943D01*
X138146926Y-189035396D01*
X138005057Y-189048276D01*
X137796576Y-189048276D01*
X137851567Y-188902588D01*
X137915848Y-188796376D01*
X138066680Y-188704055D01*
X138114972Y-188684781D01*
X138251735Y-188577020D01*
X138320579Y-188430328D01*
X138314389Y-188270605D01*
X138226054Y-188123755D01*
X138170971Y-188073287D01*
X138087867Y-188027518D01*
X138012361Y-188041836D01*
X137934650Y-188124229D01*
X137844930Y-188282685D01*
X137733398Y-188525192D01*
X137515094Y-189023947D01*
X137298830Y-189037183D01*
X137137092Y-189031340D01*
X136932696Y-188957774D01*
X136820057Y-188864917D01*
X136694233Y-188672399D01*
X136630672Y-188444021D01*
X136631105Y-188423694D01*
X136960417Y-188423694D01*
X137036667Y-188599518D01*
X137074794Y-188648245D01*
X137161081Y-188707247D01*
X137246359Y-188682579D01*
X137337404Y-188570339D01*
X137440995Y-188366622D01*
X137456002Y-188332913D01*
X137525822Y-188171718D01*
X137574931Y-188051110D01*
X137593487Y-187995066D01*
X137579827Y-187986573D01*
X137496421Y-187983166D01*
X137362357Y-187995314D01*
X137231256Y-188025913D01*
X137066086Y-188121354D01*
X136973014Y-188259127D01*
X136960417Y-188423694D01*
X136631105Y-188423694D01*
X136635703Y-188207938D01*
X136715655Y-187992305D01*
X136746355Y-187944836D01*
X136841352Y-187835954D01*
X136961526Y-187761490D01*
X137124756Y-187715599D01*
X137348919Y-187692432D01*
X137496421Y-187689371D01*
X137651894Y-187686145D01*
X137781577Y-187687094D01*
G36*
X138189560Y-169010553D02*
G01*
X138297976Y-169009216D01*
X138660434Y-169004934D01*
X138937787Y-169004073D01*
X139139743Y-169009272D01*
X139276012Y-169023168D01*
X139356302Y-169048397D01*
X139390324Y-169087598D01*
X139387786Y-169143407D01*
X139358398Y-169218462D01*
X139311869Y-169315399D01*
X139301941Y-169336114D01*
X139253343Y-169422370D01*
X139195523Y-169467418D01*
X139099117Y-169484656D01*
X138934762Y-169487485D01*
X138639655Y-169487613D01*
X138639655Y-169791604D01*
X138631467Y-169978600D01*
X138598256Y-170125634D01*
X138531131Y-170247737D01*
X138524569Y-170256841D01*
X138413738Y-170380737D01*
X138279847Y-170466962D01*
X138104598Y-170521341D01*
X137869693Y-170549697D01*
X137556835Y-170557855D01*
X137328537Y-170556048D01*
X137155608Y-170547822D01*
X137035687Y-170529547D01*
X136945834Y-170497604D01*
X136863107Y-170448372D01*
X136799885Y-170403180D01*
X136629204Y-170239084D01*
X136536506Y-170053166D01*
X136507163Y-169819590D01*
X136509210Y-169800881D01*
X136960920Y-169800881D01*
X136966215Y-169858407D01*
X137018757Y-169957941D01*
X137135842Y-170023747D01*
X137327639Y-170060098D01*
X137604314Y-170071265D01*
X137648793Y-170071181D01*
X137849564Y-170066560D01*
X137980808Y-170051722D01*
X138066030Y-170022305D01*
X138128736Y-169973947D01*
X138131730Y-169970934D01*
X138212866Y-169852079D01*
X138204869Y-169736892D01*
X138106618Y-169606793D01*
X138073039Y-169574969D01*
X138004192Y-169528097D01*
X137914645Y-169501667D01*
X137778877Y-169489985D01*
X137571369Y-169487357D01*
X137445743Y-169489633D01*
X137217270Y-169514330D01*
X137067581Y-169570702D01*
X136985767Y-169664351D01*
X136960920Y-169800881D01*
X136509210Y-169800881D01*
X136536412Y-169552276D01*
X136641328Y-169321188D01*
X136826373Y-169138415D01*
X136845963Y-169124637D01*
X136898023Y-169092503D01*
X136957513Y-169067885D01*
X137037274Y-169049577D01*
X137150146Y-169036377D01*
X137308970Y-169027078D01*
X137526587Y-169020478D01*
X137571369Y-169019687D01*
X137815837Y-169015371D01*
X138189560Y-169010553D01*
G37*
X138189560Y-169010553D02*
X138297976Y-169009216D01*
X138660434Y-169004934D01*
X138937787Y-169004073D01*
X139139743Y-169009272D01*
X139276012Y-169023168D01*
X139356302Y-169048397D01*
X139390324Y-169087598D01*
X139387786Y-169143407D01*
X139358398Y-169218462D01*
X139311869Y-169315399D01*
X139301941Y-169336114D01*
X139253343Y-169422370D01*
X139195523Y-169467418D01*
X139099117Y-169484656D01*
X138934762Y-169487485D01*
X138639655Y-169487613D01*
X138639655Y-169791604D01*
X138631467Y-169978600D01*
X138598256Y-170125634D01*
X138531131Y-170247737D01*
X138524569Y-170256841D01*
X138413738Y-170380737D01*
X138279847Y-170466962D01*
X138104598Y-170521341D01*
X137869693Y-170549697D01*
X137556835Y-170557855D01*
X137328537Y-170556048D01*
X137155608Y-170547822D01*
X137035687Y-170529547D01*
X136945834Y-170497604D01*
X136863107Y-170448372D01*
X136799885Y-170403180D01*
X136629204Y-170239084D01*
X136536506Y-170053166D01*
X136507163Y-169819590D01*
X136509210Y-169800881D01*
X136960920Y-169800881D01*
X136966215Y-169858407D01*
X137018757Y-169957941D01*
X137135842Y-170023747D01*
X137327639Y-170060098D01*
X137604314Y-170071265D01*
X137648793Y-170071181D01*
X137849564Y-170066560D01*
X137980808Y-170051722D01*
X138066030Y-170022305D01*
X138128736Y-169973947D01*
X138131730Y-169970934D01*
X138212866Y-169852079D01*
X138204869Y-169736892D01*
X138106618Y-169606793D01*
X138073039Y-169574969D01*
X138004192Y-169528097D01*
X137914645Y-169501667D01*
X137778877Y-169489985D01*
X137571369Y-169487357D01*
X137445743Y-169489633D01*
X137217270Y-169514330D01*
X137067581Y-169570702D01*
X136985767Y-169664351D01*
X136960920Y-169800881D01*
X136509210Y-169800881D01*
X136536412Y-169552276D01*
X136641328Y-169321188D01*
X136826373Y-169138415D01*
X136845963Y-169124637D01*
X136898023Y-169092503D01*
X136957513Y-169067885D01*
X137037274Y-169049577D01*
X137150146Y-169036377D01*
X137308970Y-169027078D01*
X137526587Y-169020478D01*
X137571369Y-169019687D01*
X137815837Y-169015371D01*
X138189560Y-169010553D01*
G36*
X138058902Y-186031985D02*
G01*
X138299235Y-186034832D01*
X138491034Y-186039666D01*
X138618037Y-186046027D01*
X138663985Y-186053458D01*
X138648787Y-186101818D01*
X138607515Y-186199435D01*
X138606179Y-186202365D01*
X138579643Y-186253055D01*
X138543230Y-186287147D01*
X138479454Y-186307933D01*
X138370825Y-186318705D01*
X138199855Y-186322754D01*
X137949056Y-186323372D01*
X137789956Y-186324618D01*
X137490951Y-186337908D01*
X137271939Y-186368338D01*
X137121432Y-186419124D01*
X137027945Y-186493481D01*
X136979991Y-186594623D01*
X136976648Y-186608655D01*
X136974038Y-186798103D01*
X137058913Y-186945848D01*
X137229076Y-187047892D01*
X137278269Y-187066090D01*
X137387138Y-187107571D01*
X137437167Y-187128577D01*
X137430273Y-187171718D01*
X137392862Y-187265935D01*
X137331078Y-187353809D01*
X137214313Y-187393870D01*
X137130677Y-187381921D01*
X136961030Y-187308505D01*
X136802059Y-187189795D01*
X136692116Y-187050976D01*
X136666697Y-186992816D01*
X136624202Y-186772596D01*
X136641032Y-186538791D01*
X136715655Y-186337899D01*
X136771724Y-186254353D01*
X136852060Y-186169747D01*
X136954253Y-186109397D01*
X137093374Y-186069346D01*
X137284495Y-186045637D01*
X137542688Y-186034313D01*
X137883024Y-186031418D01*
X138058902Y-186031985D01*
G37*
X138058902Y-186031985D02*
X138299235Y-186034832D01*
X138491034Y-186039666D01*
X138618037Y-186046027D01*
X138663985Y-186053458D01*
X138648787Y-186101818D01*
X138607515Y-186199435D01*
X138606179Y-186202365D01*
X138579643Y-186253055D01*
X138543230Y-186287147D01*
X138479454Y-186307933D01*
X138370825Y-186318705D01*
X138199855Y-186322754D01*
X137949056Y-186323372D01*
X137789956Y-186324618D01*
X137490951Y-186337908D01*
X137271939Y-186368338D01*
X137121432Y-186419124D01*
X137027945Y-186493481D01*
X136979991Y-186594623D01*
X136976648Y-186608655D01*
X136974038Y-186798103D01*
X137058913Y-186945848D01*
X137229076Y-187047892D01*
X137278269Y-187066090D01*
X137387138Y-187107571D01*
X137437167Y-187128577D01*
X137430273Y-187171718D01*
X137392862Y-187265935D01*
X137331078Y-187353809D01*
X137214313Y-187393870D01*
X137130677Y-187381921D01*
X136961030Y-187308505D01*
X136802059Y-187189795D01*
X136692116Y-187050976D01*
X136666697Y-186992816D01*
X136624202Y-186772596D01*
X136641032Y-186538791D01*
X136715655Y-186337899D01*
X136771724Y-186254353D01*
X136852060Y-186169747D01*
X136954253Y-186109397D01*
X137093374Y-186069346D01*
X137284495Y-186045637D01*
X137542688Y-186034313D01*
X137883024Y-186031418D01*
X138058902Y-186031985D01*
G36*
X137425620Y-177526729D02*
G01*
X137359174Y-177635038D01*
X137221224Y-177720395D01*
X137192781Y-177729160D01*
X137047874Y-177823495D01*
X136969597Y-177965677D01*
X136966236Y-178128933D01*
X137046073Y-178286490D01*
X137066664Y-178310012D01*
X137156139Y-178388672D01*
X137234147Y-178401662D01*
X137310743Y-178342157D01*
X137395981Y-178203329D01*
X137499914Y-177978353D01*
X137506496Y-177963138D01*
X137622954Y-177713386D01*
X137726121Y-177542806D01*
X137829127Y-177437801D01*
X137945104Y-177384770D01*
X138087180Y-177370115D01*
X138244694Y-177389319D01*
X138446309Y-177486287D01*
X138591147Y-177656876D01*
X138634631Y-177780261D01*
X138658426Y-177954388D01*
X138653343Y-178123472D01*
X138617446Y-178244214D01*
X138608508Y-178257039D01*
X138546054Y-178291099D01*
X138435985Y-178267464D01*
X138349589Y-178226399D01*
X138313620Y-178160550D01*
X138315410Y-178035664D01*
X138305091Y-177862283D01*
X138233852Y-177748993D01*
X138101982Y-177710728D01*
X138098194Y-177710764D01*
X138021644Y-177733952D01*
X137951409Y-177812829D01*
X137870454Y-177966188D01*
X137772983Y-178174749D01*
X137719958Y-178312888D01*
X137723376Y-178392633D01*
X137793419Y-178429896D01*
X137940271Y-178440586D01*
X138174116Y-178440613D01*
X138318468Y-178441806D01*
X138496736Y-178447275D01*
X138618751Y-178456166D01*
X138663985Y-178467359D01*
X138663678Y-178470351D01*
X138639163Y-178535030D01*
X138587427Y-178642152D01*
X138510869Y-178790200D01*
X137821048Y-178772607D01*
X137775299Y-178771382D01*
X137454195Y-178757409D01*
X137212182Y-178732723D01*
X137033145Y-178692286D01*
X136900973Y-178631060D01*
X136799550Y-178544006D01*
X136712764Y-178426086D01*
X136711403Y-178423905D01*
X136640601Y-178233241D01*
X136628640Y-178012726D01*
X136672790Y-177800009D01*
X136770318Y-177632742D01*
X136846307Y-177559159D01*
X137073454Y-177417756D01*
X137321097Y-177370115D01*
X137491471Y-177370115D01*
X137425620Y-177526729D01*
G37*
X137425620Y-177526729D02*
X137359174Y-177635038D01*
X137221224Y-177720395D01*
X137192781Y-177729160D01*
X137047874Y-177823495D01*
X136969597Y-177965677D01*
X136966236Y-178128933D01*
X137046073Y-178286490D01*
X137066664Y-178310012D01*
X137156139Y-178388672D01*
X137234147Y-178401662D01*
X137310743Y-178342157D01*
X137395981Y-178203329D01*
X137499914Y-177978353D01*
X137506496Y-177963138D01*
X137622954Y-177713386D01*
X137726121Y-177542806D01*
X137829127Y-177437801D01*
X137945104Y-177384770D01*
X138087180Y-177370115D01*
X138244694Y-177389319D01*
X138446309Y-177486287D01*
X138591147Y-177656876D01*
X138634631Y-177780261D01*
X138658426Y-177954388D01*
X138653343Y-178123472D01*
X138617446Y-178244214D01*
X138608508Y-178257039D01*
X138546054Y-178291099D01*
X138435985Y-178267464D01*
X138349589Y-178226399D01*
X138313620Y-178160550D01*
X138315410Y-178035664D01*
X138305091Y-177862283D01*
X138233852Y-177748993D01*
X138101982Y-177710728D01*
X138098194Y-177710764D01*
X138021644Y-177733952D01*
X137951409Y-177812829D01*
X137870454Y-177966188D01*
X137772983Y-178174749D01*
X137719958Y-178312888D01*
X137723376Y-178392633D01*
X137793419Y-178429896D01*
X137940271Y-178440586D01*
X138174116Y-178440613D01*
X138318468Y-178441806D01*
X138496736Y-178447275D01*
X138618751Y-178456166D01*
X138663985Y-178467359D01*
X138663678Y-178470351D01*
X138639163Y-178535030D01*
X138587427Y-178642152D01*
X138510869Y-178790200D01*
X137821048Y-178772607D01*
X137775299Y-178771382D01*
X137454195Y-178757409D01*
X137212182Y-178732723D01*
X137033145Y-178692286D01*
X136900973Y-178631060D01*
X136799550Y-178544006D01*
X136712764Y-178426086D01*
X136711403Y-178423905D01*
X136640601Y-178233241D01*
X136628640Y-178012726D01*
X136672790Y-177800009D01*
X136770318Y-177632742D01*
X136846307Y-177559159D01*
X137073454Y-177417756D01*
X137321097Y-177370115D01*
X137491471Y-177370115D01*
X137425620Y-177526729D01*
G36*
X137824398Y-170866387D02*
G01*
X137902543Y-170875123D01*
X138180682Y-170940220D01*
X138392211Y-171057850D01*
X138554337Y-171236743D01*
X138561027Y-171246854D01*
X138656177Y-171474267D01*
X138664644Y-171711712D01*
X138592185Y-171940507D01*
X138444557Y-172141969D01*
X138227516Y-172297414D01*
X138222283Y-172300023D01*
X138087501Y-172351678D01*
X137934321Y-172389514D01*
X137790519Y-172409584D01*
X137683868Y-172407938D01*
X137642146Y-172380629D01*
X137644681Y-172356368D01*
X137690827Y-172240346D01*
X137775681Y-172108839D01*
X137873905Y-171996967D01*
X137960156Y-171939855D01*
X138077152Y-171880488D01*
X138183564Y-171758816D01*
X138226054Y-171617526D01*
X138213769Y-171565737D01*
X138151924Y-171463516D01*
X138066074Y-171374475D01*
X137988188Y-171336399D01*
X137987900Y-171336410D01*
X137952133Y-171379612D01*
X137887609Y-171494788D01*
X137803396Y-171664585D01*
X137708558Y-171871648D01*
X137708055Y-171872787D01*
X137607896Y-172097742D01*
X137535733Y-172248527D01*
X137480298Y-172339936D01*
X137430324Y-172386760D01*
X137374544Y-172403794D01*
X137301691Y-172405828D01*
X137127109Y-172387916D01*
X136889915Y-172299352D01*
X136703519Y-172151097D01*
X136574461Y-171959253D01*
X136509281Y-171739925D01*
X136513013Y-171575538D01*
X136965733Y-171575538D01*
X136972085Y-171716601D01*
X137058536Y-171847588D01*
X137118275Y-171899075D01*
X137163740Y-171911303D01*
X137207108Y-171861717D01*
X137272094Y-171738166D01*
X137273932Y-171734543D01*
X137343348Y-171588779D01*
X137398725Y-171458377D01*
X137422152Y-171375649D01*
X137390838Y-171342466D01*
X137283541Y-171336399D01*
X137150003Y-171361608D01*
X137028649Y-171449005D01*
X136965733Y-171575538D01*
X136513013Y-171575538D01*
X136514519Y-171509214D01*
X136596716Y-171283225D01*
X136762413Y-171078061D01*
X136926382Y-170964391D01*
X137160435Y-170882740D01*
X137283541Y-170869463D01*
X137455549Y-170850914D01*
X137824398Y-170866387D01*
G37*
X137824398Y-170866387D02*
X137902543Y-170875123D01*
X138180682Y-170940220D01*
X138392211Y-171057850D01*
X138554337Y-171236743D01*
X138561027Y-171246854D01*
X138656177Y-171474267D01*
X138664644Y-171711712D01*
X138592185Y-171940507D01*
X138444557Y-172141969D01*
X138227516Y-172297414D01*
X138222283Y-172300023D01*
X138087501Y-172351678D01*
X137934321Y-172389514D01*
X137790519Y-172409584D01*
X137683868Y-172407938D01*
X137642146Y-172380629D01*
X137644681Y-172356368D01*
X137690827Y-172240346D01*
X137775681Y-172108839D01*
X137873905Y-171996967D01*
X137960156Y-171939855D01*
X138077152Y-171880488D01*
X138183564Y-171758816D01*
X138226054Y-171617526D01*
X138213769Y-171565737D01*
X138151924Y-171463516D01*
X138066074Y-171374475D01*
X137988188Y-171336399D01*
X137987900Y-171336410D01*
X137952133Y-171379612D01*
X137887609Y-171494788D01*
X137803396Y-171664585D01*
X137708558Y-171871648D01*
X137708055Y-171872787D01*
X137607896Y-172097742D01*
X137535733Y-172248527D01*
X137480298Y-172339936D01*
X137430324Y-172386760D01*
X137374544Y-172403794D01*
X137301691Y-172405828D01*
X137127109Y-172387916D01*
X136889915Y-172299352D01*
X136703519Y-172151097D01*
X136574461Y-171959253D01*
X136509281Y-171739925D01*
X136513013Y-171575538D01*
X136965733Y-171575538D01*
X136972085Y-171716601D01*
X137058536Y-171847588D01*
X137118275Y-171899075D01*
X137163740Y-171911303D01*
X137207108Y-171861717D01*
X137272094Y-171738166D01*
X137273932Y-171734543D01*
X137343348Y-171588779D01*
X137398725Y-171458377D01*
X137422152Y-171375649D01*
X137390838Y-171342466D01*
X137283541Y-171336399D01*
X137150003Y-171361608D01*
X137028649Y-171449005D01*
X136965733Y-171575538D01*
X136513013Y-171575538D01*
X136514519Y-171509214D01*
X136596716Y-171283225D01*
X136762413Y-171078061D01*
X136926382Y-170964391D01*
X137160435Y-170882740D01*
X137283541Y-170869463D01*
X137455549Y-170850914D01*
X137824398Y-170866387D01*
G36*
X138518528Y-182535976D02*
G01*
X138553058Y-182571150D01*
X138629808Y-182668589D01*
X138654668Y-182766857D01*
X138643223Y-182913083D01*
X138635824Y-182972619D01*
X138620171Y-183126166D01*
X138613935Y-183233525D01*
X138614888Y-183265371D01*
X138625210Y-183396017D01*
X138643223Y-183553968D01*
X138649413Y-183604504D01*
X138651845Y-183731816D01*
X138613412Y-183824963D01*
X138518528Y-183931075D01*
X138364545Y-184085058D01*
X137492426Y-184085058D01*
X137234702Y-184083859D01*
X136988985Y-184080118D01*
X136794422Y-184074299D01*
X136666400Y-184066873D01*
X136620307Y-184058312D01*
X136620431Y-184056517D01*
X136643366Y-183994322D01*
X136693908Y-183889238D01*
X136767508Y-183746910D01*
X137533275Y-183733513D01*
X138299042Y-183720115D01*
X138299042Y-183428161D01*
X137459675Y-183414848D01*
X137231507Y-183410627D01*
X136987632Y-183404586D01*
X136794018Y-183398039D01*
X136666349Y-183391533D01*
X136620307Y-183385614D01*
X136620468Y-183383913D01*
X136637406Y-183324916D01*
X136673726Y-183216457D01*
X136727145Y-183063219D01*
X137464435Y-183062474D01*
X137592512Y-183061728D01*
X137841391Y-183056552D01*
X138049240Y-183047298D01*
X138197298Y-183034945D01*
X138266805Y-183020477D01*
X138303982Y-182968716D01*
X138315464Y-182863080D01*
X138299042Y-182746935D01*
X137459675Y-182733622D01*
X137246380Y-182728857D01*
X136993914Y-182718978D01*
X136795884Y-182706058D01*
X136666583Y-182691096D01*
X136620307Y-182675087D01*
X136634950Y-182612650D01*
X136676776Y-182505930D01*
X136733246Y-182381993D01*
X138364545Y-182381993D01*
X138518528Y-182535976D01*
G37*
X138518528Y-182535976D02*
X138553058Y-182571150D01*
X138629808Y-182668589D01*
X138654668Y-182766857D01*
X138643223Y-182913083D01*
X138635824Y-182972619D01*
X138620171Y-183126166D01*
X138613935Y-183233525D01*
X138614888Y-183265371D01*
X138625210Y-183396017D01*
X138643223Y-183553968D01*
X138649413Y-183604504D01*
X138651845Y-183731816D01*
X138613412Y-183824963D01*
X138518528Y-183931075D01*
X138364545Y-184085058D01*
X137492426Y-184085058D01*
X137234702Y-184083859D01*
X136988985Y-184080118D01*
X136794422Y-184074299D01*
X136666400Y-184066873D01*
X136620307Y-184058312D01*
X136620431Y-184056517D01*
X136643366Y-183994322D01*
X136693908Y-183889238D01*
X136767508Y-183746910D01*
X137533275Y-183733513D01*
X138299042Y-183720115D01*
X138299042Y-183428161D01*
X137459675Y-183414848D01*
X137231507Y-183410627D01*
X136987632Y-183404586D01*
X136794018Y-183398039D01*
X136666349Y-183391533D01*
X136620307Y-183385614D01*
X136620468Y-183383913D01*
X136637406Y-183324916D01*
X136673726Y-183216457D01*
X136727145Y-183063219D01*
X137464435Y-183062474D01*
X137592512Y-183061728D01*
X137841391Y-183056552D01*
X138049240Y-183047298D01*
X138197298Y-183034945D01*
X138266805Y-183020477D01*
X138303982Y-182968716D01*
X138315464Y-182863080D01*
X138299042Y-182746935D01*
X137459675Y-182733622D01*
X137246380Y-182728857D01*
X136993914Y-182718978D01*
X136795884Y-182706058D01*
X136666583Y-182691096D01*
X136620307Y-182675087D01*
X136634950Y-182612650D01*
X136676776Y-182505930D01*
X136733246Y-182381993D01*
X138364545Y-182381993D01*
X138518528Y-182535976D01*
G36*
X137831892Y-180682969D02*
G01*
X138090534Y-180710435D01*
X138284354Y-180770195D01*
X138432353Y-180869242D01*
X138553532Y-181014572D01*
X138623583Y-181153008D01*
X138662564Y-181385486D01*
X138619942Y-181617648D01*
X138501157Y-181827483D01*
X138311652Y-181992984D01*
X138276707Y-182012968D01*
X138215485Y-182039361D01*
X138137359Y-182058936D01*
X138028926Y-182072704D01*
X137876784Y-182081671D01*
X137667532Y-182086847D01*
X137387769Y-182089239D01*
X137024093Y-182089857D01*
X135895120Y-182090039D01*
X135961366Y-181931897D01*
X135979499Y-181890085D01*
X136020446Y-181823532D01*
X136082458Y-181785436D01*
X136190902Y-181764499D01*
X136371145Y-181749426D01*
X136532981Y-181735658D01*
X136639225Y-181717461D01*
X136678872Y-181691393D01*
X136668238Y-181652108D01*
X136630875Y-181551999D01*
X136621613Y-181373092D01*
X136630107Y-181325846D01*
X136968725Y-181325846D01*
X136979975Y-181495939D01*
X137073539Y-181643626D01*
X137110637Y-181675418D01*
X137180489Y-181714191D01*
X137278037Y-181736608D01*
X137426467Y-181746932D01*
X137648965Y-181749426D01*
X137826073Y-181748275D01*
X137986270Y-181741000D01*
X138089686Y-181723014D01*
X138159171Y-181689791D01*
X138217572Y-181636807D01*
X138228799Y-181624393D01*
X138311653Y-181464900D01*
X138303175Y-181296146D01*
X138203936Y-181138976D01*
X138152523Y-181092176D01*
X138084364Y-181053008D01*
X137990134Y-181031130D01*
X137846096Y-181021617D01*
X137628510Y-181019541D01*
X137462479Y-181020566D01*
X137300418Y-181027656D01*
X137195837Y-181045531D01*
X137125636Y-181078822D01*
X137066720Y-181132160D01*
X137040190Y-181163492D01*
X136968725Y-181325846D01*
X136630107Y-181325846D01*
X136656214Y-181180627D01*
X136730759Y-181014572D01*
X136799760Y-180923214D01*
X136934387Y-180805913D01*
X137106993Y-180730787D01*
X137336579Y-180690840D01*
X137628510Y-180679603D01*
X137642146Y-180679079D01*
X137831892Y-180682969D01*
G37*
X137831892Y-180682969D02*
X138090534Y-180710435D01*
X138284354Y-180770195D01*
X138432353Y-180869242D01*
X138553532Y-181014572D01*
X138623583Y-181153008D01*
X138662564Y-181385486D01*
X138619942Y-181617648D01*
X138501157Y-181827483D01*
X138311652Y-181992984D01*
X138276707Y-182012968D01*
X138215485Y-182039361D01*
X138137359Y-182058936D01*
X138028926Y-182072704D01*
X137876784Y-182081671D01*
X137667532Y-182086847D01*
X137387769Y-182089239D01*
X137024093Y-182089857D01*
X135895120Y-182090039D01*
X135961366Y-181931897D01*
X135979499Y-181890085D01*
X136020446Y-181823532D01*
X136082458Y-181785436D01*
X136190902Y-181764499D01*
X136371145Y-181749426D01*
X136532981Y-181735658D01*
X136639225Y-181717461D01*
X136678872Y-181691393D01*
X136668238Y-181652108D01*
X136630875Y-181551999D01*
X136621613Y-181373092D01*
X136630107Y-181325846D01*
X136968725Y-181325846D01*
X136979975Y-181495939D01*
X137073539Y-181643626D01*
X137110637Y-181675418D01*
X137180489Y-181714191D01*
X137278037Y-181736608D01*
X137426467Y-181746932D01*
X137648965Y-181749426D01*
X137826073Y-181748275D01*
X137986270Y-181741000D01*
X138089686Y-181723014D01*
X138159171Y-181689791D01*
X138217572Y-181636807D01*
X138228799Y-181624393D01*
X138311653Y-181464900D01*
X138303175Y-181296146D01*
X138203936Y-181138976D01*
X138152523Y-181092176D01*
X138084364Y-181053008D01*
X137990134Y-181031130D01*
X137846096Y-181021617D01*
X137628510Y-181019541D01*
X137462479Y-181020566D01*
X137300418Y-181027656D01*
X137195837Y-181045531D01*
X137125636Y-181078822D01*
X137066720Y-181132160D01*
X137040190Y-181163492D01*
X136968725Y-181325846D01*
X136630107Y-181325846D01*
X136656214Y-181180627D01*
X136730759Y-181014572D01*
X136799760Y-180923214D01*
X136934387Y-180805913D01*
X137106993Y-180730787D01*
X137336579Y-180690840D01*
X137628510Y-180679603D01*
X137642146Y-180679079D01*
X137831892Y-180682969D01*
G36*
X138481006Y-179032013D02*
G01*
X138618505Y-179044854D01*
X138663985Y-179065890D01*
X138650367Y-179129556D01*
X138609105Y-179237710D01*
X138597038Y-179263177D01*
X138569725Y-179302955D01*
X138524822Y-179330385D01*
X138446388Y-179348325D01*
X138318481Y-179359636D01*
X138125158Y-179367178D01*
X137850479Y-179373812D01*
X137770186Y-179375631D01*
X137516600Y-179382655D01*
X137339128Y-179391773D01*
X137220942Y-179405744D01*
X137145216Y-179427323D01*
X137095120Y-179459269D01*
X137053827Y-179504337D01*
X136981435Y-179637773D01*
X136967497Y-179801924D01*
X137022891Y-179948802D01*
X137137581Y-180054477D01*
X137301533Y-180095020D01*
X137346098Y-180096148D01*
X137426776Y-180118294D01*
X137439084Y-180183674D01*
X137391040Y-180311696D01*
X137375631Y-180341347D01*
X137285010Y-180421485D01*
X137150268Y-180423071D01*
X136963920Y-180346720D01*
X136862366Y-180276683D01*
X136718099Y-180097609D01*
X136636534Y-179876572D01*
X136625433Y-179640223D01*
X136692561Y-179415213D01*
X136701063Y-179399850D01*
X136798467Y-179274366D01*
X136923691Y-179162170D01*
X136951994Y-179142602D01*
X137018042Y-179105195D01*
X137096430Y-179078470D01*
X137204153Y-179060092D01*
X137358205Y-179047726D01*
X137575581Y-179039035D01*
X137873276Y-179031686D01*
X137923604Y-179030644D01*
X138249902Y-179027300D01*
X138481006Y-179032013D01*
G37*
X138481006Y-179032013D02*
X138618505Y-179044854D01*
X138663985Y-179065890D01*
X138650367Y-179129556D01*
X138609105Y-179237710D01*
X138597038Y-179263177D01*
X138569725Y-179302955D01*
X138524822Y-179330385D01*
X138446388Y-179348325D01*
X138318481Y-179359636D01*
X138125158Y-179367178D01*
X137850479Y-179373812D01*
X137770186Y-179375631D01*
X137516600Y-179382655D01*
X137339128Y-179391773D01*
X137220942Y-179405744D01*
X137145216Y-179427323D01*
X137095120Y-179459269D01*
X137053827Y-179504337D01*
X136981435Y-179637773D01*
X136967497Y-179801924D01*
X137022891Y-179948802D01*
X137137581Y-180054477D01*
X137301533Y-180095020D01*
X137346098Y-180096148D01*
X137426776Y-180118294D01*
X137439084Y-180183674D01*
X137391040Y-180311696D01*
X137375631Y-180341347D01*
X137285010Y-180421485D01*
X137150268Y-180423071D01*
X136963920Y-180346720D01*
X136862366Y-180276683D01*
X136718099Y-180097609D01*
X136636534Y-179876572D01*
X136625433Y-179640223D01*
X136692561Y-179415213D01*
X136701063Y-179399850D01*
X136798467Y-179274366D01*
X136923691Y-179162170D01*
X136951994Y-179142602D01*
X137018042Y-179105195D01*
X137096430Y-179078470D01*
X137204153Y-179060092D01*
X137358205Y-179047726D01*
X137575581Y-179039035D01*
X137873276Y-179031686D01*
X137923604Y-179030644D01*
X138249902Y-179027300D01*
X138481006Y-179032013D01*
G36*
X138663907Y-172869362D02*
G01*
X138619201Y-172986553D01*
X138576177Y-173074293D01*
X138520718Y-173131567D01*
X138435851Y-173164846D01*
X138304602Y-173180603D01*
X138109999Y-173185310D01*
X137835070Y-173185441D01*
X137615931Y-173186107D01*
X137405657Y-173190082D01*
X137262039Y-173199568D01*
X137167787Y-173216733D01*
X137105616Y-173243741D01*
X137058238Y-173282759D01*
X136991378Y-173378679D01*
X136966178Y-173539813D01*
X137029862Y-173699225D01*
X137038016Y-173709746D01*
X137075688Y-173742539D01*
X137136107Y-173766729D01*
X137234186Y-173784343D01*
X137384835Y-173797409D01*
X137602966Y-173807955D01*
X137903492Y-173818008D01*
X138708179Y-173842338D01*
X138615472Y-174049138D01*
X138522766Y-174255939D01*
X137788086Y-174255939D01*
X137588496Y-174255081D01*
X137310844Y-174247701D01*
X137104114Y-174229010D01*
X136951646Y-174194546D01*
X136836776Y-174139845D01*
X136742845Y-174060441D01*
X136653190Y-173951872D01*
X136562865Y-173795716D01*
X136503898Y-173549709D01*
X136529481Y-173302521D01*
X136636283Y-173075253D01*
X136820974Y-172889003D01*
X136878788Y-172850399D01*
X136944316Y-172818379D01*
X137026909Y-172795670D01*
X137142614Y-172780205D01*
X137307483Y-172769918D01*
X137537565Y-172762739D01*
X137848910Y-172756604D01*
X138712571Y-172741368D01*
X138663907Y-172869362D01*
G37*
X138663907Y-172869362D02*
X138619201Y-172986553D01*
X138576177Y-173074293D01*
X138520718Y-173131567D01*
X138435851Y-173164846D01*
X138304602Y-173180603D01*
X138109999Y-173185310D01*
X137835070Y-173185441D01*
X137615931Y-173186107D01*
X137405657Y-173190082D01*
X137262039Y-173199568D01*
X137167787Y-173216733D01*
X137105616Y-173243741D01*
X137058238Y-173282759D01*
X136991378Y-173378679D01*
X136966178Y-173539813D01*
X137029862Y-173699225D01*
X137038016Y-173709746D01*
X137075688Y-173742539D01*
X137136107Y-173766729D01*
X137234186Y-173784343D01*
X137384835Y-173797409D01*
X137602966Y-173807955D01*
X137903492Y-173818008D01*
X138708179Y-173842338D01*
X138615472Y-174049138D01*
X138522766Y-174255939D01*
X137788086Y-174255939D01*
X137588496Y-174255081D01*
X137310844Y-174247701D01*
X137104114Y-174229010D01*
X136951646Y-174194546D01*
X136836776Y-174139845D01*
X136742845Y-174060441D01*
X136653190Y-173951872D01*
X136562865Y-173795716D01*
X136503898Y-173549709D01*
X136529481Y-173302521D01*
X136636283Y-173075253D01*
X136820974Y-172889003D01*
X136878788Y-172850399D01*
X136944316Y-172818379D01*
X137026909Y-172795670D01*
X137142614Y-172780205D01*
X137307483Y-172769918D01*
X137537565Y-172762739D01*
X137848910Y-172756604D01*
X138712571Y-172741368D01*
X138663907Y-172869362D01*
G36*
X137646240Y-167151771D02*
G01*
X137881530Y-167154408D01*
X138045475Y-167163474D01*
X138159984Y-167182262D01*
X138246969Y-167214065D01*
X138328341Y-167262177D01*
X138345225Y-167274014D01*
X138478353Y-167399261D01*
X138578756Y-167541967D01*
X138611337Y-167615247D01*
X138665680Y-167878566D01*
X138630529Y-168138978D01*
X138510415Y-168378970D01*
X138309871Y-168581025D01*
X138283005Y-168598084D01*
X138127009Y-168653589D01*
X137909799Y-168690992D01*
X137658952Y-168709140D01*
X137402045Y-168706882D01*
X137166653Y-168683066D01*
X136980355Y-168636541D01*
X136856278Y-168576752D01*
X136663280Y-168408436D01*
X136543358Y-168180368D01*
X136504684Y-167918460D01*
X136960920Y-167918460D01*
X136964678Y-167963947D01*
X137033600Y-168091374D01*
X137188167Y-168175583D01*
X137426911Y-168216027D01*
X137748367Y-168212157D01*
X137769055Y-168210602D01*
X137946429Y-168187930D01*
X138058911Y-168147559D01*
X138135973Y-168079391D01*
X138208158Y-167965098D01*
X138211953Y-167852060D01*
X138128736Y-167735633D01*
X138106837Y-167715381D01*
X138041308Y-167675709D01*
X137946123Y-167652288D01*
X137798761Y-167641146D01*
X137576699Y-167638315D01*
X137368704Y-167643166D01*
X137170544Y-167667363D01*
X137045306Y-167717317D01*
X136979821Y-167799019D01*
X136960920Y-167918460D01*
X136504684Y-167918460D01*
X136502135Y-167901195D01*
X136504365Y-167826635D01*
X136550014Y-167607070D01*
X136665011Y-167426720D01*
X136863107Y-167261207D01*
X136877803Y-167251360D01*
X136956847Y-167206799D01*
X137046191Y-167177814D01*
X137167582Y-167161147D01*
X137342765Y-167153537D01*
X137576699Y-167151846D01*
X137593487Y-167151725D01*
X137646240Y-167151771D01*
G37*
X137646240Y-167151771D02*
X137881530Y-167154408D01*
X138045475Y-167163474D01*
X138159984Y-167182262D01*
X138246969Y-167214065D01*
X138328341Y-167262177D01*
X138345225Y-167274014D01*
X138478353Y-167399261D01*
X138578756Y-167541967D01*
X138611337Y-167615247D01*
X138665680Y-167878566D01*
X138630529Y-168138978D01*
X138510415Y-168378970D01*
X138309871Y-168581025D01*
X138283005Y-168598084D01*
X138127009Y-168653589D01*
X137909799Y-168690992D01*
X137658952Y-168709140D01*
X137402045Y-168706882D01*
X137166653Y-168683066D01*
X136980355Y-168636541D01*
X136856278Y-168576752D01*
X136663280Y-168408436D01*
X136543358Y-168180368D01*
X136504684Y-167918460D01*
X136960920Y-167918460D01*
X136964678Y-167963947D01*
X137033600Y-168091374D01*
X137188167Y-168175583D01*
X137426911Y-168216027D01*
X137748367Y-168212157D01*
X137769055Y-168210602D01*
X137946429Y-168187930D01*
X138058911Y-168147559D01*
X138135973Y-168079391D01*
X138208158Y-167965098D01*
X138211953Y-167852060D01*
X138128736Y-167735633D01*
X138106837Y-167715381D01*
X138041308Y-167675709D01*
X137946123Y-167652288D01*
X137798761Y-167641146D01*
X137576699Y-167638315D01*
X137368704Y-167643166D01*
X137170544Y-167667363D01*
X137045306Y-167717317D01*
X136979821Y-167799019D01*
X136960920Y-167918460D01*
X136504684Y-167918460D01*
X136502135Y-167901195D01*
X136504365Y-167826635D01*
X136550014Y-167607070D01*
X136665011Y-167426720D01*
X136863107Y-167261207D01*
X136877803Y-167251360D01*
X136956847Y-167206799D01*
X137046191Y-167177814D01*
X137167582Y-167161147D01*
X137342765Y-167153537D01*
X137576699Y-167151846D01*
X137593487Y-167151725D01*
X137646240Y-167151771D01*
G36*
X138212971Y-184380073D02*
G01*
X138400246Y-184461605D01*
X138552817Y-184615338D01*
X138617763Y-184739817D01*
X138663240Y-184980281D01*
X138657105Y-185113907D01*
X138623934Y-185237609D01*
X138554331Y-185285067D01*
X138439700Y-185267321D01*
X138424543Y-185262159D01*
X138344164Y-185221221D01*
X138313741Y-185153058D01*
X138315777Y-185023202D01*
X138318543Y-184931516D01*
X138294802Y-184824235D01*
X138223820Y-184750732D01*
X138136428Y-184708867D01*
X138044881Y-184704198D01*
X138044346Y-184704413D01*
X137994880Y-184758693D01*
X137922892Y-184874863D01*
X137842436Y-185025170D01*
X137767566Y-185181862D01*
X137712338Y-185317186D01*
X137690805Y-185403387D01*
X137711891Y-185416211D01*
X137811113Y-185432354D01*
X137973146Y-185443410D01*
X138177395Y-185447510D01*
X138318772Y-185448464D01*
X138496824Y-185452958D01*
X138618762Y-185460298D01*
X138663985Y-185469550D01*
X138648787Y-185517910D01*
X138607515Y-185615527D01*
X138551046Y-185739464D01*
X137826555Y-185739464D01*
X137640846Y-185738672D01*
X137358835Y-185731179D01*
X137149616Y-185712089D01*
X136997272Y-185676954D01*
X136885887Y-185621324D01*
X136799543Y-185540750D01*
X136722323Y-185430782D01*
X136658594Y-185290678D01*
X136620307Y-185031989D01*
X136624684Y-184913954D01*
X136651171Y-184809677D01*
X136717204Y-184712591D01*
X136840127Y-184587636D01*
X136926939Y-184507279D01*
X137039644Y-184423570D01*
X137145280Y-184385817D01*
X137279307Y-184377012D01*
X137498668Y-184377012D01*
X137421309Y-184526608D01*
X137327042Y-184645160D01*
X137200067Y-184726362D01*
X137165544Y-184740310D01*
X137031735Y-184846573D01*
X136964640Y-184994217D01*
X136971170Y-185155213D01*
X137058238Y-185301533D01*
X137128950Y-185363440D01*
X137219413Y-185399501D01*
X137299923Y-185360898D01*
X137380908Y-185240869D01*
X137472795Y-185032650D01*
X137485486Y-185001054D01*
X137568542Y-184811492D01*
X137650442Y-184648823D01*
X137715134Y-184545328D01*
X137830685Y-184441669D01*
X138015085Y-184372756D01*
X138212971Y-184380073D01*
G37*
X138212971Y-184380073D02*
X138400246Y-184461605D01*
X138552817Y-184615338D01*
X138617763Y-184739817D01*
X138663240Y-184980281D01*
X138657105Y-185113907D01*
X138623934Y-185237609D01*
X138554331Y-185285067D01*
X138439700Y-185267321D01*
X138424543Y-185262159D01*
X138344164Y-185221221D01*
X138313741Y-185153058D01*
X138315777Y-185023202D01*
X138318543Y-184931516D01*
X138294802Y-184824235D01*
X138223820Y-184750732D01*
X138136428Y-184708867D01*
X138044881Y-184704198D01*
X138044346Y-184704413D01*
X137994880Y-184758693D01*
X137922892Y-184874863D01*
X137842436Y-185025170D01*
X137767566Y-185181862D01*
X137712338Y-185317186D01*
X137690805Y-185403387D01*
X137711891Y-185416211D01*
X137811113Y-185432354D01*
X137973146Y-185443410D01*
X138177395Y-185447510D01*
X138318772Y-185448464D01*
X138496824Y-185452958D01*
X138618762Y-185460298D01*
X138663985Y-185469550D01*
X138648787Y-185517910D01*
X138607515Y-185615527D01*
X138551046Y-185739464D01*
X137826555Y-185739464D01*
X137640846Y-185738672D01*
X137358835Y-185731179D01*
X137149616Y-185712089D01*
X136997272Y-185676954D01*
X136885887Y-185621324D01*
X136799543Y-185540750D01*
X136722323Y-185430782D01*
X136658594Y-185290678D01*
X136620307Y-185031989D01*
X136624684Y-184913954D01*
X136651171Y-184809677D01*
X136717204Y-184712591D01*
X136840127Y-184587636D01*
X136926939Y-184507279D01*
X137039644Y-184423570D01*
X137145280Y-184385817D01*
X137279307Y-184377012D01*
X137498668Y-184377012D01*
X137421309Y-184526608D01*
X137327042Y-184645160D01*
X137200067Y-184726362D01*
X137165544Y-184740310D01*
X137031735Y-184846573D01*
X136964640Y-184994217D01*
X136971170Y-185155213D01*
X137058238Y-185301533D01*
X137128950Y-185363440D01*
X137219413Y-185399501D01*
X137299923Y-185360898D01*
X137380908Y-185240869D01*
X137472795Y-185032650D01*
X137485486Y-185001054D01*
X137568542Y-184811492D01*
X137650442Y-184648823D01*
X137715134Y-184545328D01*
X137830685Y-184441669D01*
X138015085Y-184372756D01*
X138212971Y-184380073D01*
G36*
X129656933Y-170667338D02*
G01*
X129662975Y-170698239D01*
X129694281Y-170862341D01*
X129736822Y-171089254D01*
X129785781Y-171353189D01*
X129836344Y-171628353D01*
X129856683Y-171736712D01*
X129906162Y-171978839D01*
X129952951Y-172180624D01*
X129992561Y-172323524D01*
X130020502Y-172388999D01*
X130066158Y-172418669D01*
X130186956Y-172472686D01*
X130343295Y-172527944D01*
X130401839Y-172547394D01*
X130594015Y-172618993D01*
X130821461Y-172711346D01*
X131046591Y-172809412D01*
X131164181Y-172861860D01*
X131339825Y-172936582D01*
X131471364Y-172987933D01*
X131536755Y-173007025D01*
X131541690Y-173005964D01*
X131611065Y-172969750D01*
X131744949Y-172888090D01*
X131930366Y-172769271D01*
X132154342Y-172621577D01*
X132403900Y-172453295D01*
X133216552Y-171899566D01*
X133945249Y-172627048D01*
X134015369Y-172697409D01*
X134225255Y-172912551D01*
X134406257Y-173104823D01*
X134548173Y-173262960D01*
X134640803Y-173375697D01*
X134673947Y-173431770D01*
X134648730Y-173492664D01*
X134576335Y-173620184D01*
X134465450Y-173799674D01*
X134324779Y-174017055D01*
X134163027Y-174258247D01*
X134003273Y-174495150D01*
X133862595Y-174708871D01*
X133751416Y-174883243D01*
X133678374Y-175004716D01*
X133652108Y-175059737D01*
X133652346Y-175062963D01*
X133678242Y-175136052D01*
X133738536Y-175265670D01*
X133821309Y-175426014D01*
X133822216Y-175427698D01*
X133928877Y-175640658D01*
X133980985Y-175786583D01*
X133981129Y-175877124D01*
X133931897Y-175923933D01*
X133883435Y-175943747D01*
X133753647Y-175997220D01*
X133554125Y-176079589D01*
X133295477Y-176186471D01*
X132988307Y-176313482D01*
X132643222Y-176456241D01*
X132270826Y-176610365D01*
X131932043Y-176750063D01*
X131584416Y-176892204D01*
X131273772Y-177017964D01*
X131010678Y-177123124D01*
X130805698Y-177203462D01*
X130669398Y-177254760D01*
X130612343Y-177272797D01*
X130560025Y-177238349D01*
X130472671Y-177142652D01*
X130371174Y-177007186D01*
X130105645Y-176681966D01*
X129766345Y-176390925D01*
X129393013Y-176177943D01*
X128996672Y-176044331D01*
X128588345Y-175991401D01*
X128179055Y-176020464D01*
X127779826Y-176132832D01*
X127401679Y-176329816D01*
X127055639Y-176612727D01*
X126920879Y-176760240D01*
X126682599Y-177113660D01*
X126527254Y-177491825D01*
X126451145Y-177883681D01*
X126450574Y-178278177D01*
X126521842Y-178664258D01*
X126661250Y-179030871D01*
X126865101Y-179366963D01*
X127129696Y-179661482D01*
X127451336Y-179903373D01*
X127826323Y-180081583D01*
X128250958Y-180185060D01*
X128455629Y-180204051D01*
X128899057Y-180177923D01*
X129319761Y-180060256D01*
X129710304Y-179854530D01*
X130063253Y-179564223D01*
X130371174Y-179192815D01*
X130468538Y-179062398D01*
X130556850Y-178964594D01*
X130612261Y-178927204D01*
X130660565Y-178942114D01*
X130789994Y-178990496D01*
X130989085Y-179068291D01*
X131247271Y-179171282D01*
X131553987Y-179295251D01*
X131898666Y-179435980D01*
X132270744Y-179589251D01*
X132607904Y-179728715D01*
X132956144Y-179872724D01*
X133267498Y-180001438D01*
X133531357Y-180110474D01*
X133737115Y-180195449D01*
X133874164Y-180251980D01*
X133931897Y-180275683D01*
X133932580Y-180275959D01*
X133981330Y-180323380D01*
X133980772Y-180414364D01*
X133928300Y-180560652D01*
X133821309Y-180773987D01*
X133812300Y-180790780D01*
X133731251Y-180949198D01*
X133673880Y-181074294D01*
X133652108Y-181140263D01*
X133677838Y-181194334D01*
X133750431Y-181315175D01*
X133861252Y-181489059D01*
X134001664Y-181702436D01*
X134163027Y-181941754D01*
X134321224Y-182177554D01*
X134462484Y-182395649D01*
X134574160Y-182576180D01*
X134647549Y-182705067D01*
X134673947Y-182768231D01*
X134670595Y-182778989D01*
X134617764Y-182853985D01*
X134508636Y-182982122D01*
X134353414Y-183152132D01*
X134162302Y-183352748D01*
X133945500Y-183572702D01*
X133217053Y-184299935D01*
X132383893Y-183733524D01*
X131550733Y-183167112D01*
X131178144Y-183339330D01*
X131177041Y-183339840D01*
X130939524Y-183443256D01*
X130675030Y-183548934D01*
X130440613Y-183634071D01*
X130402805Y-183646955D01*
X130227283Y-183711913D01*
X130090891Y-183770489D01*
X130020502Y-183811343D01*
X130010563Y-183827980D01*
X129977215Y-183927857D01*
X129934070Y-184097447D01*
X129885617Y-184318221D01*
X129836344Y-184571648D01*
X129822446Y-184647558D01*
X129771845Y-184922193D01*
X129724182Y-185178450D01*
X129684273Y-185390537D01*
X129656933Y-185532663D01*
X129606511Y-185788123D01*
X128542741Y-185788123D01*
X128411942Y-185788067D01*
X128092838Y-185786988D01*
X127854686Y-185783800D01*
X127685315Y-185777553D01*
X127572552Y-185767297D01*
X127504227Y-185752081D01*
X127468167Y-185730956D01*
X127452201Y-185702970D01*
X127445732Y-185675877D01*
X127422851Y-185565420D01*
X127387909Y-185389201D01*
X127344313Y-185165143D01*
X127295472Y-184911163D01*
X127244795Y-184645184D01*
X127195689Y-184385125D01*
X127151562Y-184148906D01*
X127115823Y-183954448D01*
X127091880Y-183819671D01*
X127083142Y-183762496D01*
X127077867Y-183758631D01*
X127009403Y-183727543D01*
X126878407Y-183673745D01*
X126706035Y-183606015D01*
X126473789Y-183512020D01*
X126205377Y-183396311D01*
X125968819Y-183287854D01*
X125915720Y-183262997D01*
X125749448Y-183193255D01*
X125621201Y-183151470D01*
X125555218Y-183145958D01*
X125550542Y-183148800D01*
X125481675Y-183193949D01*
X125347900Y-183283455D01*
X125162250Y-183408538D01*
X124937759Y-183560423D01*
X124687460Y-183730333D01*
X124403086Y-183921784D01*
X124182185Y-184065399D01*
X124020186Y-184163115D01*
X123907056Y-184220584D01*
X123832761Y-184243458D01*
X123787268Y-184237386D01*
X123783855Y-184235343D01*
X123717561Y-184180422D01*
X123596754Y-184068455D01*
X123433410Y-183910969D01*
X123239503Y-183719491D01*
X123027008Y-183505548D01*
X122811368Y-183283616D01*
X122608681Y-183066219D01*
X122471927Y-182906469D01*
X122397600Y-182800224D01*
X122382195Y-182743340D01*
X122385655Y-182735907D01*
X122432309Y-182657632D01*
X122523474Y-182515525D01*
X122650395Y-182322902D01*
X122804320Y-182093077D01*
X122976495Y-181839365D01*
X123541276Y-181012317D01*
X123371760Y-180638822D01*
X123366848Y-180627969D01*
X123267507Y-180398660D01*
X123168704Y-180155388D01*
X123091142Y-179949043D01*
X123090822Y-179948131D01*
X123030828Y-179784310D01*
X122980159Y-179658199D01*
X122949753Y-179597033D01*
X122948650Y-179596043D01*
X122886385Y-179575279D01*
X122744785Y-179541106D01*
X122539115Y-179496822D01*
X122284636Y-179445723D01*
X121996612Y-179391107D01*
X121986290Y-179389203D01*
X121692385Y-179334679D01*
X121426238Y-179284742D01*
X121204842Y-179242625D01*
X121045189Y-179211559D01*
X120964272Y-179194776D01*
X120959788Y-179193702D01*
X120925148Y-179182653D01*
X120899111Y-179160266D01*
X120880450Y-179114257D01*
X120867937Y-179032345D01*
X120860342Y-178902246D01*
X120856439Y-178711677D01*
X120854997Y-178448357D01*
X120854790Y-178100000D01*
X120854790Y-178056231D01*
X120855075Y-177718042D01*
X120856732Y-177463509D01*
X120860989Y-177280348D01*
X120869075Y-177156276D01*
X120882218Y-177079011D01*
X120901646Y-177036269D01*
X120928588Y-177015768D01*
X120964272Y-177005225D01*
X120965553Y-177004923D01*
X121049439Y-176987598D01*
X121211480Y-176956102D01*
X121434684Y-176913664D01*
X121702059Y-176863518D01*
X121996612Y-176808894D01*
X122020713Y-176804439D01*
X122306599Y-176749984D01*
X122557709Y-176699313D01*
X122758779Y-176655721D01*
X122894548Y-176622507D01*
X122949753Y-176602968D01*
X122949841Y-176602863D01*
X122980382Y-176541285D01*
X123031129Y-176414905D01*
X123091142Y-176250958D01*
X123094401Y-176241725D01*
X123173617Y-176032128D01*
X123272971Y-175788316D01*
X123371760Y-175561179D01*
X123541276Y-175187684D01*
X122976495Y-174360636D01*
X122936772Y-174302384D01*
X122767926Y-174052867D01*
X122619292Y-173830222D01*
X122499623Y-173647763D01*
X122417672Y-173518804D01*
X122382195Y-173456661D01*
X122390327Y-173414080D01*
X122453337Y-173317408D01*
X122578117Y-173168008D01*
X122768172Y-172961738D01*
X123027008Y-172694453D01*
X123050568Y-172670535D01*
X123261665Y-172458445D01*
X123452909Y-172270052D01*
X123612319Y-172116889D01*
X123727910Y-172010489D01*
X123787700Y-171962384D01*
X123787990Y-171962228D01*
X123833510Y-171956116D01*
X123907346Y-171978654D01*
X124019602Y-172035527D01*
X124180377Y-172132421D01*
X124399773Y-172275020D01*
X124687891Y-172469010D01*
X124736520Y-172502069D01*
X124982877Y-172669258D01*
X125200962Y-172816795D01*
X125377739Y-172935892D01*
X125500170Y-173017761D01*
X125555218Y-173053616D01*
X125566878Y-173056321D01*
X125653877Y-173039356D01*
X125795935Y-172988535D01*
X125968819Y-172912147D01*
X126194918Y-172808334D01*
X126463203Y-172692420D01*
X126706035Y-172593986D01*
X126768888Y-172569581D01*
X126929370Y-172505668D01*
X127041173Y-172458716D01*
X127083142Y-172437505D01*
X127086278Y-172414092D01*
X127104419Y-172308866D01*
X127135748Y-172136635D01*
X127176858Y-171915319D01*
X127224341Y-171662839D01*
X127274788Y-171397114D01*
X127324792Y-171136065D01*
X127370943Y-170897611D01*
X127409834Y-170699675D01*
X127438056Y-170560174D01*
X127452201Y-170497031D01*
X127456188Y-170486562D01*
X127477698Y-170461046D01*
X127523493Y-170442062D01*
X127605744Y-170428661D01*
X127736622Y-170419893D01*
X127928300Y-170414807D01*
X128192950Y-170412452D01*
X128542741Y-170411878D01*
X129606511Y-170411878D01*
X129656933Y-170667338D01*
G37*
X129656933Y-170667338D02*
X129662975Y-170698239D01*
X129694281Y-170862341D01*
X129736822Y-171089254D01*
X129785781Y-171353189D01*
X129836344Y-171628353D01*
X129856683Y-171736712D01*
X129906162Y-171978839D01*
X129952951Y-172180624D01*
X129992561Y-172323524D01*
X130020502Y-172388999D01*
X130066158Y-172418669D01*
X130186956Y-172472686D01*
X130343295Y-172527944D01*
X130401839Y-172547394D01*
X130594015Y-172618993D01*
X130821461Y-172711346D01*
X131046591Y-172809412D01*
X131164181Y-172861860D01*
X131339825Y-172936582D01*
X131471364Y-172987933D01*
X131536755Y-173007025D01*
X131541690Y-173005964D01*
X131611065Y-172969750D01*
X131744949Y-172888090D01*
X131930366Y-172769271D01*
X132154342Y-172621577D01*
X132403900Y-172453295D01*
X133216552Y-171899566D01*
X133945249Y-172627048D01*
X134015369Y-172697409D01*
X134225255Y-172912551D01*
X134406257Y-173104823D01*
X134548173Y-173262960D01*
X134640803Y-173375697D01*
X134673947Y-173431770D01*
X134648730Y-173492664D01*
X134576335Y-173620184D01*
X134465450Y-173799674D01*
X134324779Y-174017055D01*
X134163027Y-174258247D01*
X134003273Y-174495150D01*
X133862595Y-174708871D01*
X133751416Y-174883243D01*
X133678374Y-175004716D01*
X133652108Y-175059737D01*
X133652346Y-175062963D01*
X133678242Y-175136052D01*
X133738536Y-175265670D01*
X133821309Y-175426014D01*
X133822216Y-175427698D01*
X133928877Y-175640658D01*
X133980985Y-175786583D01*
X133981129Y-175877124D01*
X133931897Y-175923933D01*
X133883435Y-175943747D01*
X133753647Y-175997220D01*
X133554125Y-176079589D01*
X133295477Y-176186471D01*
X132988307Y-176313482D01*
X132643222Y-176456241D01*
X132270826Y-176610365D01*
X131932043Y-176750063D01*
X131584416Y-176892204D01*
X131273772Y-177017964D01*
X131010678Y-177123124D01*
X130805698Y-177203462D01*
X130669398Y-177254760D01*
X130612343Y-177272797D01*
X130560025Y-177238349D01*
X130472671Y-177142652D01*
X130371174Y-177007186D01*
X130105645Y-176681966D01*
X129766345Y-176390925D01*
X129393013Y-176177943D01*
X128996672Y-176044331D01*
X128588345Y-175991401D01*
X128179055Y-176020464D01*
X127779826Y-176132832D01*
X127401679Y-176329816D01*
X127055639Y-176612727D01*
X126920879Y-176760240D01*
X126682599Y-177113660D01*
X126527254Y-177491825D01*
X126451145Y-177883681D01*
X126450574Y-178278177D01*
X126521842Y-178664258D01*
X126661250Y-179030871D01*
X126865101Y-179366963D01*
X127129696Y-179661482D01*
X127451336Y-179903373D01*
X127826323Y-180081583D01*
X128250958Y-180185060D01*
X128455629Y-180204051D01*
X128899057Y-180177923D01*
X129319761Y-180060256D01*
X129710304Y-179854530D01*
X130063253Y-179564223D01*
X130371174Y-179192815D01*
X130468538Y-179062398D01*
X130556850Y-178964594D01*
X130612261Y-178927204D01*
X130660565Y-178942114D01*
X130789994Y-178990496D01*
X130989085Y-179068291D01*
X131247271Y-179171282D01*
X131553987Y-179295251D01*
X131898666Y-179435980D01*
X132270744Y-179589251D01*
X132607904Y-179728715D01*
X132956144Y-179872724D01*
X133267498Y-180001438D01*
X133531357Y-180110474D01*
X133737115Y-180195449D01*
X133874164Y-180251980D01*
X133931897Y-180275683D01*
X133932580Y-180275959D01*
X133981330Y-180323380D01*
X133980772Y-180414364D01*
X133928300Y-180560652D01*
X133821309Y-180773987D01*
X133812300Y-180790780D01*
X133731251Y-180949198D01*
X133673880Y-181074294D01*
X133652108Y-181140263D01*
X133677838Y-181194334D01*
X133750431Y-181315175D01*
X133861252Y-181489059D01*
X134001664Y-181702436D01*
X134163027Y-181941754D01*
X134321224Y-182177554D01*
X134462484Y-182395649D01*
X134574160Y-182576180D01*
X134647549Y-182705067D01*
X134673947Y-182768231D01*
X134670595Y-182778989D01*
X134617764Y-182853985D01*
X134508636Y-182982122D01*
X134353414Y-183152132D01*
X134162302Y-183352748D01*
X133945500Y-183572702D01*
X133217053Y-184299935D01*
X132383893Y-183733524D01*
X131550733Y-183167112D01*
X131178144Y-183339330D01*
X131177041Y-183339840D01*
X130939524Y-183443256D01*
X130675030Y-183548934D01*
X130440613Y-183634071D01*
X130402805Y-183646955D01*
X130227283Y-183711913D01*
X130090891Y-183770489D01*
X130020502Y-183811343D01*
X130010563Y-183827980D01*
X129977215Y-183927857D01*
X129934070Y-184097447D01*
X129885617Y-184318221D01*
X129836344Y-184571648D01*
X129822446Y-184647558D01*
X129771845Y-184922193D01*
X129724182Y-185178450D01*
X129684273Y-185390537D01*
X129656933Y-185532663D01*
X129606511Y-185788123D01*
X128542741Y-185788123D01*
X128411942Y-185788067D01*
X128092838Y-185786988D01*
X127854686Y-185783800D01*
X127685315Y-185777553D01*
X127572552Y-185767297D01*
X127504227Y-185752081D01*
X127468167Y-185730956D01*
X127452201Y-185702970D01*
X127445732Y-185675877D01*
X127422851Y-185565420D01*
X127387909Y-185389201D01*
X127344313Y-185165143D01*
X127295472Y-184911163D01*
X127244795Y-184645184D01*
X127195689Y-184385125D01*
X127151562Y-184148906D01*
X127115823Y-183954448D01*
X127091880Y-183819671D01*
X127083142Y-183762496D01*
X127077867Y-183758631D01*
X127009403Y-183727543D01*
X126878407Y-183673745D01*
X126706035Y-183606015D01*
X126473789Y-183512020D01*
X126205377Y-183396311D01*
X125968819Y-183287854D01*
X125915720Y-183262997D01*
X125749448Y-183193255D01*
X125621201Y-183151470D01*
X125555218Y-183145958D01*
X125550542Y-183148800D01*
X125481675Y-183193949D01*
X125347900Y-183283455D01*
X125162250Y-183408538D01*
X124937759Y-183560423D01*
X124687460Y-183730333D01*
X124403086Y-183921784D01*
X124182185Y-184065399D01*
X124020186Y-184163115D01*
X123907056Y-184220584D01*
X123832761Y-184243458D01*
X123787268Y-184237386D01*
X123783855Y-184235343D01*
X123717561Y-184180422D01*
X123596754Y-184068455D01*
X123433410Y-183910969D01*
X123239503Y-183719491D01*
X123027008Y-183505548D01*
X122811368Y-183283616D01*
X122608681Y-183066219D01*
X122471927Y-182906469D01*
X122397600Y-182800224D01*
X122382195Y-182743340D01*
X122385655Y-182735907D01*
X122432309Y-182657632D01*
X122523474Y-182515525D01*
X122650395Y-182322902D01*
X122804320Y-182093077D01*
X122976495Y-181839365D01*
X123541276Y-181012317D01*
X123371760Y-180638822D01*
X123366848Y-180627969D01*
X123267507Y-180398660D01*
X123168704Y-180155388D01*
X123091142Y-179949043D01*
X123090822Y-179948131D01*
X123030828Y-179784310D01*
X122980159Y-179658199D01*
X122949753Y-179597033D01*
X122948650Y-179596043D01*
X122886385Y-179575279D01*
X122744785Y-179541106D01*
X122539115Y-179496822D01*
X122284636Y-179445723D01*
X121996612Y-179391107D01*
X121986290Y-179389203D01*
X121692385Y-179334679D01*
X121426238Y-179284742D01*
X121204842Y-179242625D01*
X121045189Y-179211559D01*
X120964272Y-179194776D01*
X120959788Y-179193702D01*
X120925148Y-179182653D01*
X120899111Y-179160266D01*
X120880450Y-179114257D01*
X120867937Y-179032345D01*
X120860342Y-178902246D01*
X120856439Y-178711677D01*
X120854997Y-178448357D01*
X120854790Y-178100000D01*
X120854790Y-178056231D01*
X120855075Y-177718042D01*
X120856732Y-177463509D01*
X120860989Y-177280348D01*
X120869075Y-177156276D01*
X120882218Y-177079011D01*
X120901646Y-177036269D01*
X120928588Y-177015768D01*
X120964272Y-177005225D01*
X120965553Y-177004923D01*
X121049439Y-176987598D01*
X121211480Y-176956102D01*
X121434684Y-176913664D01*
X121702059Y-176863518D01*
X121996612Y-176808894D01*
X122020713Y-176804439D01*
X122306599Y-176749984D01*
X122557709Y-176699313D01*
X122758779Y-176655721D01*
X122894548Y-176622507D01*
X122949753Y-176602968D01*
X122949841Y-176602863D01*
X122980382Y-176541285D01*
X123031129Y-176414905D01*
X123091142Y-176250958D01*
X123094401Y-176241725D01*
X123173617Y-176032128D01*
X123272971Y-175788316D01*
X123371760Y-175561179D01*
X123541276Y-175187684D01*
X122976495Y-174360636D01*
X122936772Y-174302384D01*
X122767926Y-174052867D01*
X122619292Y-173830222D01*
X122499623Y-173647763D01*
X122417672Y-173518804D01*
X122382195Y-173456661D01*
X122390327Y-173414080D01*
X122453337Y-173317408D01*
X122578117Y-173168008D01*
X122768172Y-172961738D01*
X123027008Y-172694453D01*
X123050568Y-172670535D01*
X123261665Y-172458445D01*
X123452909Y-172270052D01*
X123612319Y-172116889D01*
X123727910Y-172010489D01*
X123787700Y-171962384D01*
X123787990Y-171962228D01*
X123833510Y-171956116D01*
X123907346Y-171978654D01*
X124019602Y-172035527D01*
X124180377Y-172132421D01*
X124399773Y-172275020D01*
X124687891Y-172469010D01*
X124736520Y-172502069D01*
X124982877Y-172669258D01*
X125200962Y-172816795D01*
X125377739Y-172935892D01*
X125500170Y-173017761D01*
X125555218Y-173053616D01*
X125566878Y-173056321D01*
X125653877Y-173039356D01*
X125795935Y-172988535D01*
X125968819Y-172912147D01*
X126194918Y-172808334D01*
X126463203Y-172692420D01*
X126706035Y-172593986D01*
X126768888Y-172569581D01*
X126929370Y-172505668D01*
X127041173Y-172458716D01*
X127083142Y-172437505D01*
X127086278Y-172414092D01*
X127104419Y-172308866D01*
X127135748Y-172136635D01*
X127176858Y-171915319D01*
X127224341Y-171662839D01*
X127274788Y-171397114D01*
X127324792Y-171136065D01*
X127370943Y-170897611D01*
X127409834Y-170699675D01*
X127438056Y-170560174D01*
X127452201Y-170497031D01*
X127456188Y-170486562D01*
X127477698Y-170461046D01*
X127523493Y-170442062D01*
X127605744Y-170428661D01*
X127736622Y-170419893D01*
X127928300Y-170414807D01*
X128192950Y-170412452D01*
X128542741Y-170411878D01*
X129606511Y-170411878D01*
X129656933Y-170667338D01*
G36*
X137363201Y-175667051D02*
G01*
X137708471Y-175667706D01*
X138019054Y-175669453D01*
X138282422Y-175672130D01*
X138486051Y-175675575D01*
X138617414Y-175679625D01*
X138663985Y-175684119D01*
X138663828Y-175685876D01*
X138646908Y-175745589D01*
X138610566Y-175854425D01*
X138557147Y-176007663D01*
X137871652Y-176007663D01*
X137602309Y-176008637D01*
X137406961Y-176013161D01*
X137274025Y-176023571D01*
X137185886Y-176042201D01*
X137124929Y-176071387D01*
X137073539Y-176113463D01*
X137046208Y-176142150D01*
X136970511Y-176297274D01*
X136977214Y-176468249D01*
X137066720Y-176624929D01*
X137088931Y-176647738D01*
X137135053Y-176684269D01*
X137196023Y-176709266D01*
X137288334Y-176724912D01*
X137428480Y-176733386D01*
X137632955Y-176736871D01*
X137918252Y-176737548D01*
X138062948Y-176737873D01*
X138300941Y-176739984D01*
X138491539Y-176743732D01*
X138618100Y-176748736D01*
X138663985Y-176754617D01*
X138663828Y-176756374D01*
X138646908Y-176816087D01*
X138610566Y-176924923D01*
X138557147Y-177078161D01*
X137868516Y-177078086D01*
X137807211Y-177077970D01*
X137487633Y-177071532D01*
X137245976Y-177051750D01*
X137065850Y-177013792D01*
X136930865Y-176952823D01*
X136824631Y-176864009D01*
X136730759Y-176742517D01*
X136671999Y-176624024D01*
X136626577Y-176434575D01*
X136623997Y-176248233D01*
X136668183Y-176104981D01*
X136674286Y-176094212D01*
X136673632Y-176060998D01*
X136622511Y-176038302D01*
X136505313Y-176021923D01*
X136306429Y-176007663D01*
X135898289Y-175983334D01*
X136031701Y-175667050D01*
X137347843Y-175667050D01*
X137363201Y-175667051D01*
G37*
X137363201Y-175667051D02*
X137708471Y-175667706D01*
X138019054Y-175669453D01*
X138282422Y-175672130D01*
X138486051Y-175675575D01*
X138617414Y-175679625D01*
X138663985Y-175684119D01*
X138663828Y-175685876D01*
X138646908Y-175745589D01*
X138610566Y-175854425D01*
X138557147Y-176007663D01*
X137871652Y-176007663D01*
X137602309Y-176008637D01*
X137406961Y-176013161D01*
X137274025Y-176023571D01*
X137185886Y-176042201D01*
X137124929Y-176071387D01*
X137073539Y-176113463D01*
X137046208Y-176142150D01*
X136970511Y-176297274D01*
X136977214Y-176468249D01*
X137066720Y-176624929D01*
X137088931Y-176647738D01*
X137135053Y-176684269D01*
X137196023Y-176709266D01*
X137288334Y-176724912D01*
X137428480Y-176733386D01*
X137632955Y-176736871D01*
X137918252Y-176737548D01*
X138062948Y-176737873D01*
X138300941Y-176739984D01*
X138491539Y-176743732D01*
X138618100Y-176748736D01*
X138663985Y-176754617D01*
X138663828Y-176756374D01*
X138646908Y-176816087D01*
X138610566Y-176924923D01*
X138557147Y-177078161D01*
X137868516Y-177078086D01*
X137807211Y-177077970D01*
X137487633Y-177071532D01*
X137245976Y-177051750D01*
X137065850Y-177013792D01*
X136930865Y-176952823D01*
X136824631Y-176864009D01*
X136730759Y-176742517D01*
X136671999Y-176624024D01*
X136626577Y-176434575D01*
X136623997Y-176248233D01*
X136668183Y-176104981D01*
X136674286Y-176094212D01*
X136673632Y-176060998D01*
X136622511Y-176038302D01*
X136505313Y-176021923D01*
X136306429Y-176007663D01*
X135898289Y-175983334D01*
X136031701Y-175667050D01*
X137347843Y-175667050D01*
X137363201Y-175667051D01*
D15*
%TO.C,J7*%
X138130000Y-111000000D02*
X138130000Y-113000000D01*
X121980000Y-129330000D02*
X137930000Y-129330000D01*
X137930000Y-107410000D02*
X121980000Y-107410000D01*
X121980000Y-107410000D02*
X121980000Y-113690000D01*
X137930000Y-129330000D02*
X137930000Y-116890000D01*
X137930000Y-113690000D02*
X137930000Y-107410000D01*
X121980000Y-116890000D02*
X121980000Y-129330000D01*
%TO.C,J2*%
X134536000Y-105691017D02*
X134536000Y-104391017D01*
X125336000Y-105691017D02*
X127336000Y-105691017D01*
X134536000Y-91191017D02*
X125336000Y-91191017D01*
X125336000Y-91191017D02*
X125336000Y-105691017D01*
X126736000Y-105991017D02*
X125036000Y-105991017D01*
X132536000Y-105691017D02*
X134536000Y-105691017D01*
X125036000Y-105991017D02*
X125036000Y-104691017D01*
X134536000Y-99791017D02*
X134536000Y-91191017D01*
%TO.C,U6*%
X121851000Y-68687000D02*
X119311000Y-71227000D01*
X124391000Y-55437000D02*
X129471000Y-60517000D01*
X119311000Y-26227000D02*
X121851000Y-28767000D01*
X137371000Y-68687000D02*
X139911000Y-71227000D01*
X139911000Y-26227000D02*
X137371000Y-28767000D01*
X129471000Y-35117000D02*
X129471000Y-60517000D01*
X129471000Y-60517000D02*
X124391000Y-55437000D01*
X129471000Y-60517000D02*
X133281000Y-55437000D01*
X119311000Y-26227000D02*
X121851000Y-28767000D01*
X119311000Y-26227000D02*
X139911000Y-26227000D01*
X139911000Y-26227000D02*
X139911000Y-71227000D01*
X139911000Y-71227000D02*
X119311000Y-71227000D01*
X119311000Y-71227000D02*
X119311000Y-26227000D01*
%TO.C,SW1*%
X140874000Y-97113017D02*
X139374000Y-97113017D01*
X143374000Y-91363017D02*
X143374000Y-95863017D01*
X136874000Y-95863017D02*
X136874000Y-91363017D01*
X139374000Y-90113017D02*
X140874000Y-90113017D01*
%TO.C,SW2*%
X116554000Y-95863017D02*
X116554000Y-91363017D01*
X119054000Y-90113017D02*
X120554000Y-90113017D01*
X123054000Y-91363017D02*
X123054000Y-95863017D01*
X120554000Y-97113017D02*
X119054000Y-97113017D01*
%TO.C,J5*%
X128794000Y-19381017D02*
X128194000Y-19381017D01*
X125924000Y-19911017D02*
X125924000Y-21981017D01*
X128494000Y-19681017D02*
X128794000Y-19381017D01*
X126794000Y-19911017D02*
X125924000Y-19911017D01*
X125924000Y-24381017D02*
X125924000Y-24631017D01*
X133664000Y-19911017D02*
X132794000Y-19911017D01*
X133664000Y-24381017D02*
X133664000Y-24631017D01*
X133664000Y-19911017D02*
X133664000Y-21981017D01*
X128494000Y-19681017D02*
X128194000Y-19381017D01*
%TD*%
M02*
