%TF.GenerationSoftware,KiCad,Pcbnew,6.0.6-3a73a75311~116~ubuntu20.04.1*%
%TF.CreationDate,2022-07-20T09:27:06+02:00*%
%TF.ProjectId,MCH-light,4d43482d-6c69-4676-9874-2e6b69636164,rev?*%
%TF.SameCoordinates,Original*%
%TF.FileFunction,Legend,Top*%
%TF.FilePolarity,Positive*%
%FSLAX46Y46*%
G04 Gerber Fmt 4.6, Leading zero omitted, Abs format (unit mm)*
G04 Created by KiCad (PCBNEW 6.0.6-3a73a75311~116~ubuntu20.04.1) date 2022-07-20 09:27:06*
%MOMM*%
%LPD*%
G01*
G04 APERTURE LIST*
%ADD10C,0.150000*%
%ADD11C,0.120000*%
G04 APERTURE END LIST*
D10*
X122100000Y-82595238D02*
X122052380Y-82690476D01*
X122052380Y-82833333D01*
X122100000Y-82976190D01*
X122195238Y-83071428D01*
X122290476Y-83119047D01*
X122480952Y-83166666D01*
X122623809Y-83166666D01*
X122814285Y-83119047D01*
X122909523Y-83071428D01*
X123004761Y-82976190D01*
X123052380Y-82833333D01*
X123052380Y-82738095D01*
X123004761Y-82595238D01*
X122957142Y-82547619D01*
X122623809Y-82547619D01*
X122623809Y-82738095D01*
X123052380Y-82119047D02*
X122052380Y-82119047D01*
X122052380Y-81738095D01*
X122100000Y-81642857D01*
X122147619Y-81595238D01*
X122242857Y-81547619D01*
X122385714Y-81547619D01*
X122480952Y-81595238D01*
X122528571Y-81642857D01*
X122576190Y-81738095D01*
X122576190Y-82119047D01*
X123052380Y-81119047D02*
X122052380Y-81119047D01*
X122052380Y-80452380D02*
X122052380Y-80261904D01*
X122100000Y-80166666D01*
X122195238Y-80071428D01*
X122385714Y-80023809D01*
X122719047Y-80023809D01*
X122909523Y-80071428D01*
X123004761Y-80166666D01*
X123052380Y-80261904D01*
X123052380Y-80452380D01*
X123004761Y-80547619D01*
X122909523Y-80642857D01*
X122719047Y-80690476D01*
X122385714Y-80690476D01*
X122195238Y-80642857D01*
X122100000Y-80547619D01*
X122052380Y-80452380D01*
X122671428Y-79595238D02*
X122671428Y-78833333D01*
X122385714Y-77928571D02*
X123052380Y-77928571D01*
X122004761Y-78166666D02*
X122719047Y-78404761D01*
X122719047Y-77785714D01*
X136600000Y-82895238D02*
X136552380Y-82990476D01*
X136552380Y-83133333D01*
X136600000Y-83276190D01*
X136695238Y-83371428D01*
X136790476Y-83419047D01*
X136980952Y-83466666D01*
X137123809Y-83466666D01*
X137314285Y-83419047D01*
X137409523Y-83371428D01*
X137504761Y-83276190D01*
X137552380Y-83133333D01*
X137552380Y-83038095D01*
X137504761Y-82895238D01*
X137457142Y-82847619D01*
X137123809Y-82847619D01*
X137123809Y-83038095D01*
X137552380Y-82419047D02*
X136552380Y-82419047D01*
X136552380Y-82038095D01*
X136600000Y-81942857D01*
X136647619Y-81895238D01*
X136742857Y-81847619D01*
X136885714Y-81847619D01*
X136980952Y-81895238D01*
X137028571Y-81942857D01*
X137076190Y-82038095D01*
X137076190Y-82419047D01*
X137552380Y-81419047D02*
X136552380Y-81419047D01*
X136552380Y-80752380D02*
X136552380Y-80561904D01*
X136600000Y-80466666D01*
X136695238Y-80371428D01*
X136885714Y-80323809D01*
X137219047Y-80323809D01*
X137409523Y-80371428D01*
X137504761Y-80466666D01*
X137552380Y-80561904D01*
X137552380Y-80752380D01*
X137504761Y-80847619D01*
X137409523Y-80942857D01*
X137219047Y-80990476D01*
X136885714Y-80990476D01*
X136695238Y-80942857D01*
X136600000Y-80847619D01*
X136552380Y-80752380D01*
X137171428Y-79895238D02*
X137171428Y-79133333D01*
X136647619Y-78704761D02*
X136600000Y-78657142D01*
X136552380Y-78561904D01*
X136552380Y-78323809D01*
X136600000Y-78228571D01*
X136647619Y-78180952D01*
X136742857Y-78133333D01*
X136838095Y-78133333D01*
X136980952Y-78180952D01*
X137552380Y-78752380D01*
X137552380Y-78133333D01*
X129836000Y29210000D02*
X129836000Y-202946000D01*
X119528571Y-156052380D02*
X119052380Y-156052380D01*
X119004761Y-156528571D01*
X119052380Y-156480952D01*
X119147619Y-156433333D01*
X119385714Y-156433333D01*
X119480952Y-156480952D01*
X119528571Y-156528571D01*
X119576190Y-156623809D01*
X119576190Y-156861904D01*
X119528571Y-156957142D01*
X119480952Y-157004761D01*
X119385714Y-157052380D01*
X119147619Y-157052380D01*
X119052380Y-157004761D01*
X119004761Y-156957142D01*
X119909523Y-156385714D02*
X120147619Y-157052380D01*
X120385714Y-156385714D01*
X121861904Y-156528571D02*
X121528571Y-156528571D01*
X121528571Y-157052380D02*
X121528571Y-156052380D01*
X122004761Y-156052380D01*
X122242857Y-156052380D02*
X122814285Y-156052380D01*
X122528571Y-157052380D02*
X122528571Y-156052380D01*
X123147619Y-157052380D02*
X123147619Y-156052380D01*
X123385714Y-156052380D01*
X123528571Y-156100000D01*
X123623809Y-156195238D01*
X123671428Y-156290476D01*
X123719047Y-156480952D01*
X123719047Y-156623809D01*
X123671428Y-156814285D01*
X123623809Y-156909523D01*
X123528571Y-157004761D01*
X123385714Y-157052380D01*
X123147619Y-157052380D01*
X124147619Y-157052380D02*
X124147619Y-156052380D01*
X118942857Y-158852380D02*
X119561904Y-158852380D01*
X119228571Y-159233333D01*
X119371428Y-159233333D01*
X119466666Y-159280952D01*
X119514285Y-159328571D01*
X119561904Y-159423809D01*
X119561904Y-159661904D01*
X119514285Y-159757142D01*
X119466666Y-159804761D01*
X119371428Y-159852380D01*
X119085714Y-159852380D01*
X118990476Y-159804761D01*
X118942857Y-159757142D01*
X119990476Y-159757142D02*
X120038095Y-159804761D01*
X119990476Y-159852380D01*
X119942857Y-159804761D01*
X119990476Y-159757142D01*
X119990476Y-159852380D01*
X120371428Y-158852380D02*
X120990476Y-158852380D01*
X120657142Y-159233333D01*
X120800000Y-159233333D01*
X120895238Y-159280952D01*
X120942857Y-159328571D01*
X120990476Y-159423809D01*
X120990476Y-159661904D01*
X120942857Y-159757142D01*
X120895238Y-159804761D01*
X120800000Y-159852380D01*
X120514285Y-159852380D01*
X120419047Y-159804761D01*
X120371428Y-159757142D01*
X121323809Y-159185714D02*
X121561904Y-159852380D01*
X121800000Y-159185714D01*
X123276190Y-159328571D02*
X122942857Y-159328571D01*
X122942857Y-159852380D02*
X122942857Y-158852380D01*
X123419047Y-158852380D01*
X123657142Y-158852380D02*
X124228571Y-158852380D01*
X123942857Y-159852380D02*
X123942857Y-158852380D01*
X124561904Y-159852380D02*
X124561904Y-158852380D01*
X124800000Y-158852380D01*
X124942857Y-158900000D01*
X125038095Y-158995238D01*
X125085714Y-159090476D01*
X125133333Y-159280952D01*
X125133333Y-159423809D01*
X125085714Y-159614285D01*
X125038095Y-159709523D01*
X124942857Y-159804761D01*
X124800000Y-159852380D01*
X124561904Y-159852380D01*
X125561904Y-159852380D02*
X125561904Y-158852380D01*
X138861904Y-71628571D02*
X138100000Y-71628571D01*
X138480952Y-71247619D02*
X138480952Y-72009523D01*
X136861904Y-71247619D02*
X136861904Y-72247619D01*
X136623809Y-72247619D01*
X136480952Y-72200000D01*
X136385714Y-72104761D01*
X136338095Y-72009523D01*
X136290476Y-71819047D01*
X136290476Y-71676190D01*
X136338095Y-71485714D01*
X136385714Y-71390476D01*
X136480952Y-71295238D01*
X136623809Y-71247619D01*
X136861904Y-71247619D01*
X135100000Y-71628571D02*
X134338095Y-71628571D01*
X124961904Y-71728571D02*
X124200000Y-71728571D01*
X124580952Y-71347619D02*
X124580952Y-72109523D01*
X122961904Y-71347619D02*
X122961904Y-72347619D01*
X122723809Y-72347619D01*
X122580952Y-72300000D01*
X122485714Y-72204761D01*
X122438095Y-72109523D01*
X122390476Y-71919047D01*
X122390476Y-71776190D01*
X122438095Y-71585714D01*
X122485714Y-71490476D01*
X122580952Y-71395238D01*
X122723809Y-71347619D01*
X122961904Y-71347619D01*
X121200000Y-71728571D02*
X120438095Y-71728571D01*
%TO.C,R4*%
X135072380Y-152312666D02*
X134596190Y-152646000D01*
X135072380Y-152884095D02*
X134072380Y-152884095D01*
X134072380Y-152503142D01*
X134120000Y-152407904D01*
X134167619Y-152360285D01*
X134262857Y-152312666D01*
X134405714Y-152312666D01*
X134500952Y-152360285D01*
X134548571Y-152407904D01*
X134596190Y-152503142D01*
X134596190Y-152884095D01*
X134405714Y-151455523D02*
X135072380Y-151455523D01*
X134024761Y-151693619D02*
X134739047Y-151931714D01*
X134739047Y-151312666D01*
%TO.C,C6*%
X118859333Y-133453142D02*
X118811714Y-133500761D01*
X118668857Y-133548380D01*
X118573619Y-133548380D01*
X118430761Y-133500761D01*
X118335523Y-133405523D01*
X118287904Y-133310285D01*
X118240285Y-133119809D01*
X118240285Y-132976952D01*
X118287904Y-132786476D01*
X118335523Y-132691238D01*
X118430761Y-132596000D01*
X118573619Y-132548380D01*
X118668857Y-132548380D01*
X118811714Y-132596000D01*
X118859333Y-132643619D01*
X119716476Y-132548380D02*
X119526000Y-132548380D01*
X119430761Y-132596000D01*
X119383142Y-132643619D01*
X119287904Y-132786476D01*
X119240285Y-132976952D01*
X119240285Y-133357904D01*
X119287904Y-133453142D01*
X119335523Y-133500761D01*
X119430761Y-133548380D01*
X119621238Y-133548380D01*
X119716476Y-133500761D01*
X119764095Y-133453142D01*
X119811714Y-133357904D01*
X119811714Y-133119809D01*
X119764095Y-133024571D01*
X119716476Y-132976952D01*
X119621238Y-132929333D01*
X119430761Y-132929333D01*
X119335523Y-132976952D01*
X119287904Y-133024571D01*
X119240285Y-133119809D01*
%TO.C,C10*%
X138549142Y-129643142D02*
X138501523Y-129690761D01*
X138358666Y-129738380D01*
X138263428Y-129738380D01*
X138120571Y-129690761D01*
X138025333Y-129595523D01*
X137977714Y-129500285D01*
X137930095Y-129309809D01*
X137930095Y-129166952D01*
X137977714Y-128976476D01*
X138025333Y-128881238D01*
X138120571Y-128786000D01*
X138263428Y-128738380D01*
X138358666Y-128738380D01*
X138501523Y-128786000D01*
X138549142Y-128833619D01*
X139501523Y-129738380D02*
X138930095Y-129738380D01*
X139215809Y-129738380D02*
X139215809Y-128738380D01*
X139120571Y-128881238D01*
X139025333Y-128976476D01*
X138930095Y-129024095D01*
X140120571Y-128738380D02*
X140215809Y-128738380D01*
X140311047Y-128786000D01*
X140358666Y-128833619D01*
X140406285Y-128928857D01*
X140453904Y-129119333D01*
X140453904Y-129357428D01*
X140406285Y-129547904D01*
X140358666Y-129643142D01*
X140311047Y-129690761D01*
X140215809Y-129738380D01*
X140120571Y-129738380D01*
X140025333Y-129690761D01*
X139977714Y-129643142D01*
X139930095Y-129547904D01*
X139882476Y-129357428D01*
X139882476Y-129119333D01*
X139930095Y-128928857D01*
X139977714Y-128833619D01*
X140025333Y-128786000D01*
X140120571Y-128738380D01*
%TO.C,J1*%
X117268666Y-160488380D02*
X117268666Y-161202666D01*
X117221047Y-161345523D01*
X117125809Y-161440761D01*
X116982952Y-161488380D01*
X116887714Y-161488380D01*
X118268666Y-161488380D02*
X117697238Y-161488380D01*
X117982952Y-161488380D02*
X117982952Y-160488380D01*
X117887714Y-160631238D01*
X117792476Y-160726476D01*
X117697238Y-160774095D01*
%TO.C,C13*%
X138699142Y-140721142D02*
X138651523Y-140768761D01*
X138508666Y-140816380D01*
X138413428Y-140816380D01*
X138270571Y-140768761D01*
X138175333Y-140673523D01*
X138127714Y-140578285D01*
X138080095Y-140387809D01*
X138080095Y-140244952D01*
X138127714Y-140054476D01*
X138175333Y-139959238D01*
X138270571Y-139864000D01*
X138413428Y-139816380D01*
X138508666Y-139816380D01*
X138651523Y-139864000D01*
X138699142Y-139911619D01*
X139651523Y-140816380D02*
X139080095Y-140816380D01*
X139365809Y-140816380D02*
X139365809Y-139816380D01*
X139270571Y-139959238D01*
X139175333Y-140054476D01*
X139080095Y-140102095D01*
X139984857Y-139816380D02*
X140603904Y-139816380D01*
X140270571Y-140197333D01*
X140413428Y-140197333D01*
X140508666Y-140244952D01*
X140556285Y-140292571D01*
X140603904Y-140387809D01*
X140603904Y-140625904D01*
X140556285Y-140721142D01*
X140508666Y-140768761D01*
X140413428Y-140816380D01*
X140127714Y-140816380D01*
X140032476Y-140768761D01*
X139984857Y-140721142D01*
%TO.C,C4*%
X116673333Y-66397142D02*
X116625714Y-66444761D01*
X116482857Y-66492380D01*
X116387619Y-66492380D01*
X116244761Y-66444761D01*
X116149523Y-66349523D01*
X116101904Y-66254285D01*
X116054285Y-66063809D01*
X116054285Y-65920952D01*
X116101904Y-65730476D01*
X116149523Y-65635238D01*
X116244761Y-65540000D01*
X116387619Y-65492380D01*
X116482857Y-65492380D01*
X116625714Y-65540000D01*
X116673333Y-65587619D01*
X117530476Y-65825714D02*
X117530476Y-66492380D01*
X117292380Y-65444761D02*
X117054285Y-66159047D01*
X117673333Y-66159047D01*
%TO.C,C7*%
X119213333Y-124817142D02*
X119165714Y-124864761D01*
X119022857Y-124912380D01*
X118927619Y-124912380D01*
X118784761Y-124864761D01*
X118689523Y-124769523D01*
X118641904Y-124674285D01*
X118594285Y-124483809D01*
X118594285Y-124340952D01*
X118641904Y-124150476D01*
X118689523Y-124055238D01*
X118784761Y-123960000D01*
X118927619Y-123912380D01*
X119022857Y-123912380D01*
X119165714Y-123960000D01*
X119213333Y-124007619D01*
X119546666Y-123912380D02*
X120213333Y-123912380D01*
X119784761Y-124912380D01*
%TO.C,R1*%
X124004333Y-158440380D02*
X123671000Y-157964190D01*
X123432904Y-158440380D02*
X123432904Y-157440380D01*
X123813857Y-157440380D01*
X123909095Y-157488000D01*
X123956714Y-157535619D01*
X124004333Y-157630857D01*
X124004333Y-157773714D01*
X123956714Y-157868952D01*
X123909095Y-157916571D01*
X123813857Y-157964190D01*
X123432904Y-157964190D01*
X124956714Y-158440380D02*
X124385285Y-158440380D01*
X124671000Y-158440380D02*
X124671000Y-157440380D01*
X124575761Y-157583238D01*
X124480523Y-157678476D01*
X124385285Y-157726095D01*
%TO.C,C5*%
X141311333Y-86209142D02*
X141263714Y-86256761D01*
X141120857Y-86304380D01*
X141025619Y-86304380D01*
X140882761Y-86256761D01*
X140787523Y-86161523D01*
X140739904Y-86066285D01*
X140692285Y-85875809D01*
X140692285Y-85732952D01*
X140739904Y-85542476D01*
X140787523Y-85447238D01*
X140882761Y-85352000D01*
X141025619Y-85304380D01*
X141120857Y-85304380D01*
X141263714Y-85352000D01*
X141311333Y-85399619D01*
X142216095Y-85304380D02*
X141739904Y-85304380D01*
X141692285Y-85780571D01*
X141739904Y-85732952D01*
X141835142Y-85685333D01*
X142073238Y-85685333D01*
X142168476Y-85732952D01*
X142216095Y-85780571D01*
X142263714Y-85875809D01*
X142263714Y-86113904D01*
X142216095Y-86209142D01*
X142168476Y-86256761D01*
X142073238Y-86304380D01*
X141835142Y-86304380D01*
X141739904Y-86256761D01*
X141692285Y-86209142D01*
%TO.C,R3*%
X136850380Y-152312666D02*
X136374190Y-152646000D01*
X136850380Y-152884095D02*
X135850380Y-152884095D01*
X135850380Y-152503142D01*
X135898000Y-152407904D01*
X135945619Y-152360285D01*
X136040857Y-152312666D01*
X136183714Y-152312666D01*
X136278952Y-152360285D01*
X136326571Y-152407904D01*
X136374190Y-152503142D01*
X136374190Y-152884095D01*
X135850380Y-151979333D02*
X135850380Y-151360285D01*
X136231333Y-151693619D01*
X136231333Y-151550761D01*
X136278952Y-151455523D01*
X136326571Y-151407904D01*
X136421809Y-151360285D01*
X136659904Y-151360285D01*
X136755142Y-151407904D01*
X136802761Y-151455523D01*
X136850380Y-151550761D01*
X136850380Y-151836476D01*
X136802761Y-151931714D01*
X136755142Y-151979333D01*
%TO.C,H1*%
X136652095Y-99766380D02*
X136652095Y-98766380D01*
X136652095Y-99242571D02*
X137223523Y-99242571D01*
X137223523Y-99766380D02*
X137223523Y-98766380D01*
X138223523Y-99766380D02*
X137652095Y-99766380D01*
X137937809Y-99766380D02*
X137937809Y-98766380D01*
X137842571Y-98909238D01*
X137747333Y-99004476D01*
X137652095Y-99052095D01*
%TO.C,J8*%
X131134486Y-73430397D02*
X131134486Y-74144683D01*
X131086867Y-74287540D01*
X130991629Y-74382778D01*
X130848772Y-74430397D01*
X130753534Y-74430397D01*
X131753534Y-73858969D02*
X131658296Y-73811350D01*
X131610677Y-73763731D01*
X131563058Y-73668493D01*
X131563058Y-73620874D01*
X131610677Y-73525636D01*
X131658296Y-73478017D01*
X131753534Y-73430397D01*
X131944010Y-73430397D01*
X132039248Y-73478017D01*
X132086867Y-73525636D01*
X132134486Y-73620874D01*
X132134486Y-73668493D01*
X132086867Y-73763731D01*
X132039248Y-73811350D01*
X131944010Y-73858969D01*
X131753534Y-73858969D01*
X131658296Y-73906588D01*
X131610677Y-73954207D01*
X131563058Y-74049445D01*
X131563058Y-74239921D01*
X131610677Y-74335159D01*
X131658296Y-74382778D01*
X131753534Y-74430397D01*
X131944010Y-74430397D01*
X132039248Y-74382778D01*
X132086867Y-74335159D01*
X132134486Y-74239921D01*
X132134486Y-74049445D01*
X132086867Y-73954207D01*
X132039248Y-73906588D01*
X131944010Y-73858969D01*
%TO.C,R6*%
X138628380Y-152312666D02*
X138152190Y-152646000D01*
X138628380Y-152884095D02*
X137628380Y-152884095D01*
X137628380Y-152503142D01*
X137676000Y-152407904D01*
X137723619Y-152360285D01*
X137818857Y-152312666D01*
X137961714Y-152312666D01*
X138056952Y-152360285D01*
X138104571Y-152407904D01*
X138152190Y-152503142D01*
X138152190Y-152884095D01*
X137628380Y-151455523D02*
X137628380Y-151646000D01*
X137676000Y-151741238D01*
X137723619Y-151788857D01*
X137866476Y-151884095D01*
X138056952Y-151931714D01*
X138437904Y-151931714D01*
X138533142Y-151884095D01*
X138580761Y-151836476D01*
X138628380Y-151741238D01*
X138628380Y-151550761D01*
X138580761Y-151455523D01*
X138533142Y-151407904D01*
X138437904Y-151360285D01*
X138199809Y-151360285D01*
X138104571Y-151407904D01*
X138056952Y-151455523D01*
X138009333Y-151550761D01*
X138009333Y-151741238D01*
X138056952Y-151836476D01*
X138104571Y-151884095D01*
X138199809Y-151931714D01*
%TO.C,C14*%
X118975142Y-111386857D02*
X119022761Y-111434476D01*
X119070380Y-111577333D01*
X119070380Y-111672571D01*
X119022761Y-111815428D01*
X118927523Y-111910666D01*
X118832285Y-111958285D01*
X118641809Y-112005904D01*
X118498952Y-112005904D01*
X118308476Y-111958285D01*
X118213238Y-111910666D01*
X118118000Y-111815428D01*
X118070380Y-111672571D01*
X118070380Y-111577333D01*
X118118000Y-111434476D01*
X118165619Y-111386857D01*
X119070380Y-110434476D02*
X119070380Y-111005904D01*
X119070380Y-110720190D02*
X118070380Y-110720190D01*
X118213238Y-110815428D01*
X118308476Y-110910666D01*
X118356095Y-111005904D01*
X118403714Y-109577333D02*
X119070380Y-109577333D01*
X118022761Y-109815428D02*
X118737047Y-110053523D01*
X118737047Y-109434476D01*
%TO.C,JP1*%
X117222380Y-155437333D02*
X117936666Y-155437333D01*
X118079523Y-155484952D01*
X118174761Y-155580190D01*
X118222380Y-155723047D01*
X118222380Y-155818285D01*
X118222380Y-154961142D02*
X117222380Y-154961142D01*
X117222380Y-154580190D01*
X117270000Y-154484952D01*
X117317619Y-154437333D01*
X117412857Y-154389714D01*
X117555714Y-154389714D01*
X117650952Y-154437333D01*
X117698571Y-154484952D01*
X117746190Y-154580190D01*
X117746190Y-154961142D01*
X118222380Y-153437333D02*
X118222380Y-154008761D01*
X118222380Y-153723047D02*
X117222380Y-153723047D01*
X117365238Y-153818285D01*
X117460476Y-153913523D01*
X117508095Y-154008761D01*
%TO.C,U3*%
X132294380Y-137413904D02*
X133103904Y-137413904D01*
X133199142Y-137366285D01*
X133246761Y-137318666D01*
X133294380Y-137223428D01*
X133294380Y-137032952D01*
X133246761Y-136937714D01*
X133199142Y-136890095D01*
X133103904Y-136842476D01*
X132294380Y-136842476D01*
X132294380Y-136461523D02*
X132294380Y-135842476D01*
X132675333Y-136175809D01*
X132675333Y-136032952D01*
X132722952Y-135937714D01*
X132770571Y-135890095D01*
X132865809Y-135842476D01*
X133103904Y-135842476D01*
X133199142Y-135890095D01*
X133246761Y-135937714D01*
X133294380Y-136032952D01*
X133294380Y-136318666D01*
X133246761Y-136413904D01*
X133199142Y-136461523D01*
%TO.C,U1*%
X127254095Y-144304380D02*
X127254095Y-145113904D01*
X127301714Y-145209142D01*
X127349333Y-145256761D01*
X127444571Y-145304380D01*
X127635047Y-145304380D01*
X127730285Y-145256761D01*
X127777904Y-145209142D01*
X127825523Y-145113904D01*
X127825523Y-144304380D01*
X128825523Y-145304380D02*
X128254095Y-145304380D01*
X128539809Y-145304380D02*
X128539809Y-144304380D01*
X128444571Y-144447238D01*
X128349333Y-144542476D01*
X128254095Y-144590095D01*
%TO.C,R15*%
X130516380Y-127288857D02*
X130040190Y-127622190D01*
X130516380Y-127860285D02*
X129516380Y-127860285D01*
X129516380Y-127479333D01*
X129564000Y-127384095D01*
X129611619Y-127336476D01*
X129706857Y-127288857D01*
X129849714Y-127288857D01*
X129944952Y-127336476D01*
X129992571Y-127384095D01*
X130040190Y-127479333D01*
X130040190Y-127860285D01*
X130516380Y-126336476D02*
X130516380Y-126907904D01*
X130516380Y-126622190D02*
X129516380Y-126622190D01*
X129659238Y-126717428D01*
X129754476Y-126812666D01*
X129802095Y-126907904D01*
X129516380Y-125431714D02*
X129516380Y-125907904D01*
X129992571Y-125955523D01*
X129944952Y-125907904D01*
X129897333Y-125812666D01*
X129897333Y-125574571D01*
X129944952Y-125479333D01*
X129992571Y-125431714D01*
X130087809Y-125384095D01*
X130325904Y-125384095D01*
X130421142Y-125431714D01*
X130468761Y-125479333D01*
X130516380Y-125574571D01*
X130516380Y-125812666D01*
X130468761Y-125907904D01*
X130421142Y-125955523D01*
%TO.C,H5*%
X140342095Y-191667397D02*
X140342095Y-190667397D01*
X140342095Y-191143588D02*
X140913523Y-191143588D01*
X140913523Y-191667397D02*
X140913523Y-190667397D01*
X141865904Y-190667397D02*
X141389714Y-190667397D01*
X141342095Y-191143588D01*
X141389714Y-191095969D01*
X141484952Y-191048350D01*
X141723047Y-191048350D01*
X141818285Y-191095969D01*
X141865904Y-191143588D01*
X141913523Y-191238826D01*
X141913523Y-191476921D01*
X141865904Y-191572159D01*
X141818285Y-191619778D01*
X141723047Y-191667397D01*
X141484952Y-191667397D01*
X141389714Y-191619778D01*
X141342095Y-191572159D01*
%TO.C,C1*%
X120245142Y-151082666D02*
X120292761Y-151130285D01*
X120340380Y-151273142D01*
X120340380Y-151368380D01*
X120292761Y-151511238D01*
X120197523Y-151606476D01*
X120102285Y-151654095D01*
X119911809Y-151701714D01*
X119768952Y-151701714D01*
X119578476Y-151654095D01*
X119483238Y-151606476D01*
X119388000Y-151511238D01*
X119340380Y-151368380D01*
X119340380Y-151273142D01*
X119388000Y-151130285D01*
X119435619Y-151082666D01*
X120340380Y-150130285D02*
X120340380Y-150701714D01*
X120340380Y-150416000D02*
X119340380Y-150416000D01*
X119483238Y-150511238D01*
X119578476Y-150606476D01*
X119626095Y-150701714D01*
%TO.C,R19*%
X138647142Y-123402380D02*
X138313809Y-122926190D01*
X138075714Y-123402380D02*
X138075714Y-122402380D01*
X138456666Y-122402380D01*
X138551904Y-122450000D01*
X138599523Y-122497619D01*
X138647142Y-122592857D01*
X138647142Y-122735714D01*
X138599523Y-122830952D01*
X138551904Y-122878571D01*
X138456666Y-122926190D01*
X138075714Y-122926190D01*
X139599523Y-123402380D02*
X139028095Y-123402380D01*
X139313809Y-123402380D02*
X139313809Y-122402380D01*
X139218571Y-122545238D01*
X139123333Y-122640476D01*
X139028095Y-122688095D01*
X140075714Y-123402380D02*
X140266190Y-123402380D01*
X140361428Y-123354761D01*
X140409047Y-123307142D01*
X140504285Y-123164285D01*
X140551904Y-122973809D01*
X140551904Y-122592857D01*
X140504285Y-122497619D01*
X140456666Y-122450000D01*
X140361428Y-122402380D01*
X140170952Y-122402380D01*
X140075714Y-122450000D01*
X140028095Y-122497619D01*
X139980476Y-122592857D01*
X139980476Y-122830952D01*
X140028095Y-122926190D01*
X140075714Y-122973809D01*
X140170952Y-123021428D01*
X140361428Y-123021428D01*
X140456666Y-122973809D01*
X140504285Y-122926190D01*
X140551904Y-122830952D01*
%TO.C,R13*%
X140914380Y-115958857D02*
X140438190Y-116292190D01*
X140914380Y-116530285D02*
X139914380Y-116530285D01*
X139914380Y-116149333D01*
X139962000Y-116054095D01*
X140009619Y-116006476D01*
X140104857Y-115958857D01*
X140247714Y-115958857D01*
X140342952Y-116006476D01*
X140390571Y-116054095D01*
X140438190Y-116149333D01*
X140438190Y-116530285D01*
X140914380Y-115006476D02*
X140914380Y-115577904D01*
X140914380Y-115292190D02*
X139914380Y-115292190D01*
X140057238Y-115387428D01*
X140152476Y-115482666D01*
X140200095Y-115577904D01*
X139914380Y-114673142D02*
X139914380Y-114054095D01*
X140295333Y-114387428D01*
X140295333Y-114244571D01*
X140342952Y-114149333D01*
X140390571Y-114101714D01*
X140485809Y-114054095D01*
X140723904Y-114054095D01*
X140819142Y-114101714D01*
X140866761Y-114149333D01*
X140914380Y-114244571D01*
X140914380Y-114530285D01*
X140866761Y-114625523D01*
X140819142Y-114673142D01*
%TO.C,C2*%
X140024591Y-93589642D02*
X139976972Y-93637261D01*
X139834115Y-93684880D01*
X139738877Y-93684880D01*
X139596019Y-93637261D01*
X139500781Y-93542023D01*
X139453162Y-93446785D01*
X139405543Y-93256309D01*
X139405543Y-93113452D01*
X139453162Y-92922976D01*
X139500781Y-92827738D01*
X139596019Y-92732500D01*
X139738877Y-92684880D01*
X139834115Y-92684880D01*
X139976972Y-92732500D01*
X140024591Y-92780119D01*
X140405543Y-92780119D02*
X140453162Y-92732500D01*
X140548400Y-92684880D01*
X140786496Y-92684880D01*
X140881734Y-92732500D01*
X140929353Y-92780119D01*
X140976972Y-92875357D01*
X140976972Y-92970595D01*
X140929353Y-93113452D01*
X140357924Y-93684880D01*
X140976972Y-93684880D01*
%TO.C,R18*%
X126103142Y-77160380D02*
X125769809Y-76684190D01*
X125531714Y-77160380D02*
X125531714Y-76160380D01*
X125912666Y-76160380D01*
X126007904Y-76208000D01*
X126055523Y-76255619D01*
X126103142Y-76350857D01*
X126103142Y-76493714D01*
X126055523Y-76588952D01*
X126007904Y-76636571D01*
X125912666Y-76684190D01*
X125531714Y-76684190D01*
X127055523Y-77160380D02*
X126484095Y-77160380D01*
X126769809Y-77160380D02*
X126769809Y-76160380D01*
X126674571Y-76303238D01*
X126579333Y-76398476D01*
X126484095Y-76446095D01*
X127626952Y-76588952D02*
X127531714Y-76541333D01*
X127484095Y-76493714D01*
X127436476Y-76398476D01*
X127436476Y-76350857D01*
X127484095Y-76255619D01*
X127531714Y-76208000D01*
X127626952Y-76160380D01*
X127817428Y-76160380D01*
X127912666Y-76208000D01*
X127960285Y-76255619D01*
X128007904Y-76350857D01*
X128007904Y-76398476D01*
X127960285Y-76493714D01*
X127912666Y-76541333D01*
X127817428Y-76588952D01*
X127626952Y-76588952D01*
X127531714Y-76636571D01*
X127484095Y-76684190D01*
X127436476Y-76779428D01*
X127436476Y-76969904D01*
X127484095Y-77065142D01*
X127531714Y-77112761D01*
X127626952Y-77160380D01*
X127817428Y-77160380D01*
X127912666Y-77112761D01*
X127960285Y-77065142D01*
X128007904Y-76969904D01*
X128007904Y-76779428D01*
X127960285Y-76684190D01*
X127912666Y-76636571D01*
X127817428Y-76588952D01*
%TO.C,R20*%
X129132380Y-126172857D02*
X128656190Y-126506190D01*
X129132380Y-126744285D02*
X128132380Y-126744285D01*
X128132380Y-126363333D01*
X128180000Y-126268095D01*
X128227619Y-126220476D01*
X128322857Y-126172857D01*
X128465714Y-126172857D01*
X128560952Y-126220476D01*
X128608571Y-126268095D01*
X128656190Y-126363333D01*
X128656190Y-126744285D01*
X128227619Y-125791904D02*
X128180000Y-125744285D01*
X128132380Y-125649047D01*
X128132380Y-125410952D01*
X128180000Y-125315714D01*
X128227619Y-125268095D01*
X128322857Y-125220476D01*
X128418095Y-125220476D01*
X128560952Y-125268095D01*
X129132380Y-125839523D01*
X129132380Y-125220476D01*
X128132380Y-124601428D02*
X128132380Y-124506190D01*
X128180000Y-124410952D01*
X128227619Y-124363333D01*
X128322857Y-124315714D01*
X128513333Y-124268095D01*
X128751428Y-124268095D01*
X128941904Y-124315714D01*
X129037142Y-124363333D01*
X129084761Y-124410952D01*
X129132380Y-124506190D01*
X129132380Y-124601428D01*
X129084761Y-124696666D01*
X129037142Y-124744285D01*
X128941904Y-124791904D01*
X128751428Y-124839523D01*
X128513333Y-124839523D01*
X128322857Y-124791904D01*
X128227619Y-124744285D01*
X128180000Y-124696666D01*
X128132380Y-124601428D01*
%TO.C,U4*%
X128938095Y-79102380D02*
X128938095Y-79911904D01*
X128985714Y-80007142D01*
X129033333Y-80054761D01*
X129128571Y-80102380D01*
X129319047Y-80102380D01*
X129414285Y-80054761D01*
X129461904Y-80007142D01*
X129509523Y-79911904D01*
X129509523Y-79102380D01*
X130414285Y-79435714D02*
X130414285Y-80102380D01*
X130176190Y-79054761D02*
X129938095Y-79769047D01*
X130557142Y-79769047D01*
%TO.C,R7*%
X121753333Y-135326380D02*
X121420000Y-134850190D01*
X121181904Y-135326380D02*
X121181904Y-134326380D01*
X121562857Y-134326380D01*
X121658095Y-134374000D01*
X121705714Y-134421619D01*
X121753333Y-134516857D01*
X121753333Y-134659714D01*
X121705714Y-134754952D01*
X121658095Y-134802571D01*
X121562857Y-134850190D01*
X121181904Y-134850190D01*
X122086666Y-134326380D02*
X122753333Y-134326380D01*
X122324761Y-135326380D01*
%TO.C,C9*%
X138517333Y-127865142D02*
X138469714Y-127912761D01*
X138326857Y-127960380D01*
X138231619Y-127960380D01*
X138088761Y-127912761D01*
X137993523Y-127817523D01*
X137945904Y-127722285D01*
X137898285Y-127531809D01*
X137898285Y-127388952D01*
X137945904Y-127198476D01*
X137993523Y-127103238D01*
X138088761Y-127008000D01*
X138231619Y-126960380D01*
X138326857Y-126960380D01*
X138469714Y-127008000D01*
X138517333Y-127055619D01*
X138993523Y-127960380D02*
X139184000Y-127960380D01*
X139279238Y-127912761D01*
X139326857Y-127865142D01*
X139422095Y-127722285D01*
X139469714Y-127531809D01*
X139469714Y-127150857D01*
X139422095Y-127055619D01*
X139374476Y-127008000D01*
X139279238Y-126960380D01*
X139088761Y-126960380D01*
X138993523Y-127008000D01*
X138945904Y-127055619D01*
X138898285Y-127150857D01*
X138898285Y-127388952D01*
X138945904Y-127484190D01*
X138993523Y-127531809D01*
X139088761Y-127579428D01*
X139279238Y-127579428D01*
X139374476Y-127531809D01*
X139422095Y-127484190D01*
X139469714Y-127388952D01*
%TO.C,C11*%
X138699142Y-138943142D02*
X138651523Y-138990761D01*
X138508666Y-139038380D01*
X138413428Y-139038380D01*
X138270571Y-138990761D01*
X138175333Y-138895523D01*
X138127714Y-138800285D01*
X138080095Y-138609809D01*
X138080095Y-138466952D01*
X138127714Y-138276476D01*
X138175333Y-138181238D01*
X138270571Y-138086000D01*
X138413428Y-138038380D01*
X138508666Y-138038380D01*
X138651523Y-138086000D01*
X138699142Y-138133619D01*
X139651523Y-139038380D02*
X139080095Y-139038380D01*
X139365809Y-139038380D02*
X139365809Y-138038380D01*
X139270571Y-138181238D01*
X139175333Y-138276476D01*
X139080095Y-138324095D01*
X140603904Y-139038380D02*
X140032476Y-139038380D01*
X140318190Y-139038380D02*
X140318190Y-138038380D01*
X140222952Y-138181238D01*
X140127714Y-138276476D01*
X140032476Y-138324095D01*
%TO.C,J9*%
X127682666Y-73430397D02*
X127682666Y-74144683D01*
X127635047Y-74287540D01*
X127539809Y-74382778D01*
X127396952Y-74430397D01*
X127301714Y-74430397D01*
X128206476Y-74430397D02*
X128396952Y-74430397D01*
X128492190Y-74382778D01*
X128539809Y-74335159D01*
X128635047Y-74192302D01*
X128682666Y-74001826D01*
X128682666Y-73620874D01*
X128635047Y-73525636D01*
X128587428Y-73478017D01*
X128492190Y-73430397D01*
X128301714Y-73430397D01*
X128206476Y-73478017D01*
X128158857Y-73525636D01*
X128111238Y-73620874D01*
X128111238Y-73858969D01*
X128158857Y-73954207D01*
X128206476Y-74001826D01*
X128301714Y-74049445D01*
X128492190Y-74049445D01*
X128587428Y-74001826D01*
X128635047Y-73954207D01*
X128682666Y-73858969D01*
%TO.C,C3*%
X122531142Y-151296666D02*
X122578761Y-151344285D01*
X122626380Y-151487142D01*
X122626380Y-151582380D01*
X122578761Y-151725238D01*
X122483523Y-151820476D01*
X122388285Y-151868095D01*
X122197809Y-151915714D01*
X122054952Y-151915714D01*
X121864476Y-151868095D01*
X121769238Y-151820476D01*
X121674000Y-151725238D01*
X121626380Y-151582380D01*
X121626380Y-151487142D01*
X121674000Y-151344285D01*
X121721619Y-151296666D01*
X121626380Y-150963333D02*
X121626380Y-150344285D01*
X122007333Y-150677619D01*
X122007333Y-150534761D01*
X122054952Y-150439523D01*
X122102571Y-150391904D01*
X122197809Y-150344285D01*
X122435904Y-150344285D01*
X122531142Y-150391904D01*
X122578761Y-150439523D01*
X122626380Y-150534761D01*
X122626380Y-150820476D01*
X122578761Y-150915714D01*
X122531142Y-150963333D01*
%TO.C,C8*%
X125055333Y-139549142D02*
X125007714Y-139596761D01*
X124864857Y-139644380D01*
X124769619Y-139644380D01*
X124626761Y-139596761D01*
X124531523Y-139501523D01*
X124483904Y-139406285D01*
X124436285Y-139215809D01*
X124436285Y-139072952D01*
X124483904Y-138882476D01*
X124531523Y-138787238D01*
X124626761Y-138692000D01*
X124769619Y-138644380D01*
X124864857Y-138644380D01*
X125007714Y-138692000D01*
X125055333Y-138739619D01*
X125626761Y-139072952D02*
X125531523Y-139025333D01*
X125483904Y-138977714D01*
X125436285Y-138882476D01*
X125436285Y-138834857D01*
X125483904Y-138739619D01*
X125531523Y-138692000D01*
X125626761Y-138644380D01*
X125817238Y-138644380D01*
X125912476Y-138692000D01*
X125960095Y-138739619D01*
X126007714Y-138834857D01*
X126007714Y-138882476D01*
X125960095Y-138977714D01*
X125912476Y-139025333D01*
X125817238Y-139072952D01*
X125626761Y-139072952D01*
X125531523Y-139120571D01*
X125483904Y-139168190D01*
X125436285Y-139263428D01*
X125436285Y-139453904D01*
X125483904Y-139549142D01*
X125531523Y-139596761D01*
X125626761Y-139644380D01*
X125817238Y-139644380D01*
X125912476Y-139596761D01*
X125960095Y-139549142D01*
X126007714Y-139453904D01*
X126007714Y-139263428D01*
X125960095Y-139168190D01*
X125912476Y-139120571D01*
X125817238Y-139072952D01*
%TO.C,R8*%
X121753333Y-138374380D02*
X121420000Y-137898190D01*
X121181904Y-138374380D02*
X121181904Y-137374380D01*
X121562857Y-137374380D01*
X121658095Y-137422000D01*
X121705714Y-137469619D01*
X121753333Y-137564857D01*
X121753333Y-137707714D01*
X121705714Y-137802952D01*
X121658095Y-137850571D01*
X121562857Y-137898190D01*
X121181904Y-137898190D01*
X122324761Y-137802952D02*
X122229523Y-137755333D01*
X122181904Y-137707714D01*
X122134285Y-137612476D01*
X122134285Y-137564857D01*
X122181904Y-137469619D01*
X122229523Y-137422000D01*
X122324761Y-137374380D01*
X122515238Y-137374380D01*
X122610476Y-137422000D01*
X122658095Y-137469619D01*
X122705714Y-137564857D01*
X122705714Y-137612476D01*
X122658095Y-137707714D01*
X122610476Y-137755333D01*
X122515238Y-137802952D01*
X122324761Y-137802952D01*
X122229523Y-137850571D01*
X122181904Y-137898190D01*
X122134285Y-137993428D01*
X122134285Y-138183904D01*
X122181904Y-138279142D01*
X122229523Y-138326761D01*
X122324761Y-138374380D01*
X122515238Y-138374380D01*
X122610476Y-138326761D01*
X122658095Y-138279142D01*
X122705714Y-138183904D01*
X122705714Y-137993428D01*
X122658095Y-137898190D01*
X122610476Y-137850571D01*
X122515238Y-137802952D01*
%TO.C,L1*%
X136596380Y-140628666D02*
X136596380Y-141104857D01*
X135596380Y-141104857D01*
X136596380Y-139771523D02*
X136596380Y-140342952D01*
X136596380Y-140057238D02*
X135596380Y-140057238D01*
X135739238Y-140152476D01*
X135834476Y-140247714D01*
X135882095Y-140342952D01*
%TO.C,C12*%
X138699142Y-137165142D02*
X138651523Y-137212761D01*
X138508666Y-137260380D01*
X138413428Y-137260380D01*
X138270571Y-137212761D01*
X138175333Y-137117523D01*
X138127714Y-137022285D01*
X138080095Y-136831809D01*
X138080095Y-136688952D01*
X138127714Y-136498476D01*
X138175333Y-136403238D01*
X138270571Y-136308000D01*
X138413428Y-136260380D01*
X138508666Y-136260380D01*
X138651523Y-136308000D01*
X138699142Y-136355619D01*
X139651523Y-137260380D02*
X139080095Y-137260380D01*
X139365809Y-137260380D02*
X139365809Y-136260380D01*
X139270571Y-136403238D01*
X139175333Y-136498476D01*
X139080095Y-136546095D01*
X140032476Y-136355619D02*
X140080095Y-136308000D01*
X140175333Y-136260380D01*
X140413428Y-136260380D01*
X140508666Y-136308000D01*
X140556285Y-136355619D01*
X140603904Y-136450857D01*
X140603904Y-136546095D01*
X140556285Y-136688952D01*
X139984857Y-137260380D01*
X140603904Y-137260380D01*
%TO.C,U2*%
X139990380Y-162341904D02*
X140799904Y-162341904D01*
X140895142Y-162294285D01*
X140942761Y-162246666D01*
X140990380Y-162151428D01*
X140990380Y-161960952D01*
X140942761Y-161865714D01*
X140895142Y-161818095D01*
X140799904Y-161770476D01*
X139990380Y-161770476D01*
X140085619Y-161341904D02*
X140038000Y-161294285D01*
X139990380Y-161199047D01*
X139990380Y-160960952D01*
X140038000Y-160865714D01*
X140085619Y-160818095D01*
X140180857Y-160770476D01*
X140276095Y-160770476D01*
X140418952Y-160818095D01*
X140990380Y-161389523D01*
X140990380Y-160770476D01*
%TO.C,R11*%
X143454380Y-115958857D02*
X142978190Y-116292190D01*
X143454380Y-116530285D02*
X142454380Y-116530285D01*
X142454380Y-116149333D01*
X142502000Y-116054095D01*
X142549619Y-116006476D01*
X142644857Y-115958857D01*
X142787714Y-115958857D01*
X142882952Y-116006476D01*
X142930571Y-116054095D01*
X142978190Y-116149333D01*
X142978190Y-116530285D01*
X143454380Y-115006476D02*
X143454380Y-115577904D01*
X143454380Y-115292190D02*
X142454380Y-115292190D01*
X142597238Y-115387428D01*
X142692476Y-115482666D01*
X142740095Y-115577904D01*
X143454380Y-114054095D02*
X143454380Y-114625523D01*
X143454380Y-114339809D02*
X142454380Y-114339809D01*
X142597238Y-114435047D01*
X142692476Y-114530285D01*
X142740095Y-114625523D01*
%TO.C,R16*%
X132614380Y-127288857D02*
X132138190Y-127622190D01*
X132614380Y-127860285D02*
X131614380Y-127860285D01*
X131614380Y-127479333D01*
X131662000Y-127384095D01*
X131709619Y-127336476D01*
X131804857Y-127288857D01*
X131947714Y-127288857D01*
X132042952Y-127336476D01*
X132090571Y-127384095D01*
X132138190Y-127479333D01*
X132138190Y-127860285D01*
X132614380Y-126336476D02*
X132614380Y-126907904D01*
X132614380Y-126622190D02*
X131614380Y-126622190D01*
X131757238Y-126717428D01*
X131852476Y-126812666D01*
X131900095Y-126907904D01*
X131614380Y-125479333D02*
X131614380Y-125669809D01*
X131662000Y-125765047D01*
X131709619Y-125812666D01*
X131852476Y-125907904D01*
X132042952Y-125955523D01*
X132423904Y-125955523D01*
X132519142Y-125907904D01*
X132566761Y-125860285D01*
X132614380Y-125765047D01*
X132614380Y-125574571D01*
X132566761Y-125479333D01*
X132519142Y-125431714D01*
X132423904Y-125384095D01*
X132185809Y-125384095D01*
X132090571Y-125431714D01*
X132042952Y-125479333D01*
X131995333Y-125574571D01*
X131995333Y-125765047D01*
X132042952Y-125860285D01*
X132090571Y-125907904D01*
X132185809Y-125955523D01*
%TO.C,Y1*%
X119100190Y-129154190D02*
X119576380Y-129154190D01*
X118576380Y-129487523D02*
X119100190Y-129154190D01*
X118576380Y-128820857D01*
X119576380Y-127963714D02*
X119576380Y-128535142D01*
X119576380Y-128249428D02*
X118576380Y-128249428D01*
X118719238Y-128344666D01*
X118814476Y-128439904D01*
X118862095Y-128535142D01*
%TO.C,H6*%
X118244095Y-191667397D02*
X118244095Y-190667397D01*
X118244095Y-191143588D02*
X118815523Y-191143588D01*
X118815523Y-191667397D02*
X118815523Y-190667397D01*
X119720285Y-190667397D02*
X119529809Y-190667397D01*
X119434571Y-190715017D01*
X119386952Y-190762636D01*
X119291714Y-190905493D01*
X119244095Y-191095969D01*
X119244095Y-191476921D01*
X119291714Y-191572159D01*
X119339333Y-191619778D01*
X119434571Y-191667397D01*
X119625047Y-191667397D01*
X119720285Y-191619778D01*
X119767904Y-191572159D01*
X119815523Y-191476921D01*
X119815523Y-191238826D01*
X119767904Y-191143588D01*
X119720285Y-191095969D01*
X119625047Y-191048350D01*
X119434571Y-191048350D01*
X119339333Y-191095969D01*
X119291714Y-191143588D01*
X119244095Y-191238826D01*
%TO.C,R14*%
X128468380Y-118752857D02*
X127992190Y-119086190D01*
X128468380Y-119324285D02*
X127468380Y-119324285D01*
X127468380Y-118943333D01*
X127516000Y-118848095D01*
X127563619Y-118800476D01*
X127658857Y-118752857D01*
X127801714Y-118752857D01*
X127896952Y-118800476D01*
X127944571Y-118848095D01*
X127992190Y-118943333D01*
X127992190Y-119324285D01*
X128468380Y-117800476D02*
X128468380Y-118371904D01*
X128468380Y-118086190D02*
X127468380Y-118086190D01*
X127611238Y-118181428D01*
X127706476Y-118276666D01*
X127754095Y-118371904D01*
X127801714Y-116943333D02*
X128468380Y-116943333D01*
X127420761Y-117181428D02*
X128135047Y-117419523D01*
X128135047Y-116800476D01*
%TO.C,H4*%
X136842095Y-19031397D02*
X136842095Y-18031397D01*
X136842095Y-18507588D02*
X137413523Y-18507588D01*
X137413523Y-19031397D02*
X137413523Y-18031397D01*
X138318285Y-18364731D02*
X138318285Y-19031397D01*
X138080190Y-17983778D02*
X137842095Y-18698064D01*
X138461142Y-18698064D01*
%TO.C,R9*%
X121753333Y-136850380D02*
X121420000Y-136374190D01*
X121181904Y-136850380D02*
X121181904Y-135850380D01*
X121562857Y-135850380D01*
X121658095Y-135898000D01*
X121705714Y-135945619D01*
X121753333Y-136040857D01*
X121753333Y-136183714D01*
X121705714Y-136278952D01*
X121658095Y-136326571D01*
X121562857Y-136374190D01*
X121181904Y-136374190D01*
X122229523Y-136850380D02*
X122420000Y-136850380D01*
X122515238Y-136802761D01*
X122562857Y-136755142D01*
X122658095Y-136612285D01*
X122705714Y-136421809D01*
X122705714Y-136040857D01*
X122658095Y-135945619D01*
X122610476Y-135898000D01*
X122515238Y-135850380D01*
X122324761Y-135850380D01*
X122229523Y-135898000D01*
X122181904Y-135945619D01*
X122134285Y-136040857D01*
X122134285Y-136278952D01*
X122181904Y-136374190D01*
X122229523Y-136421809D01*
X122324761Y-136469428D01*
X122515238Y-136469428D01*
X122610476Y-136421809D01*
X122658095Y-136374190D01*
X122705714Y-136278952D01*
%TO.C,R5*%
X127806380Y-131738666D02*
X127330190Y-132072000D01*
X127806380Y-132310095D02*
X126806380Y-132310095D01*
X126806380Y-131929142D01*
X126854000Y-131833904D01*
X126901619Y-131786285D01*
X126996857Y-131738666D01*
X127139714Y-131738666D01*
X127234952Y-131786285D01*
X127282571Y-131833904D01*
X127330190Y-131929142D01*
X127330190Y-132310095D01*
X126806380Y-130833904D02*
X126806380Y-131310095D01*
X127282571Y-131357714D01*
X127234952Y-131310095D01*
X127187333Y-131214857D01*
X127187333Y-130976761D01*
X127234952Y-130881523D01*
X127282571Y-130833904D01*
X127377809Y-130786285D01*
X127615904Y-130786285D01*
X127711142Y-130833904D01*
X127758761Y-130881523D01*
X127806380Y-130976761D01*
X127806380Y-131214857D01*
X127758761Y-131310095D01*
X127711142Y-131357714D01*
%TO.C,R12*%
X142184380Y-115958857D02*
X141708190Y-116292190D01*
X142184380Y-116530285D02*
X141184380Y-116530285D01*
X141184380Y-116149333D01*
X141232000Y-116054095D01*
X141279619Y-116006476D01*
X141374857Y-115958857D01*
X141517714Y-115958857D01*
X141612952Y-116006476D01*
X141660571Y-116054095D01*
X141708190Y-116149333D01*
X141708190Y-116530285D01*
X142184380Y-115006476D02*
X142184380Y-115577904D01*
X142184380Y-115292190D02*
X141184380Y-115292190D01*
X141327238Y-115387428D01*
X141422476Y-115482666D01*
X141470095Y-115577904D01*
X141279619Y-114625523D02*
X141232000Y-114577904D01*
X141184380Y-114482666D01*
X141184380Y-114244571D01*
X141232000Y-114149333D01*
X141279619Y-114101714D01*
X141374857Y-114054095D01*
X141470095Y-114054095D01*
X141612952Y-114101714D01*
X142184380Y-114673142D01*
X142184380Y-114054095D01*
%TO.C,H3*%
X121744094Y-18831397D02*
X121744094Y-17831397D01*
X121744094Y-18307588D02*
X122315522Y-18307588D01*
X122315522Y-18831397D02*
X122315522Y-17831397D01*
X122696475Y-17831397D02*
X123315522Y-17831397D01*
X122982189Y-18212350D01*
X123125046Y-18212350D01*
X123220284Y-18259969D01*
X123267903Y-18307588D01*
X123315522Y-18402826D01*
X123315522Y-18640921D01*
X123267903Y-18736159D01*
X123220284Y-18783778D01*
X123125046Y-18831397D01*
X122839332Y-18831397D01*
X122744094Y-18783778D01*
X122696475Y-18736159D01*
%TO.C,H2*%
X122174095Y-100020380D02*
X122174095Y-99020380D01*
X122174095Y-99496571D02*
X122745523Y-99496571D01*
X122745523Y-100020380D02*
X122745523Y-99020380D01*
X123174095Y-99115619D02*
X123221714Y-99068000D01*
X123316952Y-99020380D01*
X123555047Y-99020380D01*
X123650285Y-99068000D01*
X123697904Y-99115619D01*
X123745523Y-99210857D01*
X123745523Y-99306095D01*
X123697904Y-99448952D01*
X123126476Y-100020380D01*
X123745523Y-100020380D01*
%TO.C,R2*%
X140295333Y-91224380D02*
X139962000Y-90748190D01*
X139723904Y-91224380D02*
X139723904Y-90224380D01*
X140104857Y-90224380D01*
X140200095Y-90272000D01*
X140247714Y-90319619D01*
X140295333Y-90414857D01*
X140295333Y-90557714D01*
X140247714Y-90652952D01*
X140200095Y-90700571D01*
X140104857Y-90748190D01*
X139723904Y-90748190D01*
X140676285Y-90319619D02*
X140723904Y-90272000D01*
X140819142Y-90224380D01*
X141057238Y-90224380D01*
X141152476Y-90272000D01*
X141200095Y-90319619D01*
X141247714Y-90414857D01*
X141247714Y-90510095D01*
X141200095Y-90652952D01*
X140628666Y-91224380D01*
X141247714Y-91224380D01*
%TO.C,R17*%
X133469142Y-77414380D02*
X133135809Y-76938190D01*
X132897714Y-77414380D02*
X132897714Y-76414380D01*
X133278666Y-76414380D01*
X133373904Y-76462000D01*
X133421523Y-76509619D01*
X133469142Y-76604857D01*
X133469142Y-76747714D01*
X133421523Y-76842952D01*
X133373904Y-76890571D01*
X133278666Y-76938190D01*
X132897714Y-76938190D01*
X134421523Y-77414380D02*
X133850095Y-77414380D01*
X134135809Y-77414380D02*
X134135809Y-76414380D01*
X134040571Y-76557238D01*
X133945333Y-76652476D01*
X133850095Y-76700095D01*
X134754857Y-76414380D02*
X135421523Y-76414380D01*
X134992952Y-77414380D01*
%TO.C,R10*%
X138295142Y-131516380D02*
X137961809Y-131040190D01*
X137723714Y-131516380D02*
X137723714Y-130516380D01*
X138104666Y-130516380D01*
X138199904Y-130564000D01*
X138247523Y-130611619D01*
X138295142Y-130706857D01*
X138295142Y-130849714D01*
X138247523Y-130944952D01*
X138199904Y-130992571D01*
X138104666Y-131040190D01*
X137723714Y-131040190D01*
X139247523Y-131516380D02*
X138676095Y-131516380D01*
X138961809Y-131516380D02*
X138961809Y-130516380D01*
X138866571Y-130659238D01*
X138771333Y-130754476D01*
X138676095Y-130802095D01*
X139866571Y-130516380D02*
X139961809Y-130516380D01*
X140057047Y-130564000D01*
X140104666Y-130611619D01*
X140152285Y-130706857D01*
X140199904Y-130897333D01*
X140199904Y-131135428D01*
X140152285Y-131325904D01*
X140104666Y-131421142D01*
X140057047Y-131468761D01*
X139961809Y-131516380D01*
X139866571Y-131516380D01*
X139771333Y-131468761D01*
X139723714Y-131421142D01*
X139676095Y-131325904D01*
X139628476Y-131135428D01*
X139628476Y-130897333D01*
X139676095Y-130706857D01*
X139723714Y-130611619D01*
X139771333Y-130564000D01*
X139866571Y-130516380D01*
D11*
%TO.C,R4*%
X135142500Y-154923258D02*
X135142500Y-154448742D01*
X134097500Y-154923258D02*
X134097500Y-154448742D01*
%TO.C,C6*%
X122335252Y-133831000D02*
X121812748Y-133831000D01*
X122335252Y-132361000D02*
X121812748Y-132361000D01*
%TO.C,C10*%
X136257420Y-129796000D02*
X136538580Y-129796000D01*
X136257420Y-128776000D02*
X136538580Y-128776000D01*
%TO.C,J1*%
X116297000Y-176869000D02*
X118957000Y-176869000D01*
X117627000Y-161509000D02*
X118957000Y-161509000D01*
X116297000Y-164109000D02*
X118957000Y-164109000D01*
X116297000Y-164109000D02*
X116297000Y-176869000D01*
X118957000Y-161509000D02*
X118957000Y-162839000D01*
X118957000Y-164109000D02*
X118957000Y-176869000D01*
%TO.C,C13*%
X139201420Y-135540000D02*
X139482580Y-135540000D01*
X139201420Y-134520000D02*
X139482580Y-134520000D01*
%TO.C,C4*%
X116105000Y-68907252D02*
X116105000Y-68384748D01*
X117575000Y-68907252D02*
X117575000Y-68384748D01*
%TO.C,C7*%
X121912748Y-125195000D02*
X122435252Y-125195000D01*
X121912748Y-123725000D02*
X122435252Y-123725000D01*
%TO.C,R1*%
X121873742Y-158510500D02*
X122348258Y-158510500D01*
X121873742Y-157465500D02*
X122348258Y-157465500D01*
%TO.C,C5*%
X140743000Y-82796748D02*
X140743000Y-83319252D01*
X142213000Y-82796748D02*
X142213000Y-83319252D01*
%TO.C,R3*%
X135875500Y-154923258D02*
X135875500Y-154448742D01*
X136920500Y-154923258D02*
X136920500Y-154448742D01*
%TO.C,J8*%
X135507820Y-75308017D02*
X135507820Y-72648017D01*
X132907820Y-72648017D02*
X134237820Y-72648017D01*
X132907820Y-73978017D02*
X132907820Y-72648017D01*
X135507820Y-75308017D02*
X140647820Y-75308017D01*
X135507820Y-72648017D02*
X140647820Y-72648017D01*
X140647820Y-75308017D02*
X140647820Y-72648017D01*
%TO.C,R6*%
X138698500Y-154923258D02*
X138698500Y-154448742D01*
X137653500Y-154923258D02*
X137653500Y-154448742D01*
%TO.C,C14*%
X123163000Y-110751252D02*
X123163000Y-110228748D01*
X121693000Y-110751252D02*
X121693000Y-110228748D01*
%TO.C,JP1*%
X116402000Y-157296000D02*
X116102000Y-157596000D01*
X116402000Y-157296000D02*
X116102000Y-156996000D01*
X116102000Y-156996000D02*
X116102000Y-157596000D01*
X117902000Y-160546000D02*
X117302000Y-160546000D01*
X118602000Y-157096000D02*
X118602000Y-159896000D01*
X116602000Y-159896000D02*
X116602000Y-157096000D01*
X117302000Y-156446000D02*
X117902000Y-156446000D01*
X117302000Y-156446000D02*
G75*
G03*
X116602000Y-157146000I-1J-699999D01*
G01*
X116602000Y-159846000D02*
G75*
G03*
X117302000Y-160546000I700000J0D01*
G01*
X117902000Y-160546000D02*
G75*
G03*
X118602000Y-159846000I0J700000D01*
G01*
X118602000Y-157146000D02*
G75*
G03*
X117902000Y-156446000I-699999J1D01*
G01*
%TO.C,U3*%
X128954000Y-131207000D02*
X128954000Y-130732000D01*
X133174000Y-131207000D02*
X133174000Y-130732000D01*
X128954000Y-134952000D02*
X129429000Y-134952000D01*
X128954000Y-130732000D02*
X129429000Y-130732000D01*
X133174000Y-134477000D02*
X133174000Y-134952000D01*
X128954000Y-134477000D02*
X128954000Y-134952000D01*
X133174000Y-134952000D02*
X132699000Y-134952000D01*
%TO.C,U1*%
X123916000Y-145942000D02*
X129926000Y-145942000D01*
X129926000Y-152762000D02*
X129926000Y-151502000D01*
X126166000Y-152762000D02*
X129926000Y-152762000D01*
X129926000Y-145942000D02*
X129926000Y-147202000D01*
%TO.C,R15*%
X133126500Y-126883258D02*
X133126500Y-126408742D01*
X132081500Y-126883258D02*
X132081500Y-126408742D01*
%TO.C,C1*%
X119153000Y-148383252D02*
X119153000Y-147860748D01*
X120623000Y-148383252D02*
X120623000Y-147860748D01*
%TO.C,R19*%
X139052742Y-124902500D02*
X139527258Y-124902500D01*
X139052742Y-123857500D02*
X139527258Y-123857500D01*
%TO.C,R13*%
X132348500Y-115299258D02*
X132348500Y-114824742D01*
X131303500Y-115299258D02*
X131303500Y-114824742D01*
%TO.C,C2*%
X140200748Y-93753000D02*
X140723252Y-93753000D01*
X140200748Y-95223000D02*
X140723252Y-95223000D01*
%TO.C,R18*%
X123206742Y-76185500D02*
X123681258Y-76185500D01*
X123206742Y-77230500D02*
X123681258Y-77230500D01*
%TO.C,R20*%
X127772500Y-125292742D02*
X127772500Y-125767258D01*
X126727500Y-125292742D02*
X126727500Y-125767258D01*
%TO.C,U4*%
X129700000Y-80490000D02*
X131900000Y-80490000D01*
X129700000Y-80490000D02*
X126100000Y-80490000D01*
X129700000Y-85710000D02*
X131900000Y-85710000D01*
X129700000Y-85710000D02*
X127500000Y-85710000D01*
%TO.C,R7*%
X125713258Y-134126500D02*
X125238742Y-134126500D01*
X125713258Y-133081500D02*
X125238742Y-133081500D01*
%TO.C,C9*%
X136257420Y-126998000D02*
X136538580Y-126998000D01*
X136257420Y-128018000D02*
X136538580Y-128018000D01*
%TO.C,C11*%
X139201420Y-133762000D02*
X139482580Y-133762000D01*
X139201420Y-132742000D02*
X139482580Y-132742000D01*
%TO.C,J9*%
X121412000Y-75308017D02*
X126552000Y-75308017D01*
X118812000Y-73978017D02*
X118812000Y-72648017D01*
X121412000Y-72648017D02*
X126552000Y-72648017D01*
X118812000Y-72648017D02*
X120142000Y-72648017D01*
X126552000Y-75308017D02*
X126552000Y-72648017D01*
X121412000Y-75308017D02*
X121412000Y-72648017D01*
%TO.C,C3*%
X122899000Y-148383252D02*
X122899000Y-147860748D01*
X121429000Y-148383252D02*
X121429000Y-147860748D01*
%TO.C,C8*%
X127621420Y-138682000D02*
X127902580Y-138682000D01*
X127621420Y-139702000D02*
X127902580Y-139702000D01*
%TO.C,R8*%
X125238742Y-137682500D02*
X125713258Y-137682500D01*
X125238742Y-136637500D02*
X125713258Y-136637500D01*
%TO.C,L1*%
X135584000Y-138067622D02*
X135584000Y-137268378D01*
X136704000Y-138067622D02*
X136704000Y-137268378D01*
%TO.C,C12*%
X139201420Y-130964000D02*
X139482580Y-130964000D01*
X139201420Y-131984000D02*
X139482580Y-131984000D01*
%TO.C,U2*%
X120808000Y-185875000D02*
X120808000Y-179455000D01*
X120808000Y-160130000D02*
X121808000Y-160130000D01*
X139048000Y-185875000D02*
X139048000Y-179455000D01*
X139048000Y-179455000D02*
X139428000Y-179455000D01*
X139048000Y-160130000D02*
X138048000Y-160130000D01*
X139048000Y-185875000D02*
X120808000Y-185875000D01*
X120808000Y-160910000D02*
X120808000Y-160130000D01*
X139048000Y-160910000D02*
X139048000Y-160130000D01*
%TO.C,R11*%
X135904500Y-115299258D02*
X135904500Y-114824742D01*
X134859500Y-115299258D02*
X134859500Y-114824742D01*
%TO.C,R16*%
X130115500Y-126883258D02*
X130115500Y-126408742D01*
X131160500Y-126883258D02*
X131160500Y-126408742D01*
%TO.C,Y1*%
X119924000Y-130678000D02*
X123224000Y-130678000D01*
X123224000Y-130678000D02*
X123224000Y-126678000D01*
%TO.C,R14*%
X127493500Y-115299258D02*
X127493500Y-114824742D01*
X128538500Y-115299258D02*
X128538500Y-114824742D01*
%TO.C,R9*%
X125238742Y-134859500D02*
X125713258Y-134859500D01*
X125238742Y-135904500D02*
X125713258Y-135904500D01*
%TO.C,R5*%
X126311000Y-130548748D02*
X126311000Y-131071252D01*
X124841000Y-130548748D02*
X124841000Y-131071252D01*
%TO.C,R12*%
X134126500Y-115299258D02*
X134126500Y-114824742D01*
X133081500Y-115299258D02*
X133081500Y-114824742D01*
%TO.C,R2*%
X140224742Y-92724500D02*
X140699258Y-92724500D01*
X140224742Y-91679500D02*
X140699258Y-91679500D01*
%TO.C,R17*%
X136922742Y-76439500D02*
X137397258Y-76439500D01*
X136922742Y-77484500D02*
X137397258Y-77484500D01*
%TO.C,R10*%
X135652742Y-130541500D02*
X136127258Y-130541500D01*
X135652742Y-131586500D02*
X136127258Y-131586500D01*
%TD*%
M02*
